<svg xmlns="http://www.w3.org/2000/svg" xmlns:xlink="http://www.w3.org/1999/xlink" zoomAndPan="magnify" preserveAspectRatio="xMidYMid meet" version="1.0" viewBox="7.5 49.36 285 201.28"><defs><g><g id="id1"></g></g><clipPath id="id2"><path d="M 7.5 49.359375 L 105 49.359375 L 105 250.640625 L 7.5 250.640625 Z M 7.5 49.359375 " clip-rule="nonzero"></path></clipPath><clipPath id="id3"><path d="M 194 49.359375 L 292.5 49.359375 L 292.5 250.640625 L 194 250.640625 Z M 194 49.359375 " clip-rule="nonzero"></path></clipPath></defs><g fill="rgb(7.449341%, 53.329468%, 3.138733%)" fill-opacity="0.4"><g transform="translate(121.415833, 151.560788)"><g><path d="M 79.125 -12.46875 C 79.46875 -12.300781 79.585938 -12.023438 79.484375 -11.640625 C 79.378906 -11.265625 79.1875 -10.867188 78.90625 -10.453125 C 78.625 -10.035156 78.363281 -9.6875 78.125 -9.40625 C 78.007812 -9.269531 77.9375 -9.164062 77.90625 -9.09375 C 75.851562 -6.25 74.070312 -3.265625 72.5625 -0.140625 C 71.0625 2.984375 69.648438 6.164062 68.328125 9.40625 C 67.773438 10.644531 67.238281 11.890625 66.71875 13.140625 C 65.5 15.890625 64.320312 18.648438 63.1875 21.421875 C 61.226562 26.171875 59.160156 30.890625 56.984375 35.578125 C 56.210938 37.222656 55.34375 38.828125 54.375 40.390625 C 53.601562 41.671875 52.421875 42.296875 50.828125 42.265625 C 49.515625 42.296875 48.71875 41.6875 48.4375 40.4375 C 48.15625 39.363281 48 38.265625 47.96875 37.140625 C 47.789062 32.910156 47.890625 28.695312 48.265625 24.5 C 48.523438 21.582031 48.753906 18.679688 48.953125 15.796875 C 49.160156 12.671875 49.40625 9.546875 49.6875 6.421875 C 50.300781 -0.703125 50.984375 -7.820312 51.734375 -14.9375 C 52.597656 -23.09375 53.492188 -31.226562 54.421875 -39.34375 C 56.046875 -53.101562 57.492188 -66.90625 58.765625 -80.75 C 58.828125 -81.613281 58.84375 -82.328125 58.8125 -82.890625 C 58.78125 -83.453125 58.65625 -83.660156 58.4375 -83.515625 C 58.226562 -83.378906 57.898438 -82.71875 57.453125 -81.53125 C 53.347656 -69.726562 49.5625 -57.835938 46.09375 -45.859375 C 45.945312 -45.410156 45.828125 -44.972656 45.734375 -44.546875 C 43.648438 -37.429688 41.546875 -30.335938 39.421875 -23.265625 C 38.628906 -20.523438 37.710938 -17.742188 36.671875 -14.921875 C 35.628906 -12.109375 34.429688 -9.453125 33.078125 -6.953125 C 32.660156 -6.234375 32.117188 -5.742188 31.453125 -5.484375 C 30.796875 -5.222656 30.050781 -5.140625 29.21875 -5.234375 C 28.34375 -5.304688 27.703125 -5.722656 27.296875 -6.484375 C 26.953125 -7.210938 26.738281 -7.992188 26.65625 -8.828125 C 26.5625 -9.804688 26.457031 -10.800781 26.34375 -11.8125 C 26.082031 -14.019531 25.863281 -16.222656 25.6875 -18.421875 C 25.195312 -24.554688 24.550781 -30.71875 23.75 -36.90625 C 22.957031 -43.09375 21.929688 -49.203125 20.671875 -55.234375 C 20.316406 -56.765625 19.804688 -56.722656 19.140625 -55.109375 C 18.472656 -53.503906 17.710938 -50.804688 16.859375 -47.015625 C 16.003906 -43.222656 15.097656 -38.859375 14.140625 -33.921875 C 13.191406 -28.992188 12.273438 -23.976562 11.390625 -18.875 C 10.503906 -13.769531 9.691406 -9.101562 8.953125 -4.875 C 7.847656 1.6875 7.101562 5.867188 6.71875 7.671875 C 6.40625 8.960938 5.972656 10.191406 5.421875 11.359375 C 5.171875 11.878906 4.816406 12.226562 4.359375 12.40625 C 3.910156 12.582031 3.410156 12.640625 2.859375 12.578125 C 1.753906 12.429688 1.078125 11.789062 0.828125 10.65625 C 0.734375 10.050781 0.6875 9.441406 0.6875 8.828125 C 0.632812 8.335938 0.609375 7.847656 0.609375 7.359375 C 0.515625 5.453125 0.453125 3.53125 0.421875 1.59375 C 0.140625 -13.3125 0.226562 -28.226562 0.6875 -43.15625 C 0.988281 -52.59375 1.265625 -62.054688 1.515625 -71.546875 C 1.515625 -72.554688 1.515625 -73.582031 1.515625 -74.625 C 1.484375 -75.582031 1.484375 -76.566406 1.515625 -77.578125 C 1.546875 -78.347656 1.828125 -78.878906 2.359375 -79.171875 C 2.898438 -79.460938 3.535156 -79.453125 4.265625 -79.140625 C 4.546875 -79.046875 4.738281 -78.890625 4.84375 -78.671875 C 4.945312 -78.460938 5.015625 -78.222656 5.046875 -77.953125 C 5.359375 -75.347656 5.46875 -72.742188 5.375 -70.140625 C 5.320312 -68.578125 5.265625 -67.015625 5.203125 -65.453125 C 5.097656 -61.179688 4.957031 -56.90625 4.78125 -52.625 C 4.570312 -47.113281 4.4375 -41.613281 4.375 -36.125 C 4.300781 -32.070312 4.21875 -28.007812 4.125 -23.9375 C 4.007812 -19.625 3.96875 -15.320312 4 -11.03125 C 4 -8.082031 3.984375 -5.09375 3.953125 -2.0625 C 3.953125 -1.882812 3.972656 -1.613281 4.015625 -1.25 C 4.054688 -0.882812 4.117188 -0.5 4.203125 -0.09375 C 4.285156 0.300781 4.367188 0.613281 4.453125 0.84375 C 4.546875 1.082031 4.648438 1.144531 4.765625 1.03125 C 4.890625 0.914062 5.003906 0.523438 5.109375 -0.140625 C 5.410156 -2.046875 5.757812 -4.203125 6.15625 -6.609375 C 7.019531 -12.253906 8.046875 -18.484375 9.234375 -25.296875 C 10.429688 -32.109375 11.78125 -38.539062 13.28125 -44.59375 C 14.78125 -50.644531 16.398438 -55.34375 18.140625 -58.6875 C 18.859375 -59.90625 19.753906 -60.492188 20.828125 -60.453125 C 21.898438 -60.410156 22.769531 -59.75 23.4375 -58.46875 C 24.300781 -56.414062 25.03125 -53.90625 25.625 -50.9375 C 26.21875 -47.976562 26.710938 -44.890625 27.109375 -41.671875 C 27.503906 -38.460938 27.84375 -35.453125 28.125 -32.640625 C 28.269531 -31.109375 28.410156 -29.722656 28.546875 -28.484375 C 28.753906 -26.492188 28.945312 -24.671875 29.125 -23.015625 C 29.53125 -19.078125 29.90625 -16.015625 30.25 -13.828125 C 30.601562 -11.648438 31.070312 -10.5625 31.65625 -10.5625 C 32.25 -10.5625 33.054688 -11.921875 34.078125 -14.640625 C 35.109375 -17.359375 36.507812 -21.6875 38.28125 -27.625 C 39.875 -33.113281 41.378906 -38.410156 42.796875 -43.515625 C 44.679688 -50.253906 46.628906 -56.945312 48.640625 -63.59375 C 50.648438 -70.25 53.015625 -77.179688 55.734375 -84.390625 C 56.535156 -86.472656 57.367188 -88.191406 58.234375 -89.546875 C 59.109375 -90.910156 59.953125 -91.625 60.765625 -91.6875 C 61.085938 -91.738281 61.40625 -91.695312 61.71875 -91.5625 C 62.03125 -91.4375 62.304688 -91.078125 62.546875 -90.484375 C 62.796875 -89.898438 62.9375 -88.910156 62.96875 -87.515625 C 63.03125 -85.203125 62.984375 -82.878906 62.828125 -80.546875 C 62.671875 -78.222656 62.488281 -75.898438 62.28125 -73.578125 C 62.25 -73.296875 62.234375 -73.035156 62.234375 -72.796875 C 61.085938 -60.878906 59.800781 -48.988281 58.375 -37.125 C 57.476562 -29.375 56.613281 -21.628906 55.78125 -13.890625 C 55.78125 -13.722656 55.765625 -13.53125 55.734375 -13.3125 C 54.972656 -6.09375 54.257812 1.128906 53.59375 8.359375 C 53.039062 14.703125 52.535156 21.054688 52.078125 27.421875 C 52.046875 27.972656 52.015625 28.546875 51.984375 29.140625 C 51.878906 30.765625 51.8125 32.390625 51.78125 34.015625 C 51.78125 34.617188 51.78125 35.195312 51.78125 35.75 C 51.75 35.925781 51.765625 36.070312 51.828125 36.1875 C 51.890625 36.300781 52.03125 36.359375 52.25 36.359375 C 52.3125 36.359375 52.382812 36.332031 52.46875 36.28125 C 52.5625 36.238281 52.625 36.164062 52.65625 36.0625 C 54.738281 31.75 56.773438 27.445312 58.765625 23.15625 C 60.617188 19.019531 62.53125 14.890625 64.5 10.765625 C 66.46875 6.648438 68.546875 2.566406 70.734375 -1.484375 C 72.535156 -4.898438 74.203125 -7.628906 75.734375 -9.671875 C 77.265625 -11.710938 78.394531 -12.644531 79.125 -12.46875 Z M 79.125 -12.46875 "></path></g></g></g><g fill="rgb(100%, 8.628845%, 8.628845%)" fill-opacity="1"><g transform="translate(119.272871, 149.417826)"><g><path d="M 79.125 -12.46875 C 79.46875 -12.300781 79.585938 -12.023438 79.484375 -11.640625 C 79.378906 -11.265625 79.1875 -10.867188 78.90625 -10.453125 C 78.625 -10.035156 78.363281 -9.6875 78.125 -9.40625 C 78.007812 -9.269531 77.9375 -9.164062 77.90625 -9.09375 C 75.851562 -6.25 74.070312 -3.265625 72.5625 -0.140625 C 71.0625 2.984375 69.648438 6.164062 68.328125 9.40625 C 67.773438 10.644531 67.238281 11.890625 66.71875 13.140625 C 65.5 15.890625 64.320312 18.648438 63.1875 21.421875 C 61.226562 26.171875 59.160156 30.890625 56.984375 35.578125 C 56.210938 37.222656 55.34375 38.828125 54.375 40.390625 C 53.601562 41.671875 52.421875 42.296875 50.828125 42.265625 C 49.515625 42.296875 48.71875 41.6875 48.4375 40.4375 C 48.15625 39.363281 48 38.265625 47.96875 37.140625 C 47.789062 32.910156 47.890625 28.695312 48.265625 24.5 C 48.523438 21.582031 48.753906 18.679688 48.953125 15.796875 C 49.160156 12.671875 49.40625 9.546875 49.6875 6.421875 C 50.300781 -0.703125 50.984375 -7.820312 51.734375 -14.9375 C 52.597656 -23.09375 53.492188 -31.226562 54.421875 -39.34375 C 56.046875 -53.101562 57.492188 -66.90625 58.765625 -80.75 C 58.828125 -81.613281 58.84375 -82.328125 58.8125 -82.890625 C 58.78125 -83.453125 58.65625 -83.660156 58.4375 -83.515625 C 58.226562 -83.378906 57.898438 -82.71875 57.453125 -81.53125 C 53.347656 -69.726562 49.5625 -57.835938 46.09375 -45.859375 C 45.945312 -45.410156 45.828125 -44.972656 45.734375 -44.546875 C 43.648438 -37.429688 41.546875 -30.335938 39.421875 -23.265625 C 38.628906 -20.523438 37.710938 -17.742188 36.671875 -14.921875 C 35.628906 -12.109375 34.429688 -9.453125 33.078125 -6.953125 C 32.660156 -6.234375 32.117188 -5.742188 31.453125 -5.484375 C 30.796875 -5.222656 30.050781 -5.140625 29.21875 -5.234375 C 28.34375 -5.304688 27.703125 -5.722656 27.296875 -6.484375 C 26.953125 -7.210938 26.738281 -7.992188 26.65625 -8.828125 C 26.5625 -9.804688 26.457031 -10.800781 26.34375 -11.8125 C 26.082031 -14.019531 25.863281 -16.222656 25.6875 -18.421875 C 25.195312 -24.554688 24.550781 -30.71875 23.75 -36.90625 C 22.957031 -43.09375 21.929688 -49.203125 20.671875 -55.234375 C 20.316406 -56.765625 19.804688 -56.722656 19.140625 -55.109375 C 18.472656 -53.503906 17.710938 -50.804688 16.859375 -47.015625 C 16.003906 -43.222656 15.097656 -38.859375 14.140625 -33.921875 C 13.191406 -28.992188 12.273438 -23.976562 11.390625 -18.875 C 10.503906 -13.769531 9.691406 -9.101562 8.953125 -4.875 C 7.847656 1.6875 7.101562 5.867188 6.71875 7.671875 C 6.40625 8.960938 5.972656 10.191406 5.421875 11.359375 C 5.171875 11.878906 4.816406 12.226562 4.359375 12.40625 C 3.910156 12.582031 3.410156 12.640625 2.859375 12.578125 C 1.753906 12.429688 1.078125 11.789062 0.828125 10.65625 C 0.734375 10.050781 0.6875 9.441406 0.6875 8.828125 C 0.632812 8.335938 0.609375 7.847656 0.609375 7.359375 C 0.515625 5.453125 0.453125 3.53125 0.421875 1.59375 C 0.140625 -13.3125 0.226562 -28.226562 0.6875 -43.15625 C 0.988281 -52.59375 1.265625 -62.054688 1.515625 -71.546875 C 1.515625 -72.554688 1.515625 -73.582031 1.515625 -74.625 C 1.484375 -75.582031 1.484375 -76.566406 1.515625 -77.578125 C 1.546875 -78.347656 1.828125 -78.878906 2.359375 -79.171875 C 2.898438 -79.460938 3.535156 -79.453125 4.265625 -79.140625 C 4.546875 -79.046875 4.738281 -78.890625 4.84375 -78.671875 C 4.945312 -78.460938 5.015625 -78.222656 5.046875 -77.953125 C 5.359375 -75.347656 5.46875 -72.742188 5.375 -70.140625 C 5.320312 -68.578125 5.265625 -67.015625 5.203125 -65.453125 C 5.097656 -61.179688 4.957031 -56.90625 4.78125 -52.625 C 4.570312 -47.113281 4.4375 -41.613281 4.375 -36.125 C 4.300781 -32.070312 4.21875 -28.007812 4.125 -23.9375 C 4.007812 -19.625 3.96875 -15.320312 4 -11.03125 C 4 -8.082031 3.984375 -5.09375 3.953125 -2.0625 C 3.953125 -1.882812 3.972656 -1.613281 4.015625 -1.25 C 4.054688 -0.882812 4.117188 -0.5 4.203125 -0.09375 C 4.285156 0.300781 4.367188 0.613281 4.453125 0.84375 C 4.546875 1.082031 4.648438 1.144531 4.765625 1.03125 C 4.890625 0.914062 5.003906 0.523438 5.109375 -0.140625 C 5.410156 -2.046875 5.757812 -4.203125 6.15625 -6.609375 C 7.019531 -12.253906 8.046875 -18.484375 9.234375 -25.296875 C 10.429688 -32.109375 11.78125 -38.539062 13.28125 -44.59375 C 14.78125 -50.644531 16.398438 -55.34375 18.140625 -58.6875 C 18.859375 -59.90625 19.753906 -60.492188 20.828125 -60.453125 C 21.898438 -60.410156 22.769531 -59.75 23.4375 -58.46875 C 24.300781 -56.414062 25.03125 -53.90625 25.625 -50.9375 C 26.21875 -47.976562 26.710938 -44.890625 27.109375 -41.671875 C 27.503906 -38.460938 27.84375 -35.453125 28.125 -32.640625 C 28.269531 -31.109375 28.410156 -29.722656 28.546875 -28.484375 C 28.753906 -26.492188 28.945312 -24.671875 29.125 -23.015625 C 29.53125 -19.078125 29.90625 -16.015625 30.25 -13.828125 C 30.601562 -11.648438 31.070312 -10.5625 31.65625 -10.5625 C 32.25 -10.5625 33.054688 -11.921875 34.078125 -14.640625 C 35.109375 -17.359375 36.507812 -21.6875 38.28125 -27.625 C 39.875 -33.113281 41.378906 -38.410156 42.796875 -43.515625 C 44.679688 -50.253906 46.628906 -56.945312 48.640625 -63.59375 C 50.648438 -70.25 53.015625 -77.179688 55.734375 -84.390625 C 56.535156 -86.472656 57.367188 -88.191406 58.234375 -89.546875 C 59.109375 -90.910156 59.953125 -91.625 60.765625 -91.6875 C 61.085938 -91.738281 61.40625 -91.695312 61.71875 -91.5625 C 62.03125 -91.4375 62.304688 -91.078125 62.546875 -90.484375 C 62.796875 -89.898438 62.9375 -88.910156 62.96875 -87.515625 C 63.03125 -85.203125 62.984375 -82.878906 62.828125 -80.546875 C 62.671875 -78.222656 62.488281 -75.898438 62.28125 -73.578125 C 62.25 -73.296875 62.234375 -73.035156 62.234375 -72.796875 C 61.085938 -60.878906 59.800781 -48.988281 58.375 -37.125 C 57.476562 -29.375 56.613281 -21.628906 55.78125 -13.890625 C 55.78125 -13.722656 55.765625 -13.53125 55.734375 -13.3125 C 54.972656 -6.09375 54.257812 1.128906 53.59375 8.359375 C 53.039062 14.703125 52.535156 21.054688 52.078125 27.421875 C 52.046875 27.972656 52.015625 28.546875 51.984375 29.140625 C 51.878906 30.765625 51.8125 32.390625 51.78125 34.015625 C 51.78125 34.617188 51.78125 35.195312 51.78125 35.75 C 51.75 35.925781 51.765625 36.070312 51.828125 36.1875 C 51.890625 36.300781 52.03125 36.359375 52.25 36.359375 C 52.3125 36.359375 52.382812 36.332031 52.46875 36.28125 C 52.5625 36.238281 52.625 36.164062 52.65625 36.0625 C 54.738281 31.75 56.773438 27.445312 58.765625 23.15625 C 60.617188 19.019531 62.53125 14.890625 64.5 10.765625 C 66.46875 6.648438 68.546875 2.566406 70.734375 -1.484375 C 72.535156 -4.898438 74.203125 -7.628906 75.734375 -9.671875 C 77.265625 -11.710938 78.394531 -12.644531 79.125 -12.46875 Z M 79.125 -12.46875 "></path></g></g></g><g fill="rgb(7.449341%, 53.329468%, 3.138733%)" fill-opacity="0.4"><g transform="translate(199.041318, 151.560788)"><g></g></g></g><g fill="rgb(7.449341%, 53.329468%, 3.138733%)" fill-opacity="0.4"><g transform="translate(211.45528, 151.560788)"><g></g></g></g><g fill="rgb(7.449341%, 53.329468%, 3.138733%)" fill-opacity="0.4"><g transform="translate(223.869241, 151.560788)"><g></g></g></g><g fill="rgb(7.449341%, 53.329468%, 3.138733%)" fill-opacity="0.4"><g transform="translate(236.283202, 151.560788)"><g></g></g></g><g fill="rgb(7.449341%, 53.329468%, 3.138733%)" fill-opacity="0.4"><g transform="translate(248.697163, 151.560788)"><g></g></g></g><g fill="rgb(7.449341%, 53.329468%, 3.138733%)" fill-opacity="0.4"><g transform="translate(261.111127, 151.560788)"><g></g></g></g><g fill="rgb(7.449341%, 53.329468%, 3.138733%)" fill-opacity="0.4"><g transform="translate(273.525091, 151.560788)"><g></g></g></g><g fill="rgb(7.449341%, 53.329468%, 3.138733%)" fill-opacity="0.4"><g transform="translate(285.939054, 151.560788)"><g></g></g></g><g fill="rgb(7.449341%, 53.329468%, 3.138733%)" fill-opacity="0.4"><g transform="translate(298.353018, 151.560788)"><g></g></g></g><g fill="rgb(100%, 8.628845%, 8.628845%)" fill-opacity="1"><g transform="translate(196.898356, 149.417826)"><g></g></g></g><g fill="rgb(100%, 8.628845%, 8.628845%)" fill-opacity="1"><g transform="translate(209.312317, 149.417826)"><g></g></g></g><g fill="rgb(100%, 8.628845%, 8.628845%)" fill-opacity="1"><g transform="translate(221.726279, 149.417826)"><g></g></g></g><g fill="rgb(100%, 8.628845%, 8.628845%)" fill-opacity="1"><g transform="translate(234.14024, 149.417826)"><g></g></g></g><g fill="rgb(100%, 8.628845%, 8.628845%)" fill-opacity="1"><g transform="translate(246.554201, 149.417826)"><g></g></g></g><g fill="rgb(100%, 8.628845%, 8.628845%)" fill-opacity="1"><g transform="translate(258.968165, 149.417826)"><g></g></g></g><g fill="rgb(100%, 8.628845%, 8.628845%)" fill-opacity="1"><g transform="translate(271.382129, 149.417826)"><g></g></g></g><g fill="rgb(100%, 8.628845%, 8.628845%)" fill-opacity="1"><g transform="translate(283.796092, 149.417826)"><g></g></g></g><g fill="rgb(100%, 8.628845%, 8.628845%)" fill-opacity="1"><g transform="translate(296.210056, 149.417826)"><g></g></g></g><g fill="rgb(7.449341%, 53.329468%, 3.138733%)" fill-opacity="0.4"><g transform="translate(121.415833, 207.410549)"><g><path d="M 72.484375 -14.15625 C 72.835938 -14.1875 73 -13.921875 72.96875 -13.359375 C 72.9375 -12.804688 72.710938 -12.507812 72.296875 -12.46875 C 71.898438 -12.40625 71.539062 -12.21875 71.21875 -11.90625 C 70.894531 -11.59375 70.734375 -11.242188 70.734375 -10.859375 C 70.828125 -7.503906 70.394531 -4.269531 69.4375 -1.15625 C 68.488281 1.945312 67.21875 4.945312 65.625 7.84375 C 62.46875 13.832031 58.628906 19.160156 54.109375 23.828125 C 49.597656 28.503906 44.320312 32.445312 38.28125 35.65625 C 34.945312 37.382812 31.515625 38.679688 27.984375 39.546875 C 24.460938 40.421875 20.804688 40.75 17.015625 40.53125 C 13.859375 40.351562 10.894531 39.507812 8.125 38 C 4.820312 36.039062 2.640625 33.488281 1.578125 30.34375 C 0.523438 27.207031 0.722656 23.875 2.171875 20.34375 C 3.703125 16.894531 6.109375 13.6875 9.390625 10.71875 C 12.679688 7.757812 16.503906 5.035156 20.859375 2.546875 C 25.210938 0.0546875 29.753906 -2.140625 34.484375 -4.046875 C 39.210938 -5.953125 43.769531 -7.582031 48.15625 -8.9375 C 52.539062 -10.289062 56.4375 -11.3125 59.84375 -12 C 60.78125 -12.21875 61.695312 -12.414062 62.59375 -12.59375 C 63.570312 -12.769531 64.523438 -12.957031 65.453125 -13.15625 C 66.265625 -13.300781 66.550781 -13.738281 66.3125 -14.46875 C 65.507812 -17.789062 63.90625 -20.65625 61.5 -23.0625 C 59.769531 -24.757812 57.890625 -26.195312 55.859375 -27.375 C 53.828125 -28.550781 51.6875 -29.539062 49.4375 -30.34375 C 42.664062 -32.75 35.664062 -34.097656 28.4375 -34.390625 C 27.945312 -34.441406 27.441406 -34.46875 26.921875 -34.46875 C 26.335938 -34.414062 26.03125 -34.097656 26 -33.515625 C 25.914062 -32.828125 25.875 -32.132812 25.875 -31.4375 C 25.84375 -25.988281 25.828125 -20.535156 25.828125 -15.078125 C 25.796875 -12.679688 25.78125 -10.269531 25.78125 -7.84375 C 25.78125 -7.664062 25.78125 -7.515625 25.78125 -7.390625 C 25.78125 -7.035156 25.78125 -6.6875 25.78125 -6.34375 C 25.601562 -4.78125 24.789062 -4.238281 23.34375 -4.71875 C 22.769531 -4.882812 22.46875 -5.253906 22.4375 -5.828125 C 22.375 -6.609375 22.359375 -7.40625 22.390625 -8.21875 C 22.359375 -13.132812 22.34375 -18.039062 22.34375 -22.9375 C 22.34375 -25.414062 22.34375 -27.867188 22.34375 -30.296875 C 22.34375 -30.503906 22.34375 -30.710938 22.34375 -30.921875 C 22.34375 -31.503906 22.328125 -32.109375 22.296875 -32.734375 C 22.296875 -33.398438 22.195312 -33.832031 22 -34.03125 C 21.800781 -34.238281 21.394531 -34.359375 20.78125 -34.390625 C 20.5 -34.390625 20.238281 -34.390625 20 -34.390625 C 19.34375 -34.441406 18.695312 -34.5 18.0625 -34.5625 C 17.507812 -34.625 17.128906 -34.914062 16.921875 -35.4375 C 16.753906 -36.101562 16.929688 -36.648438 17.453125 -37.078125 C 18.140625 -37.628906 18.863281 -38.164062 19.625 -38.6875 C 19.9375 -38.882812 20.222656 -39.054688 20.484375 -39.203125 C 21.066406 -39.578125 21.488281 -39.882812 21.75 -40.125 C 22.007812 -40.375 22.164062 -40.648438 22.21875 -40.953125 C 22.269531 -41.265625 22.296875 -41.753906 22.296875 -42.421875 C 22.253906 -42.796875 22.234375 -43.242188 22.234375 -43.765625 C 22.273438 -47.703125 22.296875 -51.648438 22.296875 -55.609375 C 22.296875 -57.785156 22.296875 -59.988281 22.296875 -62.21875 C 22.296875 -62.25 22.296875 -62.300781 22.296875 -62.375 C 22.296875 -63.132812 22.328125 -63.878906 22.390625 -64.609375 C 22.453125 -65.554688 23.003906 -66.015625 24.046875 -65.984375 C 25.054688 -66.015625 25.632812 -65.578125 25.78125 -64.671875 C 25.84375 -63.753906 25.875 -62.832031 25.875 -61.90625 C 25.875 -59.539062 25.875 -57.179688 25.875 -54.828125 C 25.875 -51.941406 25.898438 -49.078125 25.953125 -46.234375 C 25.898438 -46.023438 25.875 -45.835938 25.875 -45.671875 C 25.8125 -44.859375 25.9375 -43.929688 26.25 -42.890625 C 28.539062 -44.222656 31.304688 -45.898438 34.546875 -47.921875 C 37.796875 -49.953125 41.101562 -52.128906 44.46875 -54.453125 C 47.84375 -56.785156 50.832031 -59.113281 53.4375 -61.4375 C 56.039062 -63.769531 57.847656 -65.921875 58.859375 -67.890625 C 59.929688 -70.148438 59.441406 -72.003906 57.390625 -73.453125 C 54.859375 -75.160156 51.585938 -76.09375 47.578125 -76.25 C 43.578125 -76.40625 39.347656 -75.976562 34.890625 -74.96875 C 30.441406 -73.957031 26.304688 -72.550781 22.484375 -70.75 C 18.671875 -68.957031 15.660156 -66.929688 13.453125 -64.671875 C 12.753906 -63.929688 12.125 -63.050781 11.5625 -62.03125 C 11 -61.019531 10.5625 -60.007812 10.25 -59 C 10.007812 -58.363281 9.539062 -57.992188 8.84375 -57.890625 C 8.15625 -57.785156 7.566406 -57.976562 7.078125 -58.46875 C 6.835938 -58.820312 6.765625 -59.203125 6.859375 -59.609375 C 7.179688 -60.796875 7.726562 -61.878906 8.5 -62.859375 C 10.957031 -66.015625 14.453125 -68.769531 18.984375 -71.125 C 23.515625 -73.488281 28.425781 -75.273438 33.71875 -76.484375 C 39.019531 -77.703125 44.046875 -78.207031 48.796875 -78 C 53.554688 -77.800781 57.398438 -76.722656 60.328125 -74.765625 C 63.304688 -72.722656 63.941406 -70.101562 62.234375 -66.90625 C 61.367188 -65.3125 60.09375 -63.6875 58.40625 -62.03125 C 56.726562 -60.382812 54.941406 -58.820312 53.046875 -57.34375 C 51.160156 -55.875 49.484375 -54.601562 48.015625 -53.53125 C 45.347656 -51.582031 42.609375 -49.710938 39.796875 -47.921875 C 36.984375 -46.128906 34.148438 -44.382812 31.296875 -42.6875 C 31.234375 -42.65625 31.160156 -42.609375 31.078125 -42.546875 C 29.660156 -41.734375 28.273438 -40.894531 26.921875 -40.03125 C 25.953125 -39.300781 25.660156 -38.332031 26.046875 -37.125 C 26.078125 -37.007812 26.15625 -36.890625 26.28125 -36.765625 C 26.40625 -36.648438 26.53125 -36.59375 26.65625 -36.59375 C 27.226562 -36.488281 27.789062 -36.4375 28.34375 -36.4375 C 28.375 -36.4375 28.421875 -36.4375 28.484375 -36.4375 C 35.992188 -36.226562 43.304688 -34.941406 50.421875 -32.578125 C 54.367188 -31.328125 58.046875 -29.503906 61.453125 -27.109375 C 63.503906 -25.648438 65.25 -23.984375 66.6875 -22.109375 C 68.125 -20.234375 69.191406 -18.082031 69.890625 -15.65625 C 70.109375 -14.863281 70.363281 -14.378906 70.65625 -14.203125 C 70.945312 -14.023438 71.554688 -14.007812 72.484375 -14.15625 Z M 66.875 -8.21875 C 67.019531 -9.632812 66.914062 -10.5 66.5625 -10.8125 C 66.21875 -11.132812 65.328125 -11.117188 63.890625 -10.765625 C 60.503906 -10.078125 56.675781 -9.101562 52.40625 -7.84375 C 48.132812 -6.59375 43.738281 -5.0625 39.21875 -3.25 C 34.707031 -1.445312 30.367188 0.625 26.203125 2.96875 C 22.035156 5.3125 18.363281 7.914062 15.1875 10.78125 C 12.007812 13.644531 9.625 16.789062 8.03125 20.21875 C 6.875 22.820312 6.347656 25.28125 6.453125 27.59375 C 6.554688 29.90625 7.144531 31.898438 8.21875 33.578125 C 9.300781 35.265625 10.726562 36.453125 12.5 37.140625 C 14.757812 38.015625 17.101562 38.488281 19.53125 38.5625 C 19.707031 38.5625 19.863281 38.546875 20 38.515625 C 20.351562 38.472656 20.703125 38.453125 21.046875 38.453125 C 25.617188 38.003906 29.941406 36.753906 34.015625 34.703125 C 41.429688 31.023438 47.691406 26.285156 52.796875 20.484375 C 57.910156 14.691406 61.957031 7.957031 64.9375 0.28125 C 65.976562 -2.457031 66.625 -5.289062 66.875 -8.21875 Z M 66.875 -8.21875 "></path></g></g></g><g fill="rgb(100%, 8.628845%, 8.628845%)" fill-opacity="1"><g transform="translate(119.272871, 205.267587)"><g><path d="M 72.484375 -14.15625 C 72.835938 -14.1875 73 -13.921875 72.96875 -13.359375 C 72.9375 -12.804688 72.710938 -12.507812 72.296875 -12.46875 C 71.898438 -12.40625 71.539062 -12.21875 71.21875 -11.90625 C 70.894531 -11.59375 70.734375 -11.242188 70.734375 -10.859375 C 70.828125 -7.503906 70.394531 -4.269531 69.4375 -1.15625 C 68.488281 1.945312 67.21875 4.945312 65.625 7.84375 C 62.46875 13.832031 58.628906 19.160156 54.109375 23.828125 C 49.597656 28.503906 44.320312 32.445312 38.28125 35.65625 C 34.945312 37.382812 31.515625 38.679688 27.984375 39.546875 C 24.460938 40.421875 20.804688 40.75 17.015625 40.53125 C 13.859375 40.351562 10.894531 39.507812 8.125 38 C 4.820312 36.039062 2.640625 33.488281 1.578125 30.34375 C 0.523438 27.207031 0.722656 23.875 2.171875 20.34375 C 3.703125 16.894531 6.109375 13.6875 9.390625 10.71875 C 12.679688 7.757812 16.503906 5.035156 20.859375 2.546875 C 25.210938 0.0546875 29.753906 -2.140625 34.484375 -4.046875 C 39.210938 -5.953125 43.769531 -7.582031 48.15625 -8.9375 C 52.539062 -10.289062 56.4375 -11.3125 59.84375 -12 C 60.78125 -12.21875 61.695312 -12.414062 62.59375 -12.59375 C 63.570312 -12.769531 64.523438 -12.957031 65.453125 -13.15625 C 66.265625 -13.300781 66.550781 -13.738281 66.3125 -14.46875 C 65.507812 -17.789062 63.90625 -20.65625 61.5 -23.0625 C 59.769531 -24.757812 57.890625 -26.195312 55.859375 -27.375 C 53.828125 -28.550781 51.6875 -29.539062 49.4375 -30.34375 C 42.664062 -32.75 35.664062 -34.097656 28.4375 -34.390625 C 27.945312 -34.441406 27.441406 -34.46875 26.921875 -34.46875 C 26.335938 -34.414062 26.03125 -34.097656 26 -33.515625 C 25.914062 -32.828125 25.875 -32.132812 25.875 -31.4375 C 25.84375 -25.988281 25.828125 -20.535156 25.828125 -15.078125 C 25.796875 -12.679688 25.78125 -10.269531 25.78125 -7.84375 C 25.78125 -7.664062 25.78125 -7.515625 25.78125 -7.390625 C 25.78125 -7.035156 25.78125 -6.6875 25.78125 -6.34375 C 25.601562 -4.78125 24.789062 -4.238281 23.34375 -4.71875 C 22.769531 -4.882812 22.46875 -5.253906 22.4375 -5.828125 C 22.375 -6.609375 22.359375 -7.40625 22.390625 -8.21875 C 22.359375 -13.132812 22.34375 -18.039062 22.34375 -22.9375 C 22.34375 -25.414062 22.34375 -27.867188 22.34375 -30.296875 C 22.34375 -30.503906 22.34375 -30.710938 22.34375 -30.921875 C 22.34375 -31.503906 22.328125 -32.109375 22.296875 -32.734375 C 22.296875 -33.398438 22.195312 -33.832031 22 -34.03125 C 21.800781 -34.238281 21.394531 -34.359375 20.78125 -34.390625 C 20.5 -34.390625 20.238281 -34.390625 20 -34.390625 C 19.34375 -34.441406 18.695312 -34.5 18.0625 -34.5625 C 17.507812 -34.625 17.128906 -34.914062 16.921875 -35.4375 C 16.753906 -36.101562 16.929688 -36.648438 17.453125 -37.078125 C 18.140625 -37.628906 18.863281 -38.164062 19.625 -38.6875 C 19.9375 -38.882812 20.222656 -39.054688 20.484375 -39.203125 C 21.066406 -39.578125 21.488281 -39.882812 21.75 -40.125 C 22.007812 -40.375 22.164062 -40.648438 22.21875 -40.953125 C 22.269531 -41.265625 22.296875 -41.753906 22.296875 -42.421875 C 22.253906 -42.796875 22.234375 -43.242188 22.234375 -43.765625 C 22.273438 -47.703125 22.296875 -51.648438 22.296875 -55.609375 C 22.296875 -57.785156 22.296875 -59.988281 22.296875 -62.21875 C 22.296875 -62.25 22.296875 -62.300781 22.296875 -62.375 C 22.296875 -63.132812 22.328125 -63.878906 22.390625 -64.609375 C 22.453125 -65.554688 23.003906 -66.015625 24.046875 -65.984375 C 25.054688 -66.015625 25.632812 -65.578125 25.78125 -64.671875 C 25.84375 -63.753906 25.875 -62.832031 25.875 -61.90625 C 25.875 -59.539062 25.875 -57.179688 25.875 -54.828125 C 25.875 -51.941406 25.898438 -49.078125 25.953125 -46.234375 C 25.898438 -46.023438 25.875 -45.835938 25.875 -45.671875 C 25.8125 -44.859375 25.9375 -43.929688 26.25 -42.890625 C 28.539062 -44.222656 31.304688 -45.898438 34.546875 -47.921875 C 37.796875 -49.953125 41.101562 -52.128906 44.46875 -54.453125 C 47.84375 -56.785156 50.832031 -59.113281 53.4375 -61.4375 C 56.039062 -63.769531 57.847656 -65.921875 58.859375 -67.890625 C 59.929688 -70.148438 59.441406 -72.003906 57.390625 -73.453125 C 54.859375 -75.160156 51.585938 -76.09375 47.578125 -76.25 C 43.578125 -76.40625 39.347656 -75.976562 34.890625 -74.96875 C 30.441406 -73.957031 26.304688 -72.550781 22.484375 -70.75 C 18.671875 -68.957031 15.660156 -66.929688 13.453125 -64.671875 C 12.753906 -63.929688 12.125 -63.050781 11.5625 -62.03125 C 11 -61.019531 10.5625 -60.007812 10.25 -59 C 10.007812 -58.363281 9.539062 -57.992188 8.84375 -57.890625 C 8.15625 -57.785156 7.566406 -57.976562 7.078125 -58.46875 C 6.835938 -58.820312 6.765625 -59.203125 6.859375 -59.609375 C 7.179688 -60.796875 7.726562 -61.878906 8.5 -62.859375 C 10.957031 -66.015625 14.453125 -68.769531 18.984375 -71.125 C 23.515625 -73.488281 28.425781 -75.273438 33.71875 -76.484375 C 39.019531 -77.703125 44.046875 -78.207031 48.796875 -78 C 53.554688 -77.800781 57.398438 -76.722656 60.328125 -74.765625 C 63.304688 -72.722656 63.941406 -70.101562 62.234375 -66.90625 C 61.367188 -65.3125 60.09375 -63.6875 58.40625 -62.03125 C 56.726562 -60.382812 54.941406 -58.820312 53.046875 -57.34375 C 51.160156 -55.875 49.484375 -54.601562 48.015625 -53.53125 C 45.347656 -51.582031 42.609375 -49.710938 39.796875 -47.921875 C 36.984375 -46.128906 34.148438 -44.382812 31.296875 -42.6875 C 31.234375 -42.65625 31.160156 -42.609375 31.078125 -42.546875 C 29.660156 -41.734375 28.273438 -40.894531 26.921875 -40.03125 C 25.953125 -39.300781 25.660156 -38.332031 26.046875 -37.125 C 26.078125 -37.007812 26.15625 -36.890625 26.28125 -36.765625 C 26.40625 -36.648438 26.53125 -36.59375 26.65625 -36.59375 C 27.226562 -36.488281 27.789062 -36.4375 28.34375 -36.4375 C 28.375 -36.4375 28.421875 -36.4375 28.484375 -36.4375 C 35.992188 -36.226562 43.304688 -34.941406 50.421875 -32.578125 C 54.367188 -31.328125 58.046875 -29.503906 61.453125 -27.109375 C 63.503906 -25.648438 65.25 -23.984375 66.6875 -22.109375 C 68.125 -20.234375 69.191406 -18.082031 69.890625 -15.65625 C 70.109375 -14.863281 70.363281 -14.378906 70.65625 -14.203125 C 70.945312 -14.023438 71.554688 -14.007812 72.484375 -14.15625 Z M 66.875 -8.21875 C 67.019531 -9.632812 66.914062 -10.5 66.5625 -10.8125 C 66.21875 -11.132812 65.328125 -11.117188 63.890625 -10.765625 C 60.503906 -10.078125 56.675781 -9.101562 52.40625 -7.84375 C 48.132812 -6.59375 43.738281 -5.0625 39.21875 -3.25 C 34.707031 -1.445312 30.367188 0.625 26.203125 2.96875 C 22.035156 5.3125 18.363281 7.914062 15.1875 10.78125 C 12.007812 13.644531 9.625 16.789062 8.03125 20.21875 C 6.875 22.820312 6.347656 25.28125 6.453125 27.59375 C 6.554688 29.90625 7.144531 31.898438 8.21875 33.578125 C 9.300781 35.265625 10.726562 36.453125 12.5 37.140625 C 14.757812 38.015625 17.101562 38.488281 19.53125 38.5625 C 19.707031 38.5625 19.863281 38.546875 20 38.515625 C 20.351562 38.472656 20.703125 38.453125 21.046875 38.453125 C 25.617188 38.003906 29.941406 36.753906 34.015625 34.703125 C 41.429688 31.023438 47.691406 26.285156 52.796875 20.484375 C 57.910156 14.691406 61.957031 7.957031 64.9375 0.28125 C 65.976562 -2.457031 66.625 -5.289062 66.875 -8.21875 Z M 66.875 -8.21875 "></path></g></g></g><g fill="rgb(7.449341%, 53.329468%, 3.138733%)" fill-opacity="0.4"><g transform="translate(197.498956, 207.410549)"><g></g></g></g><g fill="rgb(7.449341%, 53.329468%, 3.138733%)" fill-opacity="0.4"><g transform="translate(209.912917, 207.410549)"><g></g></g></g><g fill="rgb(7.449341%, 53.329468%, 3.138733%)" fill-opacity="0.4"><g transform="translate(222.326878, 207.410549)"><g></g></g></g><g fill="rgb(7.449341%, 53.329468%, 3.138733%)" fill-opacity="0.4"><g transform="translate(234.74084, 207.410549)"><g></g></g></g><g fill="rgb(7.449341%, 53.329468%, 3.138733%)" fill-opacity="0.4"><g transform="translate(247.154801, 207.410549)"><g></g></g></g><g fill="rgb(7.449341%, 53.329468%, 3.138733%)" fill-opacity="0.4"><g transform="translate(259.568764, 207.410549)"><g></g></g></g><g fill="rgb(7.449341%, 53.329468%, 3.138733%)" fill-opacity="0.4"><g transform="translate(271.982728, 207.410549)"><g></g></g></g><g fill="rgb(7.449341%, 53.329468%, 3.138733%)" fill-opacity="0.4"><g transform="translate(284.396692, 207.410549)"><g></g></g></g><g fill="rgb(7.449341%, 53.329468%, 3.138733%)" fill-opacity="0.4"><g transform="translate(296.810656, 207.410549)"><g></g></g></g><g fill="rgb(100%, 8.628845%, 8.628845%)" fill-opacity="1"><g transform="translate(195.355994, 205.267587)"><g></g></g></g><g fill="rgb(100%, 8.628845%, 8.628845%)" fill-opacity="1"><g transform="translate(207.769955, 205.267587)"><g></g></g></g><g fill="rgb(100%, 8.628845%, 8.628845%)" fill-opacity="1"><g transform="translate(220.183916, 205.267587)"><g></g></g></g><g fill="rgb(100%, 8.628845%, 8.628845%)" fill-opacity="1"><g transform="translate(232.597877, 205.267587)"><g></g></g></g><g fill="rgb(100%, 8.628845%, 8.628845%)" fill-opacity="1"><g transform="translate(245.011839, 205.267587)"><g></g></g></g><g fill="rgb(100%, 8.628845%, 8.628845%)" fill-opacity="1"><g transform="translate(257.425802, 205.267587)"><g></g></g></g><g fill="rgb(100%, 8.628845%, 8.628845%)" fill-opacity="1"><g transform="translate(269.839766, 205.267587)"><g></g></g></g><g fill="rgb(100%, 8.628845%, 8.628845%)" fill-opacity="1"><g transform="translate(282.25373, 205.267587)"><g></g></g></g><g fill="rgb(100%, 8.628845%, 8.628845%)" fill-opacity="1"><g transform="translate(294.667693, 205.267587)"><g></g></g></g><g clip-path="url(#id2)"><path fill="rgb(39.608765%, 63.139343%, 27.839661%)" d="M 104.441406 249.21875 C 99.609375 248.023438 95 246.375 90.621094 244.382812 C 90.566406 244.269531 90.507812 244.15625 90.394531 244.042969 L 90.339844 243.984375 C 90.109375 236.136719 84.023438 227.949219 78.507812 222.828125 C 77.769531 222.144531 76.175781 222.542969 76.289062 223.738281 C 77.085938 230.109375 79.644531 236.308594 83.96875 241.027344 C 76.574219 236.875 69.917969 231.644531 63.835938 225.558594 C 63.949219 225.386719 64.003906 225.160156 64.003906 224.933594 C 64.0625 219.644531 63.320312 214.523438 61.503906 209.519531 C 60.195312 205.9375 58.488281 201.214844 54.960938 199.339844 C 54.164062 198.941406 53.199219 199.453125 53.199219 200.363281 C 53.085938 206.5625 54.394531 212.761719 57.238281 218.222656 C 56.210938 217.027344 55.246094 215.777344 54.277344 214.523438 C 48.136719 206.449219 42.621094 197.632812 38.125 188.417969 C 38.183594 188.304688 38.242188 188.132812 38.183594 187.964844 C 38.125 187.792969 38.125 187.621094 38.070312 187.453125 C 38.242188 187.394531 38.46875 187.28125 38.582031 187.054688 C 44.269531 178.636719 43.359375 166.125 40.800781 156.796875 C 40.515625 155.714844 39.09375 155.660156 38.523438 156.511719 C 33.292969 164.132812 33.234375 172.890625 34.941406 181.421875 C 31.925781 174.3125 29.59375 166.921875 28.117188 159.355469 C 27.492188 156.171875 27.035156 152.984375 26.808594 149.859375 C 26.980469 149.859375 27.207031 149.800781 27.378906 149.6875 C 35.738281 144.625 40.402344 133.363281 41.710938 124.09375 C 41.878906 122.898438 40.570312 121.875 39.546875 122.84375 C 33.746094 128.414062 29.195312 135.070312 26.523438 142.578125 C 26.695312 130.691406 29.480469 119.257812 34.144531 108.394531 C 34.316406 108.566406 34.601562 108.679688 34.882812 108.679688 C 44.667969 108.226562 53.9375 99.636719 58.886719 91.789062 C 59.453125 90.878906 58.488281 89.570312 57.464844 89.910156 C 50.355469 92.300781 43.8125 95.710938 38.011719 100.375 C 43.359375 90.140625 50.183594 80.527344 57.804688 71.710938 L 57.863281 71.710938 C 62.695312 69.324219 68.328125 67.332031 72.25 63.519531 C 75.605469 60.222656 77.425781 55.730469 79.191406 51.464844 C 79.757812 50.097656 78.054688 49.359375 77.027344 49.984375 C 76.914062 49.929688 76.859375 49.929688 76.6875 49.929688 C 72.308594 50.441406 68.441406 52.144531 65.257812 55.21875 C 61.785156 58.628906 60.136719 63.238281 57.578125 67.273438 C 51.71875 73.589844 46.375 80.582031 41.710938 88.035156 C 43.074219 77.511719 44.835938 66.25 42.109375 55.898438 C 41.765625 54.648438 40.230469 54.648438 39.605469 55.558594 C 31.984375 66.25 31.132812 81.492188 39.148438 92.242188 C 34.089844 101.003906 30.105469 110.386719 27.546875 119.941406 C 27.320312 115.847656 26.980469 111.808594 26.523438 107.769531 C 26.238281 105.097656 26.808594 99.75 24.476562 97.875 C 24.023438 97.476562 23.394531 97.363281 22.882812 97.644531 C 14.066406 102.992188 17.878906 123.355469 25.5 128.132812 C 25.558594 128.1875 25.613281 128.1875 25.726562 128.1875 C 24.417969 135.582031 23.964844 143.03125 24.589844 150.539062 L 24.589844 150.597656 C 24.589844 150.710938 24.589844 150.824219 24.648438 150.9375 C 24.875 153.613281 25.214844 156.226562 25.726562 158.902344 C 26.070312 160.777344 26.523438 162.597656 26.980469 164.417969 C 24.929688 160.949219 22.371094 157.480469 19.984375 154.464844 C 17.195312 150.9375 13.898438 148.152344 9.460938 146.957031 C 8.4375 146.671875 7.640625 147.582031 7.8125 148.605469 C 9.972656 158.84375 17.707031 167.773438 27.945312 170.558594 C 28.230469 170.617188 28.457031 170.558594 28.628906 170.445312 C 31.757812 180.628906 36.304688 190.523438 41.765625 199.738281 C 39.546875 197.917969 37.214844 196.269531 34.714844 194.902344 C 31.359375 193.027344 26.636719 190.125 22.714844 191.375 C 22.03125 191.605469 21.519531 192.34375 21.746094 193.027344 C 25.101562 203.378906 35.679688 210.03125 46.375 207.132812 L 46.429688 207.132812 C 48.761719 210.65625 51.265625 214.070312 53.824219 217.3125 C 57.863281 222.488281 62.414062 227.492188 67.417969 231.984375 C 61.160156 228.800781 53.3125 228.0625 46.773438 228.742188 C 45.691406 228.859375 45.007812 230.109375 45.863281 230.960938 C 52.972656 238.015625 63.777344 240.859375 73.273438 237.160156 C 73.390625 237.105469 73.445312 237.046875 73.503906 236.992188 C 82.546875 243.816406 92.839844 248.820312 104.214844 250.414062 C 104.898438 250.640625 105.296875 249.445312 104.441406 249.21875 Z M 66.679688 57.71875 C 66.507812 58.0625 66.394531 58.34375 66.222656 58.6875 C 65.824219 59.027344 65.425781 59.371094 65.027344 59.765625 C 65.539062 59.027344 66.109375 58.34375 66.679688 57.71875 Z M 66.679688 57.71875 " fill-opacity="1" fill-rule="nonzero"></path></g><g clip-path="url(#id3)"><path fill="rgb(39.608765%, 63.139343%, 27.839661%)" d="M 195.726562 250.527344 C 207.101562 248.933594 217.398438 243.929688 226.441406 237.105469 C 226.496094 237.160156 226.609375 237.21875 226.667969 237.273438 C 236.164062 240.972656 246.972656 238.128906 254.082031 231.074219 C 254.933594 230.222656 254.253906 228.972656 253.171875 228.859375 C 246.6875 228.230469 238.78125 228.972656 232.527344 232.097656 C 237.53125 227.605469 242.082031 222.65625 246.117188 217.425781 C 248.679688 214.125 251.125 210.714844 253.511719 207.246094 L 253.570312 207.246094 C 264.261719 210.089844 274.839844 203.492188 278.195312 193.140625 C 278.425781 192.402344 277.914062 191.71875 277.230469 191.492188 C 273.304688 190.183594 268.585938 193.082031 265.230469 195.015625 C 262.726562 196.4375 260.394531 198.03125 258.175781 199.851562 C 263.636719 190.582031 268.1875 180.742188 271.316406 170.558594 C 271.484375 170.675781 271.710938 170.730469 271.996094 170.675781 C 282.234375 167.886719 289.96875 158.957031 292.132812 148.71875 C 292.359375 147.753906 291.503906 146.84375 290.480469 147.070312 C 286.046875 148.207031 282.804688 150.996094 279.960938 154.578125 C 277.570312 157.59375 275.011719 161.0625 272.964844 164.53125 C 273.417969 162.710938 273.816406 160.835938 274.214844 159.015625 C 274.726562 156.339844 275.070312 153.726562 275.296875 151.050781 C 275.351562 150.9375 275.351562 150.824219 275.351562 150.710938 L 275.351562 150.652344 C 275.980469 143.203125 275.523438 135.695312 274.214844 128.300781 C 274.273438 128.300781 274.328125 128.246094 274.441406 128.246094 C 282.0625 123.46875 285.875 103.105469 277.058594 97.761719 C 276.546875 97.417969 275.921875 97.589844 275.464844 97.988281 C 273.136719 99.921875 273.703125 105.210938 273.417969 107.882812 C 272.964844 111.921875 272.621094 116.015625 272.394531 120.054688 C 269.835938 110.441406 265.796875 101.117188 260.792969 92.355469 C 268.8125 81.609375 267.960938 66.363281 260.335938 55.617188 C 259.710938 54.707031 258.121094 54.707031 257.835938 55.957031 C 255.105469 66.308594 256.867188 77.570312 258.234375 88.089844 C 253.570312 80.640625 248.222656 73.644531 242.308594 67.273438 C 239.804688 63.238281 238.15625 58.628906 234.628906 55.21875 C 231.445312 52.144531 227.578125 50.441406 223.199219 49.929688 C 223.085938 49.929688 222.972656 49.929688 222.855469 49.984375 C 221.832031 49.359375 220.183594 50.097656 220.695312 51.464844 C 222.460938 55.730469 224.277344 60.222656 227.632812 63.519531 C 231.558594 67.332031 237.191406 69.324219 242.023438 71.710938 L 242.082031 71.710938 C 249.703125 80.527344 256.527344 90.140625 261.875 100.375 C 256.070312 95.710938 249.53125 92.300781 242.421875 89.910156 C 241.339844 89.570312 240.429688 90.878906 241 91.789062 C 245.890625 99.582031 255.21875 108.226562 265 108.679688 C 265.285156 108.679688 265.511719 108.566406 265.742188 108.394531 C 270.347656 119.257812 273.191406 130.691406 273.363281 142.578125 C 270.6875 135.070312 266.140625 128.414062 260.335938 122.84375 C 259.3125 121.875 258.007812 122.898438 258.175781 124.09375 C 259.484375 133.363281 264.148438 144.625 272.507812 149.6875 C 272.738281 149.800781 272.90625 149.859375 273.078125 149.859375 C 272.851562 152.984375 272.394531 156.171875 271.769531 159.355469 C 270.234375 166.863281 267.902344 174.257812 264.945312 181.421875 C 266.652344 172.835938 266.59375 164.132812 261.363281 156.511719 C 260.792969 155.660156 259.371094 155.714844 259.085938 156.796875 C 256.527344 166.125 255.617188 178.695312 261.304688 187.054688 C 261.476562 187.28125 261.644531 187.394531 261.816406 187.453125 C 261.757812 187.621094 261.757812 187.792969 261.703125 187.964844 C 261.644531 188.136719 261.703125 188.304688 261.757812 188.417969 C 257.265625 197.691406 251.691406 206.449219 245.605469 214.523438 C 244.640625 215.777344 243.671875 217.027344 242.648438 218.222656 C 245.4375 212.761719 246.746094 206.5625 246.6875 200.363281 C 246.6875 199.453125 245.722656 198.941406 244.925781 199.339844 C 241.457031 201.214844 239.75 205.9375 238.382812 209.519531 C 236.5625 214.46875 235.824219 219.644531 235.882812 224.933594 C 235.882812 225.160156 235.9375 225.386719 236.050781 225.558594 C 230.023438 231.644531 223.3125 236.875 215.917969 241.027344 C 220.242188 236.308594 222.855469 230.109375 223.597656 223.738281 C 223.765625 222.542969 222.117188 222.144531 221.378906 222.828125 C 215.863281 227.949219 209.777344 236.136719 209.546875 243.984375 L 209.492188 244.042969 C 209.378906 244.15625 209.320312 244.269531 209.265625 244.382812 C 204.882812 246.375 200.277344 247.96875 195.441406 249.21875 C 194.476562 249.445312 194.875 250.640625 195.726562 250.527344 Z M 234.742188 59.710938 C 234.347656 59.371094 233.949219 59.027344 233.550781 58.628906 C 233.378906 58.289062 233.265625 58.003906 233.09375 57.71875 C 233.664062 58.34375 234.230469 59.027344 234.742188 59.710938 Z M 234.742188 59.710938 " fill-opacity="1" fill-rule="nonzero"></path></g></svg>