<svg xmlns="http://www.w3.org/2000/svg" xmlns:xlink="http://www.w3.org/1999/xlink" zoomAndPan="magnify" preserveAspectRatio="xMidYMid meet" version="1.0" viewBox="51.46 82.19 272.25 192"><defs><g><g id="id1"></g><g id="id2"></g></g><clipPath id="id3"><path d="M 51.464844 82.191406 L 145 82.191406 L 145 274.191406 L 51.464844 274.191406 Z M 51.464844 82.191406 " clip-rule="nonzero"></path></clipPath><clipPath id="id4"><path d="M 230 82.191406 L 323.714844 82.191406 L 323.714844 274.191406 L 230 274.191406 Z M 230 82.191406 " clip-rule="nonzero"></path></clipPath></defs><g clip-path="url(#id3)"><path fill="rgb(39.608765%, 63.139343%, 27.839661%)" d="M 144.074219 272.835938 C 139.453125 271.695312 135.054688 270.125 130.871094 268.226562 C 130.816406 268.117188 130.761719 268.007812 130.652344 267.898438 L 130.597656 267.84375 C 130.382812 260.359375 124.570312 252.546875 119.296875 247.664062 C 118.59375 247.011719 117.070312 247.390625 117.179688 248.53125 C 117.941406 254.605469 120.386719 260.519531 124.515625 265.023438 C 117.453125 261.0625 111.09375 256.070312 105.28125 250.265625 C 105.390625 250.105469 105.445312 249.886719 105.445312 249.671875 C 105.5 244.625 104.792969 239.742188 103.054688 234.96875 C 101.804688 231.550781 100.175781 227.046875 96.804688 225.257812 C 96.046875 224.875 95.121094 225.363281 95.121094 226.234375 C 95.011719 232.148438 96.261719 238.058594 98.980469 243.269531 C 98 242.128906 97.078125 240.9375 96.152344 239.742188 C 90.285156 232.039062 85.015625 223.628906 80.722656 214.839844 C 80.777344 214.730469 80.832031 214.570312 80.777344 214.40625 C 80.722656 214.242188 80.722656 214.082031 80.671875 213.917969 C 80.832031 213.863281 81.050781 213.753906 81.160156 213.539062 C 86.59375 205.507812 85.722656 193.574219 83.277344 184.675781 C 83.007812 183.644531 81.648438 183.589844 81.105469 184.40625 C 76.105469 191.675781 76.050781 200.027344 77.683594 208.167969 C 74.800781 201.386719 72.574219 194.332031 71.164062 187.117188 C 70.566406 184.078125 70.128906 181.039062 69.914062 178.058594 C 70.074219 178.058594 70.292969 178.003906 70.457031 177.894531 C 78.441406 173.066406 82.898438 162.324219 84.148438 153.480469 C 84.308594 152.339844 83.0625 151.363281 82.082031 152.285156 C 76.542969 157.605469 72.195312 163.953125 69.640625 171.113281 C 69.804688 159.773438 72.464844 148.867188 76.921875 138.507812 C 77.085938 138.667969 77.355469 138.777344 77.628906 138.777344 C 86.972656 138.34375 95.828125 130.152344 100.554688 122.664062 C 101.097656 121.796875 100.175781 120.550781 99.195312 120.875 C 92.40625 123.152344 86.15625 126.410156 80.617188 130.855469 C 85.722656 121.089844 92.242188 111.921875 99.523438 103.515625 L 99.578125 103.515625 C 104.195312 101.234375 109.574219 99.335938 113.324219 95.703125 C 116.527344 92.554688 118.265625 88.269531 119.949219 84.199219 C 120.492188 82.898438 118.863281 82.191406 117.886719 82.789062 C 117.777344 82.734375 117.722656 82.734375 117.558594 82.734375 C 113.375 83.222656 109.683594 84.851562 106.640625 87.78125 C 103.324219 91.035156 101.75 95.429688 99.304688 99.28125 C 93.710938 105.304688 88.601562 111.976562 84.148438 119.085938 C 85.449219 109.046875 87.136719 98.304688 84.527344 88.429688 C 84.203125 87.238281 82.734375 87.238281 82.136719 88.105469 C 74.855469 98.304688 74.042969 112.84375 81.703125 123.097656 C 76.867188 131.453125 73.0625 140.40625 70.621094 149.519531 C 70.402344 145.613281 70.074219 141.761719 69.640625 137.910156 C 69.371094 135.359375 69.914062 130.261719 67.683594 128.46875 C 67.25 128.089844 66.652344 127.980469 66.164062 128.253906 C 57.742188 133.351562 61.382812 152.773438 68.664062 157.332031 C 68.71875 157.386719 68.773438 157.386719 68.878906 157.386719 C 67.632812 164.441406 67.195312 171.546875 67.792969 178.707031 L 67.792969 178.761719 C 67.792969 178.871094 67.792969 178.980469 67.847656 179.085938 C 68.066406 181.636719 68.390625 184.132812 68.878906 186.683594 C 69.207031 188.472656 69.640625 190.210938 70.074219 191.945312 C 68.121094 188.636719 65.675781 185.328125 63.394531 182.453125 C 60.730469 179.085938 57.578125 176.429688 53.34375 175.289062 C 52.363281 175.019531 51.605469 175.886719 51.765625 176.863281 C 53.832031 186.628906 61.21875 195.148438 71 197.804688 C 71.269531 197.859375 71.488281 197.804688 71.652344 197.695312 C 74.640625 207.40625 78.984375 216.847656 84.203125 225.636719 C 82.082031 223.898438 79.855469 222.328125 77.464844 221.023438 C 74.257812 219.234375 69.75 216.46875 66 217.660156 C 65.347656 217.878906 64.859375 218.582031 65.078125 219.234375 C 68.28125 229.109375 78.386719 235.457031 88.601562 232.6875 L 88.65625 232.6875 C 90.882812 236.054688 93.273438 239.308594 95.71875 242.402344 C 99.578125 247.335938 103.921875 252.113281 108.703125 256.398438 C 102.726562 253.359375 95.230469 252.652344 88.984375 253.304688 C 87.949219 253.414062 87.296875 254.605469 88.113281 255.421875 C 94.90625 262.148438 105.226562 264.859375 114.300781 261.335938 C 114.410156 261.28125 114.464844 261.226562 114.519531 261.171875 C 123.15625 267.683594 132.988281 272.457031 143.855469 273.976562 C 144.507812 274.191406 144.886719 273.054688 144.074219 272.835938 Z M 107.996094 90.167969 C 107.835938 90.492188 107.726562 90.765625 107.5625 91.089844 C 107.183594 91.414062 106.804688 91.742188 106.421875 92.121094 C 106.910156 91.414062 107.453125 90.765625 107.996094 90.167969 Z M 107.996094 90.167969 " fill-opacity="1" fill-rule="nonzero"></path></g><g clip-path="url(#id4)"><path fill="rgb(39.608765%, 63.139343%, 27.839661%)" d="M 231.273438 274.085938 C 242.136719 272.566406 251.972656 267.789062 260.609375 261.28125 C 260.664062 261.335938 260.773438 261.390625 260.828125 261.441406 C 269.902344 264.96875 280.222656 262.257812 287.015625 255.53125 C 287.828125 254.714844 287.175781 253.523438 286.144531 253.414062 C 279.953125 252.816406 272.398438 253.523438 266.421875 256.507812 C 271.203125 252.21875 275.550781 247.5 279.410156 242.507812 C 281.851562 239.363281 284.1875 236.105469 286.472656 232.796875 L 286.527344 232.796875 C 296.738281 235.511719 306.84375 229.21875 310.050781 219.34375 C 310.269531 218.636719 309.777344 217.988281 309.125 217.769531 C 305.378906 216.523438 300.867188 219.289062 297.664062 221.132812 C 295.273438 222.488281 293.046875 224.007812 290.925781 225.746094 C 296.140625 216.902344 300.488281 207.515625 303.476562 197.804688 C 303.640625 197.914062 303.855469 197.96875 304.128906 197.914062 C 313.90625 195.253906 321.296875 186.738281 323.359375 176.972656 C 323.578125 176.050781 322.761719 175.179688 321.785156 175.398438 C 317.546875 176.484375 314.449219 179.140625 311.734375 182.558594 C 309.453125 185.433594 307.007812 188.746094 305.050781 192.054688 C 305.488281 190.316406 305.867188 188.527344 306.246094 186.792969 C 306.734375 184.242188 307.0625 181.746094 307.28125 179.195312 C 307.332031 179.085938 307.332031 178.980469 307.332031 178.871094 L 307.332031 178.816406 C 307.929688 171.710938 307.496094 164.546875 306.246094 157.496094 C 306.300781 157.496094 306.355469 157.441406 306.464844 157.441406 C 313.746094 152.882812 317.386719 133.460938 308.964844 128.363281 C 308.476562 128.035156 307.878906 128.199219 307.441406 128.578125 C 305.214844 130.421875 305.757812 135.46875 305.488281 138.019531 C 305.050781 141.871094 304.726562 145.777344 304.507812 149.628906 C 302.0625 140.460938 298.207031 131.5625 293.425781 123.207031 C 301.085938 112.953125 300.269531 98.414062 292.992188 88.160156 C 292.394531 87.292969 290.871094 87.292969 290.601562 88.484375 C 287.992188 98.359375 289.675781 109.101562 290.980469 119.136719 C 286.527344 112.03125 281.417969 105.359375 275.769531 99.28125 C 273.378906 95.429688 271.800781 91.035156 268.433594 87.78125 C 265.390625 84.851562 261.695312 83.222656 257.511719 82.734375 C 257.40625 82.734375 257.296875 82.734375 257.1875 82.789062 C 256.210938 82.191406 254.632812 82.898438 255.125 84.199219 C 256.808594 88.269531 258.546875 92.554688 261.75 95.703125 C 265.5 99.335938 270.878906 101.234375 275.496094 103.515625 L 275.550781 103.515625 C 282.832031 111.921875 289.351562 121.089844 294.457031 130.855469 C 288.917969 126.410156 282.667969 123.152344 275.878906 120.875 C 274.84375 120.550781 273.976562 121.796875 274.519531 122.664062 C 279.191406 130.097656 288.101562 138.34375 297.445312 138.777344 C 297.71875 138.777344 297.933594 138.667969 298.152344 138.507812 C 302.554688 148.867188 305.269531 159.773438 305.433594 171.113281 C 302.878906 163.953125 298.53125 157.605469 292.992188 152.285156 C 292.011719 151.363281 290.761719 152.339844 290.925781 153.480469 C 292.175781 162.324219 296.632812 173.066406 304.617188 177.894531 C 304.835938 178.003906 304.996094 178.058594 305.160156 178.058594 C 304.945312 181.039062 304.507812 184.078125 303.910156 187.117188 C 302.445312 194.277344 300.214844 201.332031 297.390625 208.167969 C 299.023438 199.976562 298.96875 191.675781 293.96875 184.40625 C 293.425781 183.589844 292.066406 183.644531 291.796875 184.675781 C 289.351562 193.574219 288.480469 205.5625 293.914062 213.539062 C 294.078125 213.753906 294.242188 213.863281 294.402344 213.917969 C 294.347656 214.082031 294.347656 214.242188 294.292969 214.40625 C 294.242188 214.570312 294.292969 214.730469 294.347656 214.839844 C 290.058594 223.683594 284.734375 232.039062 278.917969 239.742188 C 277.996094 240.9375 277.074219 242.128906 276.09375 243.269531 C 278.757812 238.058594 280.007812 232.148438 279.953125 226.234375 C 279.953125 225.363281 279.027344 224.875 278.265625 225.257812 C 274.953125 227.046875 273.324219 231.550781 272.019531 234.96875 C 270.28125 239.6875 269.574219 244.625 269.628906 249.671875 C 269.628906 249.886719 269.683594 250.105469 269.792969 250.265625 C 264.03125 256.070312 257.621094 261.0625 250.558594 265.023438 C 254.6875 260.519531 257.1875 254.605469 257.894531 248.53125 C 258.058594 247.390625 256.480469 247.011719 255.773438 247.664062 C 250.503906 252.546875 244.691406 260.359375 244.472656 267.84375 L 244.421875 267.898438 C 244.3125 268.007812 244.257812 268.117188 244.203125 268.226562 C 240.019531 270.125 235.617188 271.644531 231 272.835938 C 230.078125 273.054688 230.457031 274.191406 231.273438 274.085938 Z M 268.542969 92.066406 C 268.164062 91.742188 267.78125 91.414062 267.402344 91.035156 C 267.238281 90.710938 267.128906 90.4375 266.96875 90.167969 C 267.511719 90.765625 268.054688 91.414062 268.542969 92.066406 Z M 268.542969 92.066406 " fill-opacity="1" fill-rule="nonzero"></path></g><g fill="rgb(7.449341%, 53.329468%, 3.138733%)" fill-opacity="0.4"><g transform="translate(142.234008, 182.381362)"><g><path d="M 84.421875 -13.3125 C 84.796875 -13.125 84.925781 -12.828125 84.8125 -12.421875 C 84.707031 -12.023438 84.5 -11.601562 84.1875 -11.15625 C 83.882812 -10.707031 83.609375 -10.332031 83.359375 -10.03125 C 83.242188 -9.894531 83.171875 -9.785156 83.140625 -9.703125 C 80.941406 -6.671875 79.039062 -3.488281 77.4375 -0.15625 C 75.832031 3.175781 74.320312 6.570312 72.90625 10.03125 C 72.3125 11.363281 71.738281 12.691406 71.1875 14.015625 C 69.882812 16.953125 68.628906 19.898438 67.421875 22.859375 C 65.328125 27.929688 63.117188 32.96875 60.796875 37.96875 C 59.972656 39.71875 59.050781 41.425781 58.03125 43.09375 C 57.195312 44.457031 55.929688 45.125 54.234375 45.09375 C 52.835938 45.125 51.988281 44.472656 51.6875 43.140625 C 51.382812 41.992188 51.210938 40.828125 51.171875 39.640625 C 50.992188 35.117188 51.101562 30.617188 51.5 26.140625 C 51.769531 23.023438 52.015625 19.925781 52.234375 16.84375 C 52.453125 13.507812 52.710938 10.175781 53.015625 6.84375 C 53.679688 -0.75 54.40625 -8.34375 55.1875 -15.9375 C 56.113281 -24.644531 57.078125 -33.328125 58.078125 -41.984375 C 59.804688 -56.671875 61.347656 -71.398438 62.703125 -86.171875 C 62.765625 -87.085938 62.78125 -87.84375 62.75 -88.4375 C 62.71875 -89.039062 62.585938 -89.265625 62.359375 -89.109375 C 62.128906 -88.960938 61.78125 -88.257812 61.3125 -87 C 56.925781 -74.40625 52.882812 -61.71875 49.1875 -48.9375 C 49.03125 -48.457031 48.898438 -47.992188 48.796875 -47.546875 C 46.578125 -39.941406 44.332031 -32.367188 42.0625 -24.828125 C 41.21875 -21.898438 40.238281 -18.929688 39.125 -15.921875 C 38.019531 -12.921875 36.742188 -10.085938 35.296875 -7.421875 C 34.847656 -6.648438 34.269531 -6.125 33.5625 -5.84375 C 32.863281 -5.570312 32.066406 -5.484375 31.171875 -5.578125 C 30.242188 -5.660156 29.5625 -6.109375 29.125 -6.921875 C 28.75 -7.691406 28.519531 -8.523438 28.4375 -9.421875 C 28.34375 -10.460938 28.234375 -11.523438 28.109375 -12.609375 C 27.828125 -14.960938 27.59375 -17.3125 27.40625 -19.65625 C 26.882812 -26.207031 26.195312 -32.78125 25.34375 -39.375 C 24.5 -45.976562 23.398438 -52.5 22.046875 -58.9375 C 21.679688 -60.570312 21.140625 -60.53125 20.421875 -58.8125 C 19.703125 -57.09375 18.890625 -54.210938 17.984375 -50.171875 C 17.078125 -46.128906 16.113281 -41.472656 15.09375 -36.203125 C 14.070312 -30.941406 13.085938 -25.585938 12.140625 -20.140625 C 11.203125 -14.691406 10.335938 -9.710938 9.546875 -5.203125 C 8.367188 1.804688 7.578125 6.269531 7.171875 8.1875 C 6.835938 9.5625 6.375 10.875 5.78125 12.125 C 5.507812 12.675781 5.132812 13.046875 4.65625 13.234375 C 4.175781 13.421875 3.644531 13.476562 3.0625 13.40625 C 1.875 13.257812 1.148438 12.582031 0.890625 11.375 C 0.785156 10.726562 0.734375 10.078125 0.734375 9.421875 C 0.679688 8.898438 0.65625 8.378906 0.65625 7.859375 C 0.550781 5.816406 0.484375 3.757812 0.453125 1.6875 C 0.148438 -14.207031 0.242188 -30.117188 0.734375 -46.046875 C 1.054688 -56.117188 1.347656 -66.21875 1.609375 -76.34375 C 1.609375 -77.414062 1.609375 -78.507812 1.609375 -79.625 C 1.578125 -80.644531 1.578125 -81.695312 1.609375 -82.78125 C 1.648438 -83.601562 1.957031 -84.171875 2.53125 -84.484375 C 3.101562 -84.796875 3.773438 -84.785156 4.546875 -84.453125 C 4.847656 -84.347656 5.050781 -84.179688 5.15625 -83.953125 C 5.269531 -83.722656 5.34375 -83.46875 5.375 -83.1875 C 5.71875 -80.40625 5.835938 -77.625 5.734375 -74.84375 C 5.679688 -73.175781 5.625 -71.507812 5.5625 -69.84375 C 5.4375 -65.28125 5.285156 -60.71875 5.109375 -56.15625 C 4.890625 -50.28125 4.742188 -44.410156 4.671875 -38.546875 C 4.585938 -34.222656 4.492188 -29.882812 4.390625 -25.53125 C 4.273438 -20.9375 4.234375 -16.347656 4.265625 -11.765625 C 4.265625 -8.617188 4.25 -5.429688 4.21875 -2.203125 C 4.21875 -2.015625 4.238281 -1.726562 4.28125 -1.34375 C 4.320312 -0.957031 4.390625 -0.546875 4.484375 -0.109375 C 4.578125 0.316406 4.671875 0.65625 4.765625 0.90625 C 4.859375 1.15625 4.96875 1.21875 5.09375 1.09375 C 5.21875 0.96875 5.335938 0.550781 5.453125 -0.15625 C 5.773438 -2.1875 6.144531 -4.484375 6.5625 -7.046875 C 7.488281 -13.078125 8.585938 -19.722656 9.859375 -26.984375 C 11.128906 -34.253906 12.566406 -41.117188 14.171875 -47.578125 C 15.773438 -54.035156 17.5 -59.050781 19.34375 -62.625 C 20.125 -63.914062 21.085938 -64.539062 22.234375 -64.5 C 23.378906 -64.457031 24.304688 -63.753906 25.015625 -62.390625 C 25.929688 -60.203125 26.707031 -57.523438 27.34375 -54.359375 C 27.976562 -51.191406 28.503906 -47.894531 28.921875 -44.46875 C 29.347656 -41.039062 29.710938 -37.828125 30.015625 -34.828125 C 30.160156 -33.203125 30.3125 -31.722656 30.46875 -30.390625 C 30.6875 -28.265625 30.890625 -26.316406 31.078125 -24.546875 C 31.515625 -20.359375 31.914062 -17.097656 32.28125 -14.765625 C 32.65625 -12.429688 33.15625 -11.265625 33.78125 -11.265625 C 34.414062 -11.265625 35.28125 -12.71875 36.375 -15.625 C 37.46875 -18.53125 38.957031 -23.148438 40.84375 -29.484375 C 42.539062 -35.335938 44.148438 -40.984375 45.671875 -46.421875 C 47.671875 -53.617188 49.742188 -60.765625 51.890625 -67.859375 C 54.046875 -74.960938 56.570312 -82.363281 59.46875 -90.0625 C 60.320312 -92.28125 61.210938 -94.113281 62.140625 -95.5625 C 63.066406 -97.007812 63.96875 -97.765625 64.84375 -97.828125 C 65.175781 -97.878906 65.507812 -97.835938 65.84375 -97.703125 C 66.1875 -97.566406 66.488281 -97.179688 66.75 -96.546875 C 67.007812 -95.921875 67.15625 -94.867188 67.1875 -93.390625 C 67.257812 -90.910156 67.210938 -88.425781 67.046875 -85.9375 C 66.878906 -83.457031 66.6875 -80.984375 66.46875 -78.515625 C 66.425781 -78.210938 66.40625 -77.929688 66.40625 -77.671875 C 65.175781 -64.960938 63.804688 -52.273438 62.296875 -39.609375 C 61.335938 -31.335938 60.410156 -23.078125 59.515625 -14.828125 C 59.515625 -14.640625 59.5 -14.429688 59.46875 -14.203125 C 58.65625 -6.503906 57.894531 1.203125 57.1875 8.921875 C 56.601562 15.691406 56.066406 22.46875 55.578125 29.25 C 55.546875 29.84375 55.507812 30.457031 55.46875 31.09375 C 55.351562 32.832031 55.28125 34.566406 55.25 36.296875 C 55.25 36.941406 55.25 37.554688 55.25 38.140625 C 55.207031 38.328125 55.21875 38.484375 55.28125 38.609375 C 55.351562 38.734375 55.507812 38.796875 55.75 38.796875 C 55.820312 38.796875 55.898438 38.769531 55.984375 38.71875 C 56.078125 38.675781 56.144531 38.59375 56.1875 38.46875 C 58.40625 33.875 60.578125 29.285156 62.703125 24.703125 C 64.679688 20.296875 66.71875 15.894531 68.8125 11.5 C 70.914062 7.101562 73.140625 2.738281 75.484375 -1.59375 C 77.398438 -5.226562 79.175781 -8.132812 80.8125 -10.3125 C 82.445312 -12.5 83.648438 -13.5 84.421875 -13.3125 Z M 84.421875 -13.3125 "></path></g></g></g><g fill="rgb(100%, 43.919373%, 0%)" fill-opacity="1"><g transform="translate(139.947535, 180.094896)"><g><path d="M 84.421875 -13.3125 C 84.796875 -13.125 84.925781 -12.828125 84.8125 -12.421875 C 84.707031 -12.023438 84.5 -11.601562 84.1875 -11.15625 C 83.882812 -10.707031 83.609375 -10.332031 83.359375 -10.03125 C 83.242188 -9.894531 83.171875 -9.785156 83.140625 -9.703125 C 80.941406 -6.671875 79.039062 -3.488281 77.4375 -0.15625 C 75.832031 3.175781 74.320312 6.570312 72.90625 10.03125 C 72.3125 11.363281 71.738281 12.691406 71.1875 14.015625 C 69.882812 16.953125 68.628906 19.898438 67.421875 22.859375 C 65.328125 27.929688 63.117188 32.96875 60.796875 37.96875 C 59.972656 39.71875 59.050781 41.425781 58.03125 43.09375 C 57.195312 44.457031 55.929688 45.125 54.234375 45.09375 C 52.835938 45.125 51.988281 44.472656 51.6875 43.140625 C 51.382812 41.992188 51.210938 40.828125 51.171875 39.640625 C 50.992188 35.117188 51.101562 30.617188 51.5 26.140625 C 51.769531 23.023438 52.015625 19.925781 52.234375 16.84375 C 52.453125 13.507812 52.710938 10.175781 53.015625 6.84375 C 53.679688 -0.75 54.40625 -8.34375 55.1875 -15.9375 C 56.113281 -24.644531 57.078125 -33.328125 58.078125 -41.984375 C 59.804688 -56.671875 61.347656 -71.398438 62.703125 -86.171875 C 62.765625 -87.085938 62.78125 -87.84375 62.75 -88.4375 C 62.71875 -89.039062 62.585938 -89.265625 62.359375 -89.109375 C 62.128906 -88.960938 61.78125 -88.257812 61.3125 -87 C 56.925781 -74.40625 52.882812 -61.71875 49.1875 -48.9375 C 49.03125 -48.457031 48.898438 -47.992188 48.796875 -47.546875 C 46.578125 -39.941406 44.332031 -32.367188 42.0625 -24.828125 C 41.21875 -21.898438 40.238281 -18.929688 39.125 -15.921875 C 38.019531 -12.921875 36.742188 -10.085938 35.296875 -7.421875 C 34.847656 -6.648438 34.269531 -6.125 33.5625 -5.84375 C 32.863281 -5.570312 32.066406 -5.484375 31.171875 -5.578125 C 30.242188 -5.660156 29.5625 -6.109375 29.125 -6.921875 C 28.75 -7.691406 28.519531 -8.523438 28.4375 -9.421875 C 28.34375 -10.460938 28.234375 -11.523438 28.109375 -12.609375 C 27.828125 -14.960938 27.59375 -17.3125 27.40625 -19.65625 C 26.882812 -26.207031 26.195312 -32.78125 25.34375 -39.375 C 24.5 -45.976562 23.398438 -52.5 22.046875 -58.9375 C 21.679688 -60.570312 21.140625 -60.53125 20.421875 -58.8125 C 19.703125 -57.09375 18.890625 -54.210938 17.984375 -50.171875 C 17.078125 -46.128906 16.113281 -41.472656 15.09375 -36.203125 C 14.070312 -30.941406 13.085938 -25.585938 12.140625 -20.140625 C 11.203125 -14.691406 10.335938 -9.710938 9.546875 -5.203125 C 8.367188 1.804688 7.578125 6.269531 7.171875 8.1875 C 6.835938 9.5625 6.375 10.875 5.78125 12.125 C 5.507812 12.675781 5.132812 13.046875 4.65625 13.234375 C 4.175781 13.421875 3.644531 13.476562 3.0625 13.40625 C 1.875 13.257812 1.148438 12.582031 0.890625 11.375 C 0.785156 10.726562 0.734375 10.078125 0.734375 9.421875 C 0.679688 8.898438 0.65625 8.378906 0.65625 7.859375 C 0.550781 5.816406 0.484375 3.757812 0.453125 1.6875 C 0.148438 -14.207031 0.242188 -30.117188 0.734375 -46.046875 C 1.054688 -56.117188 1.347656 -66.21875 1.609375 -76.34375 C 1.609375 -77.414062 1.609375 -78.507812 1.609375 -79.625 C 1.578125 -80.644531 1.578125 -81.695312 1.609375 -82.78125 C 1.648438 -83.601562 1.957031 -84.171875 2.53125 -84.484375 C 3.101562 -84.796875 3.773438 -84.785156 4.546875 -84.453125 C 4.847656 -84.347656 5.050781 -84.179688 5.15625 -83.953125 C 5.269531 -83.722656 5.34375 -83.46875 5.375 -83.1875 C 5.71875 -80.40625 5.835938 -77.625 5.734375 -74.84375 C 5.679688 -73.175781 5.625 -71.507812 5.5625 -69.84375 C 5.4375 -65.28125 5.285156 -60.71875 5.109375 -56.15625 C 4.890625 -50.28125 4.742188 -44.410156 4.671875 -38.546875 C 4.585938 -34.222656 4.492188 -29.882812 4.390625 -25.53125 C 4.273438 -20.9375 4.234375 -16.347656 4.265625 -11.765625 C 4.265625 -8.617188 4.25 -5.429688 4.21875 -2.203125 C 4.21875 -2.015625 4.238281 -1.726562 4.28125 -1.34375 C 4.320312 -0.957031 4.390625 -0.546875 4.484375 -0.109375 C 4.578125 0.316406 4.671875 0.65625 4.765625 0.90625 C 4.859375 1.15625 4.96875 1.21875 5.09375 1.09375 C 5.21875 0.96875 5.335938 0.550781 5.453125 -0.15625 C 5.773438 -2.1875 6.144531 -4.484375 6.5625 -7.046875 C 7.488281 -13.078125 8.585938 -19.722656 9.859375 -26.984375 C 11.128906 -34.253906 12.566406 -41.117188 14.171875 -47.578125 C 15.773438 -54.035156 17.5 -59.050781 19.34375 -62.625 C 20.125 -63.914062 21.085938 -64.539062 22.234375 -64.5 C 23.378906 -64.457031 24.304688 -63.753906 25.015625 -62.390625 C 25.929688 -60.203125 26.707031 -57.523438 27.34375 -54.359375 C 27.976562 -51.191406 28.503906 -47.894531 28.921875 -44.46875 C 29.347656 -41.039062 29.710938 -37.828125 30.015625 -34.828125 C 30.160156 -33.203125 30.3125 -31.722656 30.46875 -30.390625 C 30.6875 -28.265625 30.890625 -26.316406 31.078125 -24.546875 C 31.515625 -20.359375 31.914062 -17.097656 32.28125 -14.765625 C 32.65625 -12.429688 33.15625 -11.265625 33.78125 -11.265625 C 34.414062 -11.265625 35.28125 -12.71875 36.375 -15.625 C 37.46875 -18.53125 38.957031 -23.148438 40.84375 -29.484375 C 42.539062 -35.335938 44.148438 -40.984375 45.671875 -46.421875 C 47.671875 -53.617188 49.742188 -60.765625 51.890625 -67.859375 C 54.046875 -74.960938 56.570312 -82.363281 59.46875 -90.0625 C 60.320312 -92.28125 61.210938 -94.113281 62.140625 -95.5625 C 63.066406 -97.007812 63.96875 -97.765625 64.84375 -97.828125 C 65.175781 -97.878906 65.507812 -97.835938 65.84375 -97.703125 C 66.1875 -97.566406 66.488281 -97.179688 66.75 -96.546875 C 67.007812 -95.921875 67.15625 -94.867188 67.1875 -93.390625 C 67.257812 -90.910156 67.210938 -88.425781 67.046875 -85.9375 C 66.878906 -83.457031 66.6875 -80.984375 66.46875 -78.515625 C 66.425781 -78.210938 66.40625 -77.929688 66.40625 -77.671875 C 65.175781 -64.960938 63.804688 -52.273438 62.296875 -39.609375 C 61.335938 -31.335938 60.410156 -23.078125 59.515625 -14.828125 C 59.515625 -14.640625 59.5 -14.429688 59.46875 -14.203125 C 58.65625 -6.503906 57.894531 1.203125 57.1875 8.921875 C 56.601562 15.691406 56.066406 22.46875 55.578125 29.25 C 55.546875 29.84375 55.507812 30.457031 55.46875 31.09375 C 55.351562 32.832031 55.28125 34.566406 55.25 36.296875 C 55.25 36.941406 55.25 37.554688 55.25 38.140625 C 55.207031 38.328125 55.21875 38.484375 55.28125 38.609375 C 55.351562 38.734375 55.507812 38.796875 55.75 38.796875 C 55.820312 38.796875 55.898438 38.769531 55.984375 38.71875 C 56.078125 38.675781 56.144531 38.59375 56.1875 38.46875 C 58.40625 33.875 60.578125 29.285156 62.703125 24.703125 C 64.679688 20.296875 66.71875 15.894531 68.8125 11.5 C 70.914062 7.101562 73.140625 2.738281 75.484375 -1.59375 C 77.398438 -5.226562 79.175781 -8.132812 80.8125 -10.3125 C 82.445312 -12.5 83.648438 -13.5 84.421875 -13.3125 Z M 84.421875 -13.3125 "></path></g></g></g><g fill="rgb(7.449341%, 53.329468%, 3.138733%)" fill-opacity="0.4"><g transform="translate(225.050409, 182.381362)"><g></g></g></g><g fill="rgb(7.449341%, 53.329468%, 3.138733%)" fill-opacity="0.4"><g transform="translate(238.294916, 182.381362)"><g></g></g></g><g fill="rgb(7.449341%, 53.329468%, 3.138733%)" fill-opacity="0.4"><g transform="translate(251.539423, 182.381362)"><g></g></g></g><g fill="rgb(7.449341%, 53.329468%, 3.138733%)" fill-opacity="0.4"><g transform="translate(264.78393, 182.381362)"><g></g></g></g><g fill="rgb(7.449341%, 53.329468%, 3.138733%)" fill-opacity="0.4"><g transform="translate(278.028437, 182.381362)"><g></g></g></g><g fill="rgb(7.449341%, 53.329468%, 3.138733%)" fill-opacity="0.4"><g transform="translate(291.272947, 182.381362)"><g></g></g></g><g fill="rgb(7.449341%, 53.329468%, 3.138733%)" fill-opacity="0.4"><g transform="translate(304.517458, 182.381362)"><g></g></g></g><g fill="rgb(7.449341%, 53.329468%, 3.138733%)" fill-opacity="0.4"><g transform="translate(317.761968, 182.381362)"><g></g></g></g><g fill="rgb(7.449341%, 53.329468%, 3.138733%)" fill-opacity="0.4"><g transform="translate(331.006478, 182.381362)"><g></g></g></g><g fill="rgb(7.449341%, 53.329468%, 3.138733%)" fill-opacity="0.4"><g transform="translate(344.250988, 182.381362)"><g></g></g></g><g fill="rgb(7.449341%, 53.329468%, 3.138733%)" fill-opacity="0.4"><g transform="translate(357.495498, 182.381362)"><g></g></g></g><g fill="rgb(7.449341%, 53.329468%, 3.138733%)" fill-opacity="0.4"><g transform="translate(370.740008, 182.381362)"><g></g></g></g><g fill="rgb(100%, 43.919373%, 0%)" fill-opacity="1"><g transform="translate(222.763936, 180.094896)"><g></g></g></g><g fill="rgb(100%, 43.919373%, 0%)" fill-opacity="1"><g transform="translate(236.008443, 180.094896)"><g></g></g></g><g fill="rgb(100%, 43.919373%, 0%)" fill-opacity="1"><g transform="translate(249.25295, 180.094896)"><g></g></g></g><g fill="rgb(100%, 43.919373%, 0%)" fill-opacity="1"><g transform="translate(262.497458, 180.094896)"><g></g></g></g><g fill="rgb(100%, 43.919373%, 0%)" fill-opacity="1"><g transform="translate(275.741965, 180.094896)"><g></g></g></g><g fill="rgb(100%, 43.919373%, 0%)" fill-opacity="1"><g transform="translate(288.986475, 180.094896)"><g></g></g></g><g fill="rgb(100%, 43.919373%, 0%)" fill-opacity="1"><g transform="translate(302.230985, 180.094896)"><g></g></g></g><g fill="rgb(100%, 43.919373%, 0%)" fill-opacity="1"><g transform="translate(315.475495, 180.094896)"><g></g></g></g><g fill="rgb(100%, 43.919373%, 0%)" fill-opacity="1"><g transform="translate(328.720005, 180.094896)"><g></g></g></g><g fill="rgb(100%, 43.919373%, 0%)" fill-opacity="1"><g transform="translate(341.964515, 180.094896)"><g></g></g></g><g fill="rgb(100%, 43.919373%, 0%)" fill-opacity="1"><g transform="translate(355.209025, 180.094896)"><g></g></g></g><g fill="rgb(100%, 43.919373%, 0%)" fill-opacity="1"><g transform="translate(368.453536, 180.094896)"><g></g></g></g><g fill="rgb(7.449341%, 53.329468%, 3.138733%)" fill-opacity="0.4"><g transform="translate(194.452755, 242.381358)"><g></g></g></g><g fill="rgb(100%, 43.919373%, 0%)" fill-opacity="1"><g transform="translate(192.166282, 240.094892)"><g></g></g></g><g fill="rgb(7.449341%, 53.329468%, 3.138733%)" fill-opacity="0.4"><g transform="translate(142.234008, 302.381354)"><g></g></g></g><g fill="rgb(7.449341%, 53.329468%, 3.138733%)" fill-opacity="0.4"><g transform="translate(155.478515, 302.381354)"><g></g></g></g><g fill="rgb(7.449341%, 53.329468%, 3.138733%)" fill-opacity="0.4"><g transform="translate(168.723022, 302.381354)"><g></g></g></g><g fill="rgb(7.449341%, 53.329468%, 3.138733%)" fill-opacity="0.4"><g transform="translate(181.967529, 302.381354)"><g></g></g></g><g fill="rgb(7.449341%, 53.329468%, 3.138733%)" fill-opacity="0.4"><g transform="translate(195.212036, 302.381354)"><g></g></g></g><g fill="rgb(7.449341%, 53.329468%, 3.138733%)" fill-opacity="0.4"><g transform="translate(208.456547, 302.381354)"><g></g></g></g><g fill="rgb(7.449341%, 53.329468%, 3.138733%)" fill-opacity="0.4"><g transform="translate(221.701057, 302.381354)"><g></g></g></g><g fill="rgb(7.449341%, 53.329468%, 3.138733%)" fill-opacity="0.4"><g transform="translate(234.945567, 302.381354)"><g></g></g></g><g fill="rgb(7.449341%, 53.329468%, 3.138733%)" fill-opacity="0.4"><g transform="translate(248.190077, 302.381354)"><g></g></g></g><g fill="rgb(7.449341%, 53.329468%, 3.138733%)" fill-opacity="0.4"><g transform="translate(261.434587, 302.381354)"><g></g></g></g><g fill="rgb(7.449341%, 53.329468%, 3.138733%)" fill-opacity="0.4"><g transform="translate(274.679097, 302.381354)"><g></g></g></g><g fill="rgb(7.449341%, 53.329468%, 3.138733%)" fill-opacity="0.4"><g transform="translate(287.923607, 302.381354)"><g></g></g></g><g fill="rgb(7.449341%, 53.329468%, 3.138733%)" fill-opacity="0.4"><g transform="translate(301.168118, 302.381354)"><g></g></g></g><g fill="rgb(7.449341%, 53.329468%, 3.138733%)" fill-opacity="0.4"><g transform="translate(314.412628, 302.381354)"><g></g></g></g><g fill="rgb(7.449341%, 53.329468%, 3.138733%)" fill-opacity="0.4"><g transform="translate(327.657138, 302.381354)"><g></g></g></g><g fill="rgb(7.449341%, 53.329468%, 3.138733%)" fill-opacity="0.4"><g transform="translate(340.901648, 302.381354)"><g></g></g></g><g fill="rgb(7.449341%, 53.329468%, 3.138733%)" fill-opacity="0.4"><g transform="translate(354.146146, 302.381354)"><g></g></g></g><g fill="rgb(7.449341%, 53.329468%, 3.138733%)" fill-opacity="0.4"><g transform="translate(367.390644, 302.381354)"><g></g></g></g><g fill="rgb(100%, 43.919373%, 0%)" fill-opacity="1"><g transform="translate(139.947535, 300.094888)"><g></g></g></g><g fill="rgb(100%, 43.919373%, 0%)" fill-opacity="1"><g transform="translate(153.192042, 300.094888)"><g></g></g></g><g fill="rgb(100%, 43.919373%, 0%)" fill-opacity="1"><g transform="translate(166.43655, 300.094888)"><g></g></g></g><g fill="rgb(100%, 43.919373%, 0%)" fill-opacity="1"><g transform="translate(179.681057, 300.094888)"><g></g></g></g><g fill="rgb(100%, 43.919373%, 0%)" fill-opacity="1"><g transform="translate(192.925564, 300.094888)"><g></g></g></g><g fill="rgb(100%, 43.919373%, 0%)" fill-opacity="1"><g transform="translate(206.170074, 300.094888)"><g></g></g></g><g fill="rgb(100%, 43.919373%, 0%)" fill-opacity="1"><g transform="translate(219.414584, 300.094888)"><g></g></g></g><g fill="rgb(100%, 43.919373%, 0%)" fill-opacity="1"><g transform="translate(232.659094, 300.094888)"><g></g></g></g><g fill="rgb(100%, 43.919373%, 0%)" fill-opacity="1"><g transform="translate(245.903604, 300.094888)"><g></g></g></g><g fill="rgb(100%, 43.919373%, 0%)" fill-opacity="1"><g transform="translate(259.148114, 300.094888)"><g></g></g></g><g fill="rgb(100%, 43.919373%, 0%)" fill-opacity="1"><g transform="translate(272.392625, 300.094888)"><g></g></g></g><g fill="rgb(100%, 43.919373%, 0%)" fill-opacity="1"><g transform="translate(285.637135, 300.094888)"><g></g></g></g><g fill="rgb(100%, 43.919373%, 0%)" fill-opacity="1"><g transform="translate(298.881645, 300.094888)"><g></g></g></g><g fill="rgb(100%, 43.919373%, 0%)" fill-opacity="1"><g transform="translate(312.126155, 300.094888)"><g></g></g></g><g fill="rgb(100%, 43.919373%, 0%)" fill-opacity="1"><g transform="translate(325.370665, 300.094888)"><g></g></g></g><g fill="rgb(100%, 43.919373%, 0%)" fill-opacity="1"><g transform="translate(338.615175, 300.094888)"><g></g></g></g><g fill="rgb(100%, 43.919373%, 0%)" fill-opacity="1"><g transform="translate(351.859673, 300.094888)"><g></g></g></g><g fill="rgb(100%, 43.919373%, 0%)" fill-opacity="1"><g transform="translate(365.104172, 300.094888)"><g></g></g></g><g fill="rgb(7.449341%, 53.329468%, 3.138733%)" fill-opacity="0.4"><g transform="translate(155.938163, 218.825507)"><g></g></g></g><g fill="rgb(100%, 43.919373%, 0%)" fill-opacity="1"><g transform="translate(153.90647, 216.309948)"><g></g></g></g><g fill="rgb(7.449341%, 53.329468%, 3.138733%)" fill-opacity="0.4"><g transform="translate(169.106012, 220.226669)"><g><path d="M 78.5 -6.84375 C 78.882812 -6.832031 79.023438 -6.53125 78.921875 -5.9375 C 78.816406 -5.34375 78.546875 -5.054688 78.109375 -5.078125 C 77.703125 -5.054688 77.304688 -4.894531 76.921875 -4.59375 C 76.546875 -4.300781 76.335938 -3.953125 76.296875 -3.546875 C 76.003906 0.0234375 75.175781 3.40625 73.8125 6.59375 C 72.457031 9.789062 70.765625 12.832031 68.734375 15.71875 C 64.710938 21.726562 60.039062 26.957031 54.71875 31.40625 C 49.40625 35.851562 43.359375 39.4375 36.578125 42.15625 C 32.859375 43.613281 29.078125 44.601562 25.234375 45.125 C 21.390625 45.644531 17.46875 45.578125 13.46875 44.921875 C 10.144531 44.390625 7.097656 43.160156 4.328125 41.234375 C 1.054688 38.785156 -0.960938 35.832031 -1.734375 32.375 C -2.503906 28.925781 -1.921875 25.410156 0.015625 21.828125 C 2.023438 18.335938 4.941406 15.203125 8.765625 12.421875 C 12.585938 9.648438 16.945312 7.191406 21.84375 5.046875 C 26.75 2.898438 31.816406 1.082031 37.046875 -0.40625 C 42.273438 -1.894531 47.289062 -3.109375 52.09375 -4.046875 C 56.90625 -4.992188 61.160156 -5.640625 64.859375 -5.984375 C 65.867188 -6.109375 66.863281 -6.210938 67.84375 -6.296875 C 68.894531 -6.367188 69.925781 -6.460938 70.9375 -6.578125 C 71.8125 -6.628906 72.164062 -7.054688 72 -7.859375 C 71.519531 -11.492188 70.140625 -14.71875 67.859375 -17.53125 C 66.203125 -19.519531 64.367188 -21.253906 62.359375 -22.734375 C 60.347656 -24.210938 58.1875 -25.507812 55.875 -26.625 C 48.957031 -29.925781 41.6875 -32.148438 34.0625 -33.296875 C 33.539062 -33.398438 33.003906 -33.484375 32.453125 -33.546875 C 31.828125 -33.554688 31.460938 -33.25 31.359375 -32.625 C 31.203125 -31.90625 31.082031 -31.175781 31 -30.4375 C 30.351562 -24.65625 29.722656 -18.867188 29.109375 -13.078125 C 28.804688 -10.546875 28.519531 -7.988281 28.25 -5.40625 C 28.226562 -5.21875 28.207031 -5.054688 28.1875 -4.921875 C 28.15625 -4.554688 28.117188 -4.191406 28.078125 -3.828125 C 27.710938 -2.179688 26.785156 -1.691406 25.296875 -2.359375 C 24.710938 -2.609375 24.4375 -3.039062 24.46875 -3.65625 C 24.488281 -4.5 24.554688 -5.34375 24.671875 -6.1875 C 25.203125 -11.414062 25.742188 -16.628906 26.296875 -21.828125 C 26.578125 -24.453125 26.851562 -27.050781 27.125 -29.625 C 27.144531 -29.84375 27.164062 -30.0625 27.1875 -30.28125 C 27.257812 -30.90625 27.316406 -31.550781 27.359375 -32.21875 C 27.429688 -32.925781 27.375 -33.398438 27.1875 -33.640625 C 27.007812 -33.878906 26.59375 -34.050781 25.9375 -34.15625 C 25.632812 -34.1875 25.359375 -34.210938 25.109375 -34.234375 C 24.410156 -34.367188 23.734375 -34.5 23.078125 -34.625 C 22.484375 -34.757812 22.113281 -35.113281 21.96875 -35.6875 C 21.851562 -36.414062 22.097656 -36.976562 22.703125 -37.375 C 23.503906 -37.863281 24.332031 -38.347656 25.1875 -38.828125 C 25.550781 -39.015625 25.867188 -39.164062 26.140625 -39.28125 C 26.804688 -39.625 27.296875 -39.90625 27.609375 -40.125 C 27.921875 -40.351562 28.117188 -40.628906 28.203125 -40.953125 C 28.285156 -41.273438 28.367188 -41.789062 28.453125 -42.5 C 28.441406 -42.90625 28.460938 -43.378906 28.515625 -43.921875 C 29.015625 -48.097656 29.488281 -52.289062 29.9375 -56.5 C 30.175781 -58.800781 30.425781 -61.132812 30.6875 -63.5 C 30.6875 -63.53125 30.691406 -63.585938 30.703125 -63.671875 C 30.785156 -64.484375 30.898438 -65.265625 31.046875 -66.015625 C 31.222656 -67.015625 31.867188 -67.441406 32.984375 -67.296875 C 34.046875 -67.210938 34.601562 -66.6875 34.65625 -65.71875 C 34.613281 -64.738281 34.539062 -63.753906 34.4375 -62.765625 C 34.175781 -60.253906 33.910156 -57.75 33.640625 -55.25 C 33.316406 -52.1875 33.019531 -49.144531 32.75 -46.125 C 32.675781 -45.90625 32.628906 -45.707031 32.609375 -45.53125 C 32.453125 -44.6875 32.484375 -43.691406 32.703125 -42.546875 C 35.273438 -43.703125 38.394531 -45.171875 42.0625 -46.953125 C 45.738281 -48.734375 49.492188 -50.671875 53.328125 -52.765625 C 57.171875 -54.859375 60.601562 -56.992188 63.625 -59.171875 C 66.65625 -61.347656 68.816406 -63.425781 70.109375 -65.40625 C 71.503906 -67.675781 71.195312 -69.695312 69.1875 -71.46875 C 66.6875 -73.5625 63.320312 -74.921875 59.09375 -75.546875 C 54.863281 -76.171875 50.328125 -76.195312 45.484375 -75.625 C 40.648438 -75.050781 36.109375 -74.023438 31.859375 -72.546875 C 27.609375 -71.066406 24.175781 -69.253906 21.5625 -67.109375 C 20.738281 -66.398438 19.972656 -65.535156 19.265625 -64.515625 C 18.554688 -63.503906 17.976562 -62.476562 17.53125 -61.4375 C 17.207031 -60.789062 16.671875 -60.453125 15.921875 -60.421875 C 15.179688 -60.398438 14.570312 -60.675781 14.09375 -61.25 C 13.882812 -61.632812 13.859375 -62.039062 14.015625 -62.46875 C 14.484375 -63.6875 15.179688 -64.773438 16.109375 -65.734375 C 19.078125 -68.804688 23.097656 -71.335938 28.171875 -73.328125 C 33.242188 -75.316406 38.65625 -76.65625 44.40625 -77.34375 C 50.164062 -78.039062 55.554688 -78.007812 60.578125 -77.25 C 65.609375 -76.5 69.5625 -74.921875 72.4375 -72.515625 C 75.375 -70.023438 75.753906 -67.171875 73.578125 -63.953125 C 72.484375 -62.367188 70.953125 -60.796875 68.984375 -59.234375 C 67.015625 -57.671875 64.941406 -56.210938 62.765625 -54.859375 C 60.585938 -53.503906 58.664062 -52.335938 57 -51.359375 C 53.9375 -49.617188 50.8125 -47.957031 47.625 -46.375 C 44.445312 -44.789062 41.242188 -43.253906 38.015625 -41.765625 C 37.953125 -41.742188 37.875 -41.695312 37.78125 -41.625 C 36.1875 -40.9375 34.617188 -40.210938 33.078125 -39.453125 C 31.972656 -38.773438 31.550781 -37.773438 31.8125 -36.453125 C 31.84375 -36.328125 31.914062 -36.191406 32.03125 -36.046875 C 32.144531 -35.910156 32.269531 -35.832031 32.40625 -35.8125 C 33 -35.632812 33.585938 -35.515625 34.171875 -35.453125 C 34.203125 -35.453125 34.253906 -35.445312 34.328125 -35.4375 C 42.273438 -34.375 49.894531 -32.191406 57.1875 -28.890625 C 61.226562 -27.109375 64.921875 -24.753906 68.265625 -21.828125 C 70.273438 -20.046875 71.9375 -18.082031 73.25 -15.9375 C 74.5625 -13.789062 75.445312 -11.382812 75.90625 -8.71875 C 76.0625 -7.851562 76.285156 -7.3125 76.578125 -7.09375 C 76.867188 -6.875 77.507812 -6.789062 78.5 -6.84375 Z M 71.875 -1.171875 C 72.195312 -2.648438 72.191406 -3.578125 71.859375 -3.953125 C 71.535156 -4.335938 70.585938 -4.425781 69.015625 -4.21875 C 65.328125 -3.851562 61.144531 -3.25 56.46875 -2.40625 C 51.800781 -1.5625 46.972656 -0.4375 41.984375 0.96875 C 36.992188 2.375 32.15625 4.085938 27.46875 6.109375 C 22.78125 8.128906 18.585938 10.476562 14.890625 13.15625 C 11.191406 15.832031 8.304688 18.898438 6.234375 22.359375 C 4.722656 24.984375 3.890625 27.53125 3.734375 30 C 3.578125 32.46875 3.976562 34.648438 4.9375 36.546875 C 5.894531 38.453125 7.273438 39.878906 9.078125 40.828125 C 11.367188 42.003906 13.800781 42.769531 16.375 43.125 C 16.550781 43.144531 16.71875 43.144531 16.875 43.125 C 17.25 43.113281 17.617188 43.128906 17.984375 43.171875 C 22.890625 43.222656 27.617188 42.390625 32.171875 40.671875 C 40.460938 37.597656 47.644531 33.269531 53.71875 27.6875 C 59.789062 22.113281 64.84375 15.425781 68.875 7.625 C 70.289062 4.820312 71.289062 1.890625 71.875 -1.171875 Z M 71.875 -1.171875 "></path></g></g></g><g fill="rgb(100%, 43.919373%, 0%)" fill-opacity="1"><g transform="translate(167.074319, 217.711109)"><g><path d="M 78.5 -6.84375 C 78.882812 -6.832031 79.023438 -6.53125 78.921875 -5.9375 C 78.816406 -5.34375 78.546875 -5.054688 78.109375 -5.078125 C 77.703125 -5.054688 77.304688 -4.894531 76.921875 -4.59375 C 76.546875 -4.300781 76.335938 -3.953125 76.296875 -3.546875 C 76.003906 0.0234375 75.175781 3.40625 73.8125 6.59375 C 72.457031 9.789062 70.765625 12.832031 68.734375 15.71875 C 64.710938 21.726562 60.039062 26.957031 54.71875 31.40625 C 49.40625 35.851562 43.359375 39.4375 36.578125 42.15625 C 32.859375 43.613281 29.078125 44.601562 25.234375 45.125 C 21.390625 45.644531 17.46875 45.578125 13.46875 44.921875 C 10.144531 44.390625 7.097656 43.160156 4.328125 41.234375 C 1.054688 38.785156 -0.960938 35.832031 -1.734375 32.375 C -2.503906 28.925781 -1.921875 25.410156 0.015625 21.828125 C 2.023438 18.335938 4.941406 15.203125 8.765625 12.421875 C 12.585938 9.648438 16.945312 7.191406 21.84375 5.046875 C 26.75 2.898438 31.816406 1.082031 37.046875 -0.40625 C 42.273438 -1.894531 47.289062 -3.109375 52.09375 -4.046875 C 56.90625 -4.992188 61.160156 -5.640625 64.859375 -5.984375 C 65.867188 -6.109375 66.863281 -6.210938 67.84375 -6.296875 C 68.894531 -6.367188 69.925781 -6.460938 70.9375 -6.578125 C 71.8125 -6.628906 72.164062 -7.054688 72 -7.859375 C 71.519531 -11.492188 70.140625 -14.71875 67.859375 -17.53125 C 66.203125 -19.519531 64.367188 -21.253906 62.359375 -22.734375 C 60.347656 -24.210938 58.1875 -25.507812 55.875 -26.625 C 48.957031 -29.925781 41.6875 -32.148438 34.0625 -33.296875 C 33.539062 -33.398438 33.003906 -33.484375 32.453125 -33.546875 C 31.828125 -33.554688 31.460938 -33.25 31.359375 -32.625 C 31.203125 -31.90625 31.082031 -31.175781 31 -30.4375 C 30.351562 -24.65625 29.722656 -18.867188 29.109375 -13.078125 C 28.804688 -10.546875 28.519531 -7.988281 28.25 -5.40625 C 28.226562 -5.21875 28.207031 -5.054688 28.1875 -4.921875 C 28.15625 -4.554688 28.117188 -4.191406 28.078125 -3.828125 C 27.710938 -2.179688 26.785156 -1.691406 25.296875 -2.359375 C 24.710938 -2.609375 24.4375 -3.039062 24.46875 -3.65625 C 24.488281 -4.5 24.554688 -5.34375 24.671875 -6.1875 C 25.203125 -11.414062 25.742188 -16.628906 26.296875 -21.828125 C 26.578125 -24.453125 26.851562 -27.050781 27.125 -29.625 C 27.144531 -29.84375 27.164062 -30.0625 27.1875 -30.28125 C 27.257812 -30.90625 27.316406 -31.550781 27.359375 -32.21875 C 27.429688 -32.925781 27.375 -33.398438 27.1875 -33.640625 C 27.007812 -33.878906 26.59375 -34.050781 25.9375 -34.15625 C 25.632812 -34.1875 25.359375 -34.210938 25.109375 -34.234375 C 24.410156 -34.367188 23.734375 -34.5 23.078125 -34.625 C 22.484375 -34.757812 22.113281 -35.113281 21.96875 -35.6875 C 21.851562 -36.414062 22.097656 -36.976562 22.703125 -37.375 C 23.503906 -37.863281 24.332031 -38.347656 25.1875 -38.828125 C 25.550781 -39.015625 25.867188 -39.164062 26.140625 -39.28125 C 26.804688 -39.625 27.296875 -39.90625 27.609375 -40.125 C 27.921875 -40.351562 28.117188 -40.628906 28.203125 -40.953125 C 28.285156 -41.273438 28.367188 -41.789062 28.453125 -42.5 C 28.441406 -42.90625 28.460938 -43.378906 28.515625 -43.921875 C 29.015625 -48.097656 29.488281 -52.289062 29.9375 -56.5 C 30.175781 -58.800781 30.425781 -61.132812 30.6875 -63.5 C 30.6875 -63.53125 30.691406 -63.585938 30.703125 -63.671875 C 30.785156 -64.484375 30.898438 -65.265625 31.046875 -66.015625 C 31.222656 -67.015625 31.867188 -67.441406 32.984375 -67.296875 C 34.046875 -67.210938 34.601562 -66.6875 34.65625 -65.71875 C 34.613281 -64.738281 34.539062 -63.753906 34.4375 -62.765625 C 34.175781 -60.253906 33.910156 -57.75 33.640625 -55.25 C 33.316406 -52.1875 33.019531 -49.144531 32.75 -46.125 C 32.675781 -45.90625 32.628906 -45.707031 32.609375 -45.53125 C 32.453125 -44.6875 32.484375 -43.691406 32.703125 -42.546875 C 35.273438 -43.703125 38.394531 -45.171875 42.0625 -46.953125 C 45.738281 -48.734375 49.492188 -50.671875 53.328125 -52.765625 C 57.171875 -54.859375 60.601562 -56.992188 63.625 -59.171875 C 66.65625 -61.347656 68.816406 -63.425781 70.109375 -65.40625 C 71.503906 -67.675781 71.195312 -69.695312 69.1875 -71.46875 C 66.6875 -73.5625 63.320312 -74.921875 59.09375 -75.546875 C 54.863281 -76.171875 50.328125 -76.195312 45.484375 -75.625 C 40.648438 -75.050781 36.109375 -74.023438 31.859375 -72.546875 C 27.609375 -71.066406 24.175781 -69.253906 21.5625 -67.109375 C 20.738281 -66.398438 19.972656 -65.535156 19.265625 -64.515625 C 18.554688 -63.503906 17.976562 -62.476562 17.53125 -61.4375 C 17.207031 -60.789062 16.671875 -60.453125 15.921875 -60.421875 C 15.179688 -60.398438 14.570312 -60.675781 14.09375 -61.25 C 13.882812 -61.632812 13.859375 -62.039062 14.015625 -62.46875 C 14.484375 -63.6875 15.179688 -64.773438 16.109375 -65.734375 C 19.078125 -68.804688 23.097656 -71.335938 28.171875 -73.328125 C 33.242188 -75.316406 38.65625 -76.65625 44.40625 -77.34375 C 50.164062 -78.039062 55.554688 -78.007812 60.578125 -77.25 C 65.609375 -76.5 69.5625 -74.921875 72.4375 -72.515625 C 75.375 -70.023438 75.753906 -67.171875 73.578125 -63.953125 C 72.484375 -62.367188 70.953125 -60.796875 68.984375 -59.234375 C 67.015625 -57.671875 64.941406 -56.210938 62.765625 -54.859375 C 60.585938 -53.503906 58.664062 -52.335938 57 -51.359375 C 53.9375 -49.617188 50.8125 -47.957031 47.625 -46.375 C 44.445312 -44.789062 41.242188 -43.253906 38.015625 -41.765625 C 37.953125 -41.742188 37.875 -41.695312 37.78125 -41.625 C 36.1875 -40.9375 34.617188 -40.210938 33.078125 -39.453125 C 31.972656 -38.773438 31.550781 -37.773438 31.8125 -36.453125 C 31.84375 -36.328125 31.914062 -36.191406 32.03125 -36.046875 C 32.144531 -35.910156 32.269531 -35.832031 32.40625 -35.8125 C 33 -35.632812 33.585938 -35.515625 34.171875 -35.453125 C 34.203125 -35.453125 34.253906 -35.445312 34.328125 -35.4375 C 42.273438 -34.375 49.894531 -32.191406 57.1875 -28.890625 C 61.226562 -27.109375 64.921875 -24.753906 68.265625 -21.828125 C 70.273438 -20.046875 71.9375 -18.082031 73.25 -15.9375 C 74.5625 -13.789062 75.445312 -11.382812 75.90625 -8.71875 C 76.0625 -7.851562 76.285156 -7.3125 76.578125 -7.09375 C 76.867188 -6.875 77.507812 -6.789062 78.5 -6.84375 Z M 71.875 -1.171875 C 72.195312 -2.648438 72.191406 -3.578125 71.859375 -3.953125 C 71.535156 -4.335938 70.585938 -4.425781 69.015625 -4.21875 C 65.328125 -3.851562 61.144531 -3.25 56.46875 -2.40625 C 51.800781 -1.5625 46.972656 -0.4375 41.984375 0.96875 C 36.992188 2.375 32.15625 4.085938 27.46875 6.109375 C 22.78125 8.128906 18.585938 10.476562 14.890625 13.15625 C 11.191406 15.832031 8.304688 18.898438 6.234375 22.359375 C 4.722656 24.984375 3.890625 27.53125 3.734375 30 C 3.578125 32.46875 3.976562 34.648438 4.9375 36.546875 C 5.894531 38.453125 7.273438 39.878906 9.078125 40.828125 C 11.367188 42.003906 13.800781 42.769531 16.375 43.125 C 16.550781 43.144531 16.71875 43.144531 16.875 43.125 C 17.25 43.113281 17.617188 43.128906 17.984375 43.171875 C 22.890625 43.222656 27.617188 42.390625 32.171875 40.671875 C 40.460938 37.597656 47.644531 33.269531 53.71875 27.6875 C 59.789062 22.113281 64.84375 15.425781 68.875 7.625 C 70.289062 4.820312 71.289062 1.890625 71.875 -1.171875 Z M 71.875 -1.171875 "></path></g></g></g><g fill="rgb(7.449341%, 53.329468%, 3.138733%)" fill-opacity="0.4"><g transform="translate(249.826092, 228.815912)"><g></g></g></g><g fill="rgb(7.449341%, 53.329468%, 3.138733%)" fill-opacity="0.4"><g transform="translate(262.996249, 230.217319)"><g></g></g></g><g fill="rgb(7.449341%, 53.329468%, 3.138733%)" fill-opacity="0.4"><g transform="translate(276.166405, 231.618726)"><g></g></g></g><g fill="rgb(7.449341%, 53.329468%, 3.138733%)" fill-opacity="0.4"><g transform="translate(289.336562, 233.020133)"><g></g></g></g><g fill="rgb(7.449341%, 53.329468%, 3.138733%)" fill-opacity="0.4"><g transform="translate(302.506718, 234.42154)"><g></g></g></g><g fill="rgb(7.449341%, 53.329468%, 3.138733%)" fill-opacity="0.4"><g transform="translate(315.676878, 235.822947)"><g></g></g></g><g fill="rgb(7.449341%, 53.329468%, 3.138733%)" fill-opacity="0.4"><g transform="translate(328.847037, 237.224354)"><g></g></g></g><g fill="rgb(7.449341%, 53.329468%, 3.138733%)" fill-opacity="0.4"><g transform="translate(342.017197, 238.625761)"><g></g></g></g><g fill="rgb(7.449341%, 53.329468%, 3.138733%)" fill-opacity="0.4"><g transform="translate(355.187356, 240.027168)"><g></g></g></g><g fill="rgb(7.449341%, 53.329468%, 3.138733%)" fill-opacity="0.4"><g transform="translate(368.357516, 241.428576)"><g></g></g></g><g fill="rgb(100%, 43.919373%, 0%)" fill-opacity="1"><g transform="translate(247.794399, 226.300352)"><g></g></g></g><g fill="rgb(100%, 43.919373%, 0%)" fill-opacity="1"><g transform="translate(260.964555, 227.701759)"><g></g></g></g><g fill="rgb(100%, 43.919373%, 0%)" fill-opacity="1"><g transform="translate(274.134712, 229.103166)"><g></g></g></g><g fill="rgb(100%, 43.919373%, 0%)" fill-opacity="1"><g transform="translate(287.304868, 230.504573)"><g></g></g></g><g fill="rgb(100%, 43.919373%, 0%)" fill-opacity="1"><g transform="translate(300.475025, 231.90598)"><g></g></g></g><g fill="rgb(100%, 43.919373%, 0%)" fill-opacity="1"><g transform="translate(313.645184, 233.307387)"><g></g></g></g><g fill="rgb(100%, 43.919373%, 0%)" fill-opacity="1"><g transform="translate(326.815344, 234.708794)"><g></g></g></g><g fill="rgb(100%, 43.919373%, 0%)" fill-opacity="1"><g transform="translate(339.985503, 236.110201)"><g></g></g></g><g fill="rgb(100%, 43.919373%, 0%)" fill-opacity="1"><g transform="translate(353.155663, 237.511609)"><g></g></g></g><g fill="rgb(100%, 43.919373%, 0%)" fill-opacity="1"><g transform="translate(366.325822, 238.913016)"><g></g></g></g></svg>