<svg xmlns="http://www.w3.org/2000/svg" xmlns:xlink="http://www.w3.org/1999/xlink" zoomAndPan="magnify" preserveAspectRatio="xMidYMid meet" version="1.0" viewBox="37.75 191.66 293.63 76.03">
	<defs>
		<g>
			<g id="id1"></g>
			<g id="id2"></g>
			<g id="id3"></g>
		</g>
	</defs>
	<g fill="rgb(4.309082%, 19.999695%, 32.939148%)" fill-opacity="1">
		<g transform="translate(37.500002, 224.859134)">
			<g>
				<path d="M 28.640625 0 L 27.140625 -18.875 L 26.953125 -18.875 L 20.421875 -0.1875 L 16.09375 -0.1875 L 9.578125 -18.875 L 9.375 -18.875 L 7.875 0 L 0.625 0 L 3.46875 -31.859375 L 11.203125 -31.859375 L 18.265625 -13.46875 L 25.328125 -31.859375 L 33.046875 -31.859375 L 35.90625 0 Z M 28.640625 0 "></path>
			</g>
		</g>
	</g>
	<g fill="rgb(4.309082%, 19.999695%, 32.939148%)" fill-opacity="1">
		<g transform="translate(72.08622, 224.859134)">
			<g>
				<path d="M 22.359375 -8.953125 L 7.984375 -8.953125 C 7.984375 -7.566406 8.429688 -6.535156 9.328125 -5.859375 C 10.234375 -5.191406 11.21875 -4.859375 12.28125 -4.859375 C 13.382812 -4.859375 14.257812 -5.003906 14.90625 -5.296875 C 15.550781 -5.597656 16.285156 -6.1875 17.109375 -7.0625 L 22.046875 -4.59375 C 19.984375 -1.144531 16.5625 0.578125 11.78125 0.578125 C 8.789062 0.578125 6.226562 -0.441406 4.09375 -2.484375 C 1.957031 -4.535156 0.890625 -7 0.890625 -9.875 C 0.890625 -12.757812 1.957031 -15.234375 4.09375 -17.296875 C 6.226562 -19.359375 8.789062 -20.390625 11.78125 -20.390625 C 14.914062 -20.390625 17.46875 -19.476562 19.4375 -17.65625 C 21.40625 -15.84375 22.390625 -13.253906 22.390625 -9.890625 C 22.390625 -9.421875 22.378906 -9.109375 22.359375 -8.953125 Z M 8.1875 -12.734375 L 15.71875 -12.734375 C 15.5625 -13.765625 15.15625 -14.554688 14.5 -15.109375 C 13.84375 -15.671875 13 -15.953125 11.96875 -15.953125 C 10.832031 -15.953125 9.929688 -15.65625 9.265625 -15.0625 C 8.597656 -14.46875 8.238281 -13.691406 8.1875 -12.734375 Z M 8.1875 -12.734375 "></path>
			</g>
		</g>
	</g>
	<g fill="rgb(100%, 43.919373%, 0%)" fill-opacity="1">
		<g transform="translate(93.420368, 224.859134)">
			<g>
				<path d="M 3.671875 -2.453125 C 1.816406 -4.472656 0.890625 -6.945312 0.890625 -9.875 C 0.890625 -12.8125 1.816406 -15.296875 3.671875 -17.328125 C 5.523438 -19.367188 7.878906 -20.390625 10.734375 -20.390625 C 13.359375 -20.390625 15.519531 -19.566406 17.21875 -17.921875 L 17.21875 -33.203125 L 24.046875 -33.203125 L 24.046875 0 L 17.296875 0 L 17.296875 -2.234375 L 17.21875 -2.234375 C 15.519531 -0.359375 13.359375 0.578125 10.734375 0.578125 C 7.878906 0.578125 5.523438 -0.429688 3.671875 -2.453125 Z M 9.46875 -13.25 C 8.582031 -12.375 8.140625 -11.253906 8.140625 -9.890625 C 8.140625 -8.523438 8.5625 -7.410156 9.40625 -6.546875 C 10.257812 -5.679688 11.382812 -5.25 12.78125 -5.25 C 14.113281 -5.25 15.210938 -5.6875 16.078125 -6.5625 C 16.941406 -7.4375 17.375 -8.546875 17.375 -9.890625 C 17.375 -11.253906 16.925781 -12.375 16.03125 -13.25 C 15.144531 -14.125 14.0625 -14.5625 12.78125 -14.5625 C 11.46875 -14.5625 10.363281 -14.125 9.46875 -13.25 Z M 9.46875 -13.25 "></path>
			</g>
		</g>
	</g>
	<g fill="rgb(100%, 43.919373%, 0%)" fill-opacity="1">
		<g transform="translate(117.854449, 224.859134)">
			<g>
				<path d="M 2.3125 0 L 2.3125 -19.8125 L 9.15625 -19.8125 L 9.15625 -16.953125 L 9.234375 -16.953125 C 9.285156 -17.054688 9.367188 -17.179688 9.484375 -17.328125 C 9.597656 -17.484375 9.847656 -17.753906 10.234375 -18.140625 C 10.617188 -18.523438 11.03125 -18.875 11.46875 -19.1875 C 11.90625 -19.5 12.46875 -19.773438 13.15625 -20.015625 C 13.851562 -20.265625 14.566406 -20.390625 15.296875 -20.390625 C 16.035156 -20.390625 16.765625 -20.285156 17.484375 -20.078125 C 18.210938 -19.867188 18.742188 -19.660156 19.078125 -19.453125 L 19.609375 -19.15625 L 16.75 -13.359375 C 15.90625 -14.078125 14.722656 -14.4375 13.203125 -14.4375 C 12.378906 -14.4375 11.671875 -14.253906 11.078125 -13.890625 C 10.484375 -13.535156 10.0625 -13.097656 9.8125 -12.578125 C 9.570312 -12.066406 9.398438 -11.628906 9.296875 -11.265625 C 9.203125 -10.910156 9.15625 -10.628906 9.15625 -10.421875 L 9.15625 0 Z M 2.3125 0 "></path>
			</g>
		</g>
	</g>
	<g fill="rgb(4.309082%, 19.999695%, 32.939148%)" fill-opacity="1">
		<g transform="translate(135.142204, 224.859134)">
			<g>
				<path d="M 2.96875 -30.84375 C 3.769531 -31.644531 4.722656 -32.046875 5.828125 -32.046875 C 6.929688 -32.046875 7.882812 -31.644531 8.6875 -30.84375 C 9.488281 -30.050781 9.890625 -29.097656 9.890625 -27.984375 C 9.890625 -26.878906 9.488281 -25.925781 8.6875 -25.125 C 7.882812 -24.332031 6.929688 -23.9375 5.828125 -23.9375 C 4.722656 -23.9375 3.769531 -24.332031 2.96875 -25.125 C 2.175781 -25.925781 1.78125 -26.878906 1.78125 -27.984375 C 1.78125 -29.097656 2.175781 -30.050781 2.96875 -30.84375 Z M 2.3125 -19.8125 L 2.3125 0 L 9.15625 0 L 9.15625 -19.8125 Z M 2.3125 -19.8125 "></path>
			</g>
		</g>
	</g>
	<g fill="rgb(4.309082%, 19.999695%, 32.939148%)" fill-opacity="1">
		<g transform="translate(144.869202, 224.859134)">
			<g>
				<path d="M 7.328125 -19.8125 L 12.15625 -9.03125 L 16.984375 -19.8125 L 25.09375 -19.8125 L 14.484375 0 L 9.84375 0 L -0.765625 -19.8125 Z M 7.328125 -19.8125 "></path>
			</g>
		</g>
	</g>
	<g fill="rgb(4.309082%, 19.999695%, 32.939148%)" fill-opacity="1">
		<g transform="translate(167.257413, 224.859134)">
			<g>
				<path d="M 4.1875 -2.359375 C 1.988281 -4.316406 0.890625 -6.828125 0.890625 -9.890625 C 0.890625 -12.953125 2.035156 -15.46875 4.328125 -17.4375 C 6.617188 -19.40625 9.445312 -20.390625 12.8125 -20.390625 C 16.132812 -20.390625 18.929688 -19.394531 21.203125 -17.40625 C 23.484375 -15.425781 24.625 -12.914062 24.625 -9.875 C 24.625 -6.84375 23.507812 -4.34375 21.28125 -2.375 C 19.0625 -0.40625 16.238281 0.578125 12.8125 0.578125 C 9.257812 0.578125 6.382812 -0.398438 4.1875 -2.359375 Z M 9.46875 -13.25 C 8.582031 -12.375 8.140625 -11.253906 8.140625 -9.890625 C 8.140625 -8.523438 8.5625 -7.410156 9.40625 -6.546875 C 10.257812 -5.679688 11.382812 -5.25 12.78125 -5.25 C 14.113281 -5.25 15.210938 -5.6875 16.078125 -6.5625 C 16.941406 -7.4375 17.375 -8.546875 17.375 -9.890625 C 17.375 -11.253906 16.925781 -12.375 16.03125 -13.25 C 15.144531 -14.125 14.0625 -14.5625 12.78125 -14.5625 C 11.46875 -14.5625 10.363281 -14.125 9.46875 -13.25 Z M 9.46875 -13.25 "></path>
			</g>
		</g>
	</g>
	<g fill="rgb(4.309082%, 19.999695%, 32.939148%)" fill-opacity="1">
		<g transform="translate(190.828528, 224.859134)">
			<g></g>
		</g>
	</g>
	<g fill="rgb(39.608765%, 63.139343%, 27.839661%)" fill-opacity="1">
		<g transform="translate(199.674865, 224.865808)">
			<g>
				<path d="M 17.640625 -14.09375 C 17.484375 -14.007812 17.472656 -13.929688 17.609375 -13.859375 C 20.304688 -12.648438 21.65625 -10.5 21.65625 -7.40625 C 21.65625 -5.039062 20.867188 -3.210938 19.296875 -1.921875 C 17.734375 -0.640625 15.691406 0 13.171875 0 L 3.75 0 C 3.5625 0 3.414062 -0.0507812 3.3125 -0.15625 C 3.21875 -0.257812 3.171875 -0.398438 3.171875 -0.578125 L 3.171875 -26.453125 C 3.171875 -26.628906 3.21875 -26.769531 3.3125 -26.875 C 3.414062 -26.976562 3.5625 -27.03125 3.75 -27.03125 L 12.859375 -27.03125 C 15.535156 -27.03125 17.613281 -26.414062 19.09375 -25.1875 C 20.570312 -23.96875 21.3125 -22.1875 21.3125 -19.84375 C 21.3125 -17.09375 20.085938 -15.175781 17.640625 -14.09375 Z M 7.0625 -23.828125 C 6.9375 -23.828125 6.875 -23.757812 6.875 -23.625 L 6.875 -15.5625 C 6.875 -15.425781 6.9375 -15.359375 7.0625 -15.359375 L 12.859375 -15.359375 C 14.347656 -15.359375 15.523438 -15.734375 16.390625 -16.484375 C 17.253906 -17.234375 17.6875 -18.25 17.6875 -19.53125 C 17.6875 -20.84375 17.253906 -21.882812 16.390625 -22.65625 C 15.523438 -23.4375 14.347656 -23.828125 12.859375 -23.828125 Z M 13.171875 -3.25 C 14.628906 -3.25 15.789062 -3.648438 16.65625 -4.453125 C 17.519531 -5.265625 17.953125 -6.367188 17.953125 -7.765625 C 17.953125 -9.148438 17.515625 -10.25 16.640625 -11.0625 C 15.765625 -11.875 14.566406 -12.28125 13.046875 -12.28125 L 7.0625 -12.28125 C 6.9375 -12.28125 6.875 -12.210938 6.875 -12.078125 L 6.875 -3.4375 C 6.875 -3.3125 6.9375 -3.25 7.0625 -3.25 Z M 13.171875 -3.25 "></path>
			</g>
		</g>
	</g>
	<g fill="rgb(39.608765%, 63.139343%, 27.839661%)" fill-opacity="1">
		<g transform="translate(223.762053, 224.865808)">
			<g>
				<path d="M 4.859375 -22.59375 C 4.117188 -22.59375 3.507812 -22.816406 3.03125 -23.265625 C 2.550781 -23.710938 2.3125 -24.296875 2.3125 -25.015625 C 2.3125 -25.734375 2.550781 -26.316406 3.03125 -26.765625 C 3.507812 -27.222656 4.117188 -27.453125 4.859375 -27.453125 C 5.609375 -27.453125 6.210938 -27.222656 6.671875 -26.765625 C 7.140625 -26.316406 7.375 -25.734375 7.375 -25.015625 C 7.375 -24.296875 7.140625 -23.710938 6.671875 -23.265625 C 6.210938 -22.816406 5.609375 -22.59375 4.859375 -22.59375 Z M 3.59375 0 C 3.414062 0 3.273438 -0.0507812 3.171875 -0.15625 C 3.066406 -0.257812 3.015625 -0.398438 3.015625 -0.578125 L 3.015625 -19.078125 C 3.015625 -19.253906 3.066406 -19.394531 3.171875 -19.5 C 3.273438 -19.601562 3.414062 -19.65625 3.59375 -19.65625 L 6.140625 -19.65625 C 6.316406 -19.65625 6.457031 -19.601562 6.5625 -19.5 C 6.664062 -19.394531 6.71875 -19.253906 6.71875 -19.078125 L 6.71875 -0.578125 C 6.71875 -0.398438 6.664062 -0.257812 6.5625 -0.15625 C 6.457031 -0.0507812 6.316406 0 6.140625 0 Z M 3.59375 0 "></path>
			</g>
		</g>
	</g>
	<g fill="rgb(39.608765%, 63.139343%, 27.839661%)" fill-opacity="1">
		<g transform="translate(233.450969, 224.865808)">
			<g>
				<path d="M 10.765625 0.3125 C 8.835938 0.3125 7.171875 -0.171875 5.765625 -1.140625 C 4.367188 -2.109375 3.382812 -3.453125 2.8125 -5.171875 C 2.351562 -6.566406 2.125 -8.140625 2.125 -9.890625 C 2.125 -11.710938 2.34375 -13.253906 2.78125 -14.515625 C 3.34375 -16.210938 4.332031 -17.546875 5.75 -18.515625 C 7.164062 -19.484375 8.851562 -19.96875 10.8125 -19.96875 C 12.664062 -19.96875 14.28125 -19.484375 15.65625 -18.515625 C 17.03125 -17.546875 18.015625 -16.226562 18.609375 -14.5625 C 19.066406 -13.25 19.296875 -11.703125 19.296875 -9.921875 C 19.296875 -8.117188 19.066406 -6.535156 18.609375 -5.171875 C 18.046875 -3.453125 17.066406 -2.109375 15.671875 -1.140625 C 14.285156 -0.171875 12.648438 0.3125 10.765625 0.3125 Z M 10.765625 -2.890625 C 11.796875 -2.890625 12.695312 -3.179688 13.46875 -3.765625 C 14.25 -4.347656 14.804688 -5.164062 15.140625 -6.21875 C 15.421875 -7.195312 15.5625 -8.40625 15.5625 -9.84375 C 15.5625 -11.28125 15.429688 -12.476562 15.171875 -13.4375 C 14.835938 -14.488281 14.285156 -15.300781 13.515625 -15.875 C 12.742188 -16.457031 11.800781 -16.75 10.6875 -16.75 C 9.632812 -16.75 8.722656 -16.457031 7.953125 -15.875 C 7.179688 -15.300781 6.628906 -14.488281 6.296875 -13.4375 C 6.015625 -12.53125 5.875 -11.332031 5.875 -9.84375 C 5.875 -8.351562 6.015625 -7.144531 6.296875 -6.21875 C 6.597656 -5.164062 7.140625 -4.347656 7.921875 -3.765625 C 8.710938 -3.179688 9.660156 -2.890625 10.765625 -2.890625 Z M 10.765625 -2.890625 "></path>
			</g>
		</g>
	</g>
	<g fill="rgb(39.608765%, 63.139343%, 27.839661%)" fill-opacity="1">
		<g transform="translate(254.874668, 224.865808)">
			<g>
				<path d="M 11.859375 0.34375 C 10.003906 0.34375 8.359375 -0.0195312 6.921875 -0.75 C 5.492188 -1.488281 4.390625 -2.53125 3.609375 -3.875 C 2.828125 -5.226562 2.4375 -6.78125 2.4375 -8.53125 L 2.4375 -18.53125 C 2.4375 -20.28125 2.828125 -21.816406 3.609375 -23.140625 C 4.390625 -24.472656 5.492188 -25.503906 6.921875 -26.234375 C 8.359375 -26.960938 10.003906 -27.328125 11.859375 -27.328125 C 13.710938 -27.328125 15.34375 -26.972656 16.75 -26.265625 C 18.164062 -25.566406 19.265625 -24.570312 20.046875 -23.28125 C 20.835938 -21.988281 21.234375 -20.492188 21.234375 -18.796875 C 21.234375 -18.546875 21.039062 -18.394531 20.65625 -18.34375 L 18.109375 -18.1875 L 17.953125 -18.1875 C 17.828125 -18.1875 17.722656 -18.210938 17.640625 -18.265625 C 17.566406 -18.316406 17.53125 -18.367188 17.53125 -18.421875 L 17.53125 -18.640625 C 17.53125 -20.296875 17.015625 -21.625 15.984375 -22.625 C 14.953125 -23.625 13.578125 -24.125 11.859375 -24.125 C 10.128906 -24.125 8.742188 -23.625 7.703125 -22.625 C 6.660156 -21.625 6.140625 -20.296875 6.140625 -18.640625 L 6.140625 -8.375 C 6.140625 -6.726562 6.660156 -5.398438 7.703125 -4.390625 C 8.742188 -3.390625 10.128906 -2.890625 11.859375 -2.890625 C 13.578125 -2.890625 14.953125 -3.390625 15.984375 -4.390625 C 17.015625 -5.398438 17.53125 -6.726562 17.53125 -8.375 C 17.53125 -8.53125 17.582031 -8.644531 17.6875 -8.71875 C 17.789062 -8.800781 17.929688 -8.828125 18.109375 -8.796875 L 20.65625 -8.65625 C 21.039062 -8.601562 21.234375 -8.535156 21.234375 -8.453125 L 21.234375 -8.265625 C 21.234375 -6.566406 20.835938 -5.066406 20.046875 -3.765625 C 19.265625 -2.460938 18.164062 -1.453125 16.75 -0.734375 C 15.34375 -0.015625 13.710938 0.34375 11.859375 0.34375 Z M 11.859375 0.34375 "></path>
			</g>
		</g>
	</g>
	<g fill="rgb(39.608765%, 63.139343%, 27.839661%)" fill-opacity="1">
		<g transform="translate(278.305641, 224.865808)">
			<g>
				<path d="M 9.921875 -19.96875 C 11.492188 -19.96875 12.863281 -19.6875 14.03125 -19.125 C 15.207031 -18.570312 16.109375 -17.800781 16.734375 -16.8125 C 17.367188 -15.820312 17.6875 -14.695312 17.6875 -13.4375 L 17.6875 -0.578125 C 17.6875 -0.398438 17.632812 -0.257812 17.53125 -0.15625 C 17.425781 -0.0507812 17.285156 0 17.109375 0 L 14.5625 0 C 14.375 0 14.226562 -0.0507812 14.125 -0.15625 C 14.019531 -0.257812 13.96875 -0.398438 13.96875 -0.578125 L 13.96875 -1.65625 C 13.96875 -1.738281 13.941406 -1.789062 13.890625 -1.8125 C 13.847656 -1.84375 13.800781 -1.832031 13.75 -1.78125 C 13.019531 -1.101562 12.160156 -0.582031 11.171875 -0.21875 C 10.179688 0.132812 9.109375 0.3125 7.953125 0.3125 C 6.078125 0.3125 4.53125 -0.171875 3.3125 -1.140625 C 2.101562 -2.109375 1.5 -3.566406 1.5 -5.515625 C 1.5 -7.523438 2.203125 -9.101562 3.609375 -10.25 C 5.015625 -11.394531 6.976562 -11.96875 9.5 -11.96875 L 13.78125 -11.96875 C 13.90625 -11.96875 13.96875 -12.03125 13.96875 -12.15625 L 13.96875 -13.171875 C 13.96875 -14.296875 13.640625 -15.171875 12.984375 -15.796875 C 12.328125 -16.429688 11.332031 -16.75 10 -16.75 C 8.945312 -16.75 8.09375 -16.554688 7.4375 -16.171875 C 6.78125 -15.785156 6.347656 -15.25 6.140625 -14.5625 C 6.035156 -14.21875 5.816406 -14.0625 5.484375 -14.09375 L 2.703125 -14.4375 C 2.523438 -14.46875 2.382812 -14.523438 2.28125 -14.609375 C 2.175781 -14.703125 2.132812 -14.8125 2.15625 -14.9375 C 2.394531 -16.40625 3.226562 -17.609375 4.65625 -18.546875 C 6.082031 -19.492188 7.835938 -19.96875 9.921875 -19.96875 Z M 8.875 -2.8125 C 10.238281 -2.8125 11.425781 -3.171875 12.4375 -3.890625 C 13.457031 -4.617188 13.96875 -5.535156 13.96875 -6.640625 L 13.96875 -8.875 C 13.96875 -9.007812 13.90625 -9.078125 13.78125 -9.078125 L 10.1875 -9.078125 C 8.675781 -9.078125 7.46875 -8.78125 6.5625 -8.1875 C 5.664062 -7.59375 5.21875 -6.769531 5.21875 -5.71875 C 5.21875 -4.757812 5.554688 -4.035156 6.234375 -3.546875 C 6.921875 -3.054688 7.800781 -2.8125 8.875 -2.8125 Z M 8.875 -2.8125 "></path>
			</g>
		</g>
	</g>
	<g fill="rgb(39.608765%, 63.139343%, 27.839661%)" fill-opacity="1">
		<g transform="translate(298.262496, 224.865808)">
			<g>
				<path d="M 11.3125 -19.84375 C 12.082031 -19.84375 12.773438 -19.703125 13.390625 -19.421875 C 13.679688 -19.265625 13.785156 -19.019531 13.703125 -18.6875 L 13.171875 -16.171875 C 13.140625 -15.921875 13.007812 -15.796875 12.78125 -15.796875 C 12.65625 -15.796875 12.550781 -15.804688 12.46875 -15.828125 C 12.082031 -15.953125 11.644531 -16.015625 11.15625 -16.015625 C 10.894531 -16.015625 10.703125 -16.003906 10.578125 -15.984375 C 9.367188 -15.929688 8.367188 -15.507812 7.578125 -14.71875 C 6.796875 -13.9375 6.40625 -12.914062 6.40625 -11.65625 L 6.40625 -0.578125 C 6.40625 -0.398438 6.351562 -0.257812 6.25 -0.15625 C 6.144531 -0.0507812 6.003906 0 5.828125 0 L 3.28125 0 C 3.101562 0 2.960938 -0.0507812 2.859375 -0.15625 C 2.753906 -0.257812 2.703125 -0.398438 2.703125 -0.578125 L 2.703125 -19.078125 C 2.703125 -19.253906 2.753906 -19.394531 2.859375 -19.5 C 2.960938 -19.601562 3.101562 -19.65625 3.28125 -19.65625 L 5.828125 -19.65625 C 6.003906 -19.65625 6.144531 -19.601562 6.25 -19.5 C 6.351562 -19.394531 6.40625 -19.253906 6.40625 -19.078125 L 6.40625 -17.296875 C 6.40625 -17.191406 6.425781 -17.132812 6.46875 -17.125 C 6.507812 -17.113281 6.554688 -17.144531 6.609375 -17.21875 C 7.765625 -18.96875 9.332031 -19.84375 11.3125 -19.84375 Z M 11.3125 -19.84375 "></path>
			</g>
		</g>
	</g>
	<g fill="rgb(39.608765%, 63.139343%, 27.839661%)" fill-opacity="1">
		<g transform="translate(312.583564, 224.865808)">
			<g>
				<path d="M 10.96875 -2.859375 C 13.050781 -2.878906 14.539062 -3.691406 15.4375 -5.296875 C 15.570312 -5.523438 15.71875 -5.640625 15.875 -5.640625 C 16 -5.640625 16.113281 -5.597656 16.21875 -5.515625 L 17.796875 -4.5625 C 18.003906 -4.425781 18.109375 -4.253906 18.109375 -4.046875 L 18.03125 -3.75 C 17.332031 -2.488281 16.347656 -1.492188 15.078125 -0.765625 C 13.804688 -0.046875 12.320312 0.3125 10.625 0.3125 C 8.789062 0.3125 7.242188 -0.09375 5.984375 -0.90625 C 4.722656 -1.71875 3.769531 -2.882812 3.125 -4.40625 C 2.476562 -5.96875 2.15625 -7.804688 2.15625 -9.921875 C 2.15625 -11.796875 2.300781 -13.222656 2.59375 -14.203125 C 3.050781 -15.984375 3.972656 -17.390625 5.359375 -18.421875 C 6.753906 -19.453125 8.441406 -19.96875 10.421875 -19.96875 C 12.867188 -19.96875 14.734375 -19.328125 16.015625 -18.046875 C 17.304688 -16.773438 18.144531 -14.929688 18.53125 -12.515625 C 18.65625 -11.554688 18.742188 -10.394531 18.796875 -9.03125 C 18.796875 -8.644531 18.601562 -8.453125 18.21875 -8.453125 L 6.015625 -8.453125 C 5.890625 -8.453125 5.828125 -8.390625 5.828125 -8.265625 C 5.878906 -7.285156 5.96875 -6.585938 6.09375 -6.171875 C 6.382812 -5.148438 6.953125 -4.34375 7.796875 -3.75 C 8.648438 -3.15625 9.707031 -2.859375 10.96875 -2.859375 Z M 10.421875 -16.75 C 9.285156 -16.75 8.363281 -16.476562 7.65625 -15.9375 C 6.957031 -15.40625 6.476562 -14.660156 6.21875 -13.703125 C 6.039062 -13.140625 5.925781 -12.421875 5.875 -11.546875 C 5.875 -11.410156 5.9375 -11.34375 6.0625 -11.34375 L 14.828125 -11.34375 C 14.953125 -11.34375 15.015625 -11.410156 15.015625 -11.546875 C 14.960938 -12.390625 14.882812 -13.019531 14.78125 -13.4375 C 14.53125 -14.4375 14.023438 -15.238281 13.265625 -15.84375 C 12.503906 -16.445312 11.554688 -16.75 10.421875 -16.75 Z M 10.421875 -16.75 "></path>
			</g>
		</g>
	</g>
	<path stroke-linecap="round" transform="matrix(1.499701, -0.000000000000000217, 0.000000000000000217, 1.5, 37.500002, 230.054339)" fill="none" stroke-linejoin="miter" d="M 0.500098 0.000232138 L 195.544188 0.000232138 " stroke="rgb(0%, 0%, 0%)" stroke-width="1" stroke-opacity="1" stroke-miterlimit="4"></path>
	<g fill="rgb(4.309082%, 19.999695%, 32.939148%)" fill-opacity="1">
		<g transform="translate(183.240994, 249.445292)">
			<g>
				<path d="M 3.71875 0.09375 C 3.113281 0.09375 2.578125 -0.0234375 2.109375 -0.265625 C 1.648438 -0.503906 1.296875 -0.835938 1.046875 -1.265625 C 0.796875 -1.691406 0.671875 -2.1875 0.671875 -2.75 L 0.671875 -5.734375 C 0.671875 -6.304688 0.796875 -6.804688 1.046875 -7.234375 C 1.296875 -7.660156 1.648438 -7.988281 2.109375 -8.21875 C 2.578125 -8.457031 3.113281 -8.578125 3.71875 -8.578125 C 4.3125 -8.578125 4.835938 -8.460938 5.296875 -8.234375 C 5.765625 -8.003906 6.125 -7.679688 6.375 -7.265625 C 6.625 -6.859375 6.75 -6.382812 6.75 -5.84375 C 6.75 -5.769531 6.6875 -5.722656 6.5625 -5.703125 L 5.53125 -5.640625 L 5.484375 -5.640625 C 5.390625 -5.640625 5.34375 -5.660156 5.34375 -5.703125 L 5.34375 -5.78125 C 5.34375 -6.25 5.191406 -6.628906 4.890625 -6.921875 C 4.597656 -7.210938 4.207031 -7.359375 3.71875 -7.359375 C 3.226562 -7.359375 2.832031 -7.210938 2.53125 -6.921875 C 2.226562 -6.628906 2.078125 -6.25 2.078125 -5.78125 L 2.078125 -2.6875 C 2.078125 -2.21875 2.226562 -1.835938 2.53125 -1.546875 C 2.832031 -1.253906 3.226562 -1.109375 3.71875 -1.109375 C 4.207031 -1.109375 4.597656 -1.25 4.890625 -1.53125 C 5.191406 -1.820312 5.34375 -2.207031 5.34375 -2.6875 C 5.34375 -2.726562 5.359375 -2.757812 5.390625 -2.78125 C 5.429688 -2.8125 5.476562 -2.828125 5.53125 -2.828125 L 6.546875 -2.765625 C 6.679688 -2.753906 6.75 -2.738281 6.75 -2.71875 L 6.75 -2.65625 C 6.75 -2.101562 6.625 -1.617188 6.375 -1.203125 C 6.125 -0.785156 5.765625 -0.460938 5.296875 -0.234375 C 4.835938 -0.015625 4.3125 0.09375 3.71875 0.09375 Z M 3.71875 0.09375 "></path>
			</g>
		</g>
	</g>
	<g fill="rgb(4.309082%, 19.999695%, 32.939148%)" fill-opacity="1">
		<g transform="translate(193.038068, 249.445292)">
			<g>
				<path d="M 3.84375 0.09375 C 3.25 0.09375 2.722656 -0.0195312 2.265625 -0.25 C 1.804688 -0.488281 1.445312 -0.820312 1.1875 -1.25 C 0.9375 -1.6875 0.8125 -2.1875 0.8125 -2.75 L 0.8125 -8.28125 C 0.8125 -8.40625 0.875 -8.46875 1 -8.46875 L 2.015625 -8.46875 C 2.148438 -8.46875 2.21875 -8.40625 2.21875 -8.28125 L 2.21875 -2.71875 C 2.21875 -2.25 2.363281 -1.863281 2.65625 -1.5625 C 2.957031 -1.257812 3.351562 -1.109375 3.84375 -1.109375 C 4.34375 -1.109375 4.738281 -1.257812 5.03125 -1.5625 C 5.332031 -1.863281 5.484375 -2.25 5.484375 -2.71875 L 5.484375 -8.28125 C 5.484375 -8.40625 5.546875 -8.46875 5.671875 -8.46875 L 6.703125 -8.46875 C 6.828125 -8.46875 6.890625 -8.40625 6.890625 -8.28125 L 6.890625 -2.75 C 6.890625 -2.1875 6.765625 -1.6875 6.515625 -1.25 C 6.265625 -0.820312 5.910156 -0.488281 5.453125 -0.25 C 4.992188 -0.0195312 4.457031 0.09375 3.84375 0.09375 Z M 3.84375 0.09375 "></path>
			</g>
		</g>
	</g>
	<g fill="rgb(4.309082%, 19.999695%, 32.939148%)" fill-opacity="1">
		<g transform="translate(203.173726, 249.445292)">
			<g>
				<path d="M 5.671875 0 C 5.566406 0 5.492188 -0.046875 5.453125 -0.140625 L 3.859375 -3.609375 C 3.847656 -3.640625 3.820312 -3.65625 3.78125 -3.65625 L 2.359375 -3.65625 C 2.304688 -3.65625 2.28125 -3.628906 2.28125 -3.578125 L 2.28125 -0.1875 C 2.28125 -0.0625 2.21875 0 2.09375 0 L 1.078125 0 C 0.953125 0 0.890625 -0.0625 0.890625 -0.1875 L 0.890625 -8.296875 C 0.890625 -8.421875 0.953125 -8.484375 1.078125 -8.484375 L 4.359375 -8.484375 C 4.847656 -8.484375 5.28125 -8.378906 5.65625 -8.171875 C 6.039062 -7.972656 6.335938 -7.6875 6.546875 -7.3125 C 6.753906 -6.9375 6.859375 -6.503906 6.859375 -6.015625 C 6.859375 -5.460938 6.710938 -4.988281 6.421875 -4.59375 C 6.140625 -4.207031 5.75 -3.941406 5.25 -3.796875 C 5.226562 -3.785156 5.210938 -3.769531 5.203125 -3.75 C 5.191406 -3.726562 5.195312 -3.707031 5.21875 -3.6875 L 6.890625 -0.234375 L 6.921875 -0.140625 C 6.921875 -0.046875 6.863281 0 6.75 0 Z M 2.359375 -7.28125 C 2.304688 -7.28125 2.28125 -7.253906 2.28125 -7.203125 L 2.28125 -4.8125 C 2.28125 -4.769531 2.304688 -4.75 2.359375 -4.75 L 4.171875 -4.75 C 4.554688 -4.75 4.867188 -4.863281 5.109375 -5.09375 C 5.347656 -5.320312 5.46875 -5.625 5.46875 -6 C 5.46875 -6.375 5.347656 -6.679688 5.109375 -6.921875 C 4.867188 -7.160156 4.554688 -7.28125 4.171875 -7.28125 Z M 2.359375 -7.28125 "></path>
			</g>
		</g>
	</g>
	<g fill="rgb(4.309082%, 19.999695%, 32.939148%)" fill-opacity="1">
		<g transform="translate(213.03126, 249.445292)">
			<g>
				<path d="M 6.625 -7.453125 C 6.625 -7.328125 6.5625 -7.265625 6.4375 -7.265625 L 2.359375 -7.265625 C 2.304688 -7.265625 2.28125 -7.238281 2.28125 -7.1875 L 2.28125 -4.953125 C 2.28125 -4.898438 2.304688 -4.875 2.359375 -4.875 L 5.078125 -4.875 C 5.203125 -4.875 5.265625 -4.8125 5.265625 -4.6875 L 5.265625 -3.859375 C 5.265625 -3.734375 5.203125 -3.671875 5.078125 -3.671875 L 2.359375 -3.671875 C 2.304688 -3.671875 2.28125 -3.644531 2.28125 -3.59375 L 2.28125 -1.28125 C 2.28125 -1.226562 2.304688 -1.203125 2.359375 -1.203125 L 6.4375 -1.203125 C 6.5625 -1.203125 6.625 -1.140625 6.625 -1.015625 L 6.625 -0.1875 C 6.625 -0.0625 6.5625 0 6.4375 0 L 1.078125 0 C 0.953125 0 0.890625 -0.0625 0.890625 -0.1875 L 0.890625 -8.28125 C 0.890625 -8.40625 0.953125 -8.46875 1.078125 -8.46875 L 6.4375 -8.46875 C 6.5625 -8.46875 6.625 -8.40625 6.625 -8.28125 Z M 6.625 -7.453125 "></path>
			</g>
		</g>
	</g>
	<g fill="rgb(4.309082%, 19.999695%, 32.939148%)" fill-opacity="1">
		<g transform="translate(222.634869, 249.445292)">
			<g></g>
		</g>
	</g>
	<g fill="rgb(4.309082%, 19.999695%, 32.939148%)" fill-opacity="1">
		<g transform="translate(227.498388, 249.445292)">
			<g>
				<path d="M 2.65625 0 C 2.539062 0 2.472656 -0.0546875 2.453125 -0.171875 L 0.265625 -8.265625 C 0.253906 -8.273438 0.25 -8.289062 0.25 -8.3125 C 0.25 -8.363281 0.265625 -8.398438 0.296875 -8.421875 C 0.328125 -8.453125 0.375 -8.46875 0.4375 -8.46875 L 1.53125 -8.46875 C 1.632812 -8.46875 1.703125 -8.414062 1.734375 -8.3125 L 3.09375 -2.859375 C 3.101562 -2.828125 3.117188 -2.8125 3.140625 -2.8125 C 3.171875 -2.8125 3.191406 -2.828125 3.203125 -2.859375 L 4.5 -8.3125 C 4.519531 -8.414062 4.585938 -8.46875 4.703125 -8.46875 L 5.78125 -8.46875 C 5.90625 -8.46875 5.976562 -8.414062 6 -8.3125 L 7.390625 -2.859375 C 7.398438 -2.828125 7.414062 -2.8125 7.4375 -2.8125 C 7.457031 -2.8125 7.472656 -2.828125 7.484375 -2.859375 L 8.828125 -8.3125 C 8.847656 -8.414062 8.914062 -8.46875 9.03125 -8.46875 L 10.078125 -8.46875 C 10.140625 -8.46875 10.179688 -8.445312 10.203125 -8.40625 C 10.234375 -8.375 10.242188 -8.328125 10.234375 -8.265625 L 8.171875 -0.171875 C 8.148438 -0.0546875 8.078125 0 7.953125 0 L 6.90625 0 C 6.789062 0 6.722656 -0.0546875 6.703125 -0.171875 L 5.296875 -5.875 C 5.285156 -5.90625 5.265625 -5.921875 5.234375 -5.921875 C 5.210938 -5.921875 5.195312 -5.90625 5.1875 -5.875 L 3.84375 -0.171875 C 3.820312 -0.0546875 3.753906 0 3.640625 0 Z M 2.65625 0 "></path>
			</g>
		</g>
	</g>
	<g fill="rgb(4.309082%, 19.999695%, 32.939148%)" fill-opacity="1">
		<g transform="translate(240.427311, 249.445292)">
			<g>
				<path d="M 1.078125 0 C 0.953125 0 0.890625 -0.0625 0.890625 -0.1875 L 0.890625 -8.28125 C 0.890625 -8.40625 0.953125 -8.46875 1.078125 -8.46875 L 2.09375 -8.46875 C 2.21875 -8.46875 2.28125 -8.40625 2.28125 -8.28125 L 2.28125 -0.1875 C 2.28125 -0.0625 2.21875 0 2.09375 0 Z M 1.078125 0 "></path>
			</g>
		</g>
	</g>
	<g fill="rgb(4.309082%, 19.999695%, 32.939148%)" fill-opacity="1">
		<g transform="translate(246.040541, 249.445292)">
			<g>
				<path d="M 6.40625 -8.46875 C 6.53125 -8.46875 6.59375 -8.40625 6.59375 -8.28125 L 6.59375 -7.453125 C 6.59375 -7.316406 6.53125 -7.25 6.40625 -7.25 L 4.234375 -7.25 C 4.191406 -7.25 4.171875 -7.226562 4.171875 -7.1875 L 4.171875 -0.1875 C 4.171875 -0.0625 4.101562 0 3.96875 0 L 2.953125 0 C 2.828125 0 2.765625 -0.0625 2.765625 -0.1875 L 2.765625 -7.1875 C 2.765625 -7.226562 2.738281 -7.25 2.6875 -7.25 L 0.609375 -7.25 C 0.472656 -7.25 0.40625 -7.316406 0.40625 -7.453125 L 0.40625 -8.28125 C 0.40625 -8.40625 0.472656 -8.46875 0.609375 -8.46875 Z M 6.40625 -8.46875 "></path>
			</g>
		</g>
	</g>
	<g fill="rgb(4.309082%, 19.999695%, 32.939148%)" fill-opacity="1">
		<g transform="translate(255.486951, 249.445292)">
			<g>
				<path d="M 5.5 -8.28125 C 5.5 -8.40625 5.5625 -8.46875 5.6875 -8.46875 L 6.703125 -8.46875 C 6.835938 -8.46875 6.90625 -8.40625 6.90625 -8.28125 L 6.90625 -0.1875 C 6.90625 -0.0625 6.835938 0 6.703125 0 L 5.6875 0 C 5.5625 0 5.5 -0.0625 5.5 -0.1875 L 5.5 -3.59375 C 5.5 -3.644531 5.472656 -3.671875 5.421875 -3.671875 L 2.359375 -3.671875 C 2.304688 -3.671875 2.28125 -3.644531 2.28125 -3.59375 L 2.28125 -0.1875 C 2.28125 -0.0625 2.21875 0 2.09375 0 L 1.078125 0 C 0.953125 0 0.890625 -0.0625 0.890625 -0.1875 L 0.890625 -8.28125 C 0.890625 -8.40625 0.953125 -8.46875 1.078125 -8.46875 L 2.09375 -8.46875 C 2.21875 -8.46875 2.28125 -8.40625 2.28125 -8.28125 L 2.28125 -4.953125 C 2.28125 -4.898438 2.304688 -4.875 2.359375 -4.875 L 5.421875 -4.875 C 5.472656 -4.875 5.5 -4.898438 5.5 -4.953125 Z M 5.5 -8.28125 "></path>
			</g>
		</g>
	</g>
	<g fill="rgb(39.608765%, 63.139343%, 27.839661%)" fill-opacity="1">
		<g transform="translate(270.484334, 264.715645)">
			<g>
				<path d="M 9.886719 -20.035156 C 9.777344 -19.949219 9.691406 -19.839844 9.691406 -19.820312 C 9.714844 -19.753906 9.800781 -19.796875 9.976562 -19.992188 C 10.191406 -20.1875 10.128906 -20.234375 9.886719 -20.035156 Z M 11.257812 -1.765625 C 11.324219 -1.765625 11.738281 -2.15625 11.671875 -2.15625 C 11.652344 -2.15625 11.542969 -2.070312 11.414062 -1.960938 C 11.304688 -1.851562 11.214844 -1.765625 11.257812 -1.765625 Z M 4.855469 -15.003906 C 4.746094 -14.808594 4.683594 -14.65625 4.703125 -14.65625 C 4.726562 -14.65625 4.8125 -14.789062 4.878906 -14.898438 C 4.964844 -15.027344 5.074219 -15.179688 5.097656 -15.222656 C 5.140625 -15.265625 5.160156 -15.332031 5.140625 -15.355469 C 5.097656 -15.398438 5.117188 -15.398438 4.855469 -15.003906 Z M 5.464844 2.789062 C 5.597656 2.679688 6.292969 2.4375 6.664062 2.375 C 6.992188 2.308594 7.992188 1.808594 7.972656 1.699219 C 7.972656 1.675781 8.015625 1.65625 8.058594 1.632812 C 8.167969 1.632812 9.976562 0.414062 11.105469 -0.457031 C 11.78125 -0.957031 12.152344 -1.285156 13.242188 -2.285156 C 14.003906 -2.984375 14.199219 -3.203125 14.199219 -3.355469 C 14.179688 -3.441406 14.265625 -3.550781 15.246094 -4.574219 C 15.527344 -4.878906 15.746094 -5.117188 15.703125 -5.117188 C 15.660156 -5.117188 15.441406 -4.921875 14.417969 -3.855469 C 14.113281 -3.550781 13.851562 -3.265625 13.808594 -3.265625 C 13.742188 -3.222656 13.675781 -3.15625 13.242188 -2.765625 C 12.894531 -2.417969 12.023438 -1.71875 12 -1.765625 C 12 -1.785156 12.261719 -2.003906 12.542969 -2.265625 C 13.328125 -2.917969 13.894531 -3.441406 14.503906 -4.074219 C 15.332031 -4.921875 15.746094 -5.292969 15.855469 -5.269531 C 15.921875 -5.25 15.941406 -5.269531 15.875 -5.3125 C 15.8125 -5.335938 15.875 -5.445312 16.183594 -5.726562 C 16.441406 -5.988281 16.507812 -6.03125 16.355469 -5.859375 C 16.160156 -5.617188 16.09375 -5.488281 16.203125 -5.53125 C 16.3125 -5.574219 18.882812 -8.386719 19.273438 -8.886719 C 19.492188 -9.167969 19.992188 -9.777344 20.363281 -10.214844 C 20.777344 -10.714844 21.039062 -11.0625 20.996094 -11.105469 C 20.972656 -11.152344 20.972656 -11.152344 21.015625 -11.128906 C 21.082031 -11.105469 21.191406 -11.195312 21.167969 -11.304688 C 21.167969 -11.324219 21.429688 -11.671875 21.757812 -12.109375 C 22.082031 -12.523438 22.34375 -12.871094 22.34375 -12.914062 C 22.34375 -12.9375 22.496094 -13.199219 22.847656 -13.65625 C 23.128906 -14.003906 23.238281 -14.222656 23.238281 -14.308594 C 23.238281 -14.460938 23.109375 -14.375 22.824219 -13.960938 C 22.390625 -13.328125 21.34375 -12.085938 21.257812 -12.085938 C 21.210938 -12.085938 20.996094 -11.847656 20.777344 -11.585938 C 20.558594 -11.324219 20.210938 -10.890625 19.972656 -10.648438 C 19.730469 -10.386719 19.382812 -10.019531 19.210938 -9.800781 C 18.425781 -8.886719 17.574219 -7.972656 17.511719 -7.972656 C 17.421875 -7.972656 16.617188 -7.054688 16.617188 -6.96875 C 16.617188 -6.949219 16.421875 -6.6875 16.183594 -6.425781 C 15.507812 -5.707031 15.027344 -5.226562 15.113281 -5.359375 C 15.15625 -5.421875 15.179688 -5.464844 15.15625 -5.488281 C 15.113281 -5.53125 14.285156 -4.683594 14.179688 -4.464844 C 14.089844 -4.289062 12.804688 -2.984375 12.390625 -2.636719 C 12.285156 -2.546875 11.933594 -2.242188 11.628906 -1.960938 C 10.800781 -1.21875 10.234375 -0.804688 9.191406 -0.152344 C 7.839844 0.695312 6.773438 1.285156 6.230469 1.460938 C 5.359375 1.71875 3.832031 1.9375 2.984375 1.894531 C 2.613281 1.871094 1.960938 1.675781 1.613281 1.460938 C 1.046875 1.152344 0.828125 0.5 0.761719 -0.871094 C 0.742188 -1.589844 0.761719 -1.742188 0.828125 -1.808594 C 0.914062 -1.894531 1.023438 -2.417969 1.046875 -2.851562 C 1.046875 -2.941406 1.066406 -3.070312 1.089844 -3.179688 C 1.132812 -3.265625 1.152344 -3.375 1.152344 -3.398438 C 1.152344 -3.441406 1.261719 -3.832031 1.371094 -4.269531 C 1.71875 -5.597656 2.765625 -8.492188 3.113281 -9.105469 C 3.179688 -9.234375 3.417969 -9.714844 3.617188 -10.148438 C 3.941406 -10.890625 4.398438 -11.761719 5.050781 -12.871094 C 5.183594 -13.089844 5.359375 -13.394531 5.445312 -13.546875 C 5.511719 -13.722656 5.792969 -14.15625 6.054688 -14.546875 C 6.316406 -14.941406 6.511719 -15.289062 6.488281 -15.355469 C 6.488281 -15.417969 6.488281 -15.441406 6.511719 -15.398438 C 6.554688 -15.289062 6.644531 -15.3125 6.707031 -15.484375 C 6.75 -15.660156 6.96875 -15.964844 7.359375 -16.464844 C 7.492188 -16.617188 7.621094 -16.8125 7.644531 -16.878906 C 7.6875 -16.964844 7.839844 -17.207031 8.015625 -17.421875 C 8.949219 -18.730469 9.167969 -19.101562 8.601562 -18.511719 L 8.296875 -18.183594 L 8.539062 -18.511719 C 8.667969 -18.707031 8.820312 -18.882812 8.84375 -18.902344 C 8.886719 -18.925781 8.949219 -19.011719 8.996094 -19.101562 C 9.125 -19.339844 10.585938 -20.90625 10.542969 -20.753906 C 10.496094 -20.582031 10.5625 -20.667969 11.171875 -21.277344 C 11.957031 -22.082031 12.261719 -22.390625 12.761719 -22.824219 C 13.003906 -23.042969 13.328125 -23.347656 13.503906 -23.5 C 13.980469 -23.957031 15.550781 -25.15625 16.246094 -25.613281 C 16.574219 -25.851562 17.117188 -26.15625 17.421875 -26.289062 C 17.75 -26.441406 18.121094 -26.636719 18.25 -26.722656 C 18.578125 -26.898438 19.144531 -27.113281 19.316406 -27.136719 C 19.382812 -27.136719 19.46875 -27.113281 19.492188 -27.050781 C 19.578125 -26.875 19.601562 -26.027344 19.515625 -25.523438 C 19.425781 -24.804688 19.035156 -23.476562 18.644531 -22.5625 C 17.464844 -19.730469 15.113281 -16.769531 14.332031 -17.117188 C 14.15625 -17.207031 14.003906 -17.160156 13.808594 -16.988281 C 13.675781 -16.878906 13.675781 -16.835938 13.742188 -16.769531 C 13.785156 -16.726562 13.875 -16.550781 13.9375 -16.398438 C 14.070312 -16.050781 14.332031 -15.769531 14.460938 -15.832031 C 14.503906 -15.855469 14.570312 -15.832031 14.59375 -15.769531 C 14.613281 -15.703125 14.699219 -15.703125 15.027344 -15.746094 C 15.265625 -15.789062 15.507812 -15.855469 15.570312 -15.898438 C 15.898438 -16.074219 16.507812 -16.746094 16.921875 -17.3125 C 17.160156 -17.664062 17.421875 -18.011719 17.488281 -18.097656 C 18.011719 -18.796875 19.144531 -20.84375 19.515625 -21.824219 C 20.234375 -23.628906 20.625 -25.21875 20.558594 -26.179688 C 20.539062 -26.679688 20.320312 -27.09375 19.90625 -27.417969 C 19.382812 -27.8125 19.253906 -27.832031 18.25 -27.769531 C 17.554688 -27.746094 17.292969 -27.703125 17.03125 -27.59375 C 16.136719 -27.246094 14.179688 -25.851562 13.242188 -24.871094 C 12.914062 -24.542969 12.480469 -24.109375 12.285156 -23.914062 C 10.433594 -22.171875 8.601562 -20.234375 7.535156 -18.882812 C 7.1875 -18.425781 6.859375 -18.011719 6.816406 -17.945312 C 6.707031 -17.792969 6.011719 -16.746094 5.945312 -16.617188 C 5.75 -16.183594 6.316406 -16.855469 6.578125 -17.359375 C 6.664062 -17.488281 6.882812 -17.792969 7.101562 -18.03125 L 7.46875 -18.445312 L 7.207031 -18.078125 C 7.011719 -17.835938 6.949219 -17.726562 7.035156 -17.707031 C 7.121094 -17.664062 8.1875 -18.773438 8.234375 -18.96875 C 8.253906 -19.035156 8.234375 -19.121094 8.1875 -19.164062 C 8.144531 -19.210938 8.449219 -19.578125 9.472656 -20.710938 C 10.214844 -21.539062 10.890625 -22.257812 11 -22.34375 C 11.085938 -22.410156 10.890625 -22.148438 10.542969 -21.777344 C 9.976562 -21.148438 9.582031 -20.691406 9.453125 -20.429688 C 9.429688 -20.386719 9.453125 -20.363281 9.515625 -20.363281 C 9.582031 -20.363281 9.691406 -20.449219 9.734375 -20.558594 C 9.800781 -20.667969 9.929688 -20.84375 9.996094 -20.929688 C 10.105469 -21.015625 10.367188 -21.277344 10.585938 -21.539062 C 10.824219 -21.800781 11.128906 -22.105469 11.28125 -22.238281 C 11.628906 -22.542969 12.195312 -23.0625 12.371094 -23.238281 C 12.457031 -23.324219 12.542969 -23.390625 12.589844 -23.390625 C 12.632812 -23.414062 12.871094 -23.628906 13.132812 -23.914062 C 13.414062 -24.195312 13.675781 -24.480469 13.742188 -24.523438 C 13.808594 -24.542969 13.722656 -24.4375 13.566406 -24.261719 C 13.394531 -24.085938 13.261719 -23.933594 13.285156 -23.914062 C 13.308594 -23.890625 13.21875 -23.761719 13.066406 -23.652344 C 12.914062 -23.5 12.804688 -23.367188 12.804688 -23.324219 C 12.804688 -23.28125 12.632812 -23.085938 12.414062 -22.890625 C 11.324219 -21.910156 9.058594 -19.449219 8.015625 -18.121094 C 7.730469 -17.75 7.46875 -17.464844 7.425781 -17.488281 C 7.382812 -17.511719 7.382812 -17.488281 7.40625 -17.464844 C 7.425781 -17.421875 7.339844 -17.25 7.207031 -17.097656 C 7.101562 -16.921875 6.839844 -16.574219 6.664062 -16.3125 C 6.488281 -16.050781 6.183594 -15.617188 5.988281 -15.332031 C 5.792969 -15.050781 5.464844 -14.527344 5.25 -14.179688 C 4.988281 -13.742188 4.878906 -13.589844 4.855469 -13.65625 C 4.835938 -13.722656 4.878906 -13.828125 4.945312 -13.917969 C 5.007812 -14.003906 5.074219 -14.070312 5.074219 -14.089844 C 5.050781 -14.179688 5.464844 -14.832031 5.53125 -14.832031 C 5.554688 -14.832031 5.574219 -14.875 5.574219 -14.917969 C 5.554688 -14.984375 5.617188 -15.050781 5.683594 -15.09375 C 5.75 -15.136719 5.792969 -15.179688 5.769531 -15.222656 C 5.75 -15.246094 5.792969 -15.355469 5.878906 -15.441406 C 5.96875 -15.527344 6.054688 -15.636719 6.054688 -15.660156 C 6.054688 -15.703125 6.054688 -15.746094 6.054688 -15.789062 C 6.054688 -15.8125 6.097656 -15.832031 6.164062 -15.855469 C 6.207031 -15.855469 6.230469 -15.875 6.207031 -15.921875 C 6.164062 -15.984375 6.511719 -16.441406 6.621094 -16.441406 C 6.644531 -16.464844 6.6875 -16.507812 6.6875 -16.59375 C 6.6875 -16.660156 6.730469 -16.726562 6.773438 -16.726562 C 6.839844 -16.726562 6.902344 -16.835938 6.949219 -16.945312 C 7.035156 -17.207031 7.40625 -17.683594 7.578125 -17.75 C 7.710938 -17.816406 7.730469 -18.011719 7.578125 -17.988281 C 7.535156 -17.988281 6.902344 -17.378906 6.382812 -16.769531 C 5.792969 -16.136719 4.617188 -14.351562 4.617188 -14.113281 C 4.640625 -14.070312 4.574219 -13.894531 4.507812 -13.742188 C 4.421875 -13.589844 4.335938 -13.394531 4.3125 -13.308594 C 4.269531 -13.21875 4.160156 -13.046875 4.09375 -12.894531 C 3.832031 -12.457031 3.398438 -11.609375 3.136719 -11.019531 C 2.984375 -10.714844 2.746094 -10.214844 2.613281 -9.886719 C 2.460938 -9.582031 2.132812 -8.777344 1.871094 -8.125 C 1 -5.945312 0.480469 -4.09375 0.652344 -3.941406 C 0.695312 -3.898438 0.761719 -3.875 0.785156 -3.921875 C 0.804688 -3.941406 0.828125 -3.875 0.828125 -3.8125 C 0.828125 -3.703125 0.804688 -3.679688 0.742188 -3.703125 C 0.695312 -3.722656 0.652344 -3.703125 0.652344 -3.679688 C 0.652344 -3.636719 0.609375 -3.617188 0.542969 -3.617188 C 0.480469 -3.617188 0.457031 -3.570312 0.523438 -3.398438 C 0.542969 -3.222656 0.542969 -3.179688 0.480469 -3.179688 C 0.414062 -3.179688 0.371094 -3.113281 0.347656 -3.050781 C 0.238281 -2.285156 0.109375 -1.699219 0.0859375 -1.808594 C 0.0429688 -2.179688 0.261719 -3.59375 0.480469 -4.507812 C 0.847656 -5.96875 1.21875 -7.054688 1.9375 -8.734375 C 2.308594 -9.5625 2.589844 -10.257812 2.589844 -10.300781 C 2.570312 -10.34375 2.546875 -10.300781 2.503906 -10.214844 C 2.394531 -9.976562 2.332031 -9.996094 2.4375 -10.214844 C 2.484375 -10.324219 2.546875 -10.386719 2.589844 -10.386719 C 2.636719 -10.34375 3.070312 -11.152344 3.050781 -11.214844 C 3.027344 -11.238281 3.070312 -11.304688 3.09375 -11.347656 C 3.15625 -11.414062 3.15625 -11.433594 3.09375 -11.390625 C 3.050781 -11.367188 3.003906 -11.367188 3.003906 -11.414062 C 3.003906 -11.433594 3.050781 -11.476562 3.09375 -11.476562 C 3.203125 -11.476562 3.375 -11.804688 3.308594 -11.933594 C 3.289062 -12.023438 3.441406 -12.371094 3.941406 -13.308594 C 4.09375 -13.589844 4.203125 -13.828125 4.179688 -13.828125 C 4.136719 -13.894531 3.984375 -13.675781 3.636719 -13.109375 C 3.441406 -12.761719 3.246094 -12.390625 3.15625 -12.261719 C 2.4375 -11.042969 2.394531 -10.953125 1.046875 -7.90625 C 0.914062 -7.621094 0.742188 -7.121094 0.652344 -6.75 C 0.566406 -6.425781 0.390625 -5.835938 0.28125 -5.488281 C 0.0664062 -4.746094 -0.28125 -3.289062 -0.347656 -2.636719 C -0.371094 -2.394531 -0.371094 -1.785156 -0.347656 -1.285156 C -0.28125 -0.457031 -0.261719 -0.328125 -0.0859375 0.195312 C 0.109375 0.71875 0.390625 1.199219 0.542969 1.328125 C 0.589844 1.371094 0.695312 1.503906 0.804688 1.632812 C 1.308594 2.332031 2.285156 2.832031 3.417969 2.960938 C 3.8125 3.003906 5.378906 2.875 5.464844 2.789062 Z M 19.949219 -10.234375 C 21.105469 -11.566406 21.167969 -11.652344 20.710938 -11.042969 C 20.472656 -10.738281 20.035156 -10.234375 19.753906 -9.929688 C 19.230469 -9.386719 19.230469 -9.410156 19.949219 -10.234375 Z M 18.121094 -8.253906 C 18.292969 -8.386719 18.382812 -8.386719 18.273438 -8.234375 C 18.230469 -8.167969 18.140625 -8.125 18.097656 -8.125 C 18.011719 -8.125 18.011719 -8.144531 18.121094 -8.253906 Z M 17.816406 -7.535156 C 18.011719 -7.753906 18.078125 -7.773438 17.96875 -7.644531 C 17.816406 -7.449219 17.53125 -7.144531 17.53125 -7.1875 C 17.53125 -7.207031 17.664062 -7.359375 17.816406 -7.535156 Z M 17.335938 -7.449219 C 17.359375 -7.492188 17.402344 -7.535156 17.421875 -7.535156 C 17.445312 -7.535156 17.421875 -7.492188 17.378906 -7.449219 C 17.335938 -7.382812 17.292969 -7.339844 17.292969 -7.339844 C 17.269531 -7.339844 17.292969 -7.382812 17.335938 -7.449219 Z M 17.359375 -7.011719 C 17.402344 -7.078125 17.445312 -7.121094 17.445312 -7.121094 C 17.464844 -7.121094 17.445312 -7.078125 17.402344 -7.011719 C 17.378906 -6.96875 17.335938 -6.925781 17.3125 -6.925781 C 17.292969 -6.925781 17.3125 -6.96875 17.359375 -7.011719 Z M 15.570312 -5.464844 C 15.59375 -5.464844 15.570312 -5.402344 15.527344 -5.3125 C 15.441406 -5.226562 15.441406 -5.226562 15.417969 -5.3125 C 15.417969 -5.402344 15.527344 -5.511719 15.570312 -5.464844 Z M 14.765625 -4.640625 C 14.765625 -4.617188 14.722656 -4.550781 14.636719 -4.464844 C 14.570312 -4.378906 14.503906 -4.335938 14.503906 -4.355469 C 14.484375 -4.441406 14.722656 -4.683594 14.765625 -4.640625 Z M 11.566406 -22.800781 C 11.347656 -22.605469 11.195312 -22.453125 11.214844 -22.496094 C 11.257812 -22.585938 11.957031 -23.261719 11.957031 -23.214844 C 11.957031 -23.195312 11.78125 -23.019531 11.566406 -22.800781 Z M 12.152344 -23.367188 C 12.109375 -23.304688 12.042969 -23.238281 12.023438 -23.238281 C 12 -23.238281 12.042969 -23.304688 12.109375 -23.367188 C 12.152344 -23.433594 12.21875 -23.5 12.238281 -23.5 C 12.238281 -23.5 12.21875 -23.433594 12.152344 -23.367188 Z M 11.890625 -22.238281 C 12 -22.367188 12.109375 -22.453125 12.109375 -22.453125 C 12.132812 -22.453125 12.066406 -22.367188 11.957031 -22.238281 C 11.847656 -22.105469 11.738281 -22.019531 11.71875 -22.019531 C 11.71875 -22.019531 11.78125 -22.105469 11.890625 -22.238281 Z M 11.085938 -21.429688 C 11.347656 -21.691406 11.542969 -21.867188 11.5 -21.824219 C 11.414062 -21.648438 10.628906 -20.820312 10.605469 -20.886719 C 10.605469 -20.929688 10.824219 -21.167969 11.085938 -21.429688 Z M 3.570312 -11.28125 C 3.570312 -11.367188 3.59375 -11.457031 3.660156 -11.5 C 3.703125 -11.542969 3.722656 -11.609375 3.703125 -11.652344 C 3.660156 -11.71875 3.984375 -12.304688 4.074219 -12.328125 C 4.117188 -12.328125 4.136719 -12.347656 4.09375 -12.371094 C 4.007812 -12.4375 4.507812 -13.351562 4.640625 -13.285156 C 4.660156 -13.285156 4.683594 -13.328125 4.683594 -13.394531 C 4.683594 -13.460938 4.703125 -13.503906 4.769531 -13.523438 C 4.835938 -13.523438 4.835938 -13.460938 4.703125 -13.21875 C 4.640625 -13.046875 4.53125 -12.871094 4.488281 -12.828125 C 4.441406 -12.785156 4.398438 -12.71875 4.421875 -12.652344 C 4.421875 -12.632812 4.378906 -12.566406 4.335938 -12.542969 C 4.269531 -12.523438 4.246094 -12.457031 4.269531 -12.390625 C 4.3125 -12.285156 4.203125 -12.152344 4.09375 -12.152344 C 4.074219 -12.175781 4.027344 -12.109375 4.027344 -12.066406 C 4.027344 -11.976562 4.027344 -11.957031 4.09375 -11.976562 C 4.136719 -12.023438 4.117188 -11.976562 4.050781 -11.914062 C 3.964844 -11.824219 3.941406 -11.761719 3.964844 -11.738281 C 3.984375 -11.71875 3.964844 -11.695312 3.921875 -11.71875 C 3.855469 -11.71875 3.832031 -11.671875 3.832031 -11.566406 C 3.832031 -11.476562 3.769531 -11.347656 3.703125 -11.257812 L 3.570312 -11.128906 Z M 1.851562 -6.75 C 1.765625 -6.644531 1.765625 -6.644531 1.785156 -6.730469 C 1.785156 -6.796875 1.808594 -6.882812 1.808594 -6.949219 C 1.808594 -6.992188 1.828125 -7.011719 1.851562 -7.035156 C 1.894531 -7.035156 1.917969 -6.992188 1.917969 -6.949219 C 1.9375 -6.902344 1.894531 -6.816406 1.851562 -6.75 Z M 2.941406 -10.082031 C 3.027344 -10.191406 3.070312 -10.324219 3.070312 -10.386719 C 3.070312 -10.476562 3.09375 -10.585938 3.136719 -10.628906 C 3.398438 -11 3.460938 -11.085938 3.507812 -11.042969 C 3.527344 -11.042969 3.507812 -10.953125 3.441406 -10.890625 C 3.355469 -10.78125 3.355469 -10.738281 3.417969 -10.714844 C 3.484375 -10.671875 3.484375 -10.628906 3.417969 -10.476562 C 3.375 -10.386719 3.332031 -10.34375 3.332031 -10.386719 C 3.308594 -10.476562 3.308594 -10.476562 3.222656 -10.386719 C 3.179688 -10.34375 3.113281 -10.191406 3.09375 -10.039062 C 3.027344 -9.867188 2.984375 -9.800781 2.917969 -9.824219 C 2.765625 -9.824219 2.765625 -9.886719 2.941406 -10.082031 Z M 2.570312 -9.167969 C 2.613281 -9.191406 2.636719 -9.234375 2.613281 -9.257812 C 2.546875 -9.363281 2.636719 -9.5625 2.746094 -9.582031 C 2.917969 -9.648438 2.917969 -9.453125 2.765625 -9.300781 C 2.722656 -9.257812 2.613281 -9.058594 2.546875 -8.886719 C 2.417969 -8.582031 2.375 -8.539062 2.308594 -8.601562 C 2.242188 -8.644531 2.460938 -9.105469 2.570312 -9.167969 Z M 2.242188 -8.449219 C 2.285156 -8.449219 2.308594 -8.40625 2.285156 -8.339844 C 2.265625 -8.277344 2.285156 -8.253906 2.332031 -8.296875 C 2.375 -8.320312 2.394531 -8.320312 2.394531 -8.296875 C 2.394531 -8.253906 2.375 -8.210938 2.351562 -8.167969 C 2.332031 -8.101562 2.285156 -8.125 2.242188 -8.210938 C 2.132812 -8.363281 2.132812 -8.429688 2.242188 -8.449219 Z M 1.828125 -7.425781 C 1.894531 -7.382812 2.027344 -7.730469 1.960938 -7.839844 C 1.9375 -7.882812 1.9375 -7.882812 2.003906 -7.863281 C 2.070312 -7.820312 2.070312 -7.839844 2.046875 -7.90625 C 1.980469 -8.015625 2.027344 -8.1875 2.113281 -8.1875 C 2.179688 -8.210938 2.15625 -8.078125 2.089844 -7.773438 C 2.070312 -7.667969 2.070312 -7.644531 2.132812 -7.6875 C 2.179688 -7.710938 2.199219 -7.710938 2.179688 -7.667969 C 2.15625 -7.621094 2.089844 -7.601562 2.070312 -7.621094 C 2.027344 -7.644531 2.003906 -7.621094 2.027344 -7.558594 C 2.027344 -7.425781 1.871094 -7.296875 1.808594 -7.40625 C 1.785156 -7.449219 1.785156 -7.449219 1.828125 -7.425781 Z M 1.742188 -7.1875 C 1.828125 -7.1875 1.828125 -7.164062 1.808594 -7.078125 C 1.742188 -6.949219 1.566406 -6.796875 1.566406 -6.859375 C 1.566406 -7.011719 1.65625 -7.164062 1.742188 -7.1875 Z M 1.4375 -6.488281 C 1.460938 -6.535156 1.503906 -6.578125 1.523438 -6.578125 C 1.546875 -6.578125 1.566406 -6.554688 1.546875 -6.488281 C 1.523438 -6.445312 1.503906 -6.402344 1.460938 -6.402344 C 1.4375 -6.402344 1.414062 -6.445312 1.4375 -6.488281 Z M 1.351562 -6.207031 C 1.394531 -6.292969 1.414062 -6.273438 1.414062 -6.164062 C 1.4375 -6.097656 1.394531 -6.03125 1.371094 -6.03125 C 1.285156 -6.03125 1.285156 -6.097656 1.351562 -6.207031 Z M 1.175781 -5.074219 C 1.175781 -5.050781 1.242188 -5.160156 1.328125 -5.335938 C 1.394531 -5.488281 1.4375 -5.574219 1.4375 -5.488281 C 1.371094 -5.207031 1.21875 -4.855469 1.175781 -4.898438 C 1.132812 -4.921875 1.089844 -4.898438 1.066406 -4.855469 C 1.046875 -4.792969 1.023438 -4.792969 1.023438 -4.8125 C 1 -4.898438 1.175781 -5.160156 1.175781 -5.074219 Z M 0.847656 -3.570312 C 0.9375 -3.921875 1 -3.921875 0.9375 -3.570312 C 0.894531 -3.398438 0.847656 -3.246094 0.828125 -3.222656 C 0.785156 -3.15625 0.785156 -3.355469 0.847656 -3.570312 Z M 3.222656 -11.871094 C 3.265625 -11.890625 3.265625 -11.871094 3.265625 -11.824219 C 3.222656 -11.71875 3.179688 -11.695312 3.179688 -11.78125 C 3.179688 -11.804688 3.203125 -11.847656 3.222656 -11.871094 Z M 2.722656 -10.78125 C 2.789062 -10.953125 2.875 -11.085938 2.898438 -11.085938 C 2.898438 -11.0625 2.851562 -10.910156 2.765625 -10.757812 C 2.570312 -10.386719 2.546875 -10.386719 2.722656 -10.78125 Z M 3.59375 -12.457031 C 3.527344 -12.347656 3.460938 -12.238281 3.460938 -12.195312 C 3.460938 -12.175781 3.527344 -12.21875 3.617188 -12.328125 C 3.789062 -12.566406 3.769531 -12.695312 3.59375 -12.457031 Z M 9.234375 -20.015625 C 9.429688 -20.234375 9.386719 -20.320312 9.191406 -20.144531 C 9.082031 -20.058594 9.015625 -19.972656 9.015625 -19.929688 C 9.015625 -19.796875 9.082031 -19.820312 9.234375 -20.015625 Z M 5.207031 -15.507812 C 5.183594 -15.464844 5.183594 -15.441406 5.25 -15.464844 C 5.292969 -15.484375 5.378906 -15.59375 5.421875 -15.703125 C 5.464844 -15.8125 5.574219 -15.984375 5.683594 -16.09375 C 5.859375 -16.269531 5.902344 -16.378906 5.792969 -16.378906 C 5.75 -16.378906 5.335938 -15.769531 5.207031 -15.507812 Z M 5.207031 -15.507812 "></path>
			</g>
		</g>
	</g>
	<g fill="rgb(39.608765%, 63.139343%, 27.839661%)" fill-opacity="1">
		<g transform="translate(291.880257, 264.715645)">
			<g>
				<path d="M 12.652344 -11.804688 C 12.566406 -11.804688 12.285156 -11.542969 12.238281 -11.367188 C 12.21875 -11.304688 12.132812 -11.257812 12.066406 -11.238281 C 11.976562 -11.214844 11.761719 -11.042969 11.566406 -10.824219 C 11.347656 -10.628906 11.171875 -10.476562 11.152344 -10.476562 C 11.152344 -10.496094 11.195312 -10.585938 11.28125 -10.671875 C 11.347656 -10.738281 11.414062 -10.847656 11.367188 -10.910156 C 11.347656 -10.976562 11.152344 -10.824219 10.714844 -10.386719 C 10.324219 -10.019531 10.0625 -9.800781 10.039062 -9.84375 C 9.996094 -9.886719 9.777344 -9.757812 9.453125 -9.453125 C 8.234375 -8.40625 7.40625 -7.839844 6.335938 -7.359375 C 5.859375 -7.144531 5.511719 -7.078125 5.25 -7.144531 C 5.097656 -7.164062 5.097656 -7.207031 5.097656 -7.558594 C 5.097656 -8.078125 5.292969 -8.777344 5.75 -9.910156 C 5.96875 -10.476562 6.25 -11.195312 6.359375 -11.542969 C 6.46875 -11.871094 6.664062 -12.4375 6.796875 -12.761719 C 6.925781 -13.175781 7.011719 -13.503906 7.011719 -13.722656 C 7.011719 -14.046875 6.859375 -14.460938 6.730469 -14.460938 C 6.6875 -14.460938 6.578125 -14.527344 6.488281 -14.613281 C 6.425781 -14.679688 6.316406 -14.789062 6.273438 -14.808594 C 6.207031 -14.851562 6.097656 -15.027344 5.988281 -15.222656 C 5.878906 -15.464844 5.726562 -15.636719 5.597656 -15.746094 C 5.464844 -15.8125 5.335938 -15.921875 5.292969 -15.964844 C 5.25 -16.03125 5.050781 -16.09375 4.878906 -16.136719 C 4.441406 -16.246094 4.136719 -16.160156 3.789062 -15.832031 C 3.660156 -15.722656 3.460938 -15.59375 3.375 -15.59375 C 3.265625 -15.550781 3.003906 -15.3125 2.589844 -14.875 C 1.894531 -14.089844 1.351562 -13.4375 1.371094 -13.371094 C 1.371094 -13.351562 1.21875 -13.109375 1 -12.871094 C 0.804688 -12.609375 0.652344 -12.347656 0.652344 -12.304688 C 0.652344 -12.238281 0.609375 -12.175781 0.566406 -12.132812 C 0.5 -12.085938 -0.128906 -11.238281 -0.414062 -10.78125 C -0.542969 -10.5625 -0.847656 -10.128906 -1.046875 -9.886719 C -1.132812 -9.777344 -1.261719 -9.5625 -1.328125 -9.410156 C -1.414062 -9.277344 -1.503906 -9.148438 -1.523438 -9.148438 C -1.566406 -9.148438 -1.589844 -9.125 -1.589844 -9.082031 C -1.589844 -9.039062 -1.546875 -9.039062 -1.480469 -9.082031 C -1.285156 -9.257812 -1.351562 -9.082031 -1.632812 -8.667969 C -1.894531 -8.320312 -1.9375 -8.210938 -1.894531 -8.101562 C -1.871094 -7.992188 -1.894531 -7.863281 -2.003906 -7.667969 C -2.070312 -7.492188 -2.132812 -7.316406 -2.132812 -7.253906 C -2.132812 -7.164062 -2.15625 -7.164062 -2.199219 -7.230469 C -2.285156 -7.359375 -2.15625 -7.972656 -1.960938 -8.386719 C -1.742188 -8.84375 -1.742188 -8.84375 -1.828125 -8.84375 C -1.871094 -8.84375 -1.980469 -8.625 -2.113281 -8.386719 C -2.484375 -7.621094 -2.460938 -7.054688 -2.089844 -6.773438 C -2.027344 -6.730469 -2.027344 -6.6875 -2.070312 -6.664062 C -2.132812 -6.621094 -2.089844 -6.382812 -2.003906 -6.382812 C -1.980469 -6.382812 -1.917969 -6.335938 -1.871094 -6.273438 C -1.828125 -6.230469 -1.699219 -6.140625 -1.566406 -6.078125 C -1.308594 -5.925781 -1.152344 -5.96875 -0.589844 -6.46875 C -0.0234375 -6.925781 0.109375 -7.101562 1.046875 -8.320312 C 1.460938 -8.863281 1.980469 -9.539062 2.242188 -9.84375 C 2.484375 -10.148438 2.746094 -10.476562 2.808594 -10.585938 C 2.875 -10.695312 2.941406 -10.757812 2.941406 -10.738281 C 2.941406 -10.605469 3.179688 -10.953125 3.179688 -11.085938 C 3.179688 -11.152344 3.222656 -11.195312 3.265625 -11.195312 C 3.308594 -11.195312 3.660156 -11.476562 4.007812 -11.824219 C 4.507812 -12.328125 4.703125 -12.480469 4.878906 -12.523438 C 5.050781 -12.542969 5.140625 -12.632812 5.3125 -12.914062 C 5.445312 -13.089844 5.664062 -13.308594 5.792969 -13.394531 L 6.011719 -13.546875 L 5.707031 -12.957031 C 5.421875 -12.414062 4.835938 -11.0625 4.507812 -10.148438 C 4.421875 -9.886719 4.3125 -9.625 4.289062 -9.5625 C 4.160156 -9.34375 4.050781 -8.667969 4.050781 -8.296875 C 4.050781 -7.820312 4.203125 -7.40625 4.441406 -7.207031 C 4.53125 -7.121094 4.617188 -7.011719 4.617188 -6.96875 C 4.640625 -6.796875 4.988281 -6.488281 5.25 -6.382812 C 5.835938 -6.121094 6.445312 -6.164062 7.339844 -6.554688 C 8.253906 -6.949219 9.777344 -8.058594 9.777344 -8.320312 C 9.777344 -8.363281 9.824219 -8.40625 9.84375 -8.386719 C 9.910156 -8.339844 10.953125 -9.34375 10.953125 -9.453125 C 10.953125 -9.472656 11.238281 -9.824219 11.585938 -10.191406 C 11.933594 -10.5625 12.195312 -10.910156 12.195312 -10.933594 C 12.195312 -10.976562 12.238281 -11 12.261719 -11 C 12.285156 -11 12.347656 -11.085938 12.347656 -11.195312 C 12.371094 -11.304688 12.480469 -11.476562 12.589844 -11.566406 C 12.785156 -11.738281 12.804688 -11.804688 12.652344 -11.804688 Z M -0.0429688 -10.890625 C 0 -10.890625 0.0234375 -10.933594 0.0234375 -10.976562 C 0.0234375 -11.042969 0.0429688 -11.0625 0.0859375 -11.042969 C 0.128906 -11.019531 0.109375 -10.953125 0.0664062 -10.890625 C -0.0234375 -10.757812 -0.0859375 -10.714844 -0.0859375 -10.824219 C -0.0859375 -10.847656 -0.0664062 -10.890625 -0.0429688 -10.890625 Z M 2.765625 -11.152344 C 2.699219 -11.238281 2.699219 -11.257812 2.765625 -11.304688 C 2.832031 -11.367188 2.851562 -11.347656 2.875 -11.257812 C 2.917969 -11.105469 2.851562 -11.042969 2.765625 -11.152344 Z M 3.875 -12.675781 C 3.8125 -12.589844 3.769531 -12.480469 3.769531 -12.4375 C 3.789062 -12.390625 3.746094 -12.371094 3.679688 -12.371094 C 3.59375 -12.371094 3.308594 -12.085938 2.832031 -11.566406 C 2.417969 -11.128906 2.089844 -10.757812 2.070312 -10.757812 C 2.027344 -10.757812 2.65625 -11.457031 3.289062 -12.109375 C 3.679688 -12.5 3.941406 -12.761719 3.875 -12.675781 Z M 4.660156 -14.417969 C 4.421875 -13.875 4.355469 -13.785156 3.769531 -13.175781 C 3.222656 -12.632812 3.15625 -12.542969 3.246094 -12.457031 C 3.308594 -12.371094 3.308594 -12.347656 3.15625 -12.371094 C 3.003906 -12.390625 2.917969 -12.304688 2.375 -11.71875 C 2.003906 -11.304688 1.785156 -11.019531 1.808594 -10.976562 C 1.851562 -10.933594 1.851562 -10.847656 1.808594 -10.78125 C 1.785156 -10.714844 1.765625 -10.695312 1.765625 -10.738281 C 1.742188 -11 1.480469 -10.714844 0.328125 -9.320312 C -0.28125 -8.601562 -0.414062 -8.472656 -0.414062 -8.582031 C -0.414062 -8.710938 0.632812 -10.496094 0.847656 -10.738281 C 0.894531 -10.800781 1.199219 -11.195312 1.523438 -11.628906 C 1.828125 -12.042969 2.265625 -12.589844 2.503906 -12.828125 C 3.246094 -13.632812 3.484375 -13.917969 3.484375 -14.046875 C 3.484375 -14.089844 3.507812 -14.179688 3.550781 -14.199219 C 3.617188 -14.222656 3.617188 -14.199219 3.59375 -14.132812 C 3.527344 -14.003906 3.636719 -14.003906 3.769531 -14.15625 C 3.921875 -14.332031 4.855469 -15.09375 4.898438 -15.070312 C 4.898438 -15.050781 4.792969 -14.765625 4.660156 -14.417969 Z M 4.660156 -14.417969 "></path>
			</g>
		</g>
	</g>
	<g fill="rgb(39.608765%, 63.139343%, 27.839661%)" fill-opacity="1">
		<g transform="translate(302.763227, 264.715645)">
			<g>
				<path d="M 9.515625 -12.675781 C 9.300781 -12.480469 8.90625 -12.152344 8.625 -11.957031 C 8.167969 -11.652344 8.058594 -11.609375 7.796875 -11.585938 C 7.621094 -11.566406 7.46875 -11.566406 7.425781 -11.585938 C 7.273438 -11.671875 7.144531 -12.085938 6.992188 -12.9375 C 6.925781 -13.414062 6.816406 -13.917969 6.773438 -14.070312 C 6.6875 -14.375 6.46875 -14.722656 6.292969 -14.832031 C 6.25 -14.851562 6.183594 -14.941406 6.140625 -15.003906 C 6.03125 -15.222656 5.359375 -15.355469 5.074219 -15.222656 C 4.746094 -15.070312 4.398438 -14.765625 3.855469 -14.132812 C 3.332031 -13.523438 2.222656 -12.042969 2.132812 -11.847656 C 2.027344 -11.609375 2.242188 -11.824219 2.484375 -12.21875 C 2.898438 -12.828125 3.855469 -14.046875 4.269531 -14.460938 C 4.441406 -14.636719 4.988281 -15.070312 5.050781 -15.070312 C 5.074219 -15.070312 4.945312 -14.941406 4.746094 -14.765625 C 4.335938 -14.394531 2.984375 -12.761719 2.484375 -12 C 2.285156 -11.738281 1.9375 -11.152344 1.675781 -10.757812 C 1.242188 -10.019531 1.089844 -9.84375 1.285156 -10.257812 C 1.394531 -10.476562 1.917969 -11.347656 1.960938 -11.414062 C 1.980469 -11.433594 2.027344 -11.5 2.046875 -11.566406 C 2.132812 -11.804688 2.003906 -11.671875 1.785156 -11.347656 C 1.65625 -11.152344 1.566406 -11 1.546875 -11 C 1.503906 -11 1.632812 -11.304688 2.046875 -12.328125 C 2.285156 -12.894531 2.546875 -13.546875 2.636719 -13.785156 C 2.789062 -14.265625 3.136719 -14.960938 3.527344 -15.636719 C 3.660156 -15.855469 3.769531 -16.074219 3.769531 -16.117188 C 3.769531 -16.160156 3.789062 -16.269531 3.832031 -16.355469 C 3.941406 -16.574219 3.941406 -16.746094 3.832031 -16.746094 C 3.789062 -16.746094 3.722656 -16.792969 3.660156 -16.855469 C 3.570312 -16.988281 3.570312 -16.988281 3.003906 -16.878906 C 2.941406 -16.878906 2.898438 -16.835938 2.898438 -16.8125 C 2.898438 -16.769531 2.851562 -16.703125 2.808594 -16.640625 C 2.746094 -16.59375 2.589844 -16.335938 2.484375 -16.09375 C 2.351562 -15.832031 2.15625 -15.464844 2.046875 -15.246094 C 1.71875 -14.65625 1.546875 -14.285156 1.285156 -13.699219 C 1.152344 -13.394531 0.957031 -12.914062 0.828125 -12.609375 C 0.695312 -12.328125 0.523438 -11.871094 0.414062 -11.628906 C 0.304688 -11.367188 0.128906 -10.933594 0.0234375 -10.671875 C -0.632812 -9.167969 -1.066406 -7.949219 -1.242188 -7.054688 L -1.351562 -6.554688 L -1.242188 -6.335938 C -1.152344 -6.230469 -1.089844 -6.097656 -1.066406 -6.03125 C -1.046875 -5.988281 -0.980469 -5.945312 -0.894531 -5.925781 C -0.828125 -5.902344 -0.742188 -5.859375 -0.71875 -5.816406 C -0.695312 -5.769531 -0.632812 -5.726562 -0.589844 -5.726562 C -0.542969 -5.707031 -0.457031 -5.707031 -0.414062 -5.707031 C -0.28125 -5.707031 0.128906 -6.183594 0.28125 -6.488281 C 0.347656 -6.621094 0.523438 -6.949219 0.695312 -7.230469 C 0.847656 -7.492188 1.046875 -7.820312 1.089844 -7.925781 C 1.152344 -8.035156 1.371094 -8.40625 1.546875 -8.710938 C 1.871094 -9.257812 1.980469 -9.496094 2.222656 -10.105469 C 2.265625 -10.234375 2.332031 -10.386719 2.375 -10.433594 C 2.394531 -10.496094 2.589844 -10.824219 2.808594 -11.171875 C 3.179688 -11.804688 3.398438 -12.152344 3.570312 -12.347656 C 3.617188 -12.414062 3.660156 -12.5 3.636719 -12.542969 C 3.636719 -12.609375 3.679688 -12.675781 3.746094 -12.695312 C 3.789062 -12.71875 3.855469 -12.785156 3.855469 -12.847656 C 3.875 -12.957031 4.050781 -13.15625 4.136719 -13.175781 C 4.179688 -13.175781 4.246094 -13.242188 4.3125 -13.328125 C 4.574219 -13.65625 4.988281 -14.046875 5.074219 -14.027344 C 5.140625 -14.027344 5.140625 -14.027344 5.097656 -14.046875 C 5.007812 -14.113281 5.292969 -14.375 5.378906 -14.332031 C 5.421875 -14.308594 5.421875 -14.308594 5.402344 -14.351562 C 5.378906 -14.394531 5.421875 -14.441406 5.554688 -14.503906 C 5.707031 -14.59375 5.75 -14.59375 5.792969 -14.546875 C 5.816406 -14.503906 5.859375 -14.179688 5.878906 -13.808594 C 5.902344 -13.4375 5.96875 -12.980469 6.011719 -12.804688 C 6.164062 -12.261719 6.882812 -11.214844 7.253906 -11.0625 C 7.339844 -11.019531 7.46875 -10.953125 7.535156 -10.910156 C 7.644531 -10.847656 7.796875 -10.847656 8.101562 -10.867188 C 8.644531 -10.910156 8.863281 -11.042969 9.386719 -11.652344 C 9.777344 -12.109375 9.824219 -12.195312 9.929688 -12.542969 C 10.105469 -13.21875 10.0625 -13.242188 9.515625 -12.675781 Z M 1.046875 -11.914062 C 1.132812 -11.976562 1.132812 -11.976562 1.066406 -11.871094 C 1.023438 -11.804688 1 -11.738281 0.980469 -11.738281 C 0.980469 -11.71875 0.980469 -11.738281 0.980469 -11.761719 C 0.957031 -11.804688 1 -11.847656 1.046875 -11.914062 Z M -0.609375 -7.078125 C -0.652344 -7.011719 -0.675781 -6.96875 -0.695312 -6.949219 C -0.695312 -6.949219 -0.71875 -6.949219 -0.71875 -6.96875 C -0.71875 -7.011719 -0.675781 -7.078125 -0.632812 -7.121094 C -0.566406 -7.1875 -0.542969 -7.1875 -0.609375 -7.078125 Z M 0.695312 -10.648438 C 0.632812 -10.542969 0.589844 -10.410156 0.589844 -10.367188 C 0.589844 -10.300781 0.566406 -10.257812 0.542969 -10.214844 C 0.5 -10.214844 0.4375 -10.039062 0.390625 -9.867188 C 0.347656 -9.714844 0.28125 -9.515625 0.238281 -9.472656 C 0.21875 -9.429688 0.0429688 -9.015625 -0.128906 -8.539062 C -0.304688 -8.058594 -0.5 -7.601562 -0.542969 -7.515625 C -0.675781 -7.316406 -0.675781 -7.359375 -0.566406 -7.601562 C -0.523438 -7.710938 -0.5 -7.839844 -0.523438 -7.882812 C -0.542969 -7.949219 -0.523438 -7.972656 -0.480469 -7.972656 C -0.414062 -7.972656 -0.390625 -8.015625 -0.414062 -8.058594 C -0.4375 -8.101562 -0.4375 -8.125 -0.414062 -8.125 C -0.347656 -8.078125 -0.304688 -8.296875 -0.347656 -8.363281 C -0.390625 -8.40625 -0.371094 -8.40625 -0.347656 -8.386719 C -0.304688 -8.386719 -0.28125 -8.40625 -0.261719 -8.449219 C -0.238281 -8.492188 -0.261719 -8.515625 -0.28125 -8.492188 C -0.371094 -8.429688 -0.261719 -8.753906 0.0234375 -9.429688 C 0.175781 -9.757812 0.28125 -10.082031 0.304688 -10.148438 C 0.328125 -10.191406 0.347656 -10.214844 0.390625 -10.214844 C 0.414062 -10.191406 0.457031 -10.214844 0.480469 -10.257812 C 0.480469 -10.300781 0.480469 -10.300781 0.4375 -10.28125 C 0.414062 -10.257812 0.390625 -10.234375 0.371094 -10.257812 C 0.371094 -10.34375 0.695312 -11.105469 0.785156 -11.214844 C 0.828125 -11.28125 0.847656 -11.347656 0.828125 -11.347656 C 0.828125 -11.347656 0.828125 -11.414062 0.871094 -11.5 C 0.914062 -11.609375 0.957031 -11.671875 1.023438 -11.671875 C 1.089844 -11.671875 1.132812 -11.671875 1.132812 -11.652344 C 1.152344 -11.609375 0.804688 -10.824219 0.695312 -10.648438 Z M 1.175781 -12.109375 C 1.132812 -12 1.109375 -11.976562 1.089844 -12.066406 C 1.089844 -12.085938 1.109375 -12.132812 1.132812 -12.152344 C 1.175781 -12.175781 1.175781 -12.152344 1.175781 -12.109375 Z M 1.175781 -12.109375 "></path>
			</g>
		</g>
	</g>
	<g fill="rgb(39.608765%, 63.139343%, 27.839661%)" fill-opacity="1">
		<g transform="translate(312.44908, 264.715645)">
			<g>
				<path d="M 12.238281 -12.742188 C 12.371094 -12.894531 12.542969 -13.15625 12.632812 -13.351562 C 12.742188 -13.546875 12.957031 -13.875 13.132812 -14.070312 C 13.460938 -14.460938 13.566406 -14.613281 13.371094 -14.460938 C 13.308594 -14.394531 13.285156 -14.394531 13.285156 -14.484375 C 13.285156 -14.546875 13.328125 -14.679688 13.394531 -14.746094 C 13.613281 -15.050781 13.394531 -14.960938 13.066406 -14.613281 C 12.761719 -14.285156 12.785156 -14.308594 13.15625 -14.789062 C 13.414062 -15.09375 13.589844 -15.355469 13.566406 -15.375 C 13.523438 -15.417969 13.199219 -15.050781 12.5 -14.285156 C 12.328125 -14.089844 11.933594 -13.675781 11.628906 -13.371094 C 11.347656 -13.066406 10.976562 -12.695312 10.847656 -12.523438 C 10.453125 -12.109375 9.777344 -11.5 9.34375 -11.152344 C 9.125 -10.976562 8.691406 -10.628906 8.386719 -10.34375 C 7.820312 -9.886719 7.621094 -9.757812 7.796875 -9.976562 C 7.882812 -10.082031 7.863281 -10.082031 7.753906 -9.996094 C 7.449219 -9.777344 7.164062 -9.539062 7.164062 -9.472656 C 7.164062 -9.386719 6.839844 -9.125 6.707031 -9.125 C 6.664062 -9.125 6.382812 -8.972656 6.097656 -8.796875 C 4.703125 -7.90625 3.332031 -7.382812 1.9375 -7.253906 C 1.328125 -7.1875 0.675781 -7.382812 0.675781 -7.621094 C 0.675781 -7.644531 0.871094 -7.753906 1.089844 -7.863281 C 2.285156 -8.363281 2.917969 -8.734375 4.421875 -9.777344 C 4.964844 -10.148438 5.792969 -11.019531 6.164062 -11.566406 C 6.535156 -12.109375 6.730469 -12.589844 6.773438 -13.089844 C 6.839844 -13.613281 6.644531 -14.003906 6.011719 -14.613281 C 5.53125 -15.09375 5.160156 -15.3125 4.640625 -15.441406 C 4.488281 -15.464844 4.203125 -15.527344 4.007812 -15.570312 C 3.8125 -15.617188 3.570312 -15.636719 3.460938 -15.59375 C 3.265625 -15.570312 2.832031 -15.15625 2.351562 -14.570312 C 2.15625 -14.351562 1.9375 -14.089844 1.828125 -13.980469 C 1.371094 -13.503906 0.414062 -11.976562 -0.0234375 -11.042969 C -0.5 -9.976562 -0.652344 -8.996094 -0.457031 -8.277344 C -0.4375 -8.1875 -0.457031 -8.125 -0.589844 -8.078125 C -0.785156 -7.972656 -0.785156 -7.925781 -0.566406 -7.882812 C -0.4375 -7.863281 -0.328125 -7.773438 -0.21875 -7.578125 C 0.0859375 -7.054688 1.285156 -6.011719 1.460938 -6.121094 C 1.503906 -6.140625 1.589844 -6.121094 1.675781 -6.054688 C 2.070312 -5.835938 4.335938 -6.183594 4.921875 -6.578125 C 5.007812 -6.621094 5.378906 -6.816406 5.726562 -7.011719 C 6.621094 -7.46875 7.6875 -8.1875 8.582031 -8.90625 C 8.996094 -9.257812 11.5 -11.804688 11.804688 -12.21875 C 11.933594 -12.347656 12.132812 -12.589844 12.238281 -12.742188 Z M 1.328125 -10.367188 C 1.765625 -11.238281 2.4375 -12.238281 3.265625 -13.261719 C 4.179688 -14.394531 4.574219 -14.65625 5.097656 -14.527344 C 5.464844 -14.417969 5.554688 -14.332031 5.597656 -14.046875 C 5.640625 -13.742188 5.402344 -12.9375 5.140625 -12.566406 C 4.855469 -12.175781 3.855469 -11.152344 3.355469 -10.714844 C 3.09375 -10.519531 2.851562 -10.324219 2.851562 -10.300781 C 2.722656 -10.171875 2.089844 -9.691406 1.503906 -9.320312 C 0.742188 -8.796875 0.675781 -8.753906 0.675781 -8.777344 C 0.675781 -8.929688 1.023438 -9.734375 1.328125 -10.367188 Z M 10.214844 -10.890625 C 10.105469 -10.757812 9.886719 -10.519531 9.691406 -10.34375 C 9.453125 -10.105469 9.496094 -10.171875 9.84375 -10.5625 C 10.34375 -11.128906 10.542969 -11.28125 10.214844 -10.890625 Z M 10.214844 -10.890625 "></path>
			</g>
		</g>
	</g>
</svg>