<svg xmlns="http://www.w3.org/2000/svg" xmlns:xlink="http://www.w3.org/1999/xlink" zoomAndPan="magnify" preserveAspectRatio="xMidYMid meet" version="1.0" viewBox="37.38 145.59 298.01 81.64">
	<defs>
		<g>
			<g id="id1"></g>
			<g id="id2"></g>
			<g id="id3"></g>
		</g>
	</defs>
	<g fill="rgb(9.01947%, 20.779419%, 54.508972%)" fill-opacity="1">
		<g transform="translate(160.667234, 206.616061)">
			<g>
				<path d="M 4.421875 0.109375 C 3.703125 0.109375 3.066406 -0.03125 2.515625 -0.3125 C 1.972656 -0.59375 1.550781 -0.988281 1.25 -1.5 C 0.957031 -2.007812 0.8125 -2.601562 0.8125 -3.28125 L 0.8125 -6.84375 C 0.8125 -7.507812 0.957031 -8.097656 1.25 -8.609375 C 1.550781 -9.117188 1.972656 -9.507812 2.515625 -9.78125 C 3.066406 -10.0625 3.703125 -10.203125 4.421875 -10.203125 C 5.140625 -10.203125 5.769531 -10.066406 6.3125 -9.796875 C 6.863281 -9.535156 7.285156 -9.160156 7.578125 -8.671875 C 7.878906 -8.179688 8.03125 -7.613281 8.03125 -6.96875 C 8.03125 -6.875 7.957031 -6.816406 7.8125 -6.796875 L 6.59375 -6.71875 L 6.53125 -6.71875 C 6.414062 -6.71875 6.359375 -6.742188 6.359375 -6.796875 L 6.359375 -6.875 C 6.359375 -7.445312 6.179688 -7.90625 5.828125 -8.25 C 5.484375 -8.59375 5.015625 -8.765625 4.421875 -8.765625 C 3.835938 -8.765625 3.367188 -8.59375 3.015625 -8.25 C 2.660156 -7.90625 2.484375 -7.445312 2.484375 -6.875 L 2.484375 -3.203125 C 2.484375 -2.640625 2.660156 -2.1875 3.015625 -1.84375 C 3.367188 -1.5 3.835938 -1.328125 4.421875 -1.328125 C 5.015625 -1.328125 5.484375 -1.492188 5.828125 -1.828125 C 6.179688 -2.171875 6.359375 -2.628906 6.359375 -3.203125 C 6.359375 -3.253906 6.378906 -3.296875 6.421875 -3.328125 C 6.460938 -3.359375 6.519531 -3.367188 6.59375 -3.359375 L 7.796875 -3.296875 C 7.953125 -3.285156 8.03125 -3.265625 8.03125 -3.234375 L 8.03125 -3.15625 C 8.03125 -2.5 7.878906 -1.921875 7.578125 -1.421875 C 7.285156 -0.929688 6.863281 -0.550781 6.3125 -0.28125 C 5.769531 -0.0195312 5.140625 0.109375 4.421875 0.109375 Z M 4.421875 0.109375 "></path>
			</g>
		</g>
	</g>
	<g fill="rgb(9.01947%, 20.779419%, 54.508972%)" fill-opacity="1">
		<g transform="translate(172.351714, 206.616061)">
			<g>
				<path d="M 4.59375 0.109375 C 3.875 0.109375 3.238281 -0.0234375 2.6875 -0.296875 C 2.144531 -0.578125 1.722656 -0.972656 1.421875 -1.484375 C 1.117188 -2.003906 0.96875 -2.601562 0.96875 -3.28125 L 0.96875 -9.859375 C 0.96875 -10.015625 1.046875 -10.09375 1.203125 -10.09375 L 2.40625 -10.09375 C 2.5625 -10.09375 2.640625 -10.015625 2.640625 -9.859375 L 2.640625 -3.25 C 2.640625 -2.675781 2.816406 -2.210938 3.171875 -1.859375 C 3.523438 -1.503906 4 -1.328125 4.59375 -1.328125 C 5.175781 -1.328125 5.644531 -1.503906 6 -1.859375 C 6.351562 -2.210938 6.53125 -2.675781 6.53125 -3.25 L 6.53125 -9.859375 C 6.53125 -10.015625 6.609375 -10.09375 6.765625 -10.09375 L 7.96875 -10.09375 C 8.125 -10.09375 8.203125 -10.015625 8.203125 -9.859375 L 8.203125 -3.28125 C 8.203125 -2.601562 8.050781 -2.003906 7.75 -1.484375 C 7.457031 -0.972656 7.035156 -0.578125 6.484375 -0.296875 C 5.941406 -0.0234375 5.3125 0.109375 4.59375 0.109375 Z M 4.59375 0.109375 "></path>
			</g>
		</g>
	</g>
	<g fill="rgb(9.01947%, 20.779419%, 54.508972%)" fill-opacity="1">
		<g transform="translate(184.440048, 206.616061)">
			<g>
				<path d="M 6.765625 0 C 6.628906 0 6.535156 -0.0546875 6.484375 -0.171875 L 4.59375 -4.296875 C 4.59375 -4.335938 4.5625 -4.359375 4.5 -4.359375 L 2.8125 -4.359375 C 2.75 -4.359375 2.71875 -4.328125 2.71875 -4.265625 L 2.71875 -0.234375 C 2.71875 -0.078125 2.644531 0 2.5 0 L 1.28125 0 C 1.125 0 1.046875 -0.078125 1.046875 -0.234375 L 1.046875 -9.875 C 1.046875 -10.03125 1.125 -10.109375 1.28125 -10.109375 L 5.1875 -10.109375 C 5.78125 -10.109375 6.300781 -9.984375 6.75 -9.734375 C 7.195312 -9.492188 7.546875 -9.148438 7.796875 -8.703125 C 8.046875 -8.253906 8.171875 -7.742188 8.171875 -7.171875 C 8.171875 -6.503906 8 -5.9375 7.65625 -5.46875 C 7.320312 -5.007812 6.859375 -4.691406 6.265625 -4.515625 C 6.234375 -4.503906 6.210938 -4.484375 6.203125 -4.453125 C 6.191406 -4.429688 6.195312 -4.414062 6.21875 -4.40625 L 8.203125 -0.28125 L 8.234375 -0.15625 C 8.234375 -0.0507812 8.164062 0 8.03125 0 Z M 2.8125 -8.671875 C 2.75 -8.671875 2.71875 -8.640625 2.71875 -8.578125 L 2.71875 -5.734375 C 2.71875 -5.679688 2.75 -5.65625 2.8125 -5.65625 L 4.96875 -5.65625 C 5.425781 -5.65625 5.796875 -5.789062 6.078125 -6.0625 C 6.359375 -6.332031 6.5 -6.691406 6.5 -7.140625 C 6.5 -7.585938 6.359375 -7.953125 6.078125 -8.234375 C 5.796875 -8.523438 5.425781 -8.671875 4.96875 -8.671875 Z M 2.8125 -8.671875 "></path>
			</g>
		</g>
	</g>
	<g fill="rgb(9.01947%, 20.779419%, 54.508972%)" fill-opacity="1">
		<g transform="translate(196.196645, 206.616061)">
			<g>
				<path d="M 7.890625 -8.890625 C 7.890625 -8.734375 7.8125 -8.65625 7.65625 -8.65625 L 2.8125 -8.65625 C 2.75 -8.65625 2.71875 -8.625 2.71875 -8.5625 L 2.71875 -5.90625 C 2.71875 -5.84375 2.75 -5.8125 2.8125 -5.8125 L 6.046875 -5.8125 C 6.203125 -5.8125 6.28125 -5.734375 6.28125 -5.578125 L 6.28125 -4.59375 C 6.28125 -4.445312 6.203125 -4.375 6.046875 -4.375 L 2.8125 -4.375 C 2.75 -4.375 2.71875 -4.34375 2.71875 -4.28125 L 2.71875 -1.53125 C 2.71875 -1.46875 2.75 -1.4375 2.8125 -1.4375 L 7.65625 -1.4375 C 7.8125 -1.4375 7.890625 -1.363281 7.890625 -1.21875 L 7.890625 -0.234375 C 7.890625 -0.078125 7.8125 0 7.65625 0 L 1.28125 0 C 1.125 0 1.046875 -0.078125 1.046875 -0.234375 L 1.046875 -9.859375 C 1.046875 -10.015625 1.125 -10.09375 1.28125 -10.09375 L 7.65625 -10.09375 C 7.8125 -10.09375 7.890625 -10.015625 7.890625 -9.859375 Z M 7.890625 -8.890625 "></path>
			</g>
		</g>
	</g>
	<g fill="rgb(9.01947%, 20.779419%, 54.508972%)" fill-opacity="1">
		<g transform="translate(207.650351, 206.616061)">
			<g></g>
		</g>
	</g>
	<g fill="rgb(9.01947%, 20.779419%, 54.508972%)" fill-opacity="1">
		<g transform="translate(213.450067, 206.616061)">
			<g>
				<path d="M 3.171875 0 C 3.023438 0 2.9375 -0.0664062 2.90625 -0.203125 L 0.3125 -9.828125 C 0.300781 -9.847656 0.296875 -9.875 0.296875 -9.90625 C 0.296875 -9.96875 0.316406 -10.015625 0.359375 -10.046875 C 0.398438 -10.078125 0.453125 -10.09375 0.515625 -10.09375 L 1.8125 -10.09375 C 1.945312 -10.09375 2.03125 -10.023438 2.0625 -9.890625 L 3.6875 -3.40625 C 3.695312 -3.363281 3.71875 -3.34375 3.75 -3.34375 C 3.78125 -3.34375 3.800781 -3.363281 3.8125 -3.40625 L 5.34375 -9.890625 C 5.375 -10.023438 5.457031 -10.09375 5.59375 -10.09375 L 6.890625 -10.09375 C 7.035156 -10.09375 7.125 -10.023438 7.15625 -9.890625 L 8.796875 -3.40625 C 8.804688 -3.363281 8.820312 -3.34375 8.84375 -3.34375 C 8.875 -3.34375 8.894531 -3.363281 8.90625 -3.40625 L 10.515625 -9.890625 C 10.546875 -10.023438 10.628906 -10.09375 10.765625 -10.09375 L 12 -10.09375 C 12.070312 -10.09375 12.125 -10.066406 12.15625 -10.015625 C 12.195312 -9.972656 12.207031 -9.910156 12.1875 -9.828125 L 9.734375 -0.203125 C 9.703125 -0.0664062 9.613281 0 9.46875 0 L 8.21875 0 C 8.082031 0 8 -0.0664062 7.96875 -0.203125 L 6.296875 -7 C 6.285156 -7.03125 6.265625 -7.046875 6.234375 -7.046875 C 6.210938 -7.046875 6.195312 -7.03125 6.1875 -7 L 4.59375 -0.203125 C 4.5625 -0.0664062 4.476562 0 4.34375 0 Z M 3.171875 0 "></path>
			</g>
		</g>
	</g>
	<g fill="rgb(9.01947%, 20.779419%, 54.508972%)" fill-opacity="1">
		<g transform="translate(228.870232, 206.616061)">
			<g>
				<path d="M 1.28125 0 C 1.125 0 1.046875 -0.078125 1.046875 -0.234375 L 1.046875 -9.859375 C 1.046875 -10.015625 1.125 -10.09375 1.28125 -10.09375 L 2.5 -10.09375 C 2.644531 -10.09375 2.71875 -10.015625 2.71875 -9.859375 L 2.71875 -0.234375 C 2.71875 -0.078125 2.644531 0 2.5 0 Z M 1.28125 0 "></path>
			</g>
		</g>
	</g>
	<g fill="rgb(9.01947%, 20.779419%, 54.508972%)" fill-opacity="1">
		<g transform="translate(235.564194, 206.616061)">
			<g>
				<path d="M 7.625 -10.09375 C 7.78125 -10.09375 7.859375 -10.015625 7.859375 -9.859375 L 7.859375 -8.875 C 7.859375 -8.71875 7.78125 -8.640625 7.625 -8.640625 L 5.046875 -8.640625 C 4.992188 -8.640625 4.96875 -8.609375 4.96875 -8.546875 L 4.96875 -0.234375 C 4.96875 -0.078125 4.890625 0 4.734375 0 L 3.515625 0 C 3.359375 0 3.28125 -0.078125 3.28125 -0.234375 L 3.28125 -8.546875 C 3.28125 -8.609375 3.253906 -8.640625 3.203125 -8.640625 L 0.71875 -8.640625 C 0.5625 -8.640625 0.484375 -8.71875 0.484375 -8.875 L 0.484375 -9.859375 C 0.484375 -10.015625 0.5625 -10.09375 0.71875 -10.09375 Z M 7.625 -10.09375 "></path>
			</g>
		</g>
	</g>
	<g fill="rgb(9.01947%, 20.779419%, 54.508972%)" fill-opacity="1">
		<g transform="translate(246.830402, 206.616061)">
			<g>
				<path d="M 6.546875 -9.859375 C 6.546875 -10.015625 6.625 -10.09375 6.78125 -10.09375 L 7.984375 -10.09375 C 8.140625 -10.09375 8.21875 -10.015625 8.21875 -9.859375 L 8.21875 -0.234375 C 8.21875 -0.078125 8.140625 0 7.984375 0 L 6.78125 0 C 6.625 0 6.546875 -0.078125 6.546875 -0.234375 L 6.546875 -4.28125 C 6.546875 -4.34375 6.519531 -4.375 6.46875 -4.375 L 2.8125 -4.375 C 2.75 -4.375 2.71875 -4.34375 2.71875 -4.28125 L 2.71875 -0.234375 C 2.71875 -0.078125 2.644531 0 2.5 0 L 1.28125 0 C 1.125 0 1.046875 -0.078125 1.046875 -0.234375 L 1.046875 -9.859375 C 1.046875 -10.015625 1.125 -10.09375 1.28125 -10.09375 L 2.5 -10.09375 C 2.644531 -10.09375 2.71875 -10.015625 2.71875 -9.859375 L 2.71875 -5.90625 C 2.71875 -5.84375 2.75 -5.8125 2.8125 -5.8125 L 6.46875 -5.8125 C 6.519531 -5.8125 6.546875 -5.84375 6.546875 -5.90625 Z M 6.546875 -9.859375 "></path>
			</g>
		</g>
	</g>
	<g fill="rgb(7.449341%, 53.329468%, 3.138733%)" fill-opacity="1">
		<g transform="translate(191.356977, 176.070255)">
			<g>
				<path d="M 13.390625 -10.703125 C 13.273438 -10.640625 13.265625 -10.578125 13.359375 -10.515625 C 15.410156 -9.597656 16.4375 -7.96875 16.4375 -5.625 C 16.4375 -3.832031 15.84375 -2.445312 14.65625 -1.46875 C 13.46875 -0.488281 11.914062 0 10 0 L 2.84375 0 C 2.707031 0 2.597656 -0.0351562 2.515625 -0.109375 C 2.441406 -0.191406 2.40625 -0.300781 2.40625 -0.4375 L 2.40625 -20.078125 C 2.40625 -20.210938 2.441406 -20.316406 2.515625 -20.390625 C 2.597656 -20.472656 2.707031 -20.515625 2.84375 -20.515625 L 9.765625 -20.515625 C 11.796875 -20.515625 13.375 -20.050781 14.5 -19.125 C 15.625 -18.195312 16.1875 -16.84375 16.1875 -15.0625 C 16.1875 -12.976562 15.253906 -11.523438 13.390625 -10.703125 Z M 5.359375 -18.078125 C 5.265625 -18.078125 5.21875 -18.03125 5.21875 -17.9375 L 5.21875 -11.8125 C 5.21875 -11.71875 5.265625 -11.671875 5.359375 -11.671875 L 9.765625 -11.671875 C 10.898438 -11.671875 11.789062 -11.953125 12.4375 -12.515625 C 13.09375 -13.078125 13.421875 -13.847656 13.421875 -14.828125 C 13.421875 -15.828125 13.09375 -16.617188 12.4375 -17.203125 C 11.789062 -17.785156 10.898438 -18.078125 9.765625 -18.078125 Z M 10 -2.46875 C 11.113281 -2.46875 11.992188 -2.773438 12.640625 -3.390625 C 13.296875 -4.003906 13.625 -4.835938 13.625 -5.890625 C 13.625 -6.941406 13.289062 -7.773438 12.625 -8.390625 C 11.96875 -9.015625 11.0625 -9.328125 9.90625 -9.328125 L 5.359375 -9.328125 C 5.265625 -9.328125 5.21875 -9.273438 5.21875 -9.171875 L 5.21875 -2.609375 C 5.21875 -2.515625 5.265625 -2.46875 5.359375 -2.46875 Z M 10 -2.46875 "></path>
			</g>
		</g>
	</g>
	<g fill="rgb(7.449341%, 53.329468%, 3.138733%)" fill-opacity="1">
		<g transform="translate(209.643306, 176.070255)">
			<g>
				<path d="M 3.6875 -17.140625 C 3.125 -17.140625 2.660156 -17.3125 2.296875 -17.65625 C 1.941406 -18 1.765625 -18.445312 1.765625 -19 C 1.765625 -19.539062 1.941406 -19.984375 2.296875 -20.328125 C 2.660156 -20.671875 3.125 -20.84375 3.6875 -20.84375 C 4.257812 -20.84375 4.71875 -20.671875 5.0625 -20.328125 C 5.414062 -19.984375 5.59375 -19.539062 5.59375 -19 C 5.59375 -18.445312 5.414062 -18 5.0625 -17.65625 C 4.71875 -17.3125 4.257812 -17.140625 3.6875 -17.140625 Z M 2.71875 0 C 2.582031 0 2.472656 -0.0351562 2.390625 -0.109375 C 2.316406 -0.191406 2.28125 -0.300781 2.28125 -0.4375 L 2.28125 -14.484375 C 2.28125 -14.617188 2.316406 -14.722656 2.390625 -14.796875 C 2.472656 -14.878906 2.582031 -14.921875 2.71875 -14.921875 L 4.65625 -14.921875 C 4.789062 -14.921875 4.894531 -14.878906 4.96875 -14.796875 C 5.050781 -14.722656 5.09375 -14.617188 5.09375 -14.484375 L 5.09375 -0.4375 C 5.09375 -0.300781 5.050781 -0.191406 4.96875 -0.109375 C 4.894531 -0.0351562 4.789062 0 4.65625 0 Z M 2.71875 0 "></path>
			</g>
		</g>
	</g>
	<g fill="rgb(7.449341%, 53.329468%, 3.138733%)" fill-opacity="1">
		<g transform="translate(216.998859, 176.070255)">
			<g>
				<path d="M 8.171875 0.234375 C 6.710938 0.234375 5.445312 -0.128906 4.375 -0.859375 C 3.3125 -1.597656 2.566406 -2.617188 2.140625 -3.921875 C 1.785156 -4.984375 1.609375 -6.175781 1.609375 -7.5 C 1.609375 -8.882812 1.773438 -10.054688 2.109375 -11.015625 C 2.535156 -12.304688 3.285156 -13.316406 4.359375 -14.046875 C 5.441406 -14.785156 6.722656 -15.15625 8.203125 -15.15625 C 9.609375 -15.15625 10.832031 -14.785156 11.875 -14.046875 C 12.925781 -13.316406 13.675781 -12.316406 14.125 -11.046875 C 14.476562 -10.054688 14.65625 -8.882812 14.65625 -7.53125 C 14.65625 -6.164062 14.476562 -4.960938 14.125 -3.921875 C 13.695312 -2.617188 12.953125 -1.597656 11.890625 -0.859375 C 10.835938 -0.128906 9.597656 0.234375 8.171875 0.234375 Z M 8.171875 -2.203125 C 8.953125 -2.203125 9.632812 -2.421875 10.21875 -2.859375 C 10.8125 -3.296875 11.234375 -3.914062 11.484375 -4.71875 C 11.703125 -5.457031 11.8125 -6.375 11.8125 -7.46875 C 11.8125 -8.5625 11.710938 -9.472656 11.515625 -10.203125 C 11.265625 -11.003906 10.84375 -11.625 10.25 -12.0625 C 9.664062 -12.5 8.957031 -12.71875 8.125 -12.71875 C 7.320312 -12.71875 6.625 -12.5 6.03125 -12.0625 C 5.445312 -11.625 5.03125 -11.003906 4.78125 -10.203125 C 4.5625 -9.515625 4.453125 -8.601562 4.453125 -7.46875 C 4.453125 -6.34375 4.5625 -5.425781 4.78125 -4.71875 C 5.007812 -3.914062 5.421875 -3.296875 6.015625 -2.859375 C 6.617188 -2.421875 7.335938 -2.203125 8.171875 -2.203125 Z M 8.171875 -2.203125 "></path>
			</g>
		</g>
	</g>
	<g fill="rgb(7.449341%, 53.329468%, 3.138733%)" fill-opacity="1">
		<g transform="translate(233.263139, 176.070255)">
			<g>
				<path d="M 7.296875 0.171875 C 6.140625 0.171875 5.117188 0 4.234375 -0.34375 C 3.347656 -0.695312 2.660156 -1.179688 2.171875 -1.796875 C 1.679688 -2.410156 1.4375 -3.09375 1.4375 -3.84375 L 1.4375 -4.015625 C 1.4375 -4.148438 1.472656 -4.253906 1.546875 -4.328125 C 1.628906 -4.410156 1.738281 -4.453125 1.875 -4.453125 L 3.6875 -4.453125 C 3.832031 -4.453125 3.941406 -4.429688 4.015625 -4.390625 C 4.097656 -4.359375 4.140625 -4.3125 4.140625 -4.25 L 4.140625 -4.015625 C 4.140625 -3.460938 4.4375 -2.984375 5.03125 -2.578125 C 5.625 -2.171875 6.367188 -1.96875 7.265625 -1.96875 C 8.171875 -1.96875 8.894531 -2.15625 9.4375 -2.53125 C 9.988281 -2.914062 10.265625 -3.398438 10.265625 -3.984375 C 10.265625 -4.554688 10.007812 -4.984375 9.5 -5.265625 C 8.988281 -5.546875 8.164062 -5.84375 7.03125 -6.15625 C 5.914062 -6.46875 4.984375 -6.785156 4.234375 -7.109375 C 3.484375 -7.429688 2.847656 -7.890625 2.328125 -8.484375 C 1.804688 -9.078125 1.546875 -9.84375 1.546875 -10.78125 C 1.546875 -12.09375 2.054688 -13.132812 3.078125 -13.90625 C 4.109375 -14.675781 5.476562 -15.0625 7.1875 -15.0625 C 8.3125 -15.0625 9.304688 -14.878906 10.171875 -14.515625 C 11.046875 -14.160156 11.71875 -13.660156 12.1875 -13.015625 C 12.65625 -12.367188 12.890625 -11.644531 12.890625 -10.84375 C 12.890625 -10.726562 12.847656 -10.632812 12.765625 -10.5625 C 12.691406 -10.5 12.585938 -10.46875 12.453125 -10.46875 L 10.703125 -10.46875 C 10.566406 -10.46875 10.457031 -10.484375 10.375 -10.515625 C 10.300781 -10.554688 10.265625 -10.609375 10.265625 -10.671875 L 10.265625 -10.84375 C 10.265625 -11.414062 9.984375 -11.890625 9.421875 -12.265625 C 8.867188 -12.648438 8.113281 -12.84375 7.15625 -12.84375 C 6.289062 -12.84375 5.585938 -12.675781 5.046875 -12.34375 C 4.515625 -12.007812 4.25 -11.5625 4.25 -11 C 4.25 -10.425781 4.503906 -9.992188 5.015625 -9.703125 C 5.535156 -9.410156 6.375 -9.097656 7.53125 -8.765625 C 8.664062 -8.453125 9.609375 -8.144531 10.359375 -7.84375 C 11.109375 -7.539062 11.75 -7.085938 12.28125 -6.484375 C 12.8125 -5.890625 13.078125 -5.113281 13.078125 -4.15625 C 13.078125 -2.832031 12.550781 -1.78125 11.5 -1 C 10.457031 -0.21875 9.054688 0.171875 7.296875 0.171875 Z M 7.296875 0.171875 "></path>
			</g>
		</g>
	</g>
	<g fill="rgb(7.449341%, 53.329468%, 3.138733%)" fill-opacity="1">
		<g transform="translate(247.563977, 176.070255)">
			<g>
				<path d="M 8.03125 0.234375 C 6.539062 0.234375 5.269531 -0.140625 4.21875 -0.890625 C 3.164062 -1.640625 2.441406 -2.660156 2.046875 -3.953125 C 1.753906 -4.859375 1.609375 -6.039062 1.609375 -7.5 C 1.609375 -8.851562 1.753906 -10.035156 2.046875 -11.046875 C 2.441406 -12.296875 3.171875 -13.289062 4.234375 -14.03125 C 5.296875 -14.78125 6.5625 -15.15625 8.03125 -15.15625 C 9.5 -15.15625 10.78125 -14.78125 11.875 -14.03125 C 12.96875 -13.289062 13.679688 -12.359375 14.015625 -11.234375 C 14.109375 -10.972656 14.175781 -10.695312 14.21875 -10.40625 L 14.21875 -10.34375 C 14.21875 -10.113281 14.085938 -9.976562 13.828125 -9.9375 L 11.9375 -9.671875 L 11.84375 -9.671875 C 11.625 -9.671875 11.488281 -9.78125 11.4375 -10 L 11.34375 -10.375 C 11.1875 -11.039062 10.804688 -11.597656 10.203125 -12.046875 C 9.597656 -12.492188 8.863281 -12.71875 8 -12.71875 C 7.15625 -12.71875 6.441406 -12.492188 5.859375 -12.046875 C 5.273438 -11.597656 4.894531 -11.003906 4.71875 -10.265625 C 4.539062 -9.554688 4.453125 -8.625 4.453125 -7.46875 C 4.453125 -6.34375 4.539062 -5.425781 4.71875 -4.71875 C 4.914062 -3.9375 5.300781 -3.320312 5.875 -2.875 C 6.445312 -2.425781 7.15625 -2.203125 8 -2.203125 C 8.84375 -2.203125 9.566406 -2.421875 10.171875 -2.859375 C 10.773438 -3.296875 11.164062 -3.859375 11.34375 -4.546875 L 11.375 -4.65625 L 11.375 -4.6875 C 11.394531 -4.789062 11.453125 -4.882812 11.546875 -4.96875 C 11.648438 -5.050781 11.757812 -5.085938 11.875 -5.078125 L 13.78125 -4.75 C 14.050781 -4.6875 14.175781 -4.53125 14.15625 -4.28125 C 14.132812 -4.195312 14.085938 -4.007812 14.015625 -3.71875 C 13.679688 -2.53125 12.96875 -1.570312 11.875 -0.84375 C 10.78125 -0.125 9.5 0.234375 8.03125 0.234375 Z M 8.03125 0.234375 "></path>
			</g>
		</g>
	</g>
	<g fill="rgb(7.449341%, 53.329468%, 3.138733%)" fill-opacity="1">
		<g transform="translate(262.978407, 176.070255)">
			<g>
				<path d="M 3.6875 -17.140625 C 3.125 -17.140625 2.660156 -17.3125 2.296875 -17.65625 C 1.941406 -18 1.765625 -18.445312 1.765625 -19 C 1.765625 -19.539062 1.941406 -19.984375 2.296875 -20.328125 C 2.660156 -20.671875 3.125 -20.84375 3.6875 -20.84375 C 4.257812 -20.84375 4.71875 -20.671875 5.0625 -20.328125 C 5.414062 -19.984375 5.59375 -19.539062 5.59375 -19 C 5.59375 -18.445312 5.414062 -18 5.0625 -17.65625 C 4.71875 -17.3125 4.257812 -17.140625 3.6875 -17.140625 Z M 2.71875 0 C 2.582031 0 2.472656 -0.0351562 2.390625 -0.109375 C 2.316406 -0.191406 2.28125 -0.300781 2.28125 -0.4375 L 2.28125 -14.484375 C 2.28125 -14.617188 2.316406 -14.722656 2.390625 -14.796875 C 2.472656 -14.878906 2.582031 -14.921875 2.71875 -14.921875 L 4.65625 -14.921875 C 4.789062 -14.921875 4.894531 -14.878906 4.96875 -14.796875 C 5.050781 -14.722656 5.09375 -14.617188 5.09375 -14.484375 L 5.09375 -0.4375 C 5.09375 -0.300781 5.050781 -0.191406 4.96875 -0.109375 C 4.894531 -0.0351562 4.789062 0 4.65625 0 Z M 2.71875 0 "></path>
			</g>
		</g>
	</g>
	<g fill="rgb(7.449341%, 53.329468%, 3.138733%)" fill-opacity="1">
		<g transform="translate(270.333959, 176.070255)">
			<g>
				<path d="M 8.328125 -2.171875 C 9.910156 -2.191406 11.039062 -2.804688 11.71875 -4.015625 C 11.820312 -4.191406 11.929688 -4.28125 12.046875 -4.28125 C 12.140625 -4.28125 12.226562 -4.25 12.3125 -4.1875 L 13.515625 -3.453125 C 13.671875 -3.359375 13.75 -3.234375 13.75 -3.078125 L 13.6875 -2.84375 C 13.15625 -1.882812 12.40625 -1.128906 11.4375 -0.578125 C 10.476562 -0.0351562 9.351562 0.234375 8.0625 0.234375 C 6.675781 0.234375 5.503906 -0.0703125 4.546875 -0.6875 C 3.585938 -1.300781 2.863281 -2.1875 2.375 -3.34375 C 1.882812 -4.53125 1.640625 -5.925781 1.640625 -7.53125 C 1.640625 -8.957031 1.75 -10.039062 1.96875 -10.78125 C 2.3125 -12.132812 3.007812 -13.203125 4.0625 -13.984375 C 5.125 -14.765625 6.410156 -15.15625 7.921875 -15.15625 C 9.773438 -15.15625 11.1875 -14.671875 12.15625 -13.703125 C 13.132812 -12.734375 13.769531 -11.332031 14.0625 -9.5 C 14.164062 -8.769531 14.238281 -7.890625 14.28125 -6.859375 C 14.28125 -6.566406 14.128906 -6.421875 13.828125 -6.421875 L 4.578125 -6.421875 C 4.472656 -6.421875 4.421875 -6.367188 4.421875 -6.265625 C 4.460938 -5.523438 4.53125 -5 4.625 -4.6875 C 4.84375 -3.90625 5.273438 -3.289062 5.921875 -2.84375 C 6.566406 -2.394531 7.367188 -2.171875 8.328125 -2.171875 Z M 7.921875 -12.71875 C 7.054688 -12.71875 6.351562 -12.507812 5.8125 -12.09375 C 5.28125 -11.6875 4.914062 -11.125 4.71875 -10.40625 C 4.582031 -9.976562 4.492188 -9.429688 4.453125 -8.765625 C 4.453125 -8.671875 4.503906 -8.625 4.609375 -8.625 L 11.25 -8.625 C 11.351562 -8.625 11.40625 -8.671875 11.40625 -8.765625 C 11.363281 -9.410156 11.304688 -9.890625 11.234375 -10.203125 C 11.035156 -10.960938 10.644531 -11.570312 10.0625 -12.03125 C 9.488281 -12.488281 8.773438 -12.71875 7.921875 -12.71875 Z M 7.921875 -12.71875 "></path>
			</g>
		</g>
	</g>
	<g fill="rgb(7.449341%, 53.329468%, 3.138733%)" fill-opacity="1">
		<g transform="translate(286.100051, 176.070255)">
			<g>
				<path d="M 8.703125 -15.125 C 10.304688 -15.125 11.578125 -14.660156 12.515625 -13.734375 C 13.453125 -12.804688 13.921875 -11.550781 13.921875 -9.96875 L 13.921875 -0.4375 C 13.921875 -0.300781 13.878906 -0.191406 13.796875 -0.109375 C 13.722656 -0.0351562 13.617188 0 13.484375 0 L 11.546875 0 C 11.410156 0 11.300781 -0.0351562 11.21875 -0.109375 C 11.144531 -0.191406 11.109375 -0.300781 11.109375 -0.4375 L 11.109375 -9.40625 C 11.109375 -10.382812 10.820312 -11.175781 10.25 -11.78125 C 9.6875 -12.382812 8.9375 -12.6875 8 -12.6875 C 7.15625 -12.6875 6.445312 -12.4375 5.875 -11.9375 C 5.300781 -11.445312 4.960938 -10.78125 4.859375 -9.9375 L 4.859375 -0.4375 C 4.859375 -0.300781 4.816406 -0.191406 4.734375 -0.109375 C 4.660156 -0.0351562 4.554688 0 4.421875 0 L 2.484375 0 C 2.347656 0 2.238281 -0.0351562 2.15625 -0.109375 C 2.082031 -0.191406 2.046875 -0.300781 2.046875 -0.4375 L 2.046875 -14.484375 C 2.046875 -14.617188 2.082031 -14.722656 2.15625 -14.796875 C 2.238281 -14.878906 2.347656 -14.921875 2.484375 -14.921875 L 4.421875 -14.921875 C 4.554688 -14.921875 4.660156 -14.878906 4.734375 -14.796875 C 4.816406 -14.722656 4.859375 -14.617188 4.859375 -14.484375 L 4.859375 -13.65625 C 4.859375 -13.601562 4.878906 -13.566406 4.921875 -13.546875 C 4.960938 -13.523438 4.992188 -13.535156 5.015625 -13.578125 C 5.835938 -14.609375 7.066406 -15.125 8.703125 -15.125 Z M 8.703125 -15.125 "></path>
			</g>
		</g>
	</g>
	<g fill="rgb(7.449341%, 53.329468%, 3.138733%)" fill-opacity="1">
		<g transform="translate(301.983367, 176.070255)">
			<g>
				<path d="M 8.03125 0.234375 C 6.539062 0.234375 5.269531 -0.140625 4.21875 -0.890625 C 3.164062 -1.640625 2.441406 -2.660156 2.046875 -3.953125 C 1.753906 -4.859375 1.609375 -6.039062 1.609375 -7.5 C 1.609375 -8.851562 1.753906 -10.035156 2.046875 -11.046875 C 2.441406 -12.296875 3.171875 -13.289062 4.234375 -14.03125 C 5.296875 -14.78125 6.5625 -15.15625 8.03125 -15.15625 C 9.5 -15.15625 10.78125 -14.78125 11.875 -14.03125 C 12.96875 -13.289062 13.679688 -12.359375 14.015625 -11.234375 C 14.109375 -10.972656 14.175781 -10.695312 14.21875 -10.40625 L 14.21875 -10.34375 C 14.21875 -10.113281 14.085938 -9.976562 13.828125 -9.9375 L 11.9375 -9.671875 L 11.84375 -9.671875 C 11.625 -9.671875 11.488281 -9.78125 11.4375 -10 L 11.34375 -10.375 C 11.1875 -11.039062 10.804688 -11.597656 10.203125 -12.046875 C 9.597656 -12.492188 8.863281 -12.71875 8 -12.71875 C 7.15625 -12.71875 6.441406 -12.492188 5.859375 -12.046875 C 5.273438 -11.597656 4.894531 -11.003906 4.71875 -10.265625 C 4.539062 -9.554688 4.453125 -8.625 4.453125 -7.46875 C 4.453125 -6.34375 4.539062 -5.425781 4.71875 -4.71875 C 4.914062 -3.9375 5.300781 -3.320312 5.875 -2.875 C 6.445312 -2.425781 7.15625 -2.203125 8 -2.203125 C 8.84375 -2.203125 9.566406 -2.421875 10.171875 -2.859375 C 10.773438 -3.296875 11.164062 -3.859375 11.34375 -4.546875 L 11.375 -4.65625 L 11.375 -4.6875 C 11.394531 -4.789062 11.453125 -4.882812 11.546875 -4.96875 C 11.648438 -5.050781 11.757812 -5.085938 11.875 -5.078125 L 13.78125 -4.75 C 14.050781 -4.6875 14.175781 -4.53125 14.15625 -4.28125 C 14.132812 -4.195312 14.085938 -4.007812 14.015625 -3.71875 C 13.679688 -2.53125 12.96875 -1.570312 11.875 -0.84375 C 10.78125 -0.125 9.5 0.234375 8.03125 0.234375 Z M 8.03125 0.234375 "></path>
			</g>
		</g>
	</g>
	<g fill="rgb(7.449341%, 53.329468%, 3.138733%)" fill-opacity="1">
		<g transform="translate(317.397796, 176.070255)">
			<g>
				<path d="M 8.328125 -2.171875 C 9.910156 -2.191406 11.039062 -2.804688 11.71875 -4.015625 C 11.820312 -4.191406 11.929688 -4.28125 12.046875 -4.28125 C 12.140625 -4.28125 12.226562 -4.25 12.3125 -4.1875 L 13.515625 -3.453125 C 13.671875 -3.359375 13.75 -3.234375 13.75 -3.078125 L 13.6875 -2.84375 C 13.15625 -1.882812 12.40625 -1.128906 11.4375 -0.578125 C 10.476562 -0.0351562 9.351562 0.234375 8.0625 0.234375 C 6.675781 0.234375 5.503906 -0.0703125 4.546875 -0.6875 C 3.585938 -1.300781 2.863281 -2.1875 2.375 -3.34375 C 1.882812 -4.53125 1.640625 -5.925781 1.640625 -7.53125 C 1.640625 -8.957031 1.75 -10.039062 1.96875 -10.78125 C 2.3125 -12.132812 3.007812 -13.203125 4.0625 -13.984375 C 5.125 -14.765625 6.410156 -15.15625 7.921875 -15.15625 C 9.773438 -15.15625 11.1875 -14.671875 12.15625 -13.703125 C 13.132812 -12.734375 13.769531 -11.332031 14.0625 -9.5 C 14.164062 -8.769531 14.238281 -7.890625 14.28125 -6.859375 C 14.28125 -6.566406 14.128906 -6.421875 13.828125 -6.421875 L 4.578125 -6.421875 C 4.472656 -6.421875 4.421875 -6.367188 4.421875 -6.265625 C 4.460938 -5.523438 4.53125 -5 4.625 -4.6875 C 4.84375 -3.90625 5.273438 -3.289062 5.921875 -2.84375 C 6.566406 -2.394531 7.367188 -2.171875 8.328125 -2.171875 Z M 7.921875 -12.71875 C 7.054688 -12.71875 6.351562 -12.507812 5.8125 -12.09375 C 5.28125 -11.6875 4.914062 -11.125 4.71875 -10.40625 C 4.582031 -9.976562 4.492188 -9.429688 4.453125 -8.765625 C 4.453125 -8.671875 4.503906 -8.625 4.609375 -8.625 L 11.25 -8.625 C 11.351562 -8.625 11.40625 -8.671875 11.40625 -8.765625 C 11.363281 -9.410156 11.304688 -9.890625 11.234375 -10.203125 C 11.035156 -10.960938 10.644531 -11.570312 10.0625 -12.03125 C 9.488281 -12.488281 8.773438 -12.71875 7.921875 -12.71875 Z M 7.921875 -12.71875 "></path>
			</g>
		</g>
	</g>
	<g fill="rgb(7.449341%, 53.329468%, 3.138733%)" fill-opacity="1">
		<g transform="translate(255.961635, 223.695451)">
			<g></g>
		</g>
	</g>
	<g fill="rgb(7.449341%, 53.329468%, 3.138733%)" fill-opacity="1">
		<g transform="translate(266.337771, 223.695451)">
			<g>
				<path d="M 11.789062 -23.890625 C 11.660156 -23.789062 11.554688 -23.660156 11.554688 -23.632812 C 11.582031 -23.554688 11.6875 -23.605469 11.894531 -23.839844 C 12.152344 -24.074219 12.074219 -24.125 11.789062 -23.890625 Z M 13.425781 -2.105469 C 13.503906 -2.105469 13.996094 -2.570312 13.917969 -2.570312 C 13.894531 -2.570312 13.765625 -2.46875 13.609375 -2.335938 C 13.476562 -2.207031 13.375 -2.105469 13.425781 -2.105469 Z M 5.792969 -17.894531 C 5.660156 -17.660156 5.582031 -17.476562 5.609375 -17.476562 C 5.636719 -17.476562 5.738281 -17.632812 5.816406 -17.761719 C 5.921875 -17.917969 6.050781 -18.101562 6.078125 -18.152344 C 6.128906 -18.203125 6.15625 -18.28125 6.128906 -18.308594 C 6.078125 -18.359375 6.101562 -18.359375 5.792969 -17.894531 Z M 6.519531 3.324219 C 6.675781 3.195312 7.503906 2.910156 7.945312 2.832031 C 8.335938 2.753906 9.53125 2.15625 9.503906 2.027344 C 9.503906 2 9.558594 1.972656 9.609375 1.949219 C 9.738281 1.949219 11.894531 0.492188 13.246094 -0.546875 C 14.050781 -1.144531 14.492188 -1.53125 15.789062 -2.726562 C 16.699219 -3.558594 16.933594 -3.816406 16.933594 -4 C 16.90625 -4.101562 17.011719 -4.234375 18.179688 -5.453125 C 18.515625 -5.816406 18.777344 -6.101562 18.722656 -6.101562 C 18.671875 -6.101562 18.414062 -5.871094 17.191406 -4.597656 C 16.828125 -4.234375 16.515625 -3.894531 16.464844 -3.894531 C 16.386719 -3.84375 16.308594 -3.765625 15.789062 -3.296875 C 15.375 -2.882812 14.335938 -2.050781 14.308594 -2.105469 C 14.308594 -2.128906 14.621094 -2.390625 14.957031 -2.699219 C 15.894531 -3.480469 16.570312 -4.101562 17.296875 -4.855469 C 18.28125 -5.871094 18.777344 -6.3125 18.90625 -6.285156 C 18.984375 -6.257812 19.011719 -6.285156 18.933594 -6.335938 C 18.855469 -6.363281 18.933594 -6.492188 19.296875 -6.828125 C 19.605469 -7.140625 19.683594 -7.195312 19.503906 -6.984375 C 19.269531 -6.699219 19.191406 -6.542969 19.320312 -6.597656 C 19.453125 -6.648438 22.515625 -10 22.984375 -10.59375 C 23.242188 -10.933594 23.839844 -11.660156 24.28125 -12.179688 C 24.773438 -12.777344 25.085938 -13.191406 25.035156 -13.246094 C 25.007812 -13.296875 25.007812 -13.296875 25.0625 -13.269531 C 25.140625 -13.246094 25.269531 -13.347656 25.242188 -13.476562 C 25.242188 -13.503906 25.554688 -13.917969 25.945312 -14.4375 C 26.332031 -14.933594 26.644531 -15.347656 26.644531 -15.398438 C 26.644531 -15.425781 26.828125 -15.738281 27.242188 -16.28125 C 27.578125 -16.699219 27.710938 -16.957031 27.710938 -17.0625 C 27.710938 -17.242188 27.554688 -17.140625 27.214844 -16.648438 C 26.695312 -15.894531 25.449219 -14.414062 25.347656 -14.414062 C 25.292969 -14.414062 25.035156 -14.128906 24.773438 -13.816406 C 24.515625 -13.503906 24.101562 -12.984375 23.8125 -12.699219 C 23.527344 -12.386719 23.113281 -11.945312 22.90625 -11.6875 C 21.96875 -10.59375 20.957031 -9.503906 20.878906 -9.503906 C 20.777344 -9.503906 19.816406 -8.414062 19.816406 -8.308594 C 19.816406 -8.285156 19.582031 -7.972656 19.296875 -7.660156 C 18.492188 -6.804688 17.917969 -6.234375 18.023438 -6.386719 C 18.074219 -6.464844 18.101562 -6.519531 18.074219 -6.542969 C 18.023438 -6.597656 17.035156 -5.582031 16.90625 -5.324219 C 16.800781 -5.117188 15.269531 -3.558594 14.777344 -3.140625 C 14.648438 -3.039062 14.230469 -2.675781 13.867188 -2.335938 C 12.882812 -1.453125 12.207031 -0.960938 10.960938 -0.183594 C 9.347656 0.832031 8.078125 1.53125 7.425781 1.738281 C 6.386719 2.050781 4.570312 2.3125 3.558594 2.257812 C 3.117188 2.234375 2.335938 2 1.921875 1.738281 C 1.246094 1.375 0.988281 0.597656 0.910156 -1.039062 C 0.882812 -1.894531 0.910156 -2.078125 0.988281 -2.15625 C 1.089844 -2.257812 1.21875 -2.882812 1.246094 -3.402344 C 1.246094 -3.507812 1.273438 -3.660156 1.296875 -3.792969 C 1.351562 -3.894531 1.375 -4.023438 1.375 -4.050781 C 1.375 -4.101562 1.507812 -4.570312 1.636719 -5.089844 C 2.050781 -6.675781 3.296875 -10.128906 3.714844 -10.855469 C 3.792969 -11.011719 4.078125 -11.582031 4.3125 -12.101562 C 4.699219 -12.984375 5.246094 -14.023438 6.023438 -15.347656 C 6.179688 -15.609375 6.386719 -15.972656 6.492188 -16.152344 C 6.570312 -16.359375 6.90625 -16.878906 7.21875 -17.347656 C 7.53125 -17.816406 7.765625 -18.230469 7.738281 -18.308594 C 7.738281 -18.386719 7.738281 -18.414062 7.765625 -18.359375 C 7.816406 -18.230469 7.921875 -18.257812 8 -18.464844 C 8.050781 -18.671875 8.308594 -19.035156 8.777344 -19.632812 C 8.933594 -19.816406 9.089844 -20.046875 9.117188 -20.125 C 9.167969 -20.230469 9.347656 -20.515625 9.558594 -20.777344 C 10.671875 -22.335938 10.933594 -22.777344 10.257812 -22.074219 L 9.894531 -21.683594 L 10.179688 -22.074219 C 10.335938 -22.308594 10.519531 -22.515625 10.542969 -22.542969 C 10.59375 -22.566406 10.671875 -22.671875 10.726562 -22.777344 C 10.882812 -23.0625 12.621094 -24.929688 12.570312 -24.75 C 12.515625 -24.542969 12.59375 -24.644531 13.324219 -25.371094 C 14.257812 -26.332031 14.621094 -26.695312 15.21875 -27.214844 C 15.503906 -27.476562 15.894531 -27.839844 16.101562 -28.019531 C 16.671875 -28.566406 18.542969 -29.996094 19.375 -30.539062 C 19.761719 -30.828125 20.414062 -31.191406 20.777344 -31.34375 C 21.164062 -31.527344 21.605469 -31.761719 21.761719 -31.863281 C 22.152344 -32.074219 22.828125 -32.332031 23.035156 -32.359375 C 23.113281 -32.359375 23.21875 -32.332031 23.242188 -32.253906 C 23.347656 -32.046875 23.371094 -31.035156 23.269531 -30.4375 C 23.164062 -29.578125 22.699219 -27.996094 22.230469 -26.90625 C 20.828125 -23.527344 18.023438 -19.996094 17.089844 -20.414062 C 16.878906 -20.515625 16.699219 -20.464844 16.464844 -20.257812 C 16.308594 -20.125 16.308594 -20.074219 16.386719 -19.996094 C 16.4375 -19.945312 16.542969 -19.738281 16.621094 -19.554688 C 16.777344 -19.140625 17.089844 -18.800781 17.242188 -18.878906 C 17.296875 -18.90625 17.375 -18.878906 17.398438 -18.800781 C 17.425781 -18.722656 17.53125 -18.722656 17.917969 -18.777344 C 18.203125 -18.828125 18.492188 -18.90625 18.570312 -18.957031 C 18.957031 -19.164062 19.683594 -19.972656 20.179688 -20.644531 C 20.464844 -21.0625 20.777344 -21.476562 20.855469 -21.582031 C 21.476562 -22.410156 22.828125 -24.851562 23.269531 -26.023438 C 24.125 -28.175781 24.59375 -30.074219 24.515625 -31.214844 C 24.488281 -31.8125 24.230469 -32.304688 23.738281 -32.695312 C 23.113281 -33.164062 22.957031 -33.1875 21.761719 -33.113281 C 20.933594 -33.085938 20.621094 -33.035156 20.308594 -32.902344 C 19.242188 -32.488281 16.90625 -30.828125 15.789062 -29.65625 C 15.398438 -29.269531 14.878906 -28.75 14.648438 -28.515625 C 12.441406 -26.4375 10.257812 -24.125 8.984375 -22.515625 C 8.570312 -21.96875 8.179688 -21.476562 8.128906 -21.398438 C 8 -21.21875 7.167969 -19.972656 7.089844 -19.816406 C 6.855469 -19.296875 7.53125 -20.101562 7.84375 -20.699219 C 7.945312 -20.855469 8.207031 -21.21875 8.464844 -21.503906 L 8.90625 -21.996094 L 8.597656 -21.554688 C 8.363281 -21.269531 8.285156 -21.140625 8.386719 -21.113281 C 8.492188 -21.0625 9.765625 -22.386719 9.816406 -22.621094 C 9.84375 -22.699219 9.816406 -22.800781 9.765625 -22.851562 C 9.710938 -22.90625 10.078125 -23.347656 11.296875 -24.699219 C 12.179688 -25.683594 12.984375 -26.542969 13.113281 -26.644531 C 13.21875 -26.722656 12.984375 -26.410156 12.570312 -25.96875 C 11.894531 -25.214844 11.425781 -24.671875 11.269531 -24.359375 C 11.246094 -24.308594 11.269531 -24.28125 11.347656 -24.28125 C 11.425781 -24.28125 11.554688 -24.386719 11.609375 -24.515625 C 11.6875 -24.644531 11.84375 -24.851562 11.921875 -24.957031 C 12.050781 -25.0625 12.363281 -25.371094 12.621094 -25.683594 C 12.90625 -25.996094 13.269531 -26.359375 13.453125 -26.515625 C 13.867188 -26.878906 14.542969 -27.503906 14.75 -27.710938 C 14.855469 -27.8125 14.957031 -27.890625 15.011719 -27.890625 C 15.0625 -27.917969 15.347656 -28.175781 15.660156 -28.515625 C 15.996094 -28.851562 16.308594 -29.191406 16.386719 -29.242188 C 16.464844 -29.269531 16.359375 -29.136719 16.179688 -28.929688 C 15.972656 -28.722656 15.816406 -28.539062 15.839844 -28.515625 C 15.867188 -28.488281 15.765625 -28.332031 15.582031 -28.203125 C 15.398438 -28.019531 15.269531 -27.867188 15.269531 -27.8125 C 15.269531 -27.761719 15.0625 -27.527344 14.804688 -27.292969 C 13.503906 -26.125 10.804688 -23.191406 9.558594 -21.605469 C 9.21875 -21.164062 8.90625 -20.828125 8.855469 -20.855469 C 8.804688 -20.878906 8.804688 -20.855469 8.828125 -20.828125 C 8.855469 -20.777344 8.75 -20.566406 8.597656 -20.386719 C 8.464844 -20.179688 8.15625 -19.761719 7.945312 -19.453125 C 7.738281 -19.140625 7.375 -18.621094 7.140625 -18.28125 C 6.90625 -17.945312 6.519531 -17.320312 6.257812 -16.90625 C 5.945312 -16.386719 5.816406 -16.207031 5.792969 -16.28125 C 5.765625 -16.359375 5.816406 -16.492188 5.894531 -16.59375 C 5.972656 -16.699219 6.050781 -16.777344 6.050781 -16.800781 C 6.023438 -16.90625 6.519531 -17.683594 6.597656 -17.683594 C 6.621094 -17.683594 6.648438 -17.738281 6.648438 -17.789062 C 6.621094 -17.867188 6.699219 -17.945312 6.777344 -17.996094 C 6.855469 -18.050781 6.90625 -18.101562 6.882812 -18.152344 C 6.855469 -18.179688 6.90625 -18.308594 7.011719 -18.414062 C 7.117188 -18.515625 7.21875 -18.644531 7.21875 -18.671875 C 7.21875 -18.722656 7.21875 -18.777344 7.21875 -18.828125 C 7.21875 -18.855469 7.273438 -18.878906 7.347656 -18.90625 C 7.402344 -18.90625 7.425781 -18.933594 7.402344 -18.984375 C 7.347656 -19.0625 7.765625 -19.605469 7.894531 -19.605469 C 7.921875 -19.632812 7.972656 -19.683594 7.972656 -19.789062 C 7.972656 -19.867188 8.023438 -19.945312 8.078125 -19.945312 C 8.15625 -19.945312 8.234375 -20.074219 8.285156 -20.203125 C 8.386719 -20.515625 8.828125 -21.085938 9.039062 -21.164062 C 9.191406 -21.242188 9.21875 -21.476562 9.039062 -21.449219 C 8.984375 -21.449219 8.234375 -20.722656 7.609375 -19.996094 C 6.90625 -19.242188 5.503906 -17.113281 5.503906 -16.828125 C 5.53125 -16.777344 5.453125 -16.570312 5.375 -16.386719 C 5.273438 -16.207031 5.167969 -15.972656 5.140625 -15.867188 C 5.089844 -15.765625 4.960938 -15.554688 4.882812 -15.375 C 4.570312 -14.855469 4.050781 -13.84375 3.738281 -13.140625 C 3.558594 -12.777344 3.273438 -12.179688 3.117188 -11.789062 C 2.933594 -11.425781 2.546875 -10.464844 2.234375 -9.6875 C 1.195312 -7.089844 0.570312 -4.882812 0.777344 -4.699219 C 0.832031 -4.648438 0.910156 -4.621094 0.933594 -4.675781 C 0.960938 -4.699219 0.988281 -4.621094 0.988281 -4.542969 C 0.988281 -4.414062 0.960938 -4.390625 0.882812 -4.414062 C 0.832031 -4.441406 0.777344 -4.414062 0.777344 -4.390625 C 0.777344 -4.335938 0.726562 -4.3125 0.648438 -4.3125 C 0.570312 -4.3125 0.546875 -4.257812 0.625 -4.050781 C 0.648438 -3.84375 0.648438 -3.792969 0.570312 -3.792969 C 0.492188 -3.792969 0.441406 -3.714844 0.414062 -3.636719 C 0.285156 -2.726562 0.128906 -2.027344 0.105469 -2.15625 C 0.0507812 -2.597656 0.3125 -4.285156 0.570312 -5.375 C 1.011719 -7.117188 1.453125 -8.414062 2.3125 -10.414062 C 2.753906 -11.402344 3.089844 -12.230469 3.089844 -12.285156 C 3.0625 -12.335938 3.039062 -12.285156 2.988281 -12.179688 C 2.855469 -11.894531 2.777344 -11.921875 2.910156 -12.179688 C 2.960938 -12.308594 3.039062 -12.386719 3.089844 -12.386719 C 3.140625 -12.335938 3.660156 -13.296875 3.636719 -13.375 C 3.609375 -13.402344 3.660156 -13.476562 3.6875 -13.53125 C 3.765625 -13.609375 3.765625 -13.632812 3.6875 -13.582031 C 3.636719 -13.554688 3.582031 -13.554688 3.582031 -13.609375 C 3.582031 -13.632812 3.636719 -13.6875 3.6875 -13.6875 C 3.816406 -13.6875 4.023438 -14.074219 3.949219 -14.230469 C 3.921875 -14.335938 4.101562 -14.75 4.699219 -15.867188 C 4.882812 -16.207031 5.011719 -16.492188 4.984375 -16.492188 C 4.933594 -16.570312 4.753906 -16.308594 4.335938 -15.632812 C 4.101562 -15.21875 3.871094 -14.777344 3.765625 -14.621094 C 2.910156 -13.167969 2.855469 -13.0625 1.246094 -9.425781 C 1.089844 -9.089844 0.882812 -8.492188 0.777344 -8.050781 C 0.675781 -7.660156 0.46875 -6.960938 0.335938 -6.542969 C 0.078125 -5.660156 -0.335938 -3.921875 -0.414062 -3.140625 C -0.441406 -2.855469 -0.441406 -2.128906 -0.414062 -1.53125 C -0.335938 -0.546875 -0.3125 -0.390625 -0.105469 0.234375 C 0.128906 0.855469 0.46875 1.429688 0.648438 1.585938 C 0.703125 1.636719 0.832031 1.792969 0.960938 1.949219 C 1.558594 2.777344 2.726562 3.375 4.078125 3.53125 C 4.542969 3.582031 6.414062 3.429688 6.519531 3.324219 Z M 23.789062 -12.207031 C 25.164062 -13.789062 25.242188 -13.894531 24.699219 -13.167969 C 24.410156 -12.804688 23.890625 -12.207031 23.554688 -11.84375 C 22.929688 -11.191406 22.929688 -11.21875 23.789062 -12.207031 Z M 21.605469 -9.84375 C 21.816406 -10 21.917969 -10 21.789062 -9.816406 C 21.738281 -9.738281 21.632812 -9.6875 21.582031 -9.6875 C 21.476562 -9.6875 21.476562 -9.710938 21.605469 -9.84375 Z M 21.242188 -8.984375 C 21.476562 -9.246094 21.554688 -9.269531 21.425781 -9.117188 C 21.242188 -8.882812 20.90625 -8.519531 20.90625 -8.570312 C 20.90625 -8.597656 21.0625 -8.777344 21.242188 -8.984375 Z M 20.671875 -8.882812 C 20.699219 -8.933594 20.75 -8.984375 20.777344 -8.984375 C 20.800781 -8.984375 20.777344 -8.933594 20.722656 -8.882812 C 20.671875 -8.804688 20.621094 -8.75 20.621094 -8.75 C 20.59375 -8.75 20.621094 -8.804688 20.671875 -8.882812 Z M 20.699219 -8.363281 C 20.75 -8.441406 20.800781 -8.492188 20.800781 -8.492188 C 20.828125 -8.492188 20.800781 -8.441406 20.75 -8.363281 C 20.722656 -8.308594 20.671875 -8.257812 20.644531 -8.257812 C 20.621094 -8.257812 20.644531 -8.308594 20.699219 -8.363281 Z M 18.570312 -6.519531 C 18.59375 -6.519531 18.570312 -6.441406 18.515625 -6.335938 C 18.414062 -6.234375 18.414062 -6.234375 18.386719 -6.335938 C 18.386719 -6.441406 18.515625 -6.570312 18.570312 -6.519531 Z M 17.609375 -5.53125 C 17.609375 -5.503906 17.554688 -5.425781 17.453125 -5.324219 C 17.375 -5.21875 17.296875 -5.167969 17.296875 -5.195312 C 17.269531 -5.296875 17.554688 -5.582031 17.609375 -5.53125 Z M 13.789062 -27.191406 C 13.53125 -26.957031 13.347656 -26.773438 13.375 -26.828125 C 13.425781 -26.929688 14.257812 -27.734375 14.257812 -27.683594 C 14.257812 -27.65625 14.050781 -27.449219 13.789062 -27.191406 Z M 14.492188 -27.867188 C 14.4375 -27.789062 14.359375 -27.710938 14.335938 -27.710938 C 14.308594 -27.710938 14.359375 -27.789062 14.4375 -27.867188 C 14.492188 -27.945312 14.570312 -28.019531 14.59375 -28.019531 C 14.59375 -28.019531 14.570312 -27.945312 14.492188 -27.867188 Z M 14.179688 -26.515625 C 14.308594 -26.671875 14.4375 -26.773438 14.4375 -26.773438 C 14.464844 -26.773438 14.386719 -26.671875 14.257812 -26.515625 C 14.128906 -26.359375 13.996094 -26.253906 13.972656 -26.253906 C 13.972656 -26.253906 14.050781 -26.359375 14.179688 -26.515625 Z M 13.21875 -25.554688 C 13.53125 -25.867188 13.765625 -26.074219 13.710938 -26.023438 C 13.609375 -25.8125 12.671875 -24.828125 12.648438 -24.90625 C 12.648438 -24.957031 12.90625 -25.242188 13.21875 -25.554688 Z M 4.257812 -13.453125 C 4.257812 -13.554688 4.285156 -13.660156 4.363281 -13.710938 C 4.414062 -13.765625 4.441406 -13.84375 4.414062 -13.894531 C 4.363281 -13.972656 4.753906 -14.671875 4.855469 -14.699219 C 4.910156 -14.699219 4.933594 -14.726562 4.882812 -14.75 C 4.777344 -14.828125 5.375 -15.917969 5.53125 -15.839844 C 5.558594 -15.839844 5.582031 -15.894531 5.582031 -15.972656 C 5.582031 -16.050781 5.609375 -16.101562 5.6875 -16.128906 C 5.765625 -16.128906 5.765625 -16.050781 5.609375 -15.765625 C 5.53125 -15.554688 5.402344 -15.347656 5.351562 -15.296875 C 5.296875 -15.246094 5.246094 -15.167969 5.273438 -15.089844 C 5.273438 -15.0625 5.21875 -14.984375 5.167969 -14.957031 C 5.089844 -14.933594 5.0625 -14.855469 5.089844 -14.777344 C 5.140625 -14.648438 5.011719 -14.492188 4.882812 -14.492188 C 4.855469 -14.515625 4.804688 -14.4375 4.804688 -14.386719 C 4.804688 -14.285156 4.804688 -14.257812 4.882812 -14.285156 C 4.933594 -14.335938 4.910156 -14.285156 4.832031 -14.207031 C 4.726562 -14.101562 4.699219 -14.023438 4.726562 -13.996094 C 4.753906 -13.972656 4.726562 -13.945312 4.675781 -13.972656 C 4.597656 -13.972656 4.570312 -13.917969 4.570312 -13.789062 C 4.570312 -13.6875 4.492188 -13.53125 4.414062 -13.425781 L 4.257812 -13.269531 Z M 2.207031 -8.050781 C 2.105469 -7.921875 2.105469 -7.921875 2.128906 -8.023438 C 2.128906 -8.101562 2.15625 -8.207031 2.15625 -8.285156 C 2.15625 -8.335938 2.179688 -8.363281 2.207031 -8.386719 C 2.257812 -8.386719 2.285156 -8.335938 2.285156 -8.285156 C 2.3125 -8.234375 2.257812 -8.128906 2.207031 -8.050781 Z M 3.507812 -12.023438 C 3.609375 -12.152344 3.660156 -12.308594 3.660156 -12.386719 C 3.660156 -12.492188 3.6875 -12.621094 3.738281 -12.671875 C 4.050781 -13.113281 4.128906 -13.21875 4.179688 -13.167969 C 4.207031 -13.167969 4.179688 -13.0625 4.101562 -12.984375 C 4 -12.855469 4 -12.804688 4.078125 -12.777344 C 4.15625 -12.726562 4.15625 -12.671875 4.078125 -12.492188 C 4.023438 -12.386719 3.972656 -12.335938 3.972656 -12.386719 C 3.949219 -12.492188 3.949219 -12.492188 3.84375 -12.386719 C 3.792969 -12.335938 3.714844 -12.152344 3.6875 -11.972656 C 3.609375 -11.765625 3.558594 -11.6875 3.480469 -11.710938 C 3.296875 -11.710938 3.296875 -11.789062 3.507812 -12.023438 Z M 3.0625 -10.933594 C 3.117188 -10.960938 3.140625 -11.011719 3.117188 -11.039062 C 3.039062 -11.167969 3.140625 -11.402344 3.273438 -11.425781 C 3.480469 -11.503906 3.480469 -11.269531 3.296875 -11.089844 C 3.246094 -11.039062 3.117188 -10.804688 3.039062 -10.59375 C 2.882812 -10.230469 2.832031 -10.179688 2.753906 -10.257812 C 2.675781 -10.308594 2.933594 -10.855469 3.0625 -10.933594 Z M 2.675781 -10.078125 C 2.726562 -10.078125 2.753906 -10.023438 2.726562 -9.945312 C 2.699219 -9.867188 2.726562 -9.84375 2.777344 -9.894531 C 2.832031 -9.921875 2.855469 -9.921875 2.855469 -9.894531 C 2.855469 -9.84375 2.832031 -9.789062 2.804688 -9.738281 C 2.777344 -9.660156 2.726562 -9.6875 2.675781 -9.789062 C 2.546875 -9.972656 2.546875 -10.050781 2.675781 -10.078125 Z M 2.179688 -8.855469 C 2.257812 -8.804688 2.414062 -9.21875 2.335938 -9.347656 C 2.3125 -9.402344 2.3125 -9.402344 2.390625 -9.375 C 2.46875 -9.324219 2.46875 -9.347656 2.441406 -9.425781 C 2.363281 -9.558594 2.414062 -9.765625 2.519531 -9.765625 C 2.597656 -9.789062 2.570312 -9.636719 2.492188 -9.269531 C 2.46875 -9.140625 2.46875 -9.117188 2.546875 -9.167969 C 2.597656 -9.191406 2.621094 -9.191406 2.597656 -9.140625 C 2.570312 -9.089844 2.492188 -9.0625 2.46875 -9.089844 C 2.414062 -9.117188 2.390625 -9.089844 2.414062 -9.011719 C 2.414062 -8.855469 2.234375 -8.699219 2.15625 -8.828125 C 2.128906 -8.882812 2.128906 -8.882812 2.179688 -8.855469 Z M 2.078125 -8.570312 C 2.179688 -8.570312 2.179688 -8.542969 2.15625 -8.441406 C 2.078125 -8.285156 1.871094 -8.101562 1.871094 -8.179688 C 1.871094 -8.363281 1.972656 -8.542969 2.078125 -8.570312 Z M 1.714844 -7.738281 C 1.738281 -7.789062 1.792969 -7.84375 1.816406 -7.84375 C 1.84375 -7.84375 1.871094 -7.816406 1.84375 -7.738281 C 1.816406 -7.6875 1.792969 -7.636719 1.738281 -7.636719 C 1.714844 -7.636719 1.6875 -7.6875 1.714844 -7.738281 Z M 1.609375 -7.402344 C 1.660156 -7.503906 1.6875 -7.480469 1.6875 -7.347656 C 1.714844 -7.273438 1.660156 -7.195312 1.636719 -7.195312 C 1.53125 -7.195312 1.53125 -7.273438 1.609375 -7.402344 Z M 1.402344 -6.050781 C 1.402344 -6.023438 1.480469 -6.15625 1.585938 -6.363281 C 1.660156 -6.542969 1.714844 -6.648438 1.714844 -6.542969 C 1.636719 -6.207031 1.453125 -5.792969 1.402344 -5.84375 C 1.351562 -5.871094 1.296875 -5.84375 1.273438 -5.792969 C 1.246094 -5.714844 1.21875 -5.714844 1.21875 -5.738281 C 1.195312 -5.84375 1.402344 -6.15625 1.402344 -6.050781 Z M 1.011719 -4.257812 C 1.117188 -4.675781 1.195312 -4.675781 1.117188 -4.257812 C 1.066406 -4.050781 1.011719 -3.871094 0.988281 -3.84375 C 0.933594 -3.765625 0.933594 -4 1.011719 -4.257812 Z M 3.84375 -14.152344 C 3.894531 -14.179688 3.894531 -14.152344 3.894531 -14.101562 C 3.84375 -13.972656 3.792969 -13.945312 3.792969 -14.050781 C 3.792969 -14.074219 3.816406 -14.128906 3.84375 -14.152344 Z M 3.246094 -12.855469 C 3.324219 -13.0625 3.429688 -13.21875 3.453125 -13.21875 C 3.453125 -13.191406 3.402344 -13.011719 3.296875 -12.828125 C 3.0625 -12.386719 3.039062 -12.386719 3.246094 -12.855469 Z M 4.285156 -14.855469 C 4.207031 -14.726562 4.128906 -14.59375 4.128906 -14.542969 C 4.128906 -14.515625 4.207031 -14.570312 4.3125 -14.699219 C 4.519531 -14.984375 4.492188 -15.140625 4.285156 -14.855469 Z M 11.011719 -23.867188 C 11.246094 -24.125 11.191406 -24.230469 10.960938 -24.023438 C 10.828125 -23.917969 10.75 -23.8125 10.75 -23.761719 C 10.75 -23.605469 10.828125 -23.632812 11.011719 -23.867188 Z M 6.207031 -18.492188 C 6.179688 -18.4375 6.179688 -18.414062 6.257812 -18.4375 C 6.3125 -18.464844 6.414062 -18.59375 6.464844 -18.722656 C 6.519531 -18.855469 6.648438 -19.0625 6.777344 -19.191406 C 6.984375 -19.398438 7.039062 -19.53125 6.90625 -19.53125 C 6.855469 -19.53125 6.363281 -18.800781 6.207031 -18.492188 Z M 6.207031 -18.492188 "></path>
			</g>
		</g>
	</g>
	<g fill="rgb(7.449341%, 53.329468%, 3.138733%)" fill-opacity="1">
		<g transform="translate(291.856349, 223.695451)">
			<g>
				<path d="M 15.089844 -14.074219 C 14.984375 -14.074219 14.648438 -13.765625 14.59375 -13.554688 C 14.570312 -13.476562 14.464844 -13.425781 14.386719 -13.402344 C 14.285156 -13.375 14.023438 -13.167969 13.789062 -12.90625 C 13.53125 -12.671875 13.324219 -12.492188 13.296875 -12.492188 C 13.296875 -12.515625 13.347656 -12.621094 13.453125 -12.726562 C 13.53125 -12.804688 13.609375 -12.933594 13.554688 -13.011719 C 13.53125 -13.089844 13.296875 -12.90625 12.777344 -12.386719 C 12.308594 -11.945312 12 -11.6875 11.972656 -11.738281 C 11.921875 -11.789062 11.660156 -11.632812 11.269531 -11.269531 C 9.816406 -10.023438 8.828125 -9.347656 7.558594 -8.777344 C 6.984375 -8.519531 6.570312 -8.441406 6.257812 -8.519531 C 6.078125 -8.542969 6.078125 -8.597656 6.078125 -9.011719 C 6.078125 -9.636719 6.3125 -10.464844 6.855469 -11.816406 C 7.117188 -12.492188 7.453125 -13.347656 7.582031 -13.765625 C 7.714844 -14.152344 7.945312 -14.828125 8.101562 -15.21875 C 8.257812 -15.710938 8.363281 -16.101562 8.363281 -16.359375 C 8.363281 -16.75 8.179688 -17.242188 8.023438 -17.242188 C 7.972656 -17.242188 7.84375 -17.320312 7.738281 -17.425781 C 7.660156 -17.503906 7.53125 -17.632812 7.480469 -17.660156 C 7.402344 -17.710938 7.273438 -17.917969 7.140625 -18.152344 C 7.011719 -18.4375 6.828125 -18.644531 6.675781 -18.777344 C 6.519531 -18.855469 6.363281 -18.984375 6.3125 -19.035156 C 6.257812 -19.113281 6.023438 -19.191406 5.816406 -19.242188 C 5.296875 -19.375 4.933594 -19.269531 4.519531 -18.878906 C 4.363281 -18.75 4.128906 -18.59375 4.023438 -18.59375 C 3.894531 -18.542969 3.582031 -18.257812 3.089844 -17.738281 C 2.257812 -16.800781 1.609375 -16.023438 1.636719 -15.945312 C 1.636719 -15.917969 1.453125 -15.632812 1.195312 -15.347656 C 0.960938 -15.035156 0.777344 -14.726562 0.777344 -14.671875 C 0.777344 -14.59375 0.726562 -14.515625 0.675781 -14.464844 C 0.597656 -14.414062 -0.15625 -13.402344 -0.492188 -12.855469 C -0.648438 -12.59375 -1.011719 -12.074219 -1.246094 -11.789062 C -1.351562 -11.660156 -1.507812 -11.402344 -1.585938 -11.21875 C -1.6875 -11.0625 -1.792969 -10.90625 -1.816406 -10.90625 C -1.871094 -10.90625 -1.894531 -10.882812 -1.894531 -10.828125 C -1.894531 -10.777344 -1.84375 -10.777344 -1.765625 -10.828125 C -1.53125 -11.039062 -1.609375 -10.828125 -1.949219 -10.335938 C -2.257812 -9.921875 -2.3125 -9.789062 -2.257812 -9.660156 C -2.234375 -9.53125 -2.257812 -9.375 -2.390625 -9.140625 C -2.46875 -8.933594 -2.546875 -8.726562 -2.546875 -8.648438 C -2.546875 -8.542969 -2.570312 -8.542969 -2.621094 -8.621094 C -2.726562 -8.777344 -2.570312 -9.503906 -2.335938 -10 C -2.078125 -10.542969 -2.078125 -10.542969 -2.179688 -10.542969 C -2.234375 -10.542969 -2.363281 -10.285156 -2.519531 -10 C -2.960938 -9.089844 -2.933594 -8.414062 -2.492188 -8.078125 C -2.414062 -8.023438 -2.414062 -7.972656 -2.46875 -7.945312 C -2.546875 -7.894531 -2.492188 -7.609375 -2.390625 -7.609375 C -2.363281 -7.609375 -2.285156 -7.558594 -2.234375 -7.480469 C -2.179688 -7.425781 -2.027344 -7.324219 -1.871094 -7.246094 C -1.558594 -7.0625 -1.375 -7.117188 -0.703125 -7.714844 C -0.0273438 -8.257812 0.128906 -8.464844 1.246094 -9.921875 C 1.738281 -10.570312 2.363281 -11.375 2.675781 -11.738281 C 2.960938 -12.101562 3.273438 -12.492188 3.351562 -12.621094 C 3.429688 -12.75 3.507812 -12.828125 3.507812 -12.804688 C 3.507812 -12.648438 3.792969 -13.0625 3.792969 -13.21875 C 3.792969 -13.296875 3.84375 -13.347656 3.894531 -13.347656 C 3.949219 -13.347656 4.363281 -13.6875 4.777344 -14.101562 C 5.375 -14.699219 5.609375 -14.878906 5.816406 -14.933594 C 6.023438 -14.957031 6.128906 -15.0625 6.335938 -15.398438 C 6.492188 -15.609375 6.753906 -15.867188 6.90625 -15.972656 L 7.167969 -16.152344 L 6.804688 -15.453125 C 6.464844 -14.804688 5.765625 -13.191406 5.375 -12.101562 C 5.273438 -11.789062 5.140625 -11.480469 5.117188 -11.402344 C 4.960938 -11.140625 4.832031 -10.335938 4.832031 -9.894531 C 4.832031 -9.324219 5.011719 -8.828125 5.296875 -8.597656 C 5.402344 -8.492188 5.503906 -8.363281 5.503906 -8.308594 C 5.53125 -8.101562 5.945312 -7.738281 6.257812 -7.609375 C 6.960938 -7.296875 7.6875 -7.347656 8.75 -7.816406 C 9.84375 -8.285156 11.660156 -9.609375 11.660156 -9.921875 C 11.660156 -9.972656 11.710938 -10.023438 11.738281 -10 C 11.816406 -9.945312 13.0625 -11.140625 13.0625 -11.269531 C 13.0625 -11.296875 13.402344 -11.710938 13.816406 -12.152344 C 14.230469 -12.59375 14.542969 -13.011719 14.542969 -13.035156 C 14.542969 -13.089844 14.59375 -13.113281 14.621094 -13.113281 C 14.648438 -13.113281 14.726562 -13.21875 14.726562 -13.347656 C 14.75 -13.476562 14.878906 -13.6875 15.011719 -13.789062 C 15.246094 -13.996094 15.269531 -14.074219 15.089844 -14.074219 Z M -0.0507812 -12.984375 C 0 -12.984375 0.0273438 -13.035156 0.0273438 -13.089844 C 0.0273438 -13.167969 0.0507812 -13.191406 0.105469 -13.167969 C 0.15625 -13.140625 0.128906 -13.0625 0.078125 -12.984375 C -0.0273438 -12.828125 -0.105469 -12.777344 -0.105469 -12.90625 C -0.105469 -12.933594 -0.078125 -12.984375 -0.0507812 -12.984375 Z M 3.296875 -13.296875 C 3.21875 -13.402344 3.21875 -13.425781 3.296875 -13.476562 C 3.375 -13.554688 3.402344 -13.53125 3.429688 -13.425781 C 3.480469 -13.246094 3.402344 -13.167969 3.296875 -13.296875 Z M 4.621094 -15.113281 C 4.542969 -15.011719 4.492188 -14.878906 4.492188 -14.828125 C 4.519531 -14.777344 4.46875 -14.75 4.390625 -14.75 C 4.285156 -14.75 3.949219 -14.414062 3.375 -13.789062 C 2.882812 -13.269531 2.492188 -12.828125 2.46875 -12.828125 C 2.414062 -12.828125 3.167969 -13.660156 3.921875 -14.4375 C 4.390625 -14.90625 4.699219 -15.21875 4.621094 -15.113281 Z M 5.558594 -17.191406 C 5.273438 -16.542969 5.195312 -16.4375 4.492188 -15.710938 C 3.84375 -15.0625 3.765625 -14.957031 3.871094 -14.855469 C 3.949219 -14.75 3.949219 -14.726562 3.765625 -14.75 C 3.582031 -14.777344 3.480469 -14.671875 2.832031 -13.972656 C 2.390625 -13.476562 2.128906 -13.140625 2.15625 -13.089844 C 2.207031 -13.035156 2.207031 -12.933594 2.15625 -12.855469 C 2.128906 -12.777344 2.105469 -12.75 2.105469 -12.804688 C 2.078125 -13.113281 1.765625 -12.777344 0.390625 -11.113281 C -0.335938 -10.257812 -0.492188 -10.101562 -0.492188 -10.230469 C -0.492188 -10.386719 0.753906 -12.515625 1.011719 -12.804688 C 1.066406 -12.882812 1.429688 -13.347656 1.816406 -13.867188 C 2.179688 -14.359375 2.699219 -15.011719 2.988281 -15.296875 C 3.871094 -16.257812 4.15625 -16.59375 4.15625 -16.75 C 4.15625 -16.800781 4.179688 -16.90625 4.234375 -16.933594 C 4.3125 -16.957031 4.3125 -16.933594 4.285156 -16.855469 C 4.207031 -16.699219 4.335938 -16.699219 4.492188 -16.878906 C 4.675781 -17.089844 5.792969 -17.996094 5.84375 -17.972656 C 5.84375 -17.945312 5.714844 -17.609375 5.558594 -17.191406 Z M 5.558594 -17.191406 "></path>
			</g>
		</g>
	</g>
	<g fill="rgb(7.449341%, 53.329468%, 3.138733%)" fill-opacity="1">
		<g transform="translate(304.836294, 223.695451)">
			<g>
				<path d="M 11.347656 -15.113281 C 11.089844 -14.878906 10.621094 -14.492188 10.285156 -14.257812 C 9.738281 -13.894531 9.609375 -13.84375 9.296875 -13.816406 C 9.089844 -13.789062 8.90625 -13.789062 8.855469 -13.816406 C 8.675781 -13.917969 8.519531 -14.414062 8.335938 -15.425781 C 8.257812 -15.996094 8.128906 -16.59375 8.078125 -16.777344 C 7.972656 -17.140625 7.714844 -17.554688 7.503906 -17.683594 C 7.453125 -17.710938 7.375 -17.816406 7.324219 -17.894531 C 7.195312 -18.152344 6.386719 -18.308594 6.050781 -18.152344 C 5.660156 -17.972656 5.246094 -17.609375 4.597656 -16.855469 C 3.972656 -16.128906 2.648438 -14.359375 2.546875 -14.128906 C 2.414062 -13.84375 2.675781 -14.101562 2.960938 -14.570312 C 3.453125 -15.296875 4.597656 -16.75 5.089844 -17.242188 C 5.296875 -17.453125 5.945312 -17.972656 6.023438 -17.972656 C 6.050781 -17.972656 5.894531 -17.816406 5.660156 -17.609375 C 5.167969 -17.167969 3.558594 -15.21875 2.960938 -14.308594 C 2.726562 -13.996094 2.3125 -13.296875 2 -12.828125 C 1.480469 -11.945312 1.296875 -11.738281 1.53125 -12.230469 C 1.660156 -12.492188 2.285156 -13.53125 2.335938 -13.609375 C 2.363281 -13.632812 2.414062 -13.710938 2.441406 -13.789062 C 2.546875 -14.074219 2.390625 -13.917969 2.128906 -13.53125 C 1.972656 -13.296875 1.871094 -13.113281 1.84375 -13.113281 C 1.792969 -13.113281 1.949219 -13.476562 2.441406 -14.699219 C 2.726562 -15.375 3.039062 -16.152344 3.140625 -16.4375 C 3.324219 -17.011719 3.738281 -17.839844 4.207031 -18.644531 C 4.363281 -18.90625 4.492188 -19.164062 4.492188 -19.21875 C 4.492188 -19.269531 4.519531 -19.398438 4.570312 -19.503906 C 4.699219 -19.761719 4.699219 -19.972656 4.570312 -19.972656 C 4.519531 -19.972656 4.441406 -20.023438 4.363281 -20.101562 C 4.257812 -20.257812 4.257812 -20.257812 3.582031 -20.125 C 3.507812 -20.125 3.453125 -20.074219 3.453125 -20.046875 C 3.453125 -19.996094 3.402344 -19.917969 3.351562 -19.839844 C 3.273438 -19.789062 3.089844 -19.476562 2.960938 -19.191406 C 2.804688 -18.878906 2.570312 -18.4375 2.441406 -18.179688 C 2.050781 -17.476562 1.84375 -17.035156 1.53125 -16.335938 C 1.375 -15.972656 1.144531 -15.398438 0.988281 -15.035156 C 0.832031 -14.699219 0.625 -14.152344 0.492188 -13.867188 C 0.363281 -13.554688 0.15625 -13.035156 0.0273438 -12.726562 C -0.753906 -10.933594 -1.273438 -9.480469 -1.480469 -8.414062 L -1.609375 -7.816406 L -1.480469 -7.558594 C -1.375 -7.425781 -1.296875 -7.273438 -1.273438 -7.195312 C -1.246094 -7.140625 -1.167969 -7.089844 -1.066406 -7.0625 C -0.988281 -7.039062 -0.882812 -6.984375 -0.855469 -6.933594 C -0.832031 -6.882812 -0.753906 -6.828125 -0.703125 -6.828125 C -0.648438 -6.804688 -0.546875 -6.804688 -0.492188 -6.804688 C -0.335938 -6.804688 0.15625 -7.375 0.335938 -7.738281 C 0.414062 -7.894531 0.625 -8.285156 0.832031 -8.621094 C 1.011719 -8.933594 1.246094 -9.324219 1.296875 -9.453125 C 1.375 -9.582031 1.636719 -10.023438 1.84375 -10.386719 C 2.234375 -11.039062 2.363281 -11.324219 2.648438 -12.050781 C 2.699219 -12.207031 2.777344 -12.386719 2.832031 -12.441406 C 2.855469 -12.515625 3.089844 -12.90625 3.351562 -13.324219 C 3.792969 -14.074219 4.050781 -14.492188 4.257812 -14.726562 C 4.3125 -14.804688 4.363281 -14.90625 4.335938 -14.957031 C 4.335938 -15.035156 4.390625 -15.113281 4.46875 -15.140625 C 4.519531 -15.167969 4.597656 -15.246094 4.597656 -15.320312 C 4.621094 -15.453125 4.832031 -15.6875 4.933594 -15.710938 C 4.984375 -15.710938 5.0625 -15.789062 5.140625 -15.894531 C 5.453125 -16.28125 5.945312 -16.75 6.050781 -16.722656 C 6.128906 -16.722656 6.128906 -16.722656 6.078125 -16.75 C 5.972656 -16.828125 6.3125 -17.140625 6.414062 -17.089844 C 6.464844 -17.0625 6.464844 -17.0625 6.441406 -17.113281 C 6.414062 -17.167969 6.464844 -17.21875 6.621094 -17.296875 C 6.804688 -17.398438 6.855469 -17.398438 6.90625 -17.347656 C 6.933594 -17.296875 6.984375 -16.90625 7.011719 -16.464844 C 7.039062 -16.023438 7.117188 -15.476562 7.167969 -15.269531 C 7.347656 -14.621094 8.207031 -13.375 8.648438 -13.191406 C 8.75 -13.140625 8.90625 -13.0625 8.984375 -13.011719 C 9.117188 -12.933594 9.296875 -12.933594 9.660156 -12.957031 C 10.308594 -13.011719 10.570312 -13.167969 11.191406 -13.894531 C 11.660156 -14.4375 11.710938 -14.542969 11.84375 -14.957031 C 12.050781 -15.765625 12 -15.789062 11.347656 -15.113281 Z M 1.246094 -14.207031 C 1.351562 -14.285156 1.351562 -14.285156 1.273438 -14.152344 C 1.21875 -14.074219 1.195312 -13.996094 1.167969 -13.996094 C 1.167969 -13.972656 1.167969 -13.996094 1.167969 -14.023438 C 1.144531 -14.074219 1.195312 -14.128906 1.246094 -14.207031 Z M -0.726562 -8.441406 C -0.777344 -8.363281 -0.804688 -8.308594 -0.832031 -8.285156 C -0.832031 -8.285156 -0.855469 -8.285156 -0.855469 -8.308594 C -0.855469 -8.363281 -0.804688 -8.441406 -0.753906 -8.492188 C -0.675781 -8.570312 -0.648438 -8.570312 -0.726562 -8.441406 Z M 0.832031 -12.699219 C 0.753906 -12.570312 0.703125 -12.414062 0.703125 -12.363281 C 0.703125 -12.285156 0.675781 -12.230469 0.648438 -12.179688 C 0.597656 -12.179688 0.519531 -11.972656 0.46875 -11.765625 C 0.414062 -11.582031 0.335938 -11.347656 0.285156 -11.296875 C 0.257812 -11.246094 0.0507812 -10.75 -0.15625 -10.179688 C -0.363281 -9.609375 -0.597656 -9.0625 -0.648438 -8.960938 C -0.804688 -8.726562 -0.804688 -8.777344 -0.675781 -9.0625 C -0.625 -9.191406 -0.597656 -9.347656 -0.625 -9.402344 C -0.648438 -9.480469 -0.625 -9.503906 -0.570312 -9.503906 C -0.492188 -9.503906 -0.46875 -9.558594 -0.492188 -9.609375 C -0.519531 -9.660156 -0.519531 -9.6875 -0.492188 -9.6875 C -0.414062 -9.636719 -0.363281 -9.894531 -0.414062 -9.972656 C -0.46875 -10.023438 -0.441406 -10.023438 -0.414062 -10 C -0.363281 -10 -0.335938 -10.023438 -0.3125 -10.078125 C -0.285156 -10.128906 -0.3125 -10.152344 -0.335938 -10.128906 C -0.441406 -10.050781 -0.3125 -10.441406 0.0273438 -11.246094 C 0.207031 -11.632812 0.335938 -12.023438 0.363281 -12.101562 C 0.390625 -12.152344 0.414062 -12.179688 0.46875 -12.179688 C 0.492188 -12.152344 0.546875 -12.179688 0.570312 -12.230469 C 0.570312 -12.285156 0.570312 -12.285156 0.519531 -12.257812 C 0.492188 -12.230469 0.46875 -12.207031 0.441406 -12.230469 C 0.441406 -12.335938 0.832031 -13.246094 0.933594 -13.375 C 0.988281 -13.453125 1.011719 -13.53125 0.988281 -13.53125 C 0.988281 -13.53125 0.988281 -13.609375 1.039062 -13.710938 C 1.089844 -13.84375 1.144531 -13.917969 1.21875 -13.917969 C 1.296875 -13.917969 1.351562 -13.917969 1.351562 -13.894531 C 1.375 -13.84375 0.960938 -12.90625 0.832031 -12.699219 Z M 1.402344 -14.4375 C 1.351562 -14.308594 1.324219 -14.285156 1.296875 -14.386719 C 1.296875 -14.414062 1.324219 -14.464844 1.351562 -14.492188 C 1.402344 -14.515625 1.402344 -14.492188 1.402344 -14.4375 Z M 1.402344 -14.4375 "></path>
			</g>
		</g>
	</g>
	<g fill="rgb(7.449341%, 53.329468%, 3.138733%)" fill-opacity="1">
		<g transform="translate(316.38845, 223.695451)">
			<g>
				<path d="M 14.59375 -15.191406 C 14.75 -15.375 14.957031 -15.6875 15.0625 -15.917969 C 15.191406 -16.152344 15.453125 -16.542969 15.660156 -16.777344 C 16.050781 -17.242188 16.179688 -17.425781 15.945312 -17.242188 C 15.867188 -17.167969 15.839844 -17.167969 15.839844 -17.269531 C 15.839844 -17.347656 15.894531 -17.503906 15.972656 -17.582031 C 16.230469 -17.945312 15.972656 -17.839844 15.582031 -17.425781 C 15.21875 -17.035156 15.246094 -17.0625 15.6875 -17.632812 C 15.996094 -17.996094 16.207031 -18.308594 16.179688 -18.335938 C 16.128906 -18.386719 15.738281 -17.945312 14.90625 -17.035156 C 14.699219 -16.800781 14.230469 -16.308594 13.867188 -15.945312 C 13.53125 -15.582031 13.089844 -15.140625 12.933594 -14.933594 C 12.464844 -14.4375 11.660156 -13.710938 11.140625 -13.296875 C 10.882812 -13.089844 10.363281 -12.671875 10 -12.335938 C 9.324219 -11.789062 9.089844 -11.632812 9.296875 -11.894531 C 9.402344 -12.023438 9.375 -12.023438 9.246094 -11.921875 C 8.882812 -11.660156 8.542969 -11.375 8.542969 -11.296875 C 8.542969 -11.191406 8.15625 -10.882812 8 -10.882812 C 7.945312 -10.882812 7.609375 -10.699219 7.273438 -10.492188 C 5.609375 -9.425781 3.972656 -8.804688 2.3125 -8.648438 C 1.585938 -8.570312 0.804688 -8.804688 0.804688 -9.089844 C 0.804688 -9.117188 1.039062 -9.246094 1.296875 -9.375 C 2.726562 -9.972656 3.480469 -10.414062 5.273438 -11.660156 C 5.921875 -12.101562 6.90625 -13.140625 7.347656 -13.789062 C 7.789062 -14.4375 8.023438 -15.011719 8.078125 -15.609375 C 8.15625 -16.230469 7.921875 -16.699219 7.167969 -17.425781 C 6.597656 -17.996094 6.15625 -18.257812 5.53125 -18.414062 C 5.351562 -18.4375 5.011719 -18.515625 4.777344 -18.570312 C 4.542969 -18.621094 4.257812 -18.644531 4.128906 -18.59375 C 3.894531 -18.570312 3.375 -18.074219 2.804688 -17.375 C 2.570312 -17.113281 2.3125 -16.800781 2.179688 -16.671875 C 1.636719 -16.101562 0.492188 -14.285156 -0.0273438 -13.167969 C -0.597656 -11.894531 -0.777344 -10.726562 -0.546875 -9.867188 C -0.519531 -9.765625 -0.546875 -9.6875 -0.703125 -9.636719 C -0.933594 -9.503906 -0.933594 -9.453125 -0.675781 -9.402344 C -0.519531 -9.375 -0.390625 -9.269531 -0.257812 -9.039062 C 0.105469 -8.414062 1.53125 -7.167969 1.738281 -7.296875 C 1.792969 -7.324219 1.894531 -7.296875 2 -7.21875 C 2.46875 -6.960938 5.167969 -7.375 5.871094 -7.84375 C 5.972656 -7.894531 6.414062 -8.128906 6.828125 -8.363281 C 7.894531 -8.90625 9.167969 -9.765625 10.230469 -10.621094 C 10.726562 -11.039062 13.710938 -14.074219 14.074219 -14.570312 C 14.230469 -14.726562 14.464844 -15.011719 14.59375 -15.191406 Z M 1.585938 -12.363281 C 2.105469 -13.402344 2.910156 -14.59375 3.894531 -15.816406 C 4.984375 -17.167969 5.453125 -17.476562 6.078125 -17.320312 C 6.519531 -17.191406 6.621094 -17.089844 6.675781 -16.75 C 6.726562 -16.386719 6.441406 -15.425781 6.128906 -14.984375 C 5.792969 -14.515625 4.597656 -13.296875 4 -12.777344 C 3.6875 -12.542969 3.402344 -12.308594 3.402344 -12.285156 C 3.246094 -12.128906 2.492188 -11.554688 1.792969 -11.113281 C 0.882812 -10.492188 0.804688 -10.441406 0.804688 -10.464844 C 0.804688 -10.648438 1.21875 -11.609375 1.585938 -12.363281 Z M 12.179688 -12.984375 C 12.050781 -12.828125 11.789062 -12.542969 11.554688 -12.335938 C 11.269531 -12.050781 11.324219 -12.128906 11.738281 -12.59375 C 12.335938 -13.269531 12.570312 -13.453125 12.179688 -12.984375 Z M 12.179688 -12.984375 "></path>
			</g>
		</g>
	</g>
	<path stroke-linecap="round" transform="matrix(0.750177, 0, 0, 0.75, 37.500705, 186.883478)" fill="none" stroke-linejoin="miter" d="M 0.498942 -0.000887504 L 396.415897 -0.000887504 " stroke="rgb(0%, 0%, 0%)" stroke-width="1" stroke-opacity="1" stroke-miterlimit="4"></path>
	<g fill="rgb(9.01947%, 20.779419%, 54.508972%)" fill-opacity="1">
		<g transform="translate(39.812302, 176.046773)">
			<g>
				<path d="M 26.265625 0 L 24.890625 -17.3125 L 24.71875 -17.3125 L 18.734375 -0.171875 L 14.765625 -0.171875 L 8.78125 -17.3125 L 8.609375 -17.3125 L 7.21875 0 L 0.5625 0 L 3.1875 -29.203125 L 10.265625 -29.203125 L 16.75 -12.359375 L 23.234375 -29.203125 L 30.3125 -29.203125 L 32.921875 0 Z M 26.265625 0 "></path>
			</g>
		</g>
	</g>
	<g fill="rgb(9.01947%, 20.779419%, 54.508972%)" fill-opacity="1">
		<g transform="translate(71.530756, 176.046773)">
			<g>
				<path d="M 20.5 -8.21875 L 7.328125 -8.21875 C 7.328125 -6.9375 7.738281 -5.988281 8.5625 -5.375 C 9.394531 -4.769531 10.296875 -4.46875 11.265625 -4.46875 C 12.273438 -4.46875 13.070312 -4.601562 13.65625 -4.875 C 14.25 -5.144531 14.925781 -5.679688 15.6875 -6.484375 L 20.21875 -4.21875 C 18.332031 -1.050781 15.191406 0.53125 10.796875 0.53125 C 8.054688 0.53125 5.707031 -0.40625 3.75 -2.28125 C 1.789062 -4.15625 0.8125 -6.414062 0.8125 -9.0625 C 0.8125 -11.707031 1.789062 -13.972656 3.75 -15.859375 C 5.707031 -17.742188 8.054688 -18.6875 10.796875 -18.6875 C 13.679688 -18.6875 16.023438 -17.851562 17.828125 -16.1875 C 19.628906 -14.53125 20.53125 -12.15625 20.53125 -9.0625 C 20.53125 -8.632812 20.519531 -8.351562 20.5 -8.21875 Z M 7.5 -11.6875 L 14.40625 -11.6875 C 14.269531 -12.625 13.898438 -13.347656 13.296875 -13.859375 C 12.691406 -14.367188 11.914062 -14.625 10.96875 -14.625 C 9.9375 -14.625 9.113281 -14.351562 8.5 -13.8125 C 7.882812 -13.269531 7.550781 -12.5625 7.5 -11.6875 Z M 7.5 -11.6875 "></path>
			</g>
		</g>
	</g>
	<g fill="rgb(100%, 8.628845%, 8.628845%)" fill-opacity="1">
		<g transform="translate(91.095954, 176.046773)">
			<g>
				<path d="M 3.359375 -2.25 C 1.660156 -4.101562 0.8125 -6.375 0.8125 -9.0625 C 0.8125 -11.75 1.660156 -14.023438 3.359375 -15.890625 C 5.054688 -17.753906 7.21875 -18.6875 9.84375 -18.6875 C 12.25 -18.6875 14.234375 -17.929688 15.796875 -16.421875 L 15.796875 -30.453125 L 22.0625 -30.453125 L 22.0625 0 L 15.859375 0 L 15.859375 -2.046875 L 15.796875 -2.046875 C 14.234375 -0.328125 12.25 0.53125 9.84375 0.53125 C 7.21875 0.53125 5.054688 -0.394531 3.359375 -2.25 Z M 8.6875 -12.140625 C 7.875 -11.335938 7.46875 -10.3125 7.46875 -9.0625 C 7.46875 -7.8125 7.859375 -6.789062 8.640625 -6 C 9.421875 -5.207031 10.445312 -4.8125 11.71875 -4.8125 C 12.945312 -4.8125 13.957031 -5.210938 14.75 -6.015625 C 15.539062 -6.816406 15.9375 -7.832031 15.9375 -9.0625 C 15.9375 -10.3125 15.523438 -11.335938 14.703125 -12.140625 C 13.890625 -12.941406 12.894531 -13.34375 11.71875 -13.34375 C 10.507812 -13.34375 9.5 -12.941406 8.6875 -12.140625 Z M 8.6875 -12.140625 "></path>
			</g>
		</g>
	</g>
	<g fill="rgb(100%, 8.628845%, 8.628845%)" fill-opacity="1">
		<g transform="translate(113.504049, 176.046773)">
			<g>
				<path d="M 2.125 0 L 2.125 -18.15625 L 8.390625 -18.15625 L 8.390625 -15.546875 L 8.46875 -15.546875 C 8.507812 -15.640625 8.582031 -15.753906 8.6875 -15.890625 C 8.800781 -16.035156 9.03125 -16.285156 9.375 -16.640625 C 9.726562 -16.992188 10.109375 -17.3125 10.515625 -17.59375 C 10.921875 -17.875 11.441406 -18.125 12.078125 -18.34375 C 12.710938 -18.570312 13.359375 -18.6875 14.015625 -18.6875 C 14.703125 -18.6875 15.375 -18.59375 16.03125 -18.40625 C 16.695312 -18.21875 17.179688 -18.03125 17.484375 -17.84375 L 17.984375 -17.5625 L 15.359375 -12.25 C 14.585938 -12.90625 13.503906 -13.234375 12.109375 -13.234375 C 11.347656 -13.234375 10.695312 -13.066406 10.15625 -12.734375 C 9.613281 -12.410156 9.226562 -12.007812 9 -11.53125 C 8.78125 -11.0625 8.625 -10.660156 8.53125 -10.328125 C 8.4375 -10.003906 8.390625 -9.75 8.390625 -9.5625 L 8.390625 0 Z M 2.125 0 "></path>
			</g>
		</g>
	</g>
	<g fill="rgb(9.01947%, 20.779419%, 54.508972%)" fill-opacity="1">
		<g transform="translate(129.358367, 176.046773)">
			<g>
				<path d="M 2.71875 -28.28125 C 3.457031 -29.019531 4.332031 -29.390625 5.34375 -29.390625 C 6.363281 -29.390625 7.238281 -29.019531 7.96875 -28.28125 C 8.695312 -27.550781 9.0625 -26.675781 9.0625 -25.65625 C 9.0625 -24.644531 8.695312 -23.773438 7.96875 -23.046875 C 7.238281 -22.316406 6.363281 -21.953125 5.34375 -21.953125 C 4.332031 -21.953125 3.457031 -22.316406 2.71875 -23.046875 C 1.988281 -23.773438 1.625 -24.644531 1.625 -25.65625 C 1.625 -26.675781 1.988281 -27.550781 2.71875 -28.28125 Z M 2.125 -18.15625 L 2.125 0 L 8.390625 0 L 8.390625 -18.15625 Z M 2.125 -18.15625 "></path>
			</g>
		</g>
	</g>
	<g fill="rgb(9.01947%, 20.779419%, 54.508972%)" fill-opacity="1">
		<g transform="translate(138.278837, 176.046773)">
			<g>
				<path d="M 6.734375 -18.15625 L 11.15625 -8.28125 L 15.578125 -18.15625 L 23.015625 -18.15625 L 13.28125 0 L 9.03125 0 L -0.703125 -18.15625 Z M 6.734375 -18.15625 "></path>
			</g>
		</g>
	</g>
	<g fill="rgb(9.01947%, 20.779419%, 54.508972%)" fill-opacity="1">
		<g transform="translate(158.8107, 176.046773)">
			<g>
				<path d="M 3.84375 -2.15625 C 1.820312 -3.945312 0.8125 -6.25 0.8125 -9.0625 C 0.8125 -11.875 1.859375 -14.179688 3.953125 -15.984375 C 6.054688 -17.785156 8.65625 -18.6875 11.75 -18.6875 C 14.800781 -18.6875 17.367188 -17.773438 19.453125 -15.953125 C 21.546875 -14.140625 22.59375 -11.84375 22.59375 -9.0625 C 22.59375 -6.28125 21.570312 -3.984375 19.53125 -2.171875 C 17.488281 -0.367188 14.894531 0.53125 11.75 0.53125 C 8.5 0.53125 5.863281 -0.363281 3.84375 -2.15625 Z M 8.6875 -12.140625 C 7.875 -11.335938 7.46875 -10.3125 7.46875 -9.0625 C 7.46875 -7.8125 7.859375 -6.789062 8.640625 -6 C 9.421875 -5.207031 10.445312 -4.8125 11.71875 -4.8125 C 12.945312 -4.8125 13.957031 -5.210938 14.75 -6.015625 C 15.539062 -6.816406 15.9375 -7.832031 15.9375 -9.0625 C 15.9375 -10.3125 15.523438 -11.335938 14.703125 -12.140625 C 13.890625 -12.941406 12.894531 -13.34375 11.71875 -13.34375 C 10.507812 -13.34375 9.5 -12.941406 8.6875 -12.140625 Z M 8.6875 -12.140625 "></path>
			</g>
		</g>
	</g>
</svg>