<svg xmlns="http://www.w3.org/2000/svg" xmlns:xlink="http://www.w3.org/1999/xlink" zoomAndPan="magnify" preserveAspectRatio="xMidYMid meet" version="1.0" viewBox="40.85 192.08 293.26 33.78">
	<defs>
		<g>
			<g id="id1"></g>
			<g id="id2"></g>
		</g>
	</defs>
	<g fill="rgb(4.309082%, 19.999695%, 32.939148%)" fill-opacity="1">
		<g transform="translate(40.223879, 225.279516)">
			<g>
				<path d="M 28.640625 0 L 27.140625 -18.875 L 26.953125 -18.875 L 20.421875 -0.1875 L 16.09375 -0.1875 L 9.578125 -18.875 L 9.375 -18.875 L 7.875 0 L 0.625 0 L 3.46875 -31.859375 L 11.203125 -31.859375 L 18.265625 -13.46875 L 25.328125 -31.859375 L 33.046875 -31.859375 L 35.90625 0 Z M 28.640625 0 "></path>
			</g>
		</g>
	</g>
	<g fill="rgb(4.309082%, 19.999695%, 32.939148%)" fill-opacity="1">
		<g transform="translate(74.810097, 225.279516)">
			<g>
				<path d="M 22.359375 -8.953125 L 7.984375 -8.953125 C 7.984375 -7.566406 8.429688 -6.535156 9.328125 -5.859375 C 10.234375 -5.191406 11.21875 -4.859375 12.28125 -4.859375 C 13.382812 -4.859375 14.257812 -5.003906 14.90625 -5.296875 C 15.550781 -5.597656 16.285156 -6.1875 17.109375 -7.0625 L 22.046875 -4.59375 C 19.984375 -1.144531 16.5625 0.578125 11.78125 0.578125 C 8.789062 0.578125 6.226562 -0.441406 4.09375 -2.484375 C 1.957031 -4.535156 0.890625 -7 0.890625 -9.875 C 0.890625 -12.757812 1.957031 -15.234375 4.09375 -17.296875 C 6.226562 -19.359375 8.789062 -20.390625 11.78125 -20.390625 C 14.914062 -20.390625 17.46875 -19.476562 19.4375 -17.65625 C 21.40625 -15.84375 22.390625 -13.253906 22.390625 -9.890625 C 22.390625 -9.421875 22.378906 -9.109375 22.359375 -8.953125 Z M 8.1875 -12.734375 L 15.71875 -12.734375 C 15.5625 -13.765625 15.15625 -14.554688 14.5 -15.109375 C 13.84375 -15.671875 13 -15.953125 11.96875 -15.953125 C 10.832031 -15.953125 9.929688 -15.65625 9.265625 -15.0625 C 8.597656 -14.46875 8.238281 -13.691406 8.1875 -12.734375 Z M 8.1875 -12.734375 "></path>
			</g>
		</g>
	</g>
	<g fill="rgb(100%, 43.919373%, 0%)" fill-opacity="1">
		<g transform="translate(96.144245, 225.279516)">
			<g>
				<path d="M 3.671875 -2.453125 C 1.816406 -4.472656 0.890625 -6.945312 0.890625 -9.875 C 0.890625 -12.8125 1.816406 -15.296875 3.671875 -17.328125 C 5.523438 -19.367188 7.878906 -20.390625 10.734375 -20.390625 C 13.359375 -20.390625 15.519531 -19.566406 17.21875 -17.921875 L 17.21875 -33.203125 L 24.046875 -33.203125 L 24.046875 0 L 17.296875 0 L 17.296875 -2.234375 L 17.21875 -2.234375 C 15.519531 -0.359375 13.359375 0.578125 10.734375 0.578125 C 7.878906 0.578125 5.523438 -0.429688 3.671875 -2.453125 Z M 9.46875 -13.25 C 8.582031 -12.375 8.140625 -11.253906 8.140625 -9.890625 C 8.140625 -8.523438 8.5625 -7.410156 9.40625 -6.546875 C 10.257812 -5.679688 11.382812 -5.25 12.78125 -5.25 C 14.113281 -5.25 15.210938 -5.6875 16.078125 -6.5625 C 16.941406 -7.4375 17.375 -8.546875 17.375 -9.890625 C 17.375 -11.253906 16.925781 -12.375 16.03125 -13.25 C 15.144531 -14.125 14.0625 -14.5625 12.78125 -14.5625 C 11.46875 -14.5625 10.363281 -14.125 9.46875 -13.25 Z M 9.46875 -13.25 "></path>
			</g>
		</g>
	</g>
	<g fill="rgb(100%, 43.919373%, 0%)" fill-opacity="1">
		<g transform="translate(120.578325, 225.279516)">
			<g>
				<path d="M 2.3125 0 L 2.3125 -19.8125 L 9.15625 -19.8125 L 9.15625 -16.953125 L 9.234375 -16.953125 C 9.285156 -17.054688 9.367188 -17.179688 9.484375 -17.328125 C 9.597656 -17.484375 9.847656 -17.753906 10.234375 -18.140625 C 10.617188 -18.523438 11.03125 -18.875 11.46875 -19.1875 C 11.90625 -19.5 12.46875 -19.773438 13.15625 -20.015625 C 13.851562 -20.265625 14.566406 -20.390625 15.296875 -20.390625 C 16.035156 -20.390625 16.765625 -20.285156 17.484375 -20.078125 C 18.210938 -19.867188 18.742188 -19.660156 19.078125 -19.453125 L 19.609375 -19.15625 L 16.75 -13.359375 C 15.90625 -14.078125 14.722656 -14.4375 13.203125 -14.4375 C 12.378906 -14.4375 11.671875 -14.253906 11.078125 -13.890625 C 10.484375 -13.535156 10.0625 -13.097656 9.8125 -12.578125 C 9.570312 -12.066406 9.398438 -11.628906 9.296875 -11.265625 C 9.203125 -10.910156 9.15625 -10.628906 9.15625 -10.421875 L 9.15625 0 Z M 2.3125 0 "></path>
			</g>
		</g>
	</g>
	<g fill="rgb(4.309082%, 19.999695%, 32.939148%)" fill-opacity="1">
		<g transform="translate(137.866081, 225.279516)">
			<g>
				<path d="M 2.96875 -30.84375 C 3.769531 -31.644531 4.722656 -32.046875 5.828125 -32.046875 C 6.929688 -32.046875 7.882812 -31.644531 8.6875 -30.84375 C 9.488281 -30.050781 9.890625 -29.097656 9.890625 -27.984375 C 9.890625 -26.878906 9.488281 -25.925781 8.6875 -25.125 C 7.882812 -24.332031 6.929688 -23.9375 5.828125 -23.9375 C 4.722656 -23.9375 3.769531 -24.332031 2.96875 -25.125 C 2.175781 -25.925781 1.78125 -26.878906 1.78125 -27.984375 C 1.78125 -29.097656 2.175781 -30.050781 2.96875 -30.84375 Z M 2.3125 -19.8125 L 2.3125 0 L 9.15625 0 L 9.15625 -19.8125 Z M 2.3125 -19.8125 "></path>
			</g>
		</g>
	</g>
	<g fill="rgb(4.309082%, 19.999695%, 32.939148%)" fill-opacity="1">
		<g transform="translate(147.593078, 225.279516)">
			<g>
				<path d="M 7.328125 -19.8125 L 12.15625 -9.03125 L 16.984375 -19.8125 L 25.09375 -19.8125 L 14.484375 0 L 9.84375 0 L -0.765625 -19.8125 Z M 7.328125 -19.8125 "></path>
			</g>
		</g>
	</g>
	<g fill="rgb(4.309082%, 19.999695%, 32.939148%)" fill-opacity="1">
		<g transform="translate(169.98129, 225.279516)">
			<g>
				<path d="M 4.1875 -2.359375 C 1.988281 -4.316406 0.890625 -6.828125 0.890625 -9.890625 C 0.890625 -12.953125 2.035156 -15.46875 4.328125 -17.4375 C 6.617188 -19.40625 9.445312 -20.390625 12.8125 -20.390625 C 16.132812 -20.390625 18.929688 -19.394531 21.203125 -17.40625 C 23.484375 -15.425781 24.625 -12.914062 24.625 -9.875 C 24.625 -6.84375 23.507812 -4.34375 21.28125 -2.375 C 19.0625 -0.40625 16.238281 0.578125 12.8125 0.578125 C 9.257812 0.578125 6.382812 -0.398438 4.1875 -2.359375 Z M 9.46875 -13.25 C 8.582031 -12.375 8.140625 -11.253906 8.140625 -9.890625 C 8.140625 -8.523438 8.5625 -7.410156 9.40625 -6.546875 C 10.257812 -5.679688 11.382812 -5.25 12.78125 -5.25 C 14.113281 -5.25 15.210938 -5.6875 16.078125 -6.5625 C 16.941406 -7.4375 17.375 -8.546875 17.375 -9.890625 C 17.375 -11.253906 16.925781 -12.375 16.03125 -13.25 C 15.144531 -14.125 14.0625 -14.5625 12.78125 -14.5625 C 11.46875 -14.5625 10.363281 -14.125 9.46875 -13.25 Z M 9.46875 -13.25 "></path>
			</g>
		</g>
	</g>
	<g fill="rgb(4.309082%, 19.999695%, 32.939148%)" fill-opacity="1">
		<g transform="translate(193.552405, 225.279516)">
			<g></g>
		</g>
	</g>
	<g fill="rgb(39.608765%, 63.139343%, 27.839661%)" fill-opacity="1">
		<g transform="translate(202.398742, 225.286173)">
			<g>
				<path d="M 17.640625 -14.09375 C 17.484375 -14.007812 17.472656 -13.929688 17.609375 -13.859375 C 20.304688 -12.648438 21.65625 -10.5 21.65625 -7.40625 C 21.65625 -5.039062 20.867188 -3.210938 19.296875 -1.921875 C 17.734375 -0.640625 15.691406 0 13.171875 0 L 3.75 0 C 3.5625 0 3.414062 -0.0507812 3.3125 -0.15625 C 3.21875 -0.257812 3.171875 -0.398438 3.171875 -0.578125 L 3.171875 -26.453125 C 3.171875 -26.628906 3.21875 -26.769531 3.3125 -26.875 C 3.414062 -26.976562 3.5625 -27.03125 3.75 -27.03125 L 12.859375 -27.03125 C 15.535156 -27.03125 17.613281 -26.414062 19.09375 -25.1875 C 20.570312 -23.96875 21.3125 -22.1875 21.3125 -19.84375 C 21.3125 -17.09375 20.085938 -15.175781 17.640625 -14.09375 Z M 7.0625 -23.828125 C 6.9375 -23.828125 6.875 -23.757812 6.875 -23.625 L 6.875 -15.5625 C 6.875 -15.425781 6.9375 -15.359375 7.0625 -15.359375 L 12.859375 -15.359375 C 14.347656 -15.359375 15.523438 -15.734375 16.390625 -16.484375 C 17.253906 -17.234375 17.6875 -18.25 17.6875 -19.53125 C 17.6875 -20.84375 17.253906 -21.882812 16.390625 -22.65625 C 15.523438 -23.4375 14.347656 -23.828125 12.859375 -23.828125 Z M 13.171875 -3.25 C 14.628906 -3.25 15.789062 -3.648438 16.65625 -4.453125 C 17.519531 -5.265625 17.953125 -6.367188 17.953125 -7.765625 C 17.953125 -9.148438 17.515625 -10.25 16.640625 -11.0625 C 15.765625 -11.875 14.566406 -12.28125 13.046875 -12.28125 L 7.0625 -12.28125 C 6.9375 -12.28125 6.875 -12.210938 6.875 -12.078125 L 6.875 -3.4375 C 6.875 -3.3125 6.9375 -3.25 7.0625 -3.25 Z M 13.171875 -3.25 "></path>
			</g>
		</g>
	</g>
	<g fill="rgb(39.608765%, 63.139343%, 27.839661%)" fill-opacity="1">
		<g transform="translate(226.485931, 225.286173)">
			<g>
				<path d="M 4.859375 -22.59375 C 4.117188 -22.59375 3.507812 -22.816406 3.03125 -23.265625 C 2.550781 -23.710938 2.3125 -24.296875 2.3125 -25.015625 C 2.3125 -25.734375 2.550781 -26.316406 3.03125 -26.765625 C 3.507812 -27.222656 4.117188 -27.453125 4.859375 -27.453125 C 5.609375 -27.453125 6.210938 -27.222656 6.671875 -26.765625 C 7.140625 -26.316406 7.375 -25.734375 7.375 -25.015625 C 7.375 -24.296875 7.140625 -23.710938 6.671875 -23.265625 C 6.210938 -22.816406 5.609375 -22.59375 4.859375 -22.59375 Z M 3.59375 0 C 3.414062 0 3.273438 -0.0507812 3.171875 -0.15625 C 3.066406 -0.257812 3.015625 -0.398438 3.015625 -0.578125 L 3.015625 -19.078125 C 3.015625 -19.253906 3.066406 -19.394531 3.171875 -19.5 C 3.273438 -19.601562 3.414062 -19.65625 3.59375 -19.65625 L 6.140625 -19.65625 C 6.316406 -19.65625 6.457031 -19.601562 6.5625 -19.5 C 6.664062 -19.394531 6.71875 -19.253906 6.71875 -19.078125 L 6.71875 -0.578125 C 6.71875 -0.398438 6.664062 -0.257812 6.5625 -0.15625 C 6.457031 -0.0507812 6.316406 0 6.140625 0 Z M 3.59375 0 "></path>
			</g>
		</g>
	</g>
	<g fill="rgb(39.608765%, 63.139343%, 27.839661%)" fill-opacity="1">
		<g transform="translate(236.174846, 225.286173)">
			<g>
				<path d="M 10.765625 0.3125 C 8.835938 0.3125 7.171875 -0.171875 5.765625 -1.140625 C 4.367188 -2.109375 3.382812 -3.453125 2.8125 -5.171875 C 2.351562 -6.566406 2.125 -8.140625 2.125 -9.890625 C 2.125 -11.710938 2.34375 -13.253906 2.78125 -14.515625 C 3.34375 -16.210938 4.332031 -17.546875 5.75 -18.515625 C 7.164062 -19.484375 8.851562 -19.96875 10.8125 -19.96875 C 12.664062 -19.96875 14.28125 -19.484375 15.65625 -18.515625 C 17.03125 -17.546875 18.015625 -16.226562 18.609375 -14.5625 C 19.066406 -13.25 19.296875 -11.703125 19.296875 -9.921875 C 19.296875 -8.117188 19.066406 -6.535156 18.609375 -5.171875 C 18.046875 -3.453125 17.066406 -2.109375 15.671875 -1.140625 C 14.285156 -0.171875 12.648438 0.3125 10.765625 0.3125 Z M 10.765625 -2.890625 C 11.796875 -2.890625 12.695312 -3.179688 13.46875 -3.765625 C 14.25 -4.347656 14.804688 -5.164062 15.140625 -6.21875 C 15.421875 -7.195312 15.5625 -8.40625 15.5625 -9.84375 C 15.5625 -11.28125 15.429688 -12.476562 15.171875 -13.4375 C 14.835938 -14.488281 14.285156 -15.300781 13.515625 -15.875 C 12.742188 -16.457031 11.800781 -16.75 10.6875 -16.75 C 9.632812 -16.75 8.722656 -16.457031 7.953125 -15.875 C 7.179688 -15.300781 6.628906 -14.488281 6.296875 -13.4375 C 6.015625 -12.53125 5.875 -11.332031 5.875 -9.84375 C 5.875 -8.351562 6.015625 -7.144531 6.296875 -6.21875 C 6.597656 -5.164062 7.140625 -4.347656 7.921875 -3.765625 C 8.710938 -3.179688 9.660156 -2.890625 10.765625 -2.890625 Z M 10.765625 -2.890625 "></path>
			</g>
		</g>
	</g>
	<g fill="rgb(39.608765%, 63.139343%, 27.839661%)" fill-opacity="1">
		<g transform="translate(257.598546, 225.286173)">
			<g>
				<path d="M 11.859375 0.34375 C 10.003906 0.34375 8.359375 -0.0195312 6.921875 -0.75 C 5.492188 -1.488281 4.390625 -2.53125 3.609375 -3.875 C 2.828125 -5.226562 2.4375 -6.78125 2.4375 -8.53125 L 2.4375 -18.53125 C 2.4375 -20.28125 2.828125 -21.816406 3.609375 -23.140625 C 4.390625 -24.472656 5.492188 -25.503906 6.921875 -26.234375 C 8.359375 -26.960938 10.003906 -27.328125 11.859375 -27.328125 C 13.710938 -27.328125 15.34375 -26.972656 16.75 -26.265625 C 18.164062 -25.566406 19.265625 -24.570312 20.046875 -23.28125 C 20.835938 -21.988281 21.234375 -20.492188 21.234375 -18.796875 C 21.234375 -18.546875 21.039062 -18.394531 20.65625 -18.34375 L 18.109375 -18.1875 L 17.953125 -18.1875 C 17.828125 -18.1875 17.722656 -18.210938 17.640625 -18.265625 C 17.566406 -18.316406 17.53125 -18.367188 17.53125 -18.421875 L 17.53125 -18.640625 C 17.53125 -20.296875 17.015625 -21.625 15.984375 -22.625 C 14.953125 -23.625 13.578125 -24.125 11.859375 -24.125 C 10.128906 -24.125 8.742188 -23.625 7.703125 -22.625 C 6.660156 -21.625 6.140625 -20.296875 6.140625 -18.640625 L 6.140625 -8.375 C 6.140625 -6.726562 6.660156 -5.398438 7.703125 -4.390625 C 8.742188 -3.390625 10.128906 -2.890625 11.859375 -2.890625 C 13.578125 -2.890625 14.953125 -3.390625 15.984375 -4.390625 C 17.015625 -5.398438 17.53125 -6.726562 17.53125 -8.375 C 17.53125 -8.53125 17.582031 -8.644531 17.6875 -8.71875 C 17.789062 -8.800781 17.929688 -8.828125 18.109375 -8.796875 L 20.65625 -8.65625 C 21.039062 -8.601562 21.234375 -8.535156 21.234375 -8.453125 L 21.234375 -8.265625 C 21.234375 -6.566406 20.835938 -5.066406 20.046875 -3.765625 C 19.265625 -2.460938 18.164062 -1.453125 16.75 -0.734375 C 15.34375 -0.015625 13.710938 0.34375 11.859375 0.34375 Z M 11.859375 0.34375 "></path>
			</g>
		</g>
	</g>
	<g fill="rgb(39.608765%, 63.139343%, 27.839661%)" fill-opacity="1">
		<g transform="translate(281.029519, 225.286173)">
			<g>
				<path d="M 9.921875 -19.96875 C 11.492188 -19.96875 12.863281 -19.6875 14.03125 -19.125 C 15.207031 -18.570312 16.109375 -17.800781 16.734375 -16.8125 C 17.367188 -15.820312 17.6875 -14.695312 17.6875 -13.4375 L 17.6875 -0.578125 C 17.6875 -0.398438 17.632812 -0.257812 17.53125 -0.15625 C 17.425781 -0.0507812 17.285156 0 17.109375 0 L 14.5625 0 C 14.375 0 14.226562 -0.0507812 14.125 -0.15625 C 14.019531 -0.257812 13.96875 -0.398438 13.96875 -0.578125 L 13.96875 -1.65625 C 13.96875 -1.738281 13.941406 -1.789062 13.890625 -1.8125 C 13.847656 -1.84375 13.800781 -1.832031 13.75 -1.78125 C 13.019531 -1.101562 12.160156 -0.582031 11.171875 -0.21875 C 10.179688 0.132812 9.109375 0.3125 7.953125 0.3125 C 6.078125 0.3125 4.53125 -0.171875 3.3125 -1.140625 C 2.101562 -2.109375 1.5 -3.566406 1.5 -5.515625 C 1.5 -7.523438 2.203125 -9.101562 3.609375 -10.25 C 5.015625 -11.394531 6.976562 -11.96875 9.5 -11.96875 L 13.78125 -11.96875 C 13.90625 -11.96875 13.96875 -12.03125 13.96875 -12.15625 L 13.96875 -13.171875 C 13.96875 -14.296875 13.640625 -15.171875 12.984375 -15.796875 C 12.328125 -16.429688 11.332031 -16.75 10 -16.75 C 8.945312 -16.75 8.09375 -16.554688 7.4375 -16.171875 C 6.78125 -15.785156 6.347656 -15.25 6.140625 -14.5625 C 6.035156 -14.21875 5.816406 -14.0625 5.484375 -14.09375 L 2.703125 -14.4375 C 2.523438 -14.46875 2.382812 -14.523438 2.28125 -14.609375 C 2.175781 -14.703125 2.132812 -14.8125 2.15625 -14.9375 C 2.394531 -16.40625 3.226562 -17.609375 4.65625 -18.546875 C 6.082031 -19.492188 7.835938 -19.96875 9.921875 -19.96875 Z M 8.875 -2.8125 C 10.238281 -2.8125 11.425781 -3.171875 12.4375 -3.890625 C 13.457031 -4.617188 13.96875 -5.535156 13.96875 -6.640625 L 13.96875 -8.875 C 13.96875 -9.007812 13.90625 -9.078125 13.78125 -9.078125 L 10.1875 -9.078125 C 8.675781 -9.078125 7.46875 -8.78125 6.5625 -8.1875 C 5.664062 -7.59375 5.21875 -6.769531 5.21875 -5.71875 C 5.21875 -4.757812 5.554688 -4.035156 6.234375 -3.546875 C 6.921875 -3.054688 7.800781 -2.8125 8.875 -2.8125 Z M 8.875 -2.8125 "></path>
			</g>
		</g>
	</g>
	<g fill="rgb(39.608765%, 63.139343%, 27.839661%)" fill-opacity="1">
		<g transform="translate(300.986374, 225.286173)">
			<g>
				<path d="M 11.3125 -19.84375 C 12.082031 -19.84375 12.773438 -19.703125 13.390625 -19.421875 C 13.679688 -19.265625 13.785156 -19.019531 13.703125 -18.6875 L 13.171875 -16.171875 C 13.140625 -15.921875 13.007812 -15.796875 12.78125 -15.796875 C 12.65625 -15.796875 12.550781 -15.804688 12.46875 -15.828125 C 12.082031 -15.953125 11.644531 -16.015625 11.15625 -16.015625 C 10.894531 -16.015625 10.703125 -16.003906 10.578125 -15.984375 C 9.367188 -15.929688 8.367188 -15.507812 7.578125 -14.71875 C 6.796875 -13.9375 6.40625 -12.914062 6.40625 -11.65625 L 6.40625 -0.578125 C 6.40625 -0.398438 6.351562 -0.257812 6.25 -0.15625 C 6.144531 -0.0507812 6.003906 0 5.828125 0 L 3.28125 0 C 3.101562 0 2.960938 -0.0507812 2.859375 -0.15625 C 2.753906 -0.257812 2.703125 -0.398438 2.703125 -0.578125 L 2.703125 -19.078125 C 2.703125 -19.253906 2.753906 -19.394531 2.859375 -19.5 C 2.960938 -19.601562 3.101562 -19.65625 3.28125 -19.65625 L 5.828125 -19.65625 C 6.003906 -19.65625 6.144531 -19.601562 6.25 -19.5 C 6.351562 -19.394531 6.40625 -19.253906 6.40625 -19.078125 L 6.40625 -17.296875 C 6.40625 -17.191406 6.425781 -17.132812 6.46875 -17.125 C 6.507812 -17.113281 6.554688 -17.144531 6.609375 -17.21875 C 7.765625 -18.96875 9.332031 -19.84375 11.3125 -19.84375 Z M 11.3125 -19.84375 "></path>
			</g>
		</g>
	</g>
	<g fill="rgb(39.608765%, 63.139343%, 27.839661%)" fill-opacity="1">
		<g transform="translate(315.307441, 225.286173)">
			<g>
				<path d="M 10.96875 -2.859375 C 13.050781 -2.878906 14.539062 -3.691406 15.4375 -5.296875 C 15.570312 -5.523438 15.71875 -5.640625 15.875 -5.640625 C 16 -5.640625 16.113281 -5.597656 16.21875 -5.515625 L 17.796875 -4.5625 C 18.003906 -4.425781 18.109375 -4.253906 18.109375 -4.046875 L 18.03125 -3.75 C 17.332031 -2.488281 16.347656 -1.492188 15.078125 -0.765625 C 13.804688 -0.046875 12.320312 0.3125 10.625 0.3125 C 8.789062 0.3125 7.242188 -0.09375 5.984375 -0.90625 C 4.722656 -1.71875 3.769531 -2.882812 3.125 -4.40625 C 2.476562 -5.96875 2.15625 -7.804688 2.15625 -9.921875 C 2.15625 -11.796875 2.300781 -13.222656 2.59375 -14.203125 C 3.050781 -15.984375 3.972656 -17.390625 5.359375 -18.421875 C 6.753906 -19.453125 8.441406 -19.96875 10.421875 -19.96875 C 12.867188 -19.96875 14.734375 -19.328125 16.015625 -18.046875 C 17.304688 -16.773438 18.144531 -14.929688 18.53125 -12.515625 C 18.65625 -11.554688 18.742188 -10.394531 18.796875 -9.03125 C 18.796875 -8.644531 18.601562 -8.453125 18.21875 -8.453125 L 6.015625 -8.453125 C 5.890625 -8.453125 5.828125 -8.390625 5.828125 -8.265625 C 5.878906 -7.285156 5.96875 -6.585938 6.09375 -6.171875 C 6.382812 -5.148438 6.953125 -4.34375 7.796875 -3.75 C 8.648438 -3.15625 9.707031 -2.859375 10.96875 -2.859375 Z M 10.421875 -16.75 C 9.285156 -16.75 8.363281 -16.476562 7.65625 -15.9375 C 6.957031 -15.40625 6.476562 -14.660156 6.21875 -13.703125 C 6.039062 -13.140625 5.925781 -12.421875 5.875 -11.546875 C 5.875 -11.410156 5.9375 -11.34375 6.0625 -11.34375 L 14.828125 -11.34375 C 14.953125 -11.34375 15.015625 -11.410156 15.015625 -11.546875 C 14.960938 -12.390625 14.882812 -13.019531 14.78125 -13.4375 C 14.53125 -14.4375 14.023438 -15.238281 13.265625 -15.84375 C 12.503906 -16.445312 11.554688 -16.75 10.421875 -16.75 Z M 10.421875 -16.75 "></path>
			</g>
		</g>
	</g>
</svg>