<svg xmlns="http://www.w3.org/2000/svg" xmlns:xlink="http://www.w3.org/1999/xlink" zoomAndPan="magnify" preserveAspectRatio="xMidYMid meet" version="1.0" viewBox="54.41 174.09 261.09 20.13">
	<defs>
		<g>
			<g id="id1"></g>
			<g id="id2"></g>
		</g>
	</defs>
	<g fill="rgb(7.449341%, 53.329468%, 3.138733%)" fill-opacity="1">
		<g transform="translate(153.423187, 193.399982)">
			<g>
				<path d="M 9.140625 -7.296875 C 9.054688 -7.253906 9.050781 -7.21875 9.125 -7.1875 C 10.519531 -6.550781 11.21875 -5.4375 11.21875 -3.84375 C 11.21875 -2.613281 10.8125 -1.664062 10 -1 C 9.1875 -0.332031 8.125 0 6.8125 0 L 1.9375 0 C 1.84375 0 1.769531 -0.0234375 1.71875 -0.078125 C 1.664062 -0.128906 1.640625 -0.203125 1.640625 -0.296875 L 1.640625 -13.703125 C 1.640625 -13.796875 1.664062 -13.867188 1.71875 -13.921875 C 1.769531 -13.972656 1.84375 -14 1.9375 -14 L 6.65625 -14 C 8.039062 -14 9.117188 -13.679688 9.890625 -13.046875 C 10.660156 -12.410156 11.046875 -11.488281 11.046875 -10.28125 C 11.046875 -8.851562 10.410156 -7.859375 9.140625 -7.296875 Z M 3.65625 -12.34375 C 3.59375 -12.34375 3.5625 -12.304688 3.5625 -12.234375 L 3.5625 -8.0625 C 3.5625 -7.988281 3.59375 -7.953125 3.65625 -7.953125 L 6.65625 -7.953125 C 7.425781 -7.953125 8.035156 -8.144531 8.484375 -8.53125 C 8.929688 -8.925781 9.15625 -9.457031 9.15625 -10.125 C 9.15625 -10.800781 8.929688 -11.335938 8.484375 -11.734375 C 8.035156 -12.140625 7.425781 -12.34375 6.65625 -12.34375 Z M 6.8125 -1.6875 C 7.570312 -1.6875 8.175781 -1.894531 8.625 -2.3125 C 9.070312 -2.726562 9.296875 -3.296875 9.296875 -4.015625 C 9.296875 -4.734375 9.066406 -5.300781 8.609375 -5.71875 C 8.160156 -6.144531 7.546875 -6.359375 6.765625 -6.359375 L 3.65625 -6.359375 C 3.59375 -6.359375 3.5625 -6.328125 3.5625 -6.265625 L 3.5625 -1.78125 C 3.5625 -1.71875 3.59375 -1.6875 3.65625 -1.6875 Z M 6.8125 -1.6875 "></path>
			</g>
		</g>
	</g>
	<g fill="rgb(7.449341%, 53.329468%, 3.138733%)" fill-opacity="1">
		<g transform="translate(165.898264, 193.399982)">
			<g>
				<path d="M 2.515625 -11.703125 C 2.128906 -11.703125 1.8125 -11.816406 1.5625 -12.046875 C 1.320312 -12.285156 1.203125 -12.585938 1.203125 -12.953125 C 1.203125 -13.328125 1.320312 -13.628906 1.5625 -13.859375 C 1.8125 -14.097656 2.128906 -14.21875 2.515625 -14.21875 C 2.898438 -14.21875 3.210938 -14.097656 3.453125 -13.859375 C 3.691406 -13.628906 3.8125 -13.328125 3.8125 -12.953125 C 3.8125 -12.585938 3.691406 -12.285156 3.453125 -12.046875 C 3.210938 -11.816406 2.898438 -11.703125 2.515625 -11.703125 Z M 1.859375 0 C 1.765625 0 1.691406 -0.0234375 1.640625 -0.078125 C 1.585938 -0.128906 1.5625 -0.203125 1.5625 -0.296875 L 1.5625 -9.875 C 1.5625 -9.96875 1.585938 -10.039062 1.640625 -10.09375 C 1.691406 -10.15625 1.765625 -10.1875 1.859375 -10.1875 L 3.1875 -10.1875 C 3.269531 -10.1875 3.335938 -10.15625 3.390625 -10.09375 C 3.453125 -10.039062 3.484375 -9.96875 3.484375 -9.875 L 3.484375 -0.296875 C 3.484375 -0.203125 3.453125 -0.128906 3.390625 -0.078125 C 3.335938 -0.0234375 3.269531 0 3.1875 0 Z M 1.859375 0 "></path>
			</g>
		</g>
	</g>
	<g fill="rgb(7.449341%, 53.329468%, 3.138733%)" fill-opacity="1">
		<g transform="translate(170.916281, 193.399982)">
			<g>
				<path d="M 5.578125 0.15625 C 4.578125 0.15625 3.710938 -0.09375 2.984375 -0.59375 C 2.265625 -1.09375 1.753906 -1.789062 1.453125 -2.6875 C 1.210938 -3.40625 1.09375 -4.21875 1.09375 -5.125 C 1.09375 -6.070312 1.207031 -6.867188 1.4375 -7.515625 C 1.726562 -8.398438 2.238281 -9.09375 2.96875 -9.59375 C 3.707031 -10.09375 4.582031 -10.34375 5.59375 -10.34375 C 6.5625 -10.34375 7.398438 -10.09375 8.109375 -9.59375 C 8.828125 -9.09375 9.335938 -8.410156 9.640625 -7.546875 C 9.878906 -6.859375 10 -6.054688 10 -5.140625 C 10 -4.203125 9.878906 -3.382812 9.640625 -2.6875 C 9.347656 -1.789062 8.84375 -1.09375 8.125 -0.59375 C 7.40625 -0.09375 6.554688 0.15625 5.578125 0.15625 Z M 5.578125 -1.5 C 6.109375 -1.5 6.570312 -1.648438 6.96875 -1.953125 C 7.375 -2.253906 7.664062 -2.675781 7.84375 -3.21875 C 7.988281 -3.726562 8.0625 -4.351562 8.0625 -5.09375 C 8.0625 -5.84375 7.992188 -6.460938 7.859375 -6.953125 C 7.679688 -7.503906 7.394531 -7.929688 7 -8.234375 C 6.601562 -8.535156 6.117188 -8.6875 5.546875 -8.6875 C 4.992188 -8.6875 4.515625 -8.535156 4.109375 -8.234375 C 3.710938 -7.929688 3.429688 -7.503906 3.265625 -6.953125 C 3.117188 -6.492188 3.046875 -5.875 3.046875 -5.09375 C 3.046875 -4.320312 3.117188 -3.695312 3.265625 -3.21875 C 3.421875 -2.675781 3.703125 -2.253906 4.109375 -1.953125 C 4.515625 -1.648438 5.003906 -1.5 5.578125 -1.5 Z M 5.578125 -1.5 "></path>
			</g>
		</g>
	</g>
	<g fill="rgb(7.449341%, 53.329468%, 3.138733%)" fill-opacity="1">
		<g transform="translate(182.011899, 193.399982)">
			<g>
				<path d="M 4.984375 0.125 C 4.191406 0.125 3.492188 0.00390625 2.890625 -0.234375 C 2.285156 -0.472656 1.816406 -0.800781 1.484375 -1.21875 C 1.148438 -1.644531 0.984375 -2.113281 0.984375 -2.625 L 0.984375 -2.734375 C 0.984375 -2.828125 1.007812 -2.898438 1.0625 -2.953125 C 1.113281 -3.015625 1.1875 -3.046875 1.28125 -3.046875 L 2.515625 -3.046875 C 2.609375 -3.046875 2.679688 -3.03125 2.734375 -3 C 2.785156 -2.96875 2.8125 -2.9375 2.8125 -2.90625 L 2.8125 -2.734375 C 2.8125 -2.367188 3.015625 -2.046875 3.421875 -1.765625 C 3.835938 -1.484375 4.347656 -1.34375 4.953125 -1.34375 C 5.566406 -1.34375 6.0625 -1.472656 6.4375 -1.734375 C 6.8125 -1.992188 7 -2.320312 7 -2.71875 C 7 -3.101562 6.820312 -3.390625 6.46875 -3.578125 C 6.125 -3.773438 5.566406 -3.984375 4.796875 -4.203125 C 4.035156 -4.410156 3.398438 -4.625 2.890625 -4.84375 C 2.378906 -5.070312 1.945312 -5.390625 1.59375 -5.796875 C 1.238281 -6.203125 1.0625 -6.722656 1.0625 -7.359375 C 1.0625 -8.253906 1.410156 -8.960938 2.109375 -9.484375 C 2.804688 -10.015625 3.738281 -10.28125 4.90625 -10.28125 C 5.675781 -10.28125 6.359375 -10.15625 6.953125 -9.90625 C 7.546875 -9.664062 8 -9.320312 8.3125 -8.875 C 8.632812 -8.4375 8.796875 -7.945312 8.796875 -7.40625 C 8.796875 -7.320312 8.769531 -7.253906 8.71875 -7.203125 C 8.664062 -7.160156 8.59375 -7.140625 8.5 -7.140625 L 7.296875 -7.140625 C 7.203125 -7.140625 7.128906 -7.148438 7.078125 -7.171875 C 7.023438 -7.203125 7 -7.238281 7 -7.28125 L 7 -7.40625 C 7 -7.789062 6.804688 -8.113281 6.421875 -8.375 C 6.046875 -8.632812 5.53125 -8.765625 4.875 -8.765625 C 4.289062 -8.765625 3.816406 -8.648438 3.453125 -8.421875 C 3.085938 -8.191406 2.90625 -7.882812 2.90625 -7.5 C 2.90625 -7.113281 3.078125 -6.816406 3.421875 -6.609375 C 3.773438 -6.410156 4.347656 -6.203125 5.140625 -5.984375 C 5.910156 -5.765625 6.550781 -5.550781 7.0625 -5.34375 C 7.582031 -5.144531 8.019531 -4.835938 8.375 -4.421875 C 8.738281 -4.015625 8.921875 -3.488281 8.921875 -2.84375 C 8.921875 -1.9375 8.5625 -1.210938 7.84375 -0.671875 C 7.132812 -0.140625 6.179688 0.125 4.984375 0.125 Z M 4.984375 0.125 "></path>
			</g>
		</g>
	</g>
	<g fill="rgb(7.449341%, 53.329468%, 3.138733%)" fill-opacity="1">
		<g transform="translate(191.768056, 193.399982)">
			<g>
				<path d="M 5.484375 0.15625 C 4.460938 0.15625 3.59375 -0.0976562 2.875 -0.609375 C 2.15625 -1.117188 1.664062 -1.816406 1.40625 -2.703125 C 1.195312 -3.316406 1.09375 -4.125 1.09375 -5.125 C 1.09375 -6.039062 1.195312 -6.847656 1.40625 -7.546875 C 1.664062 -8.390625 2.160156 -9.066406 2.890625 -9.578125 C 3.617188 -10.085938 4.484375 -10.34375 5.484375 -10.34375 C 6.484375 -10.34375 7.351562 -10.085938 8.09375 -9.578125 C 8.84375 -9.066406 9.332031 -8.425781 9.5625 -7.65625 C 9.625 -7.488281 9.671875 -7.300781 9.703125 -7.09375 L 9.703125 -7.0625 C 9.703125 -6.894531 9.613281 -6.800781 9.4375 -6.78125 L 8.140625 -6.59375 L 8.078125 -6.59375 C 7.929688 -6.59375 7.835938 -6.664062 7.796875 -6.8125 L 7.734375 -7.078125 C 7.628906 -7.535156 7.367188 -7.914062 6.953125 -8.21875 C 6.546875 -8.53125 6.046875 -8.6875 5.453125 -8.6875 C 4.878906 -8.6875 4.394531 -8.53125 4 -8.21875 C 3.601562 -7.914062 3.34375 -7.507812 3.21875 -7 C 3.101562 -6.519531 3.046875 -5.882812 3.046875 -5.09375 C 3.046875 -4.320312 3.101562 -3.695312 3.21875 -3.21875 C 3.351562 -2.6875 3.613281 -2.265625 4 -1.953125 C 4.394531 -1.648438 4.878906 -1.5 5.453125 -1.5 C 6.023438 -1.5 6.519531 -1.648438 6.9375 -1.953125 C 7.351562 -2.253906 7.617188 -2.632812 7.734375 -3.09375 L 7.765625 -3.1875 L 7.765625 -3.203125 C 7.773438 -3.265625 7.8125 -3.328125 7.875 -3.390625 C 7.945312 -3.453125 8.019531 -3.472656 8.09375 -3.453125 L 9.40625 -3.234375 C 9.59375 -3.203125 9.675781 -3.097656 9.65625 -2.921875 C 9.644531 -2.867188 9.613281 -2.742188 9.5625 -2.546875 C 9.332031 -1.722656 8.84375 -1.066406 8.09375 -0.578125 C 7.351562 -0.0859375 6.484375 0.15625 5.484375 0.15625 Z M 5.484375 0.15625 "></path>
			</g>
		</g>
	</g>
	<g fill="rgb(7.449341%, 53.329468%, 3.138733%)" fill-opacity="1">
		<g transform="translate(202.283905, 193.399982)">
			<g>
				<path d="M 2.515625 -11.703125 C 2.128906 -11.703125 1.8125 -11.816406 1.5625 -12.046875 C 1.320312 -12.285156 1.203125 -12.585938 1.203125 -12.953125 C 1.203125 -13.328125 1.320312 -13.628906 1.5625 -13.859375 C 1.8125 -14.097656 2.128906 -14.21875 2.515625 -14.21875 C 2.898438 -14.21875 3.210938 -14.097656 3.453125 -13.859375 C 3.691406 -13.628906 3.8125 -13.328125 3.8125 -12.953125 C 3.8125 -12.585938 3.691406 -12.285156 3.453125 -12.046875 C 3.210938 -11.816406 2.898438 -11.703125 2.515625 -11.703125 Z M 1.859375 0 C 1.765625 0 1.691406 -0.0234375 1.640625 -0.078125 C 1.585938 -0.128906 1.5625 -0.203125 1.5625 -0.296875 L 1.5625 -9.875 C 1.5625 -9.96875 1.585938 -10.039062 1.640625 -10.09375 C 1.691406 -10.15625 1.765625 -10.1875 1.859375 -10.1875 L 3.1875 -10.1875 C 3.269531 -10.1875 3.335938 -10.15625 3.390625 -10.09375 C 3.453125 -10.039062 3.484375 -9.96875 3.484375 -9.875 L 3.484375 -0.296875 C 3.484375 -0.203125 3.453125 -0.128906 3.390625 -0.078125 C 3.335938 -0.0234375 3.269531 0 3.1875 0 Z M 1.859375 0 "></path>
			</g>
		</g>
	</g>
	<g fill="rgb(7.449341%, 53.329468%, 3.138733%)" fill-opacity="1">
		<g transform="translate(207.301922, 193.399982)">
			<g>
				<path d="M 5.6875 -1.484375 C 6.757812 -1.492188 7.53125 -1.910156 8 -2.734375 C 8.0625 -2.859375 8.132812 -2.921875 8.21875 -2.921875 C 8.28125 -2.921875 8.34375 -2.898438 8.40625 -2.859375 L 9.21875 -2.359375 C 9.320312 -2.296875 9.375 -2.207031 9.375 -2.09375 L 9.34375 -1.9375 C 8.976562 -1.28125 8.460938 -0.765625 7.796875 -0.390625 C 7.140625 -0.0234375 6.375 0.15625 5.5 0.15625 C 4.550781 0.15625 3.75 -0.0507812 3.09375 -0.46875 C 2.445312 -0.882812 1.957031 -1.488281 1.625 -2.28125 C 1.289062 -3.09375 1.125 -4.046875 1.125 -5.140625 C 1.125 -6.109375 1.195312 -6.847656 1.34375 -7.359375 C 1.582031 -8.273438 2.0625 -9 2.78125 -9.53125 C 3.5 -10.070312 4.375 -10.34375 5.40625 -10.34375 C 6.664062 -10.34375 7.628906 -10.007812 8.296875 -9.34375 C 8.960938 -8.6875 9.394531 -7.734375 9.59375 -6.484375 C 9.664062 -5.984375 9.710938 -5.382812 9.734375 -4.6875 C 9.734375 -4.476562 9.632812 -4.375 9.4375 -4.375 L 3.125 -4.375 C 3.050781 -4.375 3.015625 -4.34375 3.015625 -4.28125 C 3.046875 -3.769531 3.09375 -3.410156 3.15625 -3.203125 C 3.300781 -2.671875 3.59375 -2.25 4.03125 -1.9375 C 4.476562 -1.632812 5.03125 -1.484375 5.6875 -1.484375 Z M 5.40625 -8.6875 C 4.8125 -8.6875 4.332031 -8.546875 3.96875 -8.265625 C 3.601562 -7.984375 3.351562 -7.59375 3.21875 -7.09375 C 3.125 -6.800781 3.066406 -6.429688 3.046875 -5.984375 C 3.046875 -5.910156 3.078125 -5.875 3.140625 -5.875 L 7.6875 -5.875 C 7.75 -5.875 7.78125 -5.910156 7.78125 -5.984375 C 7.75 -6.421875 7.707031 -6.742188 7.65625 -6.953125 C 7.519531 -7.472656 7.253906 -7.890625 6.859375 -8.203125 C 6.472656 -8.523438 5.988281 -8.6875 5.40625 -8.6875 Z M 5.40625 -8.6875 "></path>
			</g>
		</g>
	</g>
	<g fill="rgb(7.449341%, 53.329468%, 3.138733%)" fill-opacity="1">
		<g transform="translate(218.057673, 193.399982)">
			<g>
				<path d="M 5.9375 -10.3125 C 7.03125 -10.3125 7.894531 -9.992188 8.53125 -9.359375 C 9.175781 -8.734375 9.5 -7.878906 9.5 -6.796875 L 9.5 -0.296875 C 9.5 -0.203125 9.472656 -0.128906 9.421875 -0.078125 C 9.367188 -0.0234375 9.296875 0 9.203125 0 L 7.875 0 C 7.78125 0 7.707031 -0.0234375 7.65625 -0.078125 C 7.601562 -0.128906 7.578125 -0.203125 7.578125 -0.296875 L 7.578125 -6.421875 C 7.578125 -7.085938 7.382812 -7.625 7 -8.03125 C 6.613281 -8.445312 6.097656 -8.65625 5.453125 -8.65625 C 4.878906 -8.65625 4.394531 -8.484375 4 -8.140625 C 3.613281 -7.804688 3.382812 -7.351562 3.3125 -6.78125 L 3.3125 -0.296875 C 3.3125 -0.203125 3.285156 -0.128906 3.234375 -0.078125 C 3.179688 -0.0234375 3.109375 0 3.015625 0 L 1.703125 0 C 1.609375 0 1.535156 -0.0234375 1.484375 -0.078125 C 1.429688 -0.128906 1.40625 -0.203125 1.40625 -0.296875 L 1.40625 -9.875 C 1.40625 -9.96875 1.429688 -10.039062 1.484375 -10.09375 C 1.535156 -10.15625 1.609375 -10.1875 1.703125 -10.1875 L 3.015625 -10.1875 C 3.109375 -10.1875 3.179688 -10.15625 3.234375 -10.09375 C 3.285156 -10.039062 3.3125 -9.96875 3.3125 -9.875 L 3.3125 -9.3125 C 3.3125 -9.28125 3.328125 -9.253906 3.359375 -9.234375 C 3.390625 -9.222656 3.410156 -9.234375 3.421875 -9.265625 C 3.984375 -9.960938 4.820312 -10.3125 5.9375 -10.3125 Z M 5.9375 -10.3125 "></path>
			</g>
		</g>
	</g>
	<g fill="rgb(7.449341%, 53.329468%, 3.138733%)" fill-opacity="1">
		<g transform="translate(228.893397, 193.399982)">
			<g>
				<path d="M 5.484375 0.15625 C 4.460938 0.15625 3.59375 -0.0976562 2.875 -0.609375 C 2.15625 -1.117188 1.664062 -1.816406 1.40625 -2.703125 C 1.195312 -3.316406 1.09375 -4.125 1.09375 -5.125 C 1.09375 -6.039062 1.195312 -6.847656 1.40625 -7.546875 C 1.664062 -8.390625 2.160156 -9.066406 2.890625 -9.578125 C 3.617188 -10.085938 4.484375 -10.34375 5.484375 -10.34375 C 6.484375 -10.34375 7.351562 -10.085938 8.09375 -9.578125 C 8.84375 -9.066406 9.332031 -8.425781 9.5625 -7.65625 C 9.625 -7.488281 9.671875 -7.300781 9.703125 -7.09375 L 9.703125 -7.0625 C 9.703125 -6.894531 9.613281 -6.800781 9.4375 -6.78125 L 8.140625 -6.59375 L 8.078125 -6.59375 C 7.929688 -6.59375 7.835938 -6.664062 7.796875 -6.8125 L 7.734375 -7.078125 C 7.628906 -7.535156 7.367188 -7.914062 6.953125 -8.21875 C 6.546875 -8.53125 6.046875 -8.6875 5.453125 -8.6875 C 4.878906 -8.6875 4.394531 -8.53125 4 -8.21875 C 3.601562 -7.914062 3.34375 -7.507812 3.21875 -7 C 3.101562 -6.519531 3.046875 -5.882812 3.046875 -5.09375 C 3.046875 -4.320312 3.101562 -3.695312 3.21875 -3.21875 C 3.351562 -2.6875 3.613281 -2.265625 4 -1.953125 C 4.394531 -1.648438 4.878906 -1.5 5.453125 -1.5 C 6.023438 -1.5 6.519531 -1.648438 6.9375 -1.953125 C 7.351562 -2.253906 7.617188 -2.632812 7.734375 -3.09375 L 7.765625 -3.1875 L 7.765625 -3.203125 C 7.773438 -3.265625 7.8125 -3.328125 7.875 -3.390625 C 7.945312 -3.453125 8.019531 -3.472656 8.09375 -3.453125 L 9.40625 -3.234375 C 9.59375 -3.203125 9.675781 -3.097656 9.65625 -2.921875 C 9.644531 -2.867188 9.613281 -2.742188 9.5625 -2.546875 C 9.332031 -1.722656 8.84375 -1.066406 8.09375 -0.578125 C 7.351562 -0.0859375 6.484375 0.15625 5.484375 0.15625 Z M 5.484375 0.15625 "></path>
			</g>
		</g>
	</g>
	<g fill="rgb(7.449341%, 53.329468%, 3.138733%)" fill-opacity="1">
		<g transform="translate(239.409246, 193.399982)">
			<g>
				<path d="M 5.6875 -1.484375 C 6.757812 -1.492188 7.53125 -1.910156 8 -2.734375 C 8.0625 -2.859375 8.132812 -2.921875 8.21875 -2.921875 C 8.28125 -2.921875 8.34375 -2.898438 8.40625 -2.859375 L 9.21875 -2.359375 C 9.320312 -2.296875 9.375 -2.207031 9.375 -2.09375 L 9.34375 -1.9375 C 8.976562 -1.28125 8.460938 -0.765625 7.796875 -0.390625 C 7.140625 -0.0234375 6.375 0.15625 5.5 0.15625 C 4.550781 0.15625 3.75 -0.0507812 3.09375 -0.46875 C 2.445312 -0.882812 1.957031 -1.488281 1.625 -2.28125 C 1.289062 -3.09375 1.125 -4.046875 1.125 -5.140625 C 1.125 -6.109375 1.195312 -6.847656 1.34375 -7.359375 C 1.582031 -8.273438 2.0625 -9 2.78125 -9.53125 C 3.5 -10.070312 4.375 -10.34375 5.40625 -10.34375 C 6.664062 -10.34375 7.628906 -10.007812 8.296875 -9.34375 C 8.960938 -8.6875 9.394531 -7.734375 9.59375 -6.484375 C 9.664062 -5.984375 9.710938 -5.382812 9.734375 -4.6875 C 9.734375 -4.476562 9.632812 -4.375 9.4375 -4.375 L 3.125 -4.375 C 3.050781 -4.375 3.015625 -4.34375 3.015625 -4.28125 C 3.046875 -3.769531 3.09375 -3.410156 3.15625 -3.203125 C 3.300781 -2.671875 3.59375 -2.25 4.03125 -1.9375 C 4.476562 -1.632812 5.03125 -1.484375 5.6875 -1.484375 Z M 5.40625 -8.6875 C 4.8125 -8.6875 4.332031 -8.546875 3.96875 -8.265625 C 3.601562 -7.984375 3.351562 -7.59375 3.21875 -7.09375 C 3.125 -6.800781 3.066406 -6.429688 3.046875 -5.984375 C 3.046875 -5.910156 3.078125 -5.875 3.140625 -5.875 L 7.6875 -5.875 C 7.75 -5.875 7.78125 -5.910156 7.78125 -5.984375 C 7.75 -6.421875 7.707031 -6.742188 7.65625 -6.953125 C 7.519531 -7.472656 7.253906 -7.890625 6.859375 -8.203125 C 6.472656 -8.523438 5.988281 -8.6875 5.40625 -8.6875 Z M 5.40625 -8.6875 "></path>
			</g>
		</g>
	</g>
	<g fill="rgb(7.449341%, 53.329468%, 3.138733%)" fill-opacity="1">
		<g transform="translate(250.164998, 193.399982)">
			<g></g>
		</g>
	</g>
	<g fill="rgb(9.01947%, 20.779419%, 54.508972%)" fill-opacity="1">
		<g transform="translate(254.157555, 193.399982)">
			<g>
				<path d="M 7.125 -14.015625 C 7.9375 -14.015625 8.648438 -13.84375 9.265625 -13.5 C 9.890625 -13.164062 10.367188 -12.691406 10.703125 -12.078125 C 11.046875 -11.460938 11.21875 -10.753906 11.21875 -9.953125 C 11.21875 -9.160156 11.046875 -8.460938 10.703125 -7.859375 C 10.359375 -7.253906 9.867188 -6.785156 9.234375 -6.453125 C 8.597656 -6.117188 7.867188 -5.953125 7.046875 -5.953125 L 3.546875 -5.953125 C 3.472656 -5.953125 3.4375 -5.921875 3.4375 -5.859375 L 3.4375 -0.296875 C 3.4375 -0.203125 3.410156 -0.128906 3.359375 -0.078125 C 3.304688 -0.0234375 3.234375 0 3.140625 0 L 1.8125 0 C 1.726562 0 1.65625 -0.0234375 1.59375 -0.078125 C 1.539062 -0.128906 1.515625 -0.203125 1.515625 -0.296875 L 1.515625 -13.71875 C 1.515625 -13.8125 1.539062 -13.882812 1.59375 -13.9375 C 1.65625 -13.988281 1.726562 -14.015625 1.8125 -14.015625 Z M 6.859375 -7.515625 C 7.585938 -7.515625 8.175781 -7.734375 8.625 -8.171875 C 9.070312 -8.617188 9.296875 -9.203125 9.296875 -9.921875 C 9.296875 -10.648438 9.070312 -11.238281 8.625 -11.6875 C 8.175781 -12.132812 7.585938 -12.359375 6.859375 -12.359375 L 3.546875 -12.359375 C 3.472656 -12.359375 3.4375 -12.328125 3.4375 -12.265625 L 3.4375 -7.625 C 3.4375 -7.550781 3.472656 -7.515625 3.546875 -7.515625 Z M 6.859375 -7.515625 "></path>
			</g>
		</g>
	</g>
	<g fill="rgb(9.01947%, 20.779419%, 54.508972%)" fill-opacity="1">
		<g transform="translate(266.012878, 193.399982)">
			<g>
				<path d="M 4.15625 0 C 3.988281 0 3.875 -0.078125 3.8125 -0.234375 L 0.625 -9.84375 C 0.601562 -9.863281 0.59375 -9.898438 0.59375 -9.953125 C 0.59375 -10.109375 0.679688 -10.1875 0.859375 -10.1875 L 2.34375 -10.1875 C 2.414062 -10.1875 2.484375 -10.160156 2.546875 -10.109375 C 2.617188 -10.066406 2.664062 -10.003906 2.6875 -9.921875 L 4.859375 -2.765625 C 4.867188 -2.710938 4.882812 -2.6875 4.90625 -2.6875 C 4.9375 -2.695312 4.960938 -2.726562 4.984375 -2.78125 L 7.140625 -9.921875 C 7.148438 -10.003906 7.1875 -10.066406 7.25 -10.109375 C 7.320312 -10.160156 7.398438 -10.1875 7.484375 -10.1875 L 8.953125 -10.15625 C 9.066406 -10.15625 9.140625 -10.125 9.171875 -10.0625 C 9.210938 -10.007812 9.222656 -9.925781 9.203125 -9.8125 L 6.015625 -0.234375 C 5.960938 -0.078125 5.851562 0 5.6875 0 Z M 4.15625 0 "></path>
			</g>
		</g>
	</g>
	<g fill="rgb(9.01947%, 20.779419%, 54.508972%)" fill-opacity="1">
		<g transform="translate(275.829001, 193.399982)">
			<g>
				<path d="M 6.421875 -8.90625 C 6.421875 -8.8125 6.394531 -8.734375 6.34375 -8.671875 C 6.289062 -8.617188 6.21875 -8.59375 6.125 -8.59375 L 4.078125 -8.59375 C 4.015625 -8.59375 3.984375 -8.5625 3.984375 -8.5 L 3.984375 -3.28125 C 3.984375 -2.707031 4.101562 -2.300781 4.34375 -2.0625 C 4.59375 -1.820312 4.992188 -1.703125 5.546875 -1.703125 L 6.015625 -1.703125 C 6.109375 -1.703125 6.179688 -1.675781 6.234375 -1.625 C 6.285156 -1.570312 6.3125 -1.5 6.3125 -1.40625 L 6.3125 -0.359375 C 6.3125 -0.171875 6.210938 -0.0664062 6.015625 -0.046875 L 5.203125 -0.015625 C 4.171875 -0.015625 3.398438 -0.191406 2.890625 -0.546875 C 2.390625 -0.910156 2.140625 -1.585938 2.140625 -2.578125 L 2.140625 -8.5 C 2.140625 -8.5625 2.109375 -8.59375 2.046875 -8.59375 L 0.9375 -8.59375 C 0.84375 -8.59375 0.769531 -8.617188 0.71875 -8.671875 C 0.664062 -8.734375 0.640625 -8.8125 0.640625 -8.90625 L 0.640625 -9.875 C 0.640625 -9.96875 0.664062 -10.039062 0.71875 -10.09375 C 0.769531 -10.15625 0.84375 -10.1875 0.9375 -10.1875 L 2.046875 -10.1875 C 2.109375 -10.1875 2.140625 -10.21875 2.140625 -10.28125 L 2.140625 -12.515625 C 2.140625 -12.609375 2.164062 -12.679688 2.21875 -12.734375 C 2.269531 -12.785156 2.34375 -12.8125 2.4375 -12.8125 L 3.6875 -12.8125 C 3.769531 -12.8125 3.835938 -12.785156 3.890625 -12.734375 C 3.953125 -12.679688 3.984375 -12.609375 3.984375 -12.515625 L 3.984375 -10.28125 C 3.984375 -10.21875 4.015625 -10.1875 4.078125 -10.1875 L 6.125 -10.1875 C 6.21875 -10.1875 6.289062 -10.15625 6.34375 -10.09375 C 6.394531 -10.039062 6.421875 -9.96875 6.421875 -9.875 Z M 6.421875 -8.90625 "></path>
			</g>
		</g>
	</g>
	<g fill="rgb(9.01947%, 20.779419%, 54.508972%)" fill-opacity="1">
		<g transform="translate(283.206091, 193.399982)">
			<g></g>
		</g>
	</g>
	<g fill="rgb(9.01947%, 20.779419%, 54.508972%)" fill-opacity="1">
		<g transform="translate(287.20452, 193.399982)">
			<g>
				<path d="M 1.9375 0 C 1.84375 0 1.769531 -0.0234375 1.71875 -0.078125 C 1.664062 -0.128906 1.640625 -0.203125 1.640625 -0.296875 L 1.640625 -13.703125 C 1.640625 -13.796875 1.664062 -13.867188 1.71875 -13.921875 C 1.769531 -13.972656 1.84375 -14 1.9375 -14 L 3.265625 -14 C 3.359375 -14 3.429688 -13.972656 3.484375 -13.921875 C 3.535156 -13.867188 3.5625 -13.796875 3.5625 -13.703125 L 3.5625 -1.765625 C 3.5625 -1.691406 3.59375 -1.65625 3.65625 -1.65625 L 10.4375 -1.65625 C 10.53125 -1.65625 10.601562 -1.628906 10.65625 -1.578125 C 10.707031 -1.523438 10.734375 -1.453125 10.734375 -1.359375 L 10.734375 -0.296875 C 10.734375 -0.203125 10.707031 -0.128906 10.65625 -0.078125 C 10.601562 -0.0234375 10.53125 0 10.4375 0 Z M 1.9375 0 "></path>
			</g>
		</g>
	</g>
	<g fill="rgb(9.01947%, 20.779419%, 54.508972%)" fill-opacity="1">
		<g transform="translate(298.600019, 193.399982)">
			<g>
				<path d="M 6.421875 -8.90625 C 6.421875 -8.8125 6.394531 -8.734375 6.34375 -8.671875 C 6.289062 -8.617188 6.21875 -8.59375 6.125 -8.59375 L 4.078125 -8.59375 C 4.015625 -8.59375 3.984375 -8.5625 3.984375 -8.5 L 3.984375 -3.28125 C 3.984375 -2.707031 4.101562 -2.300781 4.34375 -2.0625 C 4.59375 -1.820312 4.992188 -1.703125 5.546875 -1.703125 L 6.015625 -1.703125 C 6.109375 -1.703125 6.179688 -1.675781 6.234375 -1.625 C 6.285156 -1.570312 6.3125 -1.5 6.3125 -1.40625 L 6.3125 -0.359375 C 6.3125 -0.171875 6.210938 -0.0664062 6.015625 -0.046875 L 5.203125 -0.015625 C 4.171875 -0.015625 3.398438 -0.191406 2.890625 -0.546875 C 2.390625 -0.910156 2.140625 -1.585938 2.140625 -2.578125 L 2.140625 -8.5 C 2.140625 -8.5625 2.109375 -8.59375 2.046875 -8.59375 L 0.9375 -8.59375 C 0.84375 -8.59375 0.769531 -8.617188 0.71875 -8.671875 C 0.664062 -8.734375 0.640625 -8.8125 0.640625 -8.90625 L 0.640625 -9.875 C 0.640625 -9.96875 0.664062 -10.039062 0.71875 -10.09375 C 0.769531 -10.15625 0.84375 -10.1875 0.9375 -10.1875 L 2.046875 -10.1875 C 2.109375 -10.1875 2.140625 -10.21875 2.140625 -10.28125 L 2.140625 -12.515625 C 2.140625 -12.609375 2.164062 -12.679688 2.21875 -12.734375 C 2.269531 -12.785156 2.34375 -12.8125 2.4375 -12.8125 L 3.6875 -12.8125 C 3.769531 -12.8125 3.835938 -12.785156 3.890625 -12.734375 C 3.953125 -12.679688 3.984375 -12.609375 3.984375 -12.515625 L 3.984375 -10.28125 C 3.984375 -10.21875 4.015625 -10.1875 4.078125 -10.1875 L 6.125 -10.1875 C 6.21875 -10.1875 6.289062 -10.15625 6.34375 -10.09375 C 6.394531 -10.039062 6.421875 -9.96875 6.421875 -9.875 Z M 6.421875 -8.90625 "></path>
			</g>
		</g>
	</g>
	<g fill="rgb(9.01947%, 20.779419%, 54.508972%)" fill-opacity="1">
		<g transform="translate(305.977109, 193.399982)">
			<g>
				<path d="M 7.59375 -13.703125 C 7.59375 -13.796875 7.617188 -13.867188 7.671875 -13.921875 C 7.734375 -13.972656 7.8125 -14 7.90625 -14 L 9.21875 -14 C 9.3125 -14 9.382812 -13.972656 9.4375 -13.921875 C 9.488281 -13.867188 9.515625 -13.796875 9.515625 -13.703125 L 9.515625 -0.296875 C 9.515625 -0.203125 9.488281 -0.128906 9.4375 -0.078125 C 9.382812 -0.0234375 9.3125 0 9.21875 0 L 7.90625 0 C 7.8125 0 7.734375 -0.0234375 7.671875 -0.078125 C 7.617188 -0.128906 7.59375 -0.203125 7.59375 -0.296875 L 7.59375 -0.8125 C 7.59375 -0.851562 7.578125 -0.878906 7.546875 -0.890625 C 7.523438 -0.910156 7.503906 -0.90625 7.484375 -0.875 C 7.191406 -0.539062 6.847656 -0.285156 6.453125 -0.109375 C 6.054688 0.0664062 5.625 0.15625 5.15625 0.15625 C 4.195312 0.15625 3.398438 -0.078125 2.765625 -0.546875 C 2.128906 -1.023438 1.664062 -1.695312 1.375 -2.5625 C 1.132812 -3.226562 1.015625 -4.082031 1.015625 -5.125 C 1.015625 -6.09375 1.113281 -6.898438 1.3125 -7.546875 C 1.59375 -8.421875 2.054688 -9.101562 2.703125 -9.59375 C 3.359375 -10.09375 4.175781 -10.34375 5.15625 -10.34375 C 5.625 -10.34375 6.054688 -10.253906 6.453125 -10.078125 C 6.847656 -9.898438 7.191406 -9.644531 7.484375 -9.3125 C 7.503906 -9.289062 7.523438 -9.28125 7.546875 -9.28125 C 7.578125 -9.289062 7.59375 -9.316406 7.59375 -9.359375 Z M 7.09375 -2.578125 C 7.414062 -3.160156 7.578125 -4 7.578125 -5.09375 C 7.578125 -6.1875 7.40625 -7.039062 7.0625 -7.65625 C 6.675781 -8.34375 6.109375 -8.6875 5.359375 -8.6875 C 4.585938 -8.6875 3.992188 -8.363281 3.578125 -7.71875 C 3.148438 -7.050781 2.9375 -6.171875 2.9375 -5.078125 C 2.9375 -4.054688 3.101562 -3.226562 3.4375 -2.59375 C 3.820312 -1.863281 4.460938 -1.5 5.359375 -1.5 C 6.117188 -1.5 6.695312 -1.859375 7.09375 -2.578125 Z M 7.09375 -2.578125 "></path>
			</g>
		</g>
	</g>
	<g fill="rgb(9.01947%, 20.779419%, 54.508972%)" fill-opacity="1">
		<g transform="translate(54.032468, 193.874987)">
			<g>
				<path d="M 17.0625 0 L 16.171875 -11.25 L 16.046875 -11.25 L 12.171875 -0.109375 L 9.59375 -0.109375 L 5.703125 -11.25 L 5.59375 -11.25 L 4.6875 0 L 0.375 0 L 2.0625 -18.96875 L 6.671875 -18.96875 L 10.875 -8.03125 L 15.09375 -18.96875 L 19.6875 -18.96875 L 21.390625 0 Z M 17.0625 0 "></path>
			</g>
		</g>
	</g>
	<g fill="rgb(9.01947%, 20.779419%, 54.508972%)" fill-opacity="1">
		<g transform="translate(74.633145, 193.874987)">
			<g>
				<path d="M 13.3125 -5.34375 L 4.765625 -5.34375 C 4.765625 -4.507812 5.03125 -3.890625 5.5625 -3.484375 C 6.101562 -3.085938 6.6875 -2.890625 7.3125 -2.890625 C 7.96875 -2.890625 8.488281 -2.976562 8.875 -3.15625 C 9.257812 -3.332031 9.695312 -3.679688 10.1875 -4.203125 L 13.140625 -2.734375 C 11.910156 -0.679688 9.867188 0.34375 7.015625 0.34375 C 5.234375 0.34375 3.707031 -0.265625 2.4375 -1.484375 C 1.164062 -2.703125 0.53125 -4.171875 0.53125 -5.890625 C 0.53125 -7.609375 1.164062 -9.078125 2.4375 -10.296875 C 3.707031 -11.523438 5.234375 -12.140625 7.015625 -12.140625 C 8.890625 -12.140625 10.410156 -11.597656 11.578125 -10.515625 C 12.753906 -9.441406 13.34375 -7.898438 13.34375 -5.890625 C 13.34375 -5.609375 13.332031 -5.425781 13.3125 -5.34375 Z M 4.875 -7.59375 L 9.359375 -7.59375 C 9.265625 -8.207031 9.019531 -8.675781 8.625 -9 C 8.238281 -9.332031 7.738281 -9.5 7.125 -9.5 C 6.457031 -9.5 5.921875 -9.320312 5.515625 -8.96875 C 5.117188 -8.613281 4.90625 -8.15625 4.875 -7.59375 Z M 4.875 -7.59375 "></path>
			</g>
		</g>
	</g>
	<g fill="rgb(100%, 8.628845%, 8.628845%)" fill-opacity="1">
		<g transform="translate(87.337153, 193.874987)">
			<g>
				<path d="M 2.1875 -1.453125 C 1.082031 -2.660156 0.53125 -4.140625 0.53125 -5.890625 C 0.53125 -7.640625 1.082031 -9.117188 2.1875 -10.328125 C 3.289062 -11.535156 4.691406 -12.140625 6.390625 -12.140625 C 7.953125 -12.140625 9.242188 -11.648438 10.265625 -10.671875 L 10.265625 -19.78125 L 14.328125 -19.78125 L 14.328125 0 L 10.296875 0 L 10.296875 -1.328125 L 10.265625 -1.328125 C 9.242188 -0.210938 7.953125 0.34375 6.390625 0.34375 C 4.691406 0.34375 3.289062 -0.253906 2.1875 -1.453125 Z M 5.640625 -7.890625 C 5.117188 -7.367188 4.859375 -6.703125 4.859375 -5.890625 C 4.859375 -5.078125 5.109375 -4.410156 5.609375 -3.890625 C 6.117188 -3.378906 6.785156 -3.125 7.609375 -3.125 C 8.410156 -3.125 9.066406 -3.382812 9.578125 -3.90625 C 10.085938 -4.425781 10.34375 -5.085938 10.34375 -5.890625 C 10.34375 -6.703125 10.078125 -7.367188 9.546875 -7.890625 C 9.023438 -8.410156 8.378906 -8.671875 7.609375 -8.671875 C 6.828125 -8.671875 6.171875 -8.410156 5.640625 -7.890625 Z M 5.640625 -7.890625 "></path>
			</g>
		</g>
	</g>
	<g fill="rgb(100%, 8.628845%, 8.628845%)" fill-opacity="1">
		<g transform="translate(101.890864, 193.874987)">
			<g>
				<path d="M 1.375 0 L 1.375 -11.796875 L 5.453125 -11.796875 L 5.453125 -10.09375 L 5.5 -10.09375 C 5.53125 -10.15625 5.578125 -10.234375 5.640625 -10.328125 C 5.710938 -10.421875 5.863281 -10.582031 6.09375 -10.8125 C 6.320312 -11.039062 6.566406 -11.242188 6.828125 -11.421875 C 7.085938 -11.609375 7.425781 -11.773438 7.84375 -11.921875 C 8.257812 -12.066406 8.679688 -12.140625 9.109375 -12.140625 C 9.554688 -12.140625 9.992188 -12.078125 10.421875 -11.953125 C 10.847656 -11.835938 11.160156 -11.71875 11.359375 -11.59375 L 11.6875 -11.40625 L 9.984375 -7.953125 C 9.472656 -8.390625 8.765625 -8.609375 7.859375 -8.609375 C 7.367188 -8.609375 6.945312 -8.5 6.59375 -8.28125 C 6.25 -8.0625 6.003906 -7.796875 5.859375 -7.484375 C 5.710938 -7.179688 5.609375 -6.921875 5.546875 -6.703125 C 5.484375 -6.492188 5.453125 -6.328125 5.453125 -6.203125 L 5.453125 0 Z M 1.375 0 "></path>
			</g>
		</g>
	</g>
	<g fill="rgb(9.01947%, 20.779419%, 54.508972%)" fill-opacity="1">
		<g transform="translate(112.180902, 193.874987)">
			<g>
				<path d="M 1.765625 -18.375 C 2.242188 -18.851562 2.8125 -19.09375 3.46875 -19.09375 C 4.132812 -19.09375 4.703125 -18.851562 5.171875 -18.375 C 5.648438 -17.894531 5.890625 -17.328125 5.890625 -16.671875 C 5.890625 -16.015625 5.648438 -15.445312 5.171875 -14.96875 C 4.703125 -14.5 4.132812 -14.265625 3.46875 -14.265625 C 2.8125 -14.265625 2.242188 -14.5 1.765625 -14.96875 C 1.296875 -15.445312 1.0625 -16.015625 1.0625 -16.671875 C 1.0625 -17.328125 1.296875 -17.894531 1.765625 -18.375 Z M 1.375 -11.796875 L 1.375 0 L 5.453125 0 L 5.453125 -11.796875 Z M 1.375 -11.796875 "></path>
			</g>
		</g>
	</g>
	<g fill="rgb(9.01947%, 20.779419%, 54.508972%)" fill-opacity="1">
		<g transform="translate(117.974561, 193.874987)">
			<g>
				<path d="M 4.375 -11.796875 L 7.25 -5.375 L 10.125 -11.796875 L 14.953125 -11.796875 L 8.625 0 L 5.859375 0 L -0.453125 -11.796875 Z M 4.375 -11.796875 "></path>
			</g>
		</g>
	</g>
	<g fill="rgb(9.01947%, 20.779419%, 54.508972%)" fill-opacity="1">
		<g transform="translate(131.309682, 193.874987)">
			<g>
				<path d="M 2.5 -1.40625 C 1.1875 -2.570312 0.53125 -4.066406 0.53125 -5.890625 C 0.53125 -7.710938 1.210938 -9.207031 2.578125 -10.375 C 3.941406 -11.550781 5.628906 -12.140625 7.640625 -12.140625 C 9.617188 -12.140625 11.285156 -11.550781 12.640625 -10.375 C 13.992188 -9.195312 14.671875 -7.703125 14.671875 -5.890625 C 14.671875 -4.078125 14.003906 -2.582031 12.671875 -1.40625 C 11.347656 -0.238281 9.671875 0.34375 7.640625 0.34375 C 5.523438 0.34375 3.8125 -0.238281 2.5 -1.40625 Z M 5.640625 -7.890625 C 5.117188 -7.367188 4.859375 -6.703125 4.859375 -5.890625 C 4.859375 -5.078125 5.109375 -4.410156 5.609375 -3.890625 C 6.117188 -3.378906 6.785156 -3.125 7.609375 -3.125 C 8.410156 -3.125 9.066406 -3.382812 9.578125 -3.90625 C 10.085938 -4.425781 10.34375 -5.085938 10.34375 -5.890625 C 10.34375 -6.703125 10.078125 -7.367188 9.546875 -7.890625 C 9.023438 -8.410156 8.378906 -8.671875 7.609375 -8.671875 C 6.828125 -8.671875 6.171875 -8.410156 5.640625 -7.890625 Z M 5.640625 -7.890625 "></path>
			</g>
		</g>
	</g>
</svg>