<svg xmlns="http://www.w3.org/2000/svg" xmlns:xlink="http://www.w3.org/1999/xlink" zoomAndPan="magnify" preserveAspectRatio="xMidYMid meet" version="1.0" viewBox="30.92 146.94 301.85 24.5">
	<defs>
		<g>
			<g id="id1"></g>
			<g id="id2"></g>
		</g>
	</defs>
	<g fill="rgb(4.309082%, 19.999695%, 32.939148%)" fill-opacity="1">
		<g transform="translate(30.462844, 171.017977)">
			<g>
				<path d="M 20.78125 0 L 19.6875 -13.6875 L 19.546875 -13.6875 L 14.8125 -0.140625 L 11.671875 -0.140625 L 6.9375 -13.6875 L 6.796875 -13.6875 L 5.71875 0 L 0.453125 0 L 2.515625 -23.09375 L 8.125 -23.09375 L 13.25 -9.765625 L 18.375 -23.09375 L 23.96875 -23.09375 L 26.046875 0 Z M 20.78125 0 "></path>
			</g>
		</g>
	</g>
	<g fill="rgb(4.309082%, 19.999695%, 32.939148%)" fill-opacity="1">
		<g transform="translate(55.54723, 171.017977)">
			<g>
				<path d="M 16.21875 -6.5 L 5.796875 -6.5 C 5.796875 -5.488281 6.117188 -4.738281 6.765625 -4.25 C 7.421875 -3.769531 8.132812 -3.53125 8.90625 -3.53125 C 9.707031 -3.53125 10.34375 -3.632812 10.8125 -3.84375 C 11.28125 -4.0625 11.8125 -4.488281 12.40625 -5.125 L 15.984375 -3.328125 C 14.492188 -0.828125 12.015625 0.421875 8.546875 0.421875 C 6.378906 0.421875 4.519531 -0.316406 2.96875 -1.796875 C 1.414062 -3.285156 0.640625 -5.070312 0.640625 -7.15625 C 0.640625 -9.25 1.414062 -11.039062 2.96875 -12.53125 C 4.519531 -14.03125 6.378906 -14.78125 8.546875 -14.78125 C 10.816406 -14.78125 12.664062 -14.125 14.09375 -12.8125 C 15.519531 -11.5 16.234375 -9.617188 16.234375 -7.171875 C 16.234375 -6.828125 16.226562 -6.601562 16.21875 -6.5 Z M 5.9375 -9.234375 L 11.390625 -9.234375 C 11.285156 -9.984375 10.992188 -10.554688 10.515625 -10.953125 C 10.035156 -11.359375 9.425781 -11.5625 8.6875 -11.5625 C 7.863281 -11.5625 7.207031 -11.347656 6.71875 -10.921875 C 6.226562 -10.492188 5.96875 -9.929688 5.9375 -9.234375 Z M 5.9375 -9.234375 "></path>
			</g>
		</g>
	</g>
	<g fill="rgb(100%, 43.919373%, 0%)" fill-opacity="1">
		<g transform="translate(71.021435, 171.017977)">
			<g>
				<path d="M 2.65625 -1.765625 C 1.3125 -3.234375 0.640625 -5.03125 0.640625 -7.15625 C 0.640625 -9.289062 1.3125 -11.09375 2.65625 -12.5625 C 4 -14.039062 5.707031 -14.78125 7.78125 -14.78125 C 9.6875 -14.78125 11.253906 -14.179688 12.484375 -12.984375 L 12.484375 -24.078125 L 17.4375 -24.078125 L 17.4375 0 L 12.546875 0 L 12.546875 -1.625 L 12.484375 -1.625 C 11.253906 -0.257812 9.6875 0.421875 7.78125 0.421875 C 5.707031 0.421875 4 -0.304688 2.65625 -1.765625 Z M 6.875 -9.609375 C 6.226562 -8.972656 5.90625 -8.160156 5.90625 -7.171875 C 5.90625 -6.179688 6.210938 -5.375 6.828125 -4.75 C 7.441406 -4.125 8.253906 -3.8125 9.265625 -3.8125 C 10.234375 -3.8125 11.03125 -4.128906 11.65625 -4.765625 C 12.28125 -5.398438 12.59375 -6.203125 12.59375 -7.171875 C 12.59375 -8.160156 12.269531 -8.972656 11.625 -9.609375 C 10.988281 -10.242188 10.203125 -10.5625 9.265625 -10.5625 C 8.316406 -10.5625 7.519531 -10.242188 6.875 -9.609375 Z M 6.875 -9.609375 "></path>
			</g>
		</g>
	</g>
	<g fill="rgb(100%, 43.919373%, 0%)" fill-opacity="1">
		<g transform="translate(88.74283, 171.017977)">
			<g>
				<path d="M 1.6875 0 L 1.6875 -14.359375 L 6.640625 -14.359375 L 6.640625 -12.296875 L 6.6875 -12.296875 C 6.726562 -12.367188 6.789062 -12.457031 6.875 -12.5625 C 6.957031 -12.675781 7.140625 -12.875 7.421875 -13.15625 C 7.703125 -13.4375 8 -13.6875 8.3125 -13.90625 C 8.632812 -14.132812 9.046875 -14.335938 9.546875 -14.515625 C 10.046875 -14.691406 10.5625 -14.78125 11.09375 -14.78125 C 11.632812 -14.78125 12.164062 -14.707031 12.6875 -14.5625 C 13.207031 -14.414062 13.585938 -14.265625 13.828125 -14.109375 L 14.21875 -13.890625 L 12.15625 -9.6875 C 11.539062 -10.207031 10.679688 -10.46875 9.578125 -10.46875 C 8.984375 -10.46875 8.46875 -10.335938 8.03125 -10.078125 C 7.601562 -9.816406 7.300781 -9.5 7.125 -9.125 C 6.945312 -8.75 6.820312 -8.429688 6.75 -8.171875 C 6.675781 -7.910156 6.640625 -7.707031 6.640625 -7.5625 L 6.640625 0 Z M 1.6875 0 "></path>
			</g>
		</g>
	</g>
	<g fill="rgb(4.309082%, 19.999695%, 32.939148%)" fill-opacity="1">
		<g transform="translate(101.279245, 171.017977)">
			<g>
				<path d="M 2.15625 -22.359375 C 2.738281 -22.941406 3.429688 -23.234375 4.234375 -23.234375 C 5.035156 -23.234375 5.722656 -22.941406 6.296875 -22.359375 C 6.878906 -21.785156 7.171875 -21.097656 7.171875 -20.296875 C 7.171875 -19.492188 6.878906 -18.800781 6.296875 -18.21875 C 5.722656 -17.644531 5.035156 -17.359375 4.234375 -17.359375 C 3.429688 -17.359375 2.738281 -17.644531 2.15625 -18.21875 C 1.570312 -18.800781 1.28125 -19.492188 1.28125 -20.296875 C 1.28125 -21.097656 1.570312 -21.785156 2.15625 -22.359375 Z M 1.6875 -14.359375 L 1.6875 0 L 6.640625 0 L 6.640625 -14.359375 Z M 1.6875 -14.359375 "></path>
			</g>
		</g>
	</g>
	<g fill="rgb(4.309082%, 19.999695%, 32.939148%)" fill-opacity="1">
		<g transform="translate(108.334095, 171.017977)">
			<g>
				<path d="M 5.3125 -14.359375 L 8.8125 -6.546875 L 12.3125 -14.359375 L 18.203125 -14.359375 L 10.5 0 L 7.140625 0 L -0.5625 -14.359375 Z M 5.3125 -14.359375 "></path>
			</g>
		</g>
	</g>
	<g fill="rgb(4.309082%, 19.999695%, 32.939148%)" fill-opacity="1">
		<g transform="translate(124.571696, 171.017977)">
			<g>
				<path d="M 3.03125 -1.703125 C 1.4375 -3.128906 0.640625 -4.953125 0.640625 -7.171875 C 0.640625 -9.390625 1.46875 -11.210938 3.125 -12.640625 C 4.789062 -14.066406 6.847656 -14.78125 9.296875 -14.78125 C 11.703125 -14.78125 13.726562 -14.0625 15.375 -12.625 C 17.03125 -11.1875 17.859375 -9.363281 17.859375 -7.15625 C 17.859375 -4.957031 17.050781 -3.144531 15.4375 -1.71875 C 13.820312 -0.289062 11.773438 0.421875 9.296875 0.421875 C 6.722656 0.421875 4.632812 -0.285156 3.03125 -1.703125 Z M 6.875 -9.609375 C 6.226562 -8.972656 5.90625 -8.160156 5.90625 -7.171875 C 5.90625 -6.179688 6.210938 -5.375 6.828125 -4.75 C 7.441406 -4.125 8.253906 -3.8125 9.265625 -3.8125 C 10.234375 -3.8125 11.03125 -4.128906 11.65625 -4.765625 C 12.28125 -5.398438 12.59375 -6.203125 12.59375 -7.171875 C 12.59375 -8.160156 12.269531 -8.972656 11.625 -9.609375 C 10.988281 -10.242188 10.203125 -10.5625 9.265625 -10.5625 C 8.316406 -10.5625 7.519531 -10.242188 6.875 -9.609375 Z M 6.875 -9.609375 "></path>
			</g>
		</g>
	</g>
	<g fill="rgb(4.309082%, 19.999695%, 32.939148%)" fill-opacity="1">
		<g transform="translate(141.673774, 171.017977)">
			<g></g>
		</g>
	</g>
	<g fill="rgb(39.608765%, 63.139343%, 27.839661%)" fill-opacity="1">
		<g transform="translate(144.328267, 170.623611)">
			<g>
				<path d="M 12.796875 -10.21875 C 12.679688 -10.164062 12.671875 -10.109375 12.765625 -10.046875 C 14.722656 -9.171875 15.703125 -7.613281 15.703125 -5.375 C 15.703125 -3.65625 15.132812 -2.328125 14 -1.390625 C 12.863281 -0.460938 11.378906 0 9.546875 0 L 2.71875 0 C 2.582031 0 2.476562 -0.0351562 2.40625 -0.109375 C 2.332031 -0.179688 2.296875 -0.285156 2.296875 -0.421875 L 2.296875 -19.1875 C 2.296875 -19.3125 2.332031 -19.410156 2.40625 -19.484375 C 2.476562 -19.554688 2.582031 -19.59375 2.71875 -19.59375 L 9.328125 -19.59375 C 11.265625 -19.59375 12.769531 -19.148438 13.84375 -18.265625 C 14.914062 -17.378906 15.453125 -16.085938 15.453125 -14.390625 C 15.453125 -12.390625 14.566406 -11 12.796875 -10.21875 Z M 5.125 -17.28125 C 5.03125 -17.28125 4.984375 -17.234375 4.984375 -17.140625 L 4.984375 -11.28125 C 4.984375 -11.1875 5.03125 -11.140625 5.125 -11.140625 L 9.328125 -11.140625 C 10.410156 -11.140625 11.265625 -11.410156 11.890625 -11.953125 C 12.515625 -12.492188 12.828125 -13.234375 12.828125 -14.171875 C 12.828125 -15.117188 12.515625 -15.875 11.890625 -16.4375 C 11.265625 -17 10.410156 -17.28125 9.328125 -17.28125 Z M 9.546875 -2.359375 C 10.609375 -2.359375 11.453125 -2.648438 12.078125 -3.234375 C 12.703125 -3.816406 13.015625 -4.613281 13.015625 -5.625 C 13.015625 -6.632812 12.695312 -7.429688 12.0625 -8.015625 C 11.425781 -8.609375 10.5625 -8.90625 9.46875 -8.90625 L 5.125 -8.90625 C 5.03125 -8.90625 4.984375 -8.859375 4.984375 -8.765625 L 4.984375 -2.484375 C 4.984375 -2.398438 5.03125 -2.359375 5.125 -2.359375 Z M 9.546875 -2.359375 "></path>
			</g>
		</g>
	</g>
	<g fill="rgb(39.608765%, 63.139343%, 27.839661%)" fill-opacity="1">
		<g transform="translate(161.797889, 170.623611)">
			<g>
				<path d="M 3.53125 -16.375 C 2.988281 -16.375 2.546875 -16.535156 2.203125 -16.859375 C 1.859375 -17.191406 1.6875 -17.617188 1.6875 -18.140625 C 1.6875 -18.660156 1.859375 -19.082031 2.203125 -19.40625 C 2.546875 -19.738281 2.988281 -19.90625 3.53125 -19.90625 C 4.070312 -19.90625 4.507812 -19.738281 4.84375 -19.40625 C 5.175781 -19.082031 5.34375 -18.660156 5.34375 -18.140625 C 5.34375 -17.617188 5.175781 -17.191406 4.84375 -16.859375 C 4.507812 -16.535156 4.070312 -16.375 3.53125 -16.375 Z M 2.609375 0 C 2.472656 0 2.367188 -0.0351562 2.296875 -0.109375 C 2.222656 -0.179688 2.1875 -0.285156 2.1875 -0.421875 L 2.1875 -13.828125 C 2.1875 -13.960938 2.222656 -14.066406 2.296875 -14.140625 C 2.367188 -14.210938 2.472656 -14.25 2.609375 -14.25 L 4.453125 -14.25 C 4.578125 -14.25 4.675781 -14.210938 4.75 -14.140625 C 4.832031 -14.066406 4.875 -13.960938 4.875 -13.828125 L 4.875 -0.421875 C 4.875 -0.285156 4.832031 -0.179688 4.75 -0.109375 C 4.675781 -0.0351562 4.578125 0 4.453125 0 Z M 2.609375 0 "></path>
			</g>
		</g>
	</g>
	<g fill="rgb(39.608765%, 63.139343%, 27.839661%)" fill-opacity="1">
		<g transform="translate(168.824927, 170.623611)">
			<g>
				<path d="M 7.8125 0.21875 C 6.414062 0.21875 5.207031 -0.128906 4.1875 -0.828125 C 3.164062 -1.523438 2.453125 -2.5 2.046875 -3.75 C 1.710938 -4.757812 1.546875 -5.898438 1.546875 -7.171875 C 1.546875 -8.492188 1.703125 -9.613281 2.015625 -10.53125 C 2.421875 -11.757812 3.140625 -12.722656 4.171875 -13.421875 C 5.203125 -14.117188 6.425781 -14.46875 7.84375 -14.46875 C 9.1875 -14.46875 10.359375 -14.117188 11.359375 -13.421875 C 12.359375 -12.722656 13.070312 -11.769531 13.5 -10.5625 C 13.832031 -9.601562 14 -8.484375 14 -7.203125 C 14 -5.890625 13.832031 -4.738281 13.5 -3.75 C 13.082031 -2.5 12.367188 -1.523438 11.359375 -0.828125 C 10.359375 -0.128906 9.175781 0.21875 7.8125 0.21875 Z M 7.8125 -2.09375 C 8.5625 -2.09375 9.210938 -2.300781 9.765625 -2.71875 C 10.328125 -3.144531 10.726562 -3.742188 10.96875 -4.515625 C 11.175781 -5.222656 11.28125 -6.097656 11.28125 -7.140625 C 11.28125 -8.179688 11.1875 -9.050781 11 -9.75 C 10.757812 -10.507812 10.359375 -11.097656 9.796875 -11.515625 C 9.234375 -11.941406 8.550781 -12.15625 7.75 -12.15625 C 6.988281 -12.15625 6.328125 -11.941406 5.765625 -11.515625 C 5.203125 -11.097656 4.800781 -10.507812 4.5625 -9.75 C 4.351562 -9.09375 4.25 -8.222656 4.25 -7.140625 C 4.25 -6.054688 4.351562 -5.179688 4.5625 -4.515625 C 4.789062 -3.742188 5.1875 -3.144531 5.75 -2.71875 C 6.320312 -2.300781 7.007812 -2.09375 7.8125 -2.09375 Z M 7.8125 -2.09375 "></path>
			</g>
		</g>
	</g>
	<g fill="rgb(39.608765%, 63.139343%, 27.839661%)" fill-opacity="1">
		<g transform="translate(184.36281, 170.623611)">
			<g>
				<path d="M 8.59375 0.25 C 7.25 0.25 6.054688 -0.015625 5.015625 -0.546875 C 3.984375 -1.078125 3.179688 -1.832031 2.609375 -2.8125 C 2.046875 -3.789062 1.765625 -4.914062 1.765625 -6.1875 L 1.765625 -13.4375 C 1.765625 -14.707031 2.046875 -15.820312 2.609375 -16.78125 C 3.179688 -17.75 3.984375 -18.5 5.015625 -19.03125 C 6.054688 -19.5625 7.25 -19.828125 8.59375 -19.828125 C 9.9375 -19.828125 11.117188 -19.566406 12.140625 -19.046875 C 13.171875 -18.535156 13.972656 -17.8125 14.546875 -16.875 C 15.117188 -15.945312 15.40625 -14.867188 15.40625 -13.640625 C 15.40625 -13.453125 15.265625 -13.335938 14.984375 -13.296875 L 13.125 -13.1875 L 13.015625 -13.1875 C 12.921875 -13.1875 12.847656 -13.203125 12.796875 -13.234375 C 12.742188 -13.273438 12.71875 -13.316406 12.71875 -13.359375 L 12.71875 -13.53125 C 12.71875 -14.71875 12.34375 -15.675781 11.59375 -16.40625 C 10.84375 -17.132812 9.84375 -17.5 8.59375 -17.5 C 7.34375 -17.5 6.335938 -17.132812 5.578125 -16.40625 C 4.828125 -15.675781 4.453125 -14.71875 4.453125 -13.53125 L 4.453125 -6.078125 C 4.453125 -4.878906 4.828125 -3.914062 5.578125 -3.1875 C 6.335938 -2.457031 7.34375 -2.09375 8.59375 -2.09375 C 9.84375 -2.09375 10.84375 -2.457031 11.59375 -3.1875 C 12.34375 -3.914062 12.71875 -4.878906 12.71875 -6.078125 C 12.71875 -6.191406 12.753906 -6.273438 12.828125 -6.328125 C 12.898438 -6.378906 13 -6.398438 13.125 -6.390625 L 14.984375 -6.265625 C 15.265625 -6.234375 15.40625 -6.1875 15.40625 -6.125 L 15.40625 -5.984375 C 15.40625 -4.753906 15.117188 -3.664062 14.546875 -2.71875 C 13.972656 -1.78125 13.171875 -1.050781 12.140625 -0.53125 C 11.117188 -0.0078125 9.9375 0.25 8.59375 0.25 Z M 8.59375 0.25 "></path>
			</g>
		</g>
	</g>
	<g fill="rgb(39.608765%, 63.139343%, 27.839661%)" fill-opacity="1">
		<g transform="translate(201.356495, 170.623611)">
			<g>
				<path d="M 7.203125 -14.46875 C 8.335938 -14.46875 9.328125 -14.265625 10.171875 -13.859375 C 11.023438 -13.460938 11.679688 -12.90625 12.140625 -12.1875 C 12.597656 -11.46875 12.828125 -10.65625 12.828125 -9.75 L 12.828125 -0.421875 C 12.828125 -0.285156 12.785156 -0.179688 12.703125 -0.109375 C 12.628906 -0.0351562 12.53125 0 12.40625 0 L 10.5625 0 C 10.425781 0 10.320312 -0.0351562 10.25 -0.109375 C 10.175781 -0.179688 10.140625 -0.285156 10.140625 -0.421875 L 10.140625 -1.203125 C 10.140625 -1.253906 10.117188 -1.289062 10.078125 -1.3125 C 10.046875 -1.332031 10.007812 -1.320312 9.96875 -1.28125 C 9.445312 -0.800781 8.828125 -0.429688 8.109375 -0.171875 C 7.390625 0.0859375 6.609375 0.21875 5.765625 0.21875 C 4.398438 0.21875 3.28125 -0.128906 2.40625 -0.828125 C 1.53125 -1.523438 1.09375 -2.582031 1.09375 -4 C 1.09375 -5.457031 1.597656 -6.601562 2.609375 -7.4375 C 3.628906 -8.269531 5.054688 -8.6875 6.890625 -8.6875 L 10 -8.6875 C 10.09375 -8.6875 10.140625 -8.726562 10.140625 -8.8125 L 10.140625 -9.546875 C 10.140625 -10.367188 9.898438 -11.007812 9.421875 -11.46875 C 8.941406 -11.925781 8.21875 -12.15625 7.25 -12.15625 C 6.488281 -12.15625 5.867188 -12.015625 5.390625 -11.734375 C 4.910156 -11.453125 4.597656 -11.0625 4.453125 -10.5625 C 4.378906 -10.3125 4.21875 -10.195312 3.96875 -10.21875 L 1.953125 -10.46875 C 1.828125 -10.488281 1.726562 -10.53125 1.65625 -10.59375 C 1.582031 -10.664062 1.550781 -10.75 1.5625 -10.84375 C 1.726562 -11.90625 2.328125 -12.773438 3.359375 -13.453125 C 4.398438 -14.128906 5.679688 -14.46875 7.203125 -14.46875 Z M 6.4375 -2.046875 C 7.425781 -2.046875 8.289062 -2.304688 9.03125 -2.828125 C 9.769531 -3.347656 10.140625 -4.007812 10.140625 -4.8125 L 10.140625 -6.4375 C 10.140625 -6.53125 10.09375 -6.578125 10 -6.578125 L 7.390625 -6.578125 C 6.285156 -6.578125 5.40625 -6.363281 4.75 -5.9375 C 4.101562 -5.507812 3.78125 -4.910156 3.78125 -4.140625 C 3.78125 -3.453125 4.023438 -2.929688 4.515625 -2.578125 C 5.015625 -2.222656 5.65625 -2.046875 6.4375 -2.046875 Z M 6.4375 -2.046875 "></path>
			</g>
		</g>
	</g>
	<g fill="rgb(39.608765%, 63.139343%, 27.839661%)" fill-opacity="1">
		<g transform="translate(215.830524, 170.623611)">
			<g>
				<path d="M 8.203125 -14.390625 C 8.765625 -14.390625 9.269531 -14.285156 9.71875 -14.078125 C 9.925781 -13.972656 10 -13.796875 9.9375 -13.546875 L 9.546875 -11.734375 C 9.523438 -11.546875 9.429688 -11.453125 9.265625 -11.453125 C 9.171875 -11.453125 9.097656 -11.460938 9.046875 -11.484375 C 8.765625 -11.578125 8.445312 -11.625 8.09375 -11.625 C 7.90625 -11.625 7.765625 -11.613281 7.671875 -11.59375 C 6.796875 -11.550781 6.070312 -11.242188 5.5 -10.671875 C 4.925781 -10.109375 4.640625 -9.367188 4.640625 -8.453125 L 4.640625 -0.421875 C 4.640625 -0.285156 4.601562 -0.179688 4.53125 -0.109375 C 4.457031 -0.0351562 4.359375 0 4.234375 0 L 2.375 0 C 2.25 0 2.144531 -0.0351562 2.0625 -0.109375 C 1.988281 -0.179688 1.953125 -0.285156 1.953125 -0.421875 L 1.953125 -13.828125 C 1.953125 -13.960938 1.988281 -14.066406 2.0625 -14.140625 C 2.144531 -14.210938 2.25 -14.25 2.375 -14.25 L 4.234375 -14.25 C 4.359375 -14.25 4.457031 -14.210938 4.53125 -14.140625 C 4.601562 -14.066406 4.640625 -13.960938 4.640625 -13.828125 L 4.640625 -12.546875 C 4.640625 -12.472656 4.65625 -12.429688 4.6875 -12.421875 C 4.71875 -12.410156 4.75 -12.429688 4.78125 -12.484375 C 5.625 -13.753906 6.765625 -14.390625 8.203125 -14.390625 Z M 8.203125 -14.390625 "></path>
			</g>
		</g>
	</g>
	<g fill="rgb(39.608765%, 63.139343%, 27.839661%)" fill-opacity="1">
		<g transform="translate(226.217112, 170.623611)">
			<g>
				<path d="M 7.953125 -2.078125 C 9.460938 -2.085938 10.546875 -2.675781 11.203125 -3.84375 C 11.296875 -4.007812 11.398438 -4.09375 11.515625 -4.09375 C 11.597656 -4.09375 11.679688 -4.0625 11.765625 -4 L 12.90625 -3.296875 C 13.050781 -3.203125 13.125 -3.082031 13.125 -2.9375 L 13.078125 -2.71875 C 12.566406 -1.800781 11.847656 -1.082031 10.921875 -0.5625 C 10.003906 -0.0390625 8.929688 0.21875 7.703125 0.21875 C 6.378906 0.21875 5.257812 -0.0703125 4.34375 -0.65625 C 3.425781 -1.25 2.734375 -2.09375 2.265625 -3.1875 C 1.796875 -4.332031 1.5625 -5.671875 1.5625 -7.203125 C 1.5625 -8.554688 1.664062 -9.585938 1.875 -10.296875 C 2.207031 -11.585938 2.878906 -12.601562 3.890625 -13.34375 C 4.898438 -14.09375 6.125 -14.46875 7.5625 -14.46875 C 9.332031 -14.46875 10.679688 -14.003906 11.609375 -13.078125 C 12.546875 -12.160156 13.15625 -10.828125 13.4375 -9.078125 C 13.53125 -8.378906 13.597656 -7.535156 13.640625 -6.546875 C 13.640625 -6.265625 13.5 -6.125 13.21875 -6.125 L 4.375 -6.125 C 4.28125 -6.125 4.234375 -6.078125 4.234375 -5.984375 C 4.265625 -5.273438 4.328125 -4.773438 4.421875 -4.484375 C 4.628906 -3.734375 5.039062 -3.144531 5.65625 -2.71875 C 6.269531 -2.289062 7.035156 -2.078125 7.953125 -2.078125 Z M 7.5625 -12.15625 C 6.738281 -12.15625 6.066406 -11.957031 5.546875 -11.5625 C 5.035156 -11.164062 4.691406 -10.625 4.515625 -9.9375 C 4.378906 -9.53125 4.289062 -9.007812 4.25 -8.375 C 4.25 -8.28125 4.296875 -8.234375 4.390625 -8.234375 L 10.75 -8.234375 C 10.84375 -8.234375 10.890625 -8.28125 10.890625 -8.375 C 10.859375 -8.988281 10.800781 -9.445312 10.71875 -9.75 C 10.53125 -10.476562 10.160156 -11.0625 9.609375 -11.5 C 9.066406 -11.9375 8.382812 -12.15625 7.5625 -12.15625 Z M 7.5625 -12.15625 "></path>
			</g>
		</g>
	</g>
	<g fill="rgb(39.608765%, 63.139343%, 27.839661%)" fill-opacity="1">
		<g transform="translate(241.279058, 170.623611)">
			<g></g>
		</g>
	</g>
	<g fill="rgb(4.309082%, 19.999695%, 32.939148%)" fill-opacity="1">
		<g transform="translate(246.867323, 170.623611)">
			<g>
				<path d="M 9.96875 -19.625 C 11.101562 -19.625 12.101562 -19.382812 12.96875 -18.90625 C 13.84375 -18.4375 14.515625 -17.769531 14.984375 -16.90625 C 15.460938 -16.050781 15.703125 -15.0625 15.703125 -13.9375 C 15.703125 -12.820312 15.457031 -11.84375 14.96875 -11 C 14.488281 -10.164062 13.804688 -9.515625 12.921875 -9.046875 C 12.035156 -8.578125 11.015625 -8.34375 9.859375 -8.34375 L 4.953125 -8.34375 C 4.859375 -8.34375 4.8125 -8.296875 4.8125 -8.203125 L 4.8125 -0.421875 C 4.8125 -0.285156 4.773438 -0.179688 4.703125 -0.109375 C 4.628906 -0.0351562 4.523438 0 4.390625 0 L 2.546875 0 C 2.421875 0 2.316406 -0.0351562 2.234375 -0.109375 C 2.160156 -0.179688 2.125 -0.285156 2.125 -0.421875 L 2.125 -19.203125 C 2.125 -19.335938 2.160156 -19.441406 2.234375 -19.515625 C 2.316406 -19.585938 2.421875 -19.625 2.546875 -19.625 Z M 9.609375 -10.53125 C 10.628906 -10.53125 11.453125 -10.835938 12.078125 -11.453125 C 12.703125 -12.066406 13.015625 -12.878906 13.015625 -13.890625 C 13.015625 -14.910156 12.703125 -15.734375 12.078125 -16.359375 C 11.453125 -16.984375 10.628906 -17.296875 9.609375 -17.296875 L 4.953125 -17.296875 C 4.859375 -17.296875 4.8125 -17.253906 4.8125 -17.171875 L 4.8125 -10.671875 C 4.8125 -10.578125 4.859375 -10.53125 4.953125 -10.53125 Z M 9.609375 -10.53125 "></path>
			</g>
		</g>
	</g>
	<g fill="rgb(4.309082%, 19.999695%, 32.939148%)" fill-opacity="1">
		<g transform="translate(263.46906, 170.623611)">
			<g>
				<path d="M 5.828125 0 C 5.578125 0 5.414062 -0.113281 5.34375 -0.34375 L 0.875 -13.78125 C 0.851562 -13.8125 0.84375 -13.863281 0.84375 -13.9375 C 0.84375 -14.144531 0.960938 -14.25 1.203125 -14.25 L 3.28125 -14.25 C 3.382812 -14.25 3.484375 -14.21875 3.578125 -14.15625 C 3.671875 -14.09375 3.726562 -14.003906 3.75 -13.890625 L 6.796875 -3.859375 C 6.816406 -3.785156 6.84375 -3.753906 6.875 -3.765625 C 6.914062 -3.773438 6.945312 -3.816406 6.96875 -3.890625 L 10 -13.890625 C 10.019531 -14.003906 10.070312 -14.09375 10.15625 -14.15625 C 10.25 -14.21875 10.351562 -14.25 10.46875 -14.25 L 12.546875 -14.21875 C 12.691406 -14.21875 12.789062 -14.175781 12.84375 -14.09375 C 12.90625 -14.007812 12.914062 -13.894531 12.875 -13.75 L 8.421875 -0.34375 C 8.347656 -0.113281 8.191406 0 7.953125 0 Z M 5.828125 0 "></path>
			</g>
		</g>
	</g>
	<g fill="rgb(4.309082%, 19.999695%, 32.939148%)" fill-opacity="1">
		<g transform="translate(277.215187, 170.623611)">
			<g>
				<path d="M 8.984375 -12.453125 C 8.984375 -12.328125 8.945312 -12.226562 8.875 -12.15625 C 8.800781 -12.082031 8.695312 -12.046875 8.5625 -12.046875 L 5.71875 -12.046875 C 5.625 -12.046875 5.578125 -12 5.578125 -11.90625 L 5.578125 -4.59375 C 5.578125 -3.789062 5.75 -3.21875 6.09375 -2.875 C 6.4375 -2.539062 6.988281 -2.375 7.75 -2.375 L 8.421875 -2.375 C 8.554688 -2.375 8.660156 -2.335938 8.734375 -2.265625 C 8.804688 -2.191406 8.84375 -2.085938 8.84375 -1.953125 L 8.84375 -0.5 C 8.84375 -0.238281 8.703125 -0.09375 8.421875 -0.0625 L 7.28125 -0.03125 C 5.84375 -0.03125 4.769531 -0.28125 4.0625 -0.78125 C 3.351562 -1.289062 3 -2.234375 3 -3.609375 L 3 -11.90625 C 3 -12 2.953125 -12.046875 2.859375 -12.046875 L 1.3125 -12.046875 C 1.1875 -12.046875 1.082031 -12.082031 1 -12.15625 C 0.925781 -12.226562 0.890625 -12.328125 0.890625 -12.453125 L 0.890625 -13.828125 C 0.890625 -13.960938 0.925781 -14.066406 1 -14.140625 C 1.082031 -14.210938 1.1875 -14.25 1.3125 -14.25 L 2.859375 -14.25 C 2.953125 -14.25 3 -14.296875 3 -14.390625 L 3 -17.53125 C 3 -17.65625 3.035156 -17.753906 3.109375 -17.828125 C 3.179688 -17.910156 3.285156 -17.953125 3.421875 -17.953125 L 5.15625 -17.953125 C 5.28125 -17.953125 5.378906 -17.910156 5.453125 -17.828125 C 5.535156 -17.753906 5.578125 -17.65625 5.578125 -17.53125 L 5.578125 -14.390625 C 5.578125 -14.296875 5.625 -14.25 5.71875 -14.25 L 8.5625 -14.25 C 8.695312 -14.25 8.800781 -14.210938 8.875 -14.140625 C 8.945312 -14.066406 8.984375 -13.960938 8.984375 -13.828125 Z M 8.984375 -12.453125 "></path>
			</g>
		</g>
	</g>
	<g fill="rgb(4.309082%, 19.999695%, 32.939148%)" fill-opacity="1">
		<g transform="translate(287.54578, 170.623611)">
			<g></g>
		</g>
	</g>
	<g fill="rgb(4.309082%, 19.999695%, 32.939148%)" fill-opacity="1">
		<g transform="translate(293.145019, 170.623611)">
			<g>
				<path d="M 2.71875 0 C 2.582031 0 2.476562 -0.0351562 2.40625 -0.109375 C 2.332031 -0.179688 2.296875 -0.285156 2.296875 -0.421875 L 2.296875 -19.1875 C 2.296875 -19.3125 2.332031 -19.410156 2.40625 -19.484375 C 2.476562 -19.554688 2.582031 -19.59375 2.71875 -19.59375 L 4.5625 -19.59375 C 4.695312 -19.59375 4.800781 -19.554688 4.875 -19.484375 C 4.945312 -19.410156 4.984375 -19.3125 4.984375 -19.1875 L 4.984375 -2.46875 C 4.984375 -2.375 5.03125 -2.328125 5.125 -2.328125 L 14.609375 -2.328125 C 14.742188 -2.328125 14.847656 -2.285156 14.921875 -2.203125 C 14.992188 -2.128906 15.03125 -2.03125 15.03125 -1.90625 L 15.03125 -0.421875 C 15.03125 -0.285156 14.992188 -0.179688 14.921875 -0.109375 C 14.847656 -0.0351562 14.742188 0 14.609375 0 Z M 2.71875 0 "></path>
			</g>
		</g>
	</g>
	<g fill="rgb(4.309082%, 19.999695%, 32.939148%)" fill-opacity="1">
		<g transform="translate(309.102843, 170.623611)">
			<g>
				<path d="M 8.984375 -12.453125 C 8.984375 -12.328125 8.945312 -12.226562 8.875 -12.15625 C 8.800781 -12.082031 8.695312 -12.046875 8.5625 -12.046875 L 5.71875 -12.046875 C 5.625 -12.046875 5.578125 -12 5.578125 -11.90625 L 5.578125 -4.59375 C 5.578125 -3.789062 5.75 -3.21875 6.09375 -2.875 C 6.4375 -2.539062 6.988281 -2.375 7.75 -2.375 L 8.421875 -2.375 C 8.554688 -2.375 8.660156 -2.335938 8.734375 -2.265625 C 8.804688 -2.191406 8.84375 -2.085938 8.84375 -1.953125 L 8.84375 -0.5 C 8.84375 -0.238281 8.703125 -0.09375 8.421875 -0.0625 L 7.28125 -0.03125 C 5.84375 -0.03125 4.769531 -0.28125 4.0625 -0.78125 C 3.351562 -1.289062 3 -2.234375 3 -3.609375 L 3 -11.90625 C 3 -12 2.953125 -12.046875 2.859375 -12.046875 L 1.3125 -12.046875 C 1.1875 -12.046875 1.082031 -12.082031 1 -12.15625 C 0.925781 -12.226562 0.890625 -12.328125 0.890625 -12.453125 L 0.890625 -13.828125 C 0.890625 -13.960938 0.925781 -14.066406 1 -14.140625 C 1.082031 -14.210938 1.1875 -14.25 1.3125 -14.25 L 2.859375 -14.25 C 2.953125 -14.25 3 -14.296875 3 -14.390625 L 3 -17.53125 C 3 -17.65625 3.035156 -17.753906 3.109375 -17.828125 C 3.179688 -17.910156 3.285156 -17.953125 3.421875 -17.953125 L 5.15625 -17.953125 C 5.28125 -17.953125 5.378906 -17.910156 5.453125 -17.828125 C 5.535156 -17.753906 5.578125 -17.65625 5.578125 -17.53125 L 5.578125 -14.390625 C 5.578125 -14.296875 5.625 -14.25 5.71875 -14.25 L 8.5625 -14.25 C 8.695312 -14.25 8.800781 -14.210938 8.875 -14.140625 C 8.945312 -14.066406 8.984375 -13.960938 8.984375 -13.828125 Z M 8.984375 -12.453125 "></path>
			</g>
		</g>
	</g>
	<g fill="rgb(4.309082%, 19.999695%, 32.939148%)" fill-opacity="1">
		<g transform="translate(319.433435, 170.623611)">
			<g>
				<path d="M 10.640625 -19.1875 C 10.640625 -19.3125 10.675781 -19.410156 10.75 -19.484375 C 10.820312 -19.554688 10.925781 -19.59375 11.0625 -19.59375 L 12.90625 -19.59375 C 13.039062 -19.59375 13.144531 -19.554688 13.21875 -19.484375 C 13.289062 -19.410156 13.328125 -19.3125 13.328125 -19.1875 L 13.328125 -0.421875 C 13.328125 -0.285156 13.289062 -0.179688 13.21875 -0.109375 C 13.144531 -0.0351562 13.039062 0 12.90625 0 L 11.0625 0 C 10.925781 0 10.820312 -0.0351562 10.75 -0.109375 C 10.675781 -0.179688 10.640625 -0.285156 10.640625 -0.421875 L 10.640625 -1.140625 C 10.640625 -1.203125 10.617188 -1.238281 10.578125 -1.25 C 10.546875 -1.269531 10.507812 -1.265625 10.46875 -1.234375 C 10.0625 -0.765625 9.582031 -0.40625 9.03125 -0.15625 C 8.476562 0.09375 7.875 0.21875 7.21875 0.21875 C 5.875 0.21875 4.757812 -0.109375 3.875 -0.765625 C 2.988281 -1.429688 2.34375 -2.367188 1.9375 -3.578125 C 1.59375 -4.515625 1.421875 -5.710938 1.421875 -7.171875 C 1.421875 -8.535156 1.5625 -9.664062 1.84375 -10.5625 C 2.238281 -11.789062 2.890625 -12.75 3.796875 -13.4375 C 4.703125 -14.125 5.84375 -14.46875 7.21875 -14.46875 C 7.875 -14.46875 8.476562 -14.347656 9.03125 -14.109375 C 9.582031 -13.867188 10.0625 -13.515625 10.46875 -13.046875 C 10.507812 -13.003906 10.546875 -12.988281 10.578125 -13 C 10.617188 -13.007812 10.640625 -13.046875 10.640625 -13.109375 Z M 9.9375 -3.609375 C 10.382812 -4.429688 10.609375 -5.609375 10.609375 -7.140625 C 10.609375 -8.671875 10.367188 -9.863281 9.890625 -10.71875 C 9.347656 -11.675781 8.550781 -12.15625 7.5 -12.15625 C 6.414062 -12.15625 5.585938 -11.707031 5.015625 -10.8125 C 4.410156 -9.875 4.109375 -8.640625 4.109375 -7.109375 C 4.109375 -5.671875 4.34375 -4.515625 4.8125 -3.640625 C 5.351562 -2.609375 6.25 -2.09375 7.5 -2.09375 C 8.5625 -2.09375 9.375 -2.597656 9.9375 -3.609375 Z M 9.9375 -3.609375 "></path>
			</g>
		</g>
	</g>
</svg>