<svg xmlns="http://www.w3.org/2000/svg" xmlns:xlink="http://www.w3.org/1999/xlink" zoomAndPan="magnify" preserveAspectRatio="xMidYMid meet" version="1.0" viewBox="30.42 168.74 236.13 22.94">
	<defs>
		<g>
			<g id="id1"></g>
			<g id="id2"></g>
		</g>
	</defs>
	<g fill="rgb(7.449341%, 53.329468%, 3.138733%)" fill-opacity="1">
		<g transform="translate(141.039135, 191.01045)">
			<g>
				<path d="M 11.984375 -9.5625 C 11.878906 -9.507812 11.867188 -9.457031 11.953125 -9.40625 C 13.785156 -8.59375 14.703125 -7.132812 14.703125 -5.03125 C 14.703125 -3.425781 14.171875 -2.1875 13.109375 -1.3125 C 12.046875 -0.4375 10.65625 0 8.9375 0 L 2.546875 0 C 2.421875 0 2.320312 -0.03125 2.25 -0.09375 C 2.1875 -0.164062 2.15625 -0.265625 2.15625 -0.390625 L 2.15625 -17.953125 C 2.15625 -18.078125 2.1875 -18.175781 2.25 -18.25 C 2.320312 -18.320312 2.421875 -18.359375 2.546875 -18.359375 L 8.734375 -18.359375 C 10.546875 -18.359375 11.953125 -17.941406 12.953125 -17.109375 C 13.960938 -16.273438 14.46875 -15.0625 14.46875 -13.46875 C 14.46875 -11.601562 13.640625 -10.300781 11.984375 -9.5625 Z M 4.796875 -16.171875 C 4.710938 -16.171875 4.671875 -16.128906 4.671875 -16.046875 L 4.671875 -10.5625 C 4.671875 -10.476562 4.710938 -10.4375 4.796875 -10.4375 L 8.734375 -10.4375 C 9.742188 -10.4375 10.539062 -10.6875 11.125 -11.1875 C 11.71875 -11.695312 12.015625 -12.390625 12.015625 -13.265625 C 12.015625 -14.160156 11.71875 -14.867188 11.125 -15.390625 C 10.539062 -15.910156 9.742188 -16.171875 8.734375 -16.171875 Z M 8.9375 -2.203125 C 9.9375 -2.203125 10.726562 -2.476562 11.3125 -3.03125 C 11.894531 -3.582031 12.1875 -4.328125 12.1875 -5.265625 C 12.1875 -6.210938 11.890625 -6.960938 11.296875 -7.515625 C 10.703125 -8.066406 9.890625 -8.34375 8.859375 -8.34375 L 4.796875 -8.34375 C 4.710938 -8.34375 4.671875 -8.296875 4.671875 -8.203125 L 4.671875 -2.328125 C 4.671875 -2.242188 4.710938 -2.203125 4.796875 -2.203125 Z M 8.9375 -2.203125 "></path>
			</g>
		</g>
	</g>
	<g fill="rgb(7.449341%, 53.329468%, 3.138733%)" fill-opacity="1">
		<g transform="translate(157.39697, 191.01045)">
			<g>
				<path d="M 3.296875 -15.34375 C 2.796875 -15.34375 2.382812 -15.492188 2.0625 -15.796875 C 1.738281 -16.097656 1.578125 -16.492188 1.578125 -16.984375 C 1.578125 -17.472656 1.738281 -17.867188 2.0625 -18.171875 C 2.382812 -18.484375 2.796875 -18.640625 3.296875 -18.640625 C 3.804688 -18.640625 4.21875 -18.484375 4.53125 -18.171875 C 4.84375 -17.867188 5 -17.472656 5 -16.984375 C 5 -16.492188 4.84375 -16.097656 4.53125 -15.796875 C 4.21875 -15.492188 3.804688 -15.34375 3.296875 -15.34375 Z M 2.4375 0 C 2.3125 0 2.210938 -0.03125 2.140625 -0.09375 C 2.078125 -0.164062 2.046875 -0.265625 2.046875 -0.390625 L 2.046875 -12.953125 C 2.046875 -13.078125 2.078125 -13.171875 2.140625 -13.234375 C 2.210938 -13.304688 2.3125 -13.34375 2.4375 -13.34375 L 4.171875 -13.34375 C 4.296875 -13.34375 4.390625 -13.304688 4.453125 -13.234375 C 4.523438 -13.171875 4.5625 -13.078125 4.5625 -12.953125 L 4.5625 -0.390625 C 4.5625 -0.265625 4.523438 -0.164062 4.453125 -0.09375 C 4.390625 -0.03125 4.296875 0 4.171875 0 Z M 2.4375 0 "></path>
			</g>
		</g>
	</g>
	<g fill="rgb(7.449341%, 53.329468%, 3.138733%)" fill-opacity="1">
		<g transform="translate(163.976803, 191.01045)">
			<g>
				<path d="M 7.3125 0.203125 C 6 0.203125 4.863281 -0.117188 3.90625 -0.765625 C 2.957031 -1.421875 2.289062 -2.335938 1.90625 -3.515625 C 1.59375 -4.453125 1.4375 -5.519531 1.4375 -6.71875 C 1.4375 -7.957031 1.585938 -9.003906 1.890625 -9.859375 C 2.273438 -11.015625 2.945312 -11.921875 3.90625 -12.578125 C 4.863281 -13.234375 6.007812 -13.5625 7.34375 -13.5625 C 8.601562 -13.5625 9.695312 -13.234375 10.625 -12.578125 C 11.5625 -11.921875 12.234375 -11.023438 12.640625 -9.890625 C 12.953125 -8.992188 13.109375 -7.941406 13.109375 -6.734375 C 13.109375 -5.515625 12.953125 -4.441406 12.640625 -3.515625 C 12.253906 -2.335938 11.585938 -1.421875 10.640625 -0.765625 C 9.703125 -0.117188 8.59375 0.203125 7.3125 0.203125 Z M 7.3125 -1.96875 C 8.007812 -1.96875 8.617188 -2.160156 9.140625 -2.546875 C 9.671875 -2.941406 10.050781 -3.5 10.28125 -4.21875 C 10.46875 -4.882812 10.5625 -5.707031 10.5625 -6.6875 C 10.5625 -7.664062 10.472656 -8.476562 10.296875 -9.125 C 10.078125 -9.84375 9.703125 -10.394531 9.171875 -10.78125 C 8.648438 -11.175781 8.015625 -11.375 7.265625 -11.375 C 6.546875 -11.375 5.921875 -11.175781 5.390625 -10.78125 C 4.867188 -10.394531 4.5 -9.84375 4.28125 -9.125 C 4.082031 -8.507812 3.984375 -7.695312 3.984375 -6.6875 C 3.984375 -5.675781 4.082031 -4.851562 4.28125 -4.21875 C 4.488281 -3.5 4.859375 -2.941406 5.390625 -2.546875 C 5.921875 -2.160156 6.5625 -1.96875 7.3125 -1.96875 Z M 7.3125 -1.96875 "></path>
			</g>
		</g>
	</g>
	<g fill="rgb(7.449341%, 53.329468%, 3.138733%)" fill-opacity="1">
		<g transform="translate(178.525838, 191.01045)">
			<g>
				<path d="M 6.53125 0.15625 C 5.5 0.15625 4.582031 0 3.78125 -0.3125 C 2.988281 -0.625 2.375 -1.054688 1.9375 -1.609375 C 1.5 -2.160156 1.28125 -2.769531 1.28125 -3.4375 L 1.28125 -3.59375 C 1.28125 -3.71875 1.316406 -3.8125 1.390625 -3.875 C 1.460938 -3.945312 1.554688 -3.984375 1.671875 -3.984375 L 3.296875 -3.984375 C 3.421875 -3.984375 3.519531 -3.960938 3.59375 -3.921875 C 3.664062 -3.890625 3.703125 -3.847656 3.703125 -3.796875 L 3.703125 -3.59375 C 3.703125 -3.101562 3.96875 -2.671875 4.5 -2.296875 C 5.03125 -1.929688 5.695312 -1.75 6.5 -1.75 C 7.300781 -1.75 7.945312 -1.921875 8.4375 -2.265625 C 8.925781 -2.609375 9.171875 -3.039062 9.171875 -3.5625 C 9.171875 -4.070312 8.941406 -4.453125 8.484375 -4.703125 C 8.035156 -4.960938 7.304688 -5.226562 6.296875 -5.5 C 5.296875 -5.78125 4.457031 -6.066406 3.78125 -6.359375 C 3.113281 -6.648438 2.546875 -7.0625 2.078125 -7.59375 C 1.617188 -8.125 1.390625 -8.8125 1.390625 -9.65625 C 1.390625 -10.820312 1.847656 -11.75 2.765625 -12.4375 C 3.679688 -13.125 4.898438 -13.46875 6.421875 -13.46875 C 7.429688 -13.46875 8.328125 -13.304688 9.109375 -12.984375 C 9.890625 -12.660156 10.488281 -12.210938 10.90625 -11.640625 C 11.320312 -11.066406 11.53125 -10.421875 11.53125 -9.703125 C 11.53125 -9.597656 11.492188 -9.515625 11.421875 -9.453125 C 11.359375 -9.390625 11.265625 -9.359375 11.140625 -9.359375 L 9.5625 -9.359375 C 9.445312 -9.359375 9.351562 -9.375 9.28125 -9.40625 C 9.207031 -9.445312 9.171875 -9.492188 9.171875 -9.546875 L 9.171875 -9.703125 C 9.171875 -10.210938 8.921875 -10.632812 8.421875 -10.96875 C 7.929688 -11.3125 7.253906 -11.484375 6.390625 -11.484375 C 5.628906 -11.484375 5.003906 -11.332031 4.515625 -11.03125 C 4.035156 -10.738281 3.796875 -10.335938 3.796875 -9.828125 C 3.796875 -9.328125 4.023438 -8.941406 4.484375 -8.671875 C 4.953125 -8.410156 5.703125 -8.132812 6.734375 -7.84375 C 7.753906 -7.5625 8.597656 -7.285156 9.265625 -7.015625 C 9.941406 -6.742188 10.515625 -6.335938 10.984375 -5.796875 C 11.453125 -5.265625 11.6875 -4.570312 11.6875 -3.71875 C 11.6875 -2.53125 11.21875 -1.585938 10.28125 -0.890625 C 9.351562 -0.191406 8.101562 0.15625 6.53125 0.15625 Z M 6.53125 0.15625 "></path>
			</g>
		</g>
	</g>
	<g fill="rgb(7.449341%, 53.329468%, 3.138733%)" fill-opacity="1">
		<g transform="translate(191.318504, 191.01045)">
			<g>
				<path d="M 7.1875 0.203125 C 5.851562 0.203125 4.710938 -0.128906 3.765625 -0.796875 C 2.828125 -1.472656 2.179688 -2.390625 1.828125 -3.546875 C 1.566406 -4.347656 1.4375 -5.40625 1.4375 -6.71875 C 1.4375 -7.914062 1.566406 -8.972656 1.828125 -9.890625 C 2.179688 -11.003906 2.832031 -11.894531 3.78125 -12.5625 C 4.738281 -13.226562 5.875 -13.5625 7.1875 -13.5625 C 8.5 -13.5625 9.644531 -13.226562 10.625 -12.5625 C 11.601562 -11.894531 12.238281 -11.054688 12.53125 -10.046875 C 12.613281 -9.816406 12.675781 -9.570312 12.71875 -9.3125 L 12.71875 -9.25 C 12.71875 -9.039062 12.601562 -8.921875 12.375 -8.890625 L 10.671875 -8.65625 L 10.59375 -8.65625 C 10.394531 -8.65625 10.269531 -8.75 10.21875 -8.9375 L 10.140625 -9.28125 C 10.003906 -9.875 9.664062 -10.367188 9.125 -10.765625 C 8.582031 -11.171875 7.925781 -11.375 7.15625 -11.375 C 6.40625 -11.375 5.765625 -11.171875 5.234375 -10.765625 C 4.710938 -10.367188 4.375 -9.835938 4.21875 -9.171875 C 4.0625 -8.546875 3.984375 -7.71875 3.984375 -6.6875 C 3.984375 -5.675781 4.0625 -4.851562 4.21875 -4.21875 C 4.394531 -3.519531 4.738281 -2.96875 5.25 -2.5625 C 5.769531 -2.164062 6.40625 -1.96875 7.15625 -1.96875 C 7.90625 -1.96875 8.550781 -2.160156 9.09375 -2.546875 C 9.632812 -2.941406 9.984375 -3.445312 10.140625 -4.0625 L 10.171875 -4.171875 L 10.171875 -4.1875 C 10.191406 -4.28125 10.242188 -4.363281 10.328125 -4.4375 C 10.421875 -4.519531 10.519531 -4.550781 10.625 -4.53125 L 12.328125 -4.25 C 12.566406 -4.195312 12.675781 -4.054688 12.65625 -3.828125 C 12.644531 -3.753906 12.601562 -3.585938 12.53125 -3.328125 C 12.238281 -2.265625 11.601562 -1.410156 10.625 -0.765625 C 9.644531 -0.117188 8.5 0.203125 7.1875 0.203125 Z M 7.1875 0.203125 "></path>
			</g>
		</g>
	</g>
	<g fill="rgb(7.449341%, 53.329468%, 3.138733%)" fill-opacity="1">
		<g transform="translate(205.107318, 191.01045)">
			<g>
				<path d="M 3.296875 -15.34375 C 2.796875 -15.34375 2.382812 -15.492188 2.0625 -15.796875 C 1.738281 -16.097656 1.578125 -16.492188 1.578125 -16.984375 C 1.578125 -17.472656 1.738281 -17.867188 2.0625 -18.171875 C 2.382812 -18.484375 2.796875 -18.640625 3.296875 -18.640625 C 3.804688 -18.640625 4.21875 -18.484375 4.53125 -18.171875 C 4.84375 -17.867188 5 -17.472656 5 -16.984375 C 5 -16.492188 4.84375 -16.097656 4.53125 -15.796875 C 4.21875 -15.492188 3.804688 -15.34375 3.296875 -15.34375 Z M 2.4375 0 C 2.3125 0 2.210938 -0.03125 2.140625 -0.09375 C 2.078125 -0.164062 2.046875 -0.265625 2.046875 -0.390625 L 2.046875 -12.953125 C 2.046875 -13.078125 2.078125 -13.171875 2.140625 -13.234375 C 2.210938 -13.304688 2.3125 -13.34375 2.4375 -13.34375 L 4.171875 -13.34375 C 4.296875 -13.34375 4.390625 -13.304688 4.453125 -13.234375 C 4.523438 -13.171875 4.5625 -13.078125 4.5625 -12.953125 L 4.5625 -0.390625 C 4.5625 -0.265625 4.523438 -0.164062 4.453125 -0.09375 C 4.390625 -0.03125 4.296875 0 4.171875 0 Z M 2.4375 0 "></path>
			</g>
		</g>
	</g>
	<g fill="rgb(7.449341%, 53.329468%, 3.138733%)" fill-opacity="1">
		<g transform="translate(211.687151, 191.01045)">
			<g>
				<path d="M 7.453125 -1.9375 C 8.859375 -1.957031 9.867188 -2.507812 10.484375 -3.59375 C 10.578125 -3.75 10.675781 -3.828125 10.78125 -3.828125 C 10.863281 -3.828125 10.941406 -3.800781 11.015625 -3.75 L 12.09375 -3.09375 C 12.226562 -3.007812 12.296875 -2.894531 12.296875 -2.75 L 12.25 -2.546875 C 11.769531 -1.691406 11.097656 -1.019531 10.234375 -0.53125 C 9.367188 -0.0390625 8.359375 0.203125 7.203125 0.203125 C 5.960938 0.203125 4.914062 -0.0664062 4.0625 -0.609375 C 3.207031 -1.160156 2.5625 -1.953125 2.125 -2.984375 C 1.6875 -4.054688 1.46875 -5.304688 1.46875 -6.734375 C 1.46875 -8.015625 1.5625 -8.988281 1.75 -9.65625 C 2.070312 -10.851562 2.703125 -11.800781 3.640625 -12.5 C 4.585938 -13.207031 5.734375 -13.5625 7.078125 -13.5625 C 8.734375 -13.5625 10 -13.125 10.875 -12.25 C 11.75 -11.382812 12.316406 -10.132812 12.578125 -8.5 C 12.671875 -7.851562 12.734375 -7.066406 12.765625 -6.140625 C 12.765625 -5.867188 12.632812 -5.734375 12.375 -5.734375 L 4.09375 -5.734375 C 4 -5.734375 3.953125 -5.691406 3.953125 -5.609375 C 3.992188 -4.941406 4.054688 -4.46875 4.140625 -4.1875 C 4.335938 -3.488281 4.722656 -2.9375 5.296875 -2.53125 C 5.867188 -2.132812 6.585938 -1.9375 7.453125 -1.9375 Z M 7.078125 -11.375 C 6.304688 -11.375 5.679688 -11.191406 5.203125 -10.828125 C 4.722656 -10.460938 4.394531 -9.957031 4.21875 -9.3125 C 4.09375 -8.925781 4.015625 -8.4375 3.984375 -7.84375 C 3.984375 -7.75 4.023438 -7.703125 4.109375 -7.703125 L 10.0625 -7.703125 C 10.15625 -7.703125 10.203125 -7.75 10.203125 -7.84375 C 10.160156 -8.414062 10.109375 -8.84375 10.046875 -9.125 C 9.867188 -9.800781 9.519531 -10.34375 9 -10.75 C 8.488281 -11.164062 7.847656 -11.375 7.078125 -11.375 Z M 7.078125 -11.375 "></path>
			</g>
		</g>
	</g>
	<g fill="rgb(7.449341%, 53.329468%, 3.138733%)" fill-opacity="1">
		<g transform="translate(225.790543, 191.01045)">
			<g>
				<path d="M 7.78125 -13.53125 C 9.21875 -13.53125 10.351562 -13.113281 11.1875 -12.28125 C 12.03125 -11.445312 12.453125 -10.328125 12.453125 -8.921875 L 12.453125 -0.390625 C 12.453125 -0.265625 12.414062 -0.164062 12.34375 -0.09375 C 12.28125 -0.03125 12.1875 0 12.0625 0 L 10.328125 0 C 10.203125 0 10.101562 -0.03125 10.03125 -0.09375 C 9.96875 -0.164062 9.9375 -0.265625 9.9375 -0.390625 L 9.9375 -8.421875 C 9.9375 -9.296875 9.679688 -10.003906 9.171875 -10.546875 C 8.671875 -11.085938 8 -11.359375 7.15625 -11.359375 C 6.40625 -11.359375 5.769531 -11.132812 5.25 -10.6875 C 4.738281 -10.238281 4.441406 -9.640625 4.359375 -8.890625 L 4.359375 -0.390625 C 4.359375 -0.265625 4.320312 -0.164062 4.25 -0.09375 C 4.175781 -0.03125 4.078125 0 3.953125 0 L 2.234375 0 C 2.109375 0 2.007812 -0.03125 1.9375 -0.09375 C 1.863281 -0.164062 1.828125 -0.265625 1.828125 -0.390625 L 1.828125 -12.953125 C 1.828125 -13.078125 1.863281 -13.171875 1.9375 -13.234375 C 2.007812 -13.304688 2.109375 -13.34375 2.234375 -13.34375 L 3.953125 -13.34375 C 4.078125 -13.34375 4.175781 -13.304688 4.25 -13.234375 C 4.320312 -13.171875 4.359375 -13.078125 4.359375 -12.953125 L 4.359375 -12.21875 C 4.359375 -12.164062 4.375 -12.128906 4.40625 -12.109375 C 4.4375 -12.097656 4.460938 -12.109375 4.484375 -12.140625 C 5.210938 -13.066406 6.3125 -13.53125 7.78125 -13.53125 Z M 7.78125 -13.53125 "></path>
			</g>
		</g>
	</g>
	<g fill="rgb(7.449341%, 53.329468%, 3.138733%)" fill-opacity="1">
		<g transform="translate(239.998788, 191.01045)">
			<g>
				<path d="M 7.1875 0.203125 C 5.851562 0.203125 4.710938 -0.128906 3.765625 -0.796875 C 2.828125 -1.472656 2.179688 -2.390625 1.828125 -3.546875 C 1.566406 -4.347656 1.4375 -5.40625 1.4375 -6.71875 C 1.4375 -7.914062 1.566406 -8.972656 1.828125 -9.890625 C 2.179688 -11.003906 2.832031 -11.894531 3.78125 -12.5625 C 4.738281 -13.226562 5.875 -13.5625 7.1875 -13.5625 C 8.5 -13.5625 9.644531 -13.226562 10.625 -12.5625 C 11.601562 -11.894531 12.238281 -11.054688 12.53125 -10.046875 C 12.613281 -9.816406 12.675781 -9.570312 12.71875 -9.3125 L 12.71875 -9.25 C 12.71875 -9.039062 12.601562 -8.921875 12.375 -8.890625 L 10.671875 -8.65625 L 10.59375 -8.65625 C 10.394531 -8.65625 10.269531 -8.75 10.21875 -8.9375 L 10.140625 -9.28125 C 10.003906 -9.875 9.664062 -10.367188 9.125 -10.765625 C 8.582031 -11.171875 7.925781 -11.375 7.15625 -11.375 C 6.40625 -11.375 5.765625 -11.171875 5.234375 -10.765625 C 4.710938 -10.367188 4.375 -9.835938 4.21875 -9.171875 C 4.0625 -8.546875 3.984375 -7.71875 3.984375 -6.6875 C 3.984375 -5.675781 4.0625 -4.851562 4.21875 -4.21875 C 4.394531 -3.519531 4.738281 -2.96875 5.25 -2.5625 C 5.769531 -2.164062 6.40625 -1.96875 7.15625 -1.96875 C 7.90625 -1.96875 8.550781 -2.160156 9.09375 -2.546875 C 9.632812 -2.941406 9.984375 -3.445312 10.140625 -4.0625 L 10.171875 -4.171875 L 10.171875 -4.1875 C 10.191406 -4.28125 10.242188 -4.363281 10.328125 -4.4375 C 10.421875 -4.519531 10.519531 -4.550781 10.625 -4.53125 L 12.328125 -4.25 C 12.566406 -4.195312 12.675781 -4.054688 12.65625 -3.828125 C 12.644531 -3.753906 12.601562 -3.585938 12.53125 -3.328125 C 12.238281 -2.265625 11.601562 -1.410156 10.625 -0.765625 C 9.644531 -0.117188 8.5 0.203125 7.1875 0.203125 Z M 7.1875 0.203125 "></path>
			</g>
		</g>
	</g>
	<g fill="rgb(7.449341%, 53.329468%, 3.138733%)" fill-opacity="1">
		<g transform="translate(253.787602, 191.01045)">
			<g>
				<path d="M 7.453125 -1.9375 C 8.859375 -1.957031 9.867188 -2.507812 10.484375 -3.59375 C 10.578125 -3.75 10.675781 -3.828125 10.78125 -3.828125 C 10.863281 -3.828125 10.941406 -3.800781 11.015625 -3.75 L 12.09375 -3.09375 C 12.226562 -3.007812 12.296875 -2.894531 12.296875 -2.75 L 12.25 -2.546875 C 11.769531 -1.691406 11.097656 -1.019531 10.234375 -0.53125 C 9.367188 -0.0390625 8.359375 0.203125 7.203125 0.203125 C 5.960938 0.203125 4.914062 -0.0664062 4.0625 -0.609375 C 3.207031 -1.160156 2.5625 -1.953125 2.125 -2.984375 C 1.6875 -4.054688 1.46875 -5.304688 1.46875 -6.734375 C 1.46875 -8.015625 1.5625 -8.988281 1.75 -9.65625 C 2.070312 -10.851562 2.703125 -11.800781 3.640625 -12.5 C 4.585938 -13.207031 5.734375 -13.5625 7.078125 -13.5625 C 8.734375 -13.5625 10 -13.125 10.875 -12.25 C 11.75 -11.382812 12.316406 -10.132812 12.578125 -8.5 C 12.671875 -7.851562 12.734375 -7.066406 12.765625 -6.140625 C 12.765625 -5.867188 12.632812 -5.734375 12.375 -5.734375 L 4.09375 -5.734375 C 4 -5.734375 3.953125 -5.691406 3.953125 -5.609375 C 3.992188 -4.941406 4.054688 -4.46875 4.140625 -4.1875 C 4.335938 -3.488281 4.722656 -2.9375 5.296875 -2.53125 C 5.867188 -2.132812 6.585938 -1.9375 7.453125 -1.9375 Z M 7.078125 -11.375 C 6.304688 -11.375 5.679688 -11.191406 5.203125 -10.828125 C 4.722656 -10.460938 4.394531 -9.957031 4.21875 -9.3125 C 4.09375 -8.925781 4.015625 -8.4375 3.984375 -7.84375 C 3.984375 -7.75 4.023438 -7.703125 4.109375 -7.703125 L 10.0625 -7.703125 C 10.15625 -7.703125 10.203125 -7.75 10.203125 -7.84375 C 10.160156 -8.414062 10.109375 -8.84375 10.046875 -9.125 C 9.867188 -9.800781 9.519531 -10.34375 9 -10.75 C 8.488281 -11.164062 7.847656 -11.375 7.078125 -11.375 Z M 7.078125 -11.375 "></path>
			</g>
		</g>
	</g>
	<g fill="rgb(9.01947%, 20.779419%, 54.508972%)" fill-opacity="1">
		<g transform="translate(30.000004, 191.284732)">
			<g>
				<path d="M 19.453125 0 L 18.4375 -12.828125 L 18.296875 -12.828125 L 13.875 -0.125 L 10.9375 -0.125 L 6.5 -12.828125 L 6.375 -12.828125 L 5.34375 0 L 0.421875 0 L 2.359375 -21.625 L 7.609375 -21.625 L 12.40625 -9.15625 L 17.203125 -21.625 L 22.4375 -21.625 L 24.390625 0 Z M 19.453125 0 "></path>
			</g>
		</g>
	</g>
	<g fill="rgb(9.01947%, 20.779419%, 54.508972%)" fill-opacity="1">
		<g transform="translate(53.487828, 191.284732)">
			<g>
				<path d="M 15.1875 -6.078125 L 5.421875 -6.078125 C 5.421875 -5.140625 5.726562 -4.441406 6.34375 -3.984375 C 6.957031 -3.523438 7.625 -3.296875 8.34375 -3.296875 C 9.09375 -3.296875 9.6875 -3.394531 10.125 -3.59375 C 10.5625 -3.800781 11.054688 -4.203125 11.609375 -4.796875 L 14.96875 -3.125 C 13.570312 -0.78125 11.25 0.390625 8 0.390625 C 5.96875 0.390625 4.226562 -0.300781 2.78125 -1.6875 C 1.332031 -3.082031 0.609375 -4.757812 0.609375 -6.71875 C 0.609375 -8.675781 1.332031 -10.351562 2.78125 -11.75 C 4.226562 -13.144531 5.96875 -13.84375 8 -13.84375 C 10.132812 -13.84375 11.867188 -13.222656 13.203125 -11.984375 C 14.535156 -10.753906 15.203125 -9 15.203125 -6.71875 C 15.203125 -6.394531 15.195312 -6.179688 15.1875 -6.078125 Z M 5.5625 -8.65625 L 10.671875 -8.65625 C 10.566406 -9.351562 10.289062 -9.890625 9.84375 -10.265625 C 9.394531 -10.640625 8.820312 -10.828125 8.125 -10.828125 C 7.351562 -10.828125 6.738281 -10.625 6.28125 -10.21875 C 5.832031 -9.820312 5.59375 -9.300781 5.5625 -8.65625 Z M 5.5625 -8.65625 "></path>
			</g>
		</g>
	</g>
	<g fill="rgb(100%, 8.628845%, 8.628845%)" fill-opacity="1">
		<g transform="translate(67.976047, 191.284732)">
			<g>
				<path d="M 2.484375 -1.65625 C 1.234375 -3.03125 0.609375 -4.710938 0.609375 -6.703125 C 0.609375 -8.703125 1.234375 -10.390625 2.484375 -11.765625 C 3.742188 -13.148438 5.34375 -13.84375 7.28125 -13.84375 C 9.070312 -13.84375 10.539062 -13.285156 11.6875 -12.171875 L 11.6875 -22.546875 L 16.328125 -22.546875 L 16.328125 0 L 11.75 0 L 11.75 -1.515625 L 11.6875 -1.515625 C 10.539062 -0.242188 9.070312 0.390625 7.28125 0.390625 C 5.34375 0.390625 3.742188 -0.289062 2.484375 -1.65625 Z M 6.4375 -9 C 5.832031 -8.40625 5.53125 -7.644531 5.53125 -6.71875 C 5.53125 -5.789062 5.816406 -5.03125 6.390625 -4.4375 C 6.972656 -3.851562 7.734375 -3.5625 8.671875 -3.5625 C 9.585938 -3.5625 10.335938 -3.859375 10.921875 -4.453125 C 11.503906 -5.046875 11.796875 -5.800781 11.796875 -6.71875 C 11.796875 -7.644531 11.492188 -8.40625 10.890625 -9 C 10.285156 -9.59375 9.546875 -9.890625 8.671875 -9.890625 C 7.785156 -9.890625 7.039062 -9.59375 6.4375 -9 Z M 6.4375 -9 "></path>
			</g>
		</g>
	</g>
	<g fill="rgb(100%, 8.628845%, 8.628845%)" fill-opacity="1">
		<g transform="translate(84.569459, 191.284732)">
			<g>
				<path d="M 1.578125 0 L 1.578125 -13.453125 L 6.21875 -13.453125 L 6.21875 -11.515625 L 6.265625 -11.515625 C 6.296875 -11.578125 6.347656 -11.660156 6.421875 -11.765625 C 6.503906 -11.867188 6.675781 -12.050781 6.9375 -12.3125 C 7.207031 -12.582031 7.488281 -12.820312 7.78125 -13.03125 C 8.082031 -13.238281 8.46875 -13.425781 8.9375 -13.59375 C 9.414062 -13.757812 9.894531 -13.84375 10.375 -13.84375 C 10.882812 -13.84375 11.382812 -13.769531 11.875 -13.625 C 12.363281 -13.488281 12.722656 -13.351562 12.953125 -13.21875 L 13.3125 -13 L 11.375 -9.078125 C 10.800781 -9.566406 10 -9.8125 8.96875 -9.8125 C 8.40625 -9.8125 7.921875 -9.6875 7.515625 -9.4375 C 7.117188 -9.195312 6.835938 -8.898438 6.671875 -8.546875 C 6.503906 -8.191406 6.382812 -7.890625 6.3125 -7.640625 C 6.25 -7.398438 6.21875 -7.210938 6.21875 -7.078125 L 6.21875 0 Z M 1.578125 0 "></path>
			</g>
		</g>
	</g>
	<g fill="rgb(9.01947%, 20.779419%, 54.508972%)" fill-opacity="1">
		<g transform="translate(96.309736, 191.284732)">
			<g>
				<path d="M 2.015625 -20.953125 C 2.554688 -21.492188 3.203125 -21.765625 3.953125 -21.765625 C 4.710938 -21.765625 5.363281 -21.492188 5.90625 -20.953125 C 6.445312 -20.410156 6.71875 -19.757812 6.71875 -19 C 6.71875 -18.25 6.445312 -17.601562 5.90625 -17.0625 C 5.363281 -16.519531 4.710938 -16.25 3.953125 -16.25 C 3.203125 -16.25 2.554688 -16.519531 2.015625 -17.0625 C 1.472656 -17.601562 1.203125 -18.25 1.203125 -19 C 1.203125 -19.757812 1.472656 -20.410156 2.015625 -20.953125 Z M 1.578125 -13.453125 L 1.578125 0 L 6.21875 0 L 6.21875 -13.453125 Z M 1.578125 -13.453125 "></path>
			</g>
		</g>
	</g>
	<g fill="rgb(9.01947%, 20.779419%, 54.508972%)" fill-opacity="1">
		<g transform="translate(102.915431, 191.284732)">
			<g>
				<path d="M 4.984375 -13.453125 L 8.265625 -6.140625 L 11.53125 -13.453125 L 17.046875 -13.453125 L 9.828125 0 L 6.6875 0 L -0.53125 -13.453125 Z M 4.984375 -13.453125 "></path>
			</g>
		</g>
	</g>
	<g fill="rgb(9.01947%, 20.779419%, 54.508972%)" fill-opacity="1">
		<g transform="translate(118.119475, 191.284732)">
			<g>
				<path d="M 2.84375 -1.59375 C 1.351562 -2.925781 0.609375 -4.628906 0.609375 -6.703125 C 0.609375 -8.785156 1.382812 -10.492188 2.9375 -11.828125 C 4.488281 -13.171875 6.410156 -13.84375 8.703125 -13.84375 C 10.960938 -13.84375 12.863281 -13.171875 14.40625 -11.828125 C 15.957031 -10.484375 16.734375 -8.78125 16.734375 -6.71875 C 16.734375 -4.65625 15.972656 -2.953125 14.453125 -1.609375 C 12.941406 -0.273438 11.023438 0.390625 8.703125 0.390625 C 6.296875 0.390625 4.34375 -0.269531 2.84375 -1.59375 Z M 6.4375 -9 C 5.832031 -8.40625 5.53125 -7.644531 5.53125 -6.71875 C 5.53125 -5.789062 5.816406 -5.03125 6.390625 -4.4375 C 6.972656 -3.851562 7.734375 -3.5625 8.671875 -3.5625 C 9.585938 -3.5625 10.335938 -3.859375 10.921875 -4.453125 C 11.503906 -5.046875 11.796875 -5.800781 11.796875 -6.71875 C 11.796875 -7.644531 11.492188 -8.40625 10.890625 -9 C 10.285156 -9.59375 9.546875 -9.890625 8.671875 -9.890625 C 7.785156 -9.890625 7.039062 -9.59375 6.4375 -9 Z M 6.4375 -9 "></path>
			</g>
		</g>
	</g>
</svg>